<svg width="94" height="94" viewBox="0 0 94 94" fill="none" xmlns="http://www.w3.org/2000/svg">
<path d="M93.24 46.62C93.24 55.13 90.96 63.11 86.97 69.98C86.82 70.24 86.66 70.5 86.5 70.76C86.13 71.38 85.74 72 85.33 72.6C85.16 72.85 84.99 73.1 84.8 73.35C78.72 82.06 69.72 88.56 59.24 91.51C59.02 91.57 58.79 91.63 58.57 91.69C54.76 92.7 50.75 93.24 46.62 93.24C30.51 93.24 16.3 85.07 7.95 72.64C7.16 71.49 6.42999 70.29 5.75999 69.07C2.08999 62.41 0 54.76 0 46.62C0 20.87 20.87 0 46.62 0C72.37 0 93.24 20.87 93.24 46.62Z" fill="#F3F0DD"/>
<path d="M81.4692 56.1332C81.6292 79.9332 57.9392 75.9332 57.9392 75.9332L35.5092 67.0632C35.5092 67.0632 13.0392 55.1832 27.7692 41.4332C27.7692 41.4332 22.6192 18.3032 40.8592 13.6632C40.9392 13.6332 41.0192 13.6132 41.0992 13.5932C41.6992 13.4532 42.2792 13.3332 42.8392 13.2532C59.7292 10.6332 61.1792 33.3632 61.1792 33.3632C61.1792 33.3632 81.3392 37.0932 81.4692 56.1332Z" fill="black"/>
<path d="M84.8002 73.3537C78.7202 82.0637 69.7202 88.5637 59.2402 91.5137C59.0202 91.5737 58.7902 91.6337 58.5702 91.6937C54.7602 92.7037 50.7502 93.2437 46.6202 93.2437C44.6902 93.2437 42.7902 93.1237 40.9202 92.9037C39.3502 92.7037 37.8002 92.4337 36.2802 92.0937C24.5202 89.4337 14.4602 82.3337 7.9502 72.6437C14.2102 64.0837 22.0602 57.6037 27.4002 55.3037C35.3002 51.9037 47.8302 49.6237 59.4002 52.9337C59.4302 52.9437 59.4702 52.9437 59.5102 52.9537C62.9902 53.9537 66.3702 55.4537 69.5202 57.5837C76.3302 62.1837 81.2902 67.5237 84.8002 73.3537Z" fill="#6876AA"/>
<path d="M38.1128 44.7995L38.1148 45.0705L38.3428 50.1735L38.5048 54.1745C38.5048 54.1745 39.1928 55.7795 43.8508 55.4775C50.0938 55.0485 51.0758 51.6925 51.0758 51.6925L51.3418 42.3125L49.4498 42.6735L38.1128 44.7995Z" fill="#F48462"/>
<path d="M38.1152 45.0723L38.3432 50.1753C41.3762 49.8073 46.8972 48.4933 49.1282 43.7223C49.2992 43.3343 49.4132 42.9853 49.4502 42.6953L38.1352 44.9953L38.1152 45.0723Z" fill="black"/>
<path d="M36.1361 20.6479C36.1361 20.6479 30.3311 33.9349 32.4221 41.3999C34.5141 48.8649 41.3151 47.6899 45.3841 46.2469C49.4531 44.8039 51.3421 42.3089 51.3421 42.3089C51.3421 42.3089 55.1431 43.5979 57.6851 40.0629C60.2271 36.5279 58.6621 32.4689 56.4921 31.5389C54.3221 30.6089 51.7411 32.1759 51.7411 32.1759L53.7641 28.3149C53.7641 28.3149 45.2531 8.68986 36.1361 20.6479Z" fill="#F48462"/>
<path d="M37.9378 18.6792C37.9378 18.6792 37.5178 25.7492 44.6288 28.9612C51.7408 32.1732 56.4918 31.5372 56.4918 31.5372L56.0298 22.3172L46.3738 14.0352L39.1688 15.1842L37.9378 18.6792Z" fill="black"/>
<path d="M51.2598 30.1367L51.2868 34.1627L54.8668 30.6307L51.2598 30.1367Z" fill="black"/>
<path d="M86.4988 70.7584C86.1288 71.3784 85.7388 71.9984 85.3288 72.5984C85.1588 72.8484 84.9888 73.0984 84.7988 73.3484C78.7188 82.0584 69.7188 88.5584 59.2388 91.5084C59.0188 91.5684 58.7888 91.6284 58.5688 91.6884L59.2088 52.8984C59.2088 52.8984 59.2788 52.9084 59.3988 52.9284C59.4288 52.9384 59.4689 52.9384 59.5089 52.9484C61.8089 53.3384 76.8788 56.3184 84.9688 68.1784C85.5188 68.9684 86.0188 69.8384 86.4988 70.7584Z" fill="#6876AA"/>
<path d="M34.4851 25.5235C34.2721 25.5235 34.0751 25.3865 34.0081 25.1725C33.9261 24.9085 34.0731 24.6285 34.3361 24.5465L36.9841 23.7185C37.2471 23.6355 37.5281 23.7825 37.6111 24.0465C37.6931 24.3105 37.5471 24.5905 37.2831 24.6725L34.6351 25.5005C34.5851 25.5165 34.5351 25.5235 34.4851 25.5235Z" fill="black"/>
<path d="M52.0119 38.3995C51.8769 38.3995 51.7419 38.3455 51.6439 38.2375C51.4569 38.0345 51.4699 37.7175 51.6729 37.5315L55.7689 33.7615C55.9719 33.5735 56.2889 33.5875 56.4759 33.7905C56.6619 33.9935 56.6499 34.3105 56.4459 34.4965L52.3499 38.2665C52.2549 38.3565 52.1339 38.3995 52.0119 38.3995Z" fill="black"/>
<path d="M56.1619 37.9048C56.0949 37.9048 56.0269 37.8908 55.9609 37.8628L53.5159 36.7898C53.2639 36.6788 53.1479 36.3838 53.2589 36.1308C53.3699 35.8788 53.6639 35.7638 53.9179 35.8738L56.3629 36.9468C56.6149 37.0578 56.7309 37.3528 56.6199 37.6058C56.5379 37.7928 56.3539 37.9048 56.1619 37.9048Z" fill="black"/>
<path d="M35.3041 32.2244C35.2701 32.2244 35.2361 32.2204 35.2021 32.2144C34.9311 32.1584 34.7581 31.8934 34.8141 31.6234L35.3001 29.2824L34.3471 28.1834C34.1661 27.9754 34.1881 27.6584 34.3971 27.4784C34.6061 27.2964 34.9221 27.3194 35.1021 27.5284L36.2181 28.8144C36.3211 28.9324 36.3621 29.0904 36.3301 29.2434L35.7941 31.8264C35.7441 32.0624 35.5361 32.2244 35.3041 32.2244Z" fill="black"/>
<path d="M43.315 32.6347C43.281 32.6347 43.247 32.6317 43.213 32.6247C42.942 32.5687 42.769 32.3037 42.825 32.0337L43.31 29.6927L42.357 28.5937C42.176 28.3857 42.199 28.0697 42.407 27.8877C42.616 27.7077 42.931 27.7287 43.113 27.9377L44.228 29.2237C44.33 29.3417 44.371 29.4997 44.34 29.6527L43.804 32.2357C43.755 32.4717 43.547 32.6347 43.315 32.6347Z" fill="black"/>
<path d="M36.8878 38.0596C36.6558 38.0596 36.4488 37.8976 36.3988 37.6626C35.5068 33.4026 37.5728 31.2546 37.6608 31.1646C37.8548 30.9676 38.1708 30.9656 38.3678 31.1606C38.5638 31.3546 38.5658 31.6696 38.3728 31.8666C38.2888 31.9546 36.6048 33.7656 37.3768 37.4566C37.4338 37.7276 37.2598 37.9916 36.9898 38.0486C36.9568 38.0566 36.9218 38.0596 36.8878 38.0596Z" fill="black"/>
<path d="M41.2058 42.1462C40.9188 42.1462 40.2328 42.0132 38.8108 40.4402C38.6408 40.2522 38.5808 39.9982 38.6468 39.7602C38.7168 39.5132 38.9118 39.3192 39.1698 39.2422C42.5888 38.2192 43.0428 38.5592 43.2598 38.7242C43.4338 38.8552 43.6978 39.1712 43.5048 39.8202C43.2728 40.6002 42.2048 42.0822 41.2928 42.1432C41.2688 42.1442 41.2398 42.1462 41.2058 42.1462ZM39.8478 40.0852C40.5868 40.8492 41.0778 41.1432 41.2268 41.1442C41.5788 41.0962 42.4398 40.0132 42.5588 39.5162C42.2768 39.5202 41.4538 39.6252 39.8478 40.0852Z" fill="black"/>
<path d="M24.0358 70.5389C23.9848 70.5979 19.2088 75.7189 20.1148 84.9259C19.8278 84.7409 19.5508 84.5459 19.2748 84.3419C19.1958 84.2909 19.1268 84.2289 19.0478 84.1679C18.4608 75.0269 23.2568 69.9159 23.3178 69.8469C23.5108 69.6499 23.8208 69.6459 24.0278 69.8289C24.2238 70.0219 24.2288 70.3429 24.0358 70.5389Z" fill="#92B4EA"/>
<path d="M44.4698 56.3242L40.9198 92.9042C39.3498 92.7042 37.7998 92.4342 36.2798 92.0942L41.1398 57.1642L44.4698 56.3242Z" fill="#92B4EA"/>
<path d="M38.4212 52.1029C38.4212 52.1029 33.6802 62.5949 34.8152 62.4309C35.9492 62.2669 42.9362 56.5859 42.9362 56.5859C42.9362 56.5859 47.5102 63.0139 49.1052 63.1329C50.7002 63.2519 51.2212 51.6289 51.2212 51.6289C51.2212 51.6289 50.0142 54.9159 44.0592 55.4729C38.1042 56.0299 38.4212 52.1029 38.4212 52.1029Z" fill="#E6F4FF"/>
</svg>
