<svg width="94" height="94" viewBox="0 0 94 94" fill="none" xmlns="http://www.w3.org/2000/svg">
<path d="M93.24 46.62C93.24 51.49 92.5 56.19 91.11 60.6C89.28 66.42 86.34 71.75 82.53 76.33C81.94 77.06 81.32 77.76 80.68 78.45C80.58 78.57 80.48 78.68 80.37 78.79L80.25 78.91C80.15 79.02 80.04 79.13 79.94 79.23C78.6 80.59 77.18 81.88 75.68 83.08C75.31 83.37 74.94 83.66 74.56 83.94C74.18 84.23 73.79 84.51 73.4 84.78C73 85.06 72.61 85.33 72.21 85.59C71.81 85.85 71.4 86.11 70.99 86.36C70.83 86.46 70.66 86.56 70.5 86.66C70.29 86.79 70.07 86.92 69.85 87.04C69.76 87.09 69.68 87.14 69.59 87.19C69.31 87.35 69.03 87.5 68.75 87.65C68.37 87.86 67.98 88.07 67.59 88.26C67.31 88.4 67.03 88.54 66.74 88.68C66.57 88.76 66.4 88.85 66.22 88.92C65.95 89.05 65.68 89.18 65.4 89.29C65.01 89.47 64.62 89.64 64.22 89.8C63.94 89.91 63.67 90.03 63.39 90.13C63.07 90.25 62.76 90.37 62.44 90.48C62.32 90.53 62.2 90.57 62.08 90.61C61.68 90.75 61.28 90.89 60.87 91.02C60.52 91.14 60.16 91.25 59.8 91.34C59.51 91.44 59.22 91.52 58.93 91.6C58.85 91.62 58.77 91.64 58.7 91.66C58.26 91.78 57.82 91.89 57.38 91.99C55.96 92.33 54.51 92.6 53.05 92.8C52.53 92.87 52 92.94 51.47 92.99C50.94 93.05 50.4 93.09 49.87 93.13C48.79 93.2 47.71 93.24 46.62 93.24C44.84 93.24 43.07 93.14 41.34 92.95C41.1 92.93 40.87 92.9 40.64 92.87C40.62 92.86 40.61 92.86 40.59 92.86C38.38 92.57 36.22 92.13 34.12 91.54C31.65 90.86 29.26 89.97 26.98 88.91C26.63 88.75 26.28 88.58 25.93 88.41C23.68 87.3 21.54 86.01 19.53 84.56C17.51 83.12 15.61 81.52 13.85 79.77C13.12 79.05 12.42 78.31 11.75 77.54C10.65 76.32 9.64 75.04 8.69 73.71C8.31 73.17 7.93001 72.63 7.57001 72.07C6.67001 70.71 5.85 69.3 5.11 67.85C1.84 61.48 0 54.27 0 46.62C0 20.87 20.87 0 46.62 0C72.37 0 93.24 20.87 93.24 46.62Z" fill="#F3F0DD"/>
<path d="M36.5602 27.3049C36.5602 27.3049 20.6412 33.3929 19.8292 51.4109C18.6552 77.4529 49.8652 71.4159 49.8652 71.4159C49.8652 71.4159 67.5422 73.2499 72.4312 60.2189C77.3212 47.1879 61.6042 39.3219 61.6042 39.3219C61.6042 39.3219 42.5482 22.5399 36.5602 27.3049Z" fill="black"/>
<path d="M82.53 76.3295C78.5 65.5195 67.03 49.0795 47.91 49.7795C46.61 49.8295 45.35 49.9495 44.14 50.1295C44.1 50.1395 44.06 50.1495 44.02 50.1495C27.11 52.7995 15.92 67.9295 11.75 77.5395C12.42 78.3095 13.12 79.0495 13.85 79.7695C15.61 81.5195 17.51 83.1195 19.53 84.5595C21.54 86.0095 23.68 87.2995 25.93 88.4095C26.28 88.5795 26.63 88.7495 26.98 88.9095C29.26 89.9695 31.65 90.8595 34.12 91.5395C36.22 92.1295 38.38 92.5695 40.59 92.8595C40.61 92.8595 40.62 92.8595 40.64 92.8695C40.87 92.8995 41.1 92.9295 41.33 92.9495C43.07 93.1395 44.84 93.2395 46.62 93.2395C47.71 93.2395 48.79 93.1995 49.87 93.1295C50.4 93.0895 50.94 93.0495 51.47 92.9895C52 92.9395 52.53 92.8695 53.05 92.7995C54.51 92.5995 55.96 92.3295 57.38 91.9895C57.82 91.8895 58.26 91.7795 58.7 91.6595C58.77 91.6395 58.85 91.6195 58.93 91.5995C59.22 91.5195 59.51 91.4395 59.8 91.3395C60.16 91.2495 60.52 91.1395 60.87 91.0195C61.28 90.8895 61.68 90.7495 62.08 90.6095C62.2 90.5695 62.32 90.5295 62.44 90.4795C62.76 90.3695 63.07 90.2495 63.39 90.1295C63.67 90.0295 63.94 89.9095 64.22 89.7995C64.62 89.6395 65.01 89.4695 65.4 89.2895C65.68 89.1795 65.95 89.0495 66.22 88.9195C66.4 88.8495 66.57 88.7595 66.74 88.6795C67.03 88.5395 67.31 88.3995 67.59 88.2595C67.98 88.0695 68.37 87.8595 68.75 87.6495C69.03 87.4995 69.31 87.3495 69.59 87.1895C69.68 87.1395 69.76 87.0895 69.85 87.0395C70.07 86.9195 70.29 86.7895 70.5 86.6595C70.66 86.5595 70.83 86.4595 70.99 86.3595C71.4 86.1095 71.81 85.8495 72.21 85.5895C72.61 85.3295 73 85.0595 73.4 84.7795C73.79 84.5095 74.18 84.2295 74.56 83.9395C74.94 83.6595 75.31 83.3695 75.68 83.0795C77.18 81.8795 78.6 80.5895 79.94 79.2295L82.53 76.3295Z" fill="#68B6D8"/>
<path d="M70.5001 86.6572C63.5201 90.8372 55.3501 93.2372 46.6201 93.2372C44.8401 93.2372 43.0701 93.1372 41.3401 92.9472C41.1001 92.9272 40.8701 92.8972 40.6401 92.8672C40.6201 92.8572 40.6101 92.8572 40.5901 92.8572C38.3801 92.5672 36.2201 92.1272 34.1201 91.5372C31.6501 90.8572 29.2601 89.9672 26.9801 88.9072C26.6301 88.7472 26.2801 88.5772 25.9301 88.4072C23.6801 87.2972 21.5401 86.0072 19.5301 84.5572C19.4401 77.6872 19.3901 72.2672 19.3901 72.2672L37.1501 59.0872L45.8701 52.6172C45.9801 52.6172 46.0901 52.6172 46.2001 52.6272C51.0001 52.7272 55.0501 53.7072 58.2401 54.8872C58.7501 55.0872 59.2401 55.2772 59.7101 55.4772C64.1401 57.3572 66.5401 59.4672 66.5401 59.4672C66.5401 59.4672 68.6201 73.2472 70.5001 86.6572Z" fill="#68B6D8"/>
<path d="M43.7349 43.3281L44.1029 53.1761C44.1029 53.1761 45.9479 56.2001 52.1059 56.4701C56.6929 56.6711 58.3229 55.3671 58.3229 55.3671L57.6099 50.8541L56.7879 45.6941L45.6109 43.6691L43.7349 43.3281Z" fill="#F48462"/>
<path d="M43.7349 42.8281C43.7719 43.1141 43.8939 43.4481 44.0779 43.8291C46.6219 48.9841 54.9599 50.7171 57.6099 50.8551L56.7879 45.6951L43.7349 42.8281Z" fill="black"/>
<path d="M58.235 21.686C58.235 21.686 64.234 34.639 62.336 42.03C60.438 49.422 53.719 48.412 49.683 47.079C45.647 45.746 43.7339 43.331 43.7339 43.331C43.7339 43.331 40.021 44.681 37.442 41.257C34.864 37.833 36.317 33.804 38.433 32.842C40.549 31.88 43.123 33.367 43.123 33.367L41.0489 29.61C41.0489 29.61 49.005 10.112 58.235 21.686Z" fill="#F48462"/>
<path d="M60.1719 27.0658C60.1479 27.0658 60.123 27.0638 60.098 27.0608L57.5369 26.6808C57.2639 26.6398 57.0749 26.3858 57.1159 26.1128C57.1569 25.8398 57.4109 25.6568 57.6839 25.6918L60.2449 26.0718C60.5179 26.1128 60.7069 26.3668 60.6659 26.6398C60.6289 26.8878 60.4149 27.0658 60.1719 27.0658Z" fill="black"/>
<path d="M50.6198 28.1262C50.4248 28.1262 50.2398 28.0112 50.1588 27.8202C50.0518 27.5652 50.1718 27.2722 50.4258 27.1652L53.3978 25.9172C53.6528 25.8122 53.9458 25.9302 54.0528 26.1842C54.1598 26.4392 54.0398 26.7322 53.7858 26.8392L50.8138 28.0882C50.7508 28.1132 50.6848 28.1262 50.6198 28.1262Z" fill="black"/>
<path d="M58.1559 37.6908C58.1389 37.6908 58.1219 37.6898 58.1049 37.6888C57.8299 37.6608 57.6299 37.4158 57.6579 37.1408C58.0689 33.0978 56.3929 31.0628 56.3759 31.0428C56.1979 30.8318 56.2229 30.5178 56.4329 30.3388C56.6419 30.1598 56.9559 30.1838 57.1359 30.3918C57.2169 30.4858 59.1099 32.7408 58.6539 37.2418C58.6269 37.4988 58.4089 37.6908 58.1559 37.6908Z" fill="black"/>
<path d="M54.0718 42.0679C53.8738 42.0679 53.6678 42.0409 53.4548 41.9809C51.8018 41.5079 51.6158 39.6119 51.6088 39.5319C51.5948 39.3699 51.6598 39.2119 51.7838 39.1069C51.9078 39.0019 52.0758 38.9629 52.2328 39.0049L56.1158 40.0109C56.2778 40.0529 56.4078 40.1729 56.4628 40.3309C56.5178 40.4889 56.4898 40.6639 56.3888 40.7969C56.3428 40.8549 55.4038 42.0679 54.0718 42.0679ZM52.8188 40.1889C52.9798 40.5279 53.2568 40.8839 53.7298 41.0189C54.2038 41.1569 54.6468 40.9749 54.9808 40.7489L52.8188 40.1889Z" fill="black"/>
<path d="M43.141 38.7686C43.072 38.7686 43.0019 38.7546 42.9349 38.7236L37.662 36.3266C37.411 36.2126 37.3 35.9156 37.414 35.6646C37.528 35.4146 37.823 35.3006 38.076 35.4166L43.3489 37.8136C43.5999 37.9276 43.711 38.2246 43.597 38.4756C43.513 38.6596 43.332 38.7686 43.141 38.7686Z" fill="black"/>
<path d="M38.4441 39.9855C38.3151 39.9855 38.1861 39.9365 38.0881 39.8375C37.8941 39.6415 37.8961 39.3245 38.0921 39.1305L40.4171 36.8325C40.6141 36.6375 40.9301 36.6395 41.1241 36.8365C41.3181 37.0325 41.3161 37.3495 41.1201 37.5435L38.7951 39.8415C38.6971 39.9375 38.5701 39.9855 38.4441 39.9855Z" fill="black"/>
<path d="M50.6198 23.0852C50.6198 23.0852 53.6228 22.6562 56.7558 24.4392C59.8888 26.2222 60.5328 27.9602 60.5328 27.9602C60.5328 27.9602 62.4708 23.3562 58.2228 19.2942C53.9748 15.2322 45.8258 14.1062 41.1278 18.9122C36.4298 23.7182 36.7178 27.9602 36.7178 27.9602L43.1238 33.3642C43.1238 33.3642 53.0168 31.5702 50.6198 23.0852Z" fill="black"/>
<path d="M39.9852 20.2063C39.9852 20.2063 33.9412 8.72732 27.8142 13.5783C21.6882 18.4293 28.5102 28.2193 34.5952 28.9333C40.6812 29.6473 39.9852 20.2063 39.9852 20.2063Z" fill="black"/>
<path d="M41.3401 92.9498C41.1001 92.9298 40.8701 92.8998 40.6401 92.8698C40.6201 92.8598 40.6101 92.8598 40.5901 92.8598C38.3801 92.5698 36.2201 92.1298 34.1201 91.5398L37.1501 59.0898L37.2501 58.0598L43.7361 54.7978L42.5681 51.9648C42.5681 51.9648 49.4501 79.0098 41.3401 92.9498Z" fill="#68B6D8"/>
<path d="M70.9899 86.3574C70.8299 86.4574 70.6599 86.5574 70.4999 86.6574C70.2899 86.7874 70.0699 86.9174 69.8499 87.0374C72.0199 75.7074 67.5799 69.2174 67.5299 69.1474C67.3699 68.9174 67.4099 68.5874 67.6299 68.4174C67.8599 68.2474 68.1699 68.2974 68.3299 68.5274C68.5299 68.8074 72.8699 75.1074 70.9899 86.3574Z" fill="#F7B369"/>
<path d="M52.668 56.971C46.99 56.971 43.777 53.56 43.734 53.514C43.548 53.311 43.562 52.995 43.764 52.808C43.968 52.621 44.284 52.634 44.47 52.837C44.681 53.065 49.746 58.392 58.699 54.683C58.953 54.579 59.247 54.698 59.352 54.954C59.458 55.209 59.337 55.501 59.081 55.607C56.692 56.598 54.545 56.971 52.668 56.971Z" fill="#F7B369"/>
<path d="M44.446 42.8282C44.446 43.8662 43.605 44.7072 42.567 44.7072C41.529 44.7072 40.688 43.8662 40.688 42.8282C40.688 41.7902 41.529 40.9492 42.567 40.9492C43.605 40.9482 44.446 41.7902 44.446 42.8282Z" fill="#E6F4FF"/>
<path d="M52.1069 33.5157C51.8309 33.5157 51.6069 33.2917 51.6069 33.0157V30.7167C51.6069 30.5857 51.6589 30.4597 51.7509 30.3657L52.7689 29.3327C52.9629 29.1357 53.2789 29.1337 53.4769 29.3277C53.6729 29.5217 53.6759 29.8387 53.4819 30.0357L52.6079 30.9227V33.0167C52.6069 33.2927 52.3829 33.5157 52.1069 33.5157Z" fill="black"/>
<path d="M59.6621 33.5161C59.3861 33.5161 59.1621 33.2921 59.1621 33.0161V30.7171C59.1621 30.5861 59.2141 30.4601 59.3061 30.3661L60.3241 29.3331C60.5171 29.1361 60.8331 29.1331 61.0311 29.3281C61.2281 29.5221 61.2301 29.8381 61.0361 30.0351L60.1621 30.9221V33.0161C60.1621 33.2931 59.9391 33.5161 59.6621 33.5161Z" fill="black"/>
</svg>
