<svg width="94" height="94" viewBox="0 0 94 94" fill="none" xmlns="http://www.w3.org/2000/svg">
<path d="M93.24 46.62C93.24 55.52 90.74 63.84 86.42 70.92C85.67 72.15 84.86 73.33 84.01 74.48C83.38 75.32 82.73 76.13 82.04 76.92C80.25 79.02 78.27 80.95 76.14 82.71C75.44 83.28 74.72 83.84 73.98 84.37C73.58 84.67 73.17 84.96 72.75 85.24C72.03 85.72 71.3 86.19 70.55 86.63C70.41 86.73 70.26 86.81 70.11 86.9C69.96 86.99 69.8 87.08 69.64 87.17C68.16 88.02 66.61 88.78 65.03 89.46C61.7 90.9 58.16 91.95 54.48 92.57C54.07 92.65 53.67 92.71 53.26 92.77C52.22 92.92 51.17 93.03 50.11 93.11C50 93.12 49.89 93.13 49.78 93.13C49.05 93.18 48.3 93.21 47.55 93.22C47.24 93.24 46.93 93.24 46.62 93.24C42.86 93.24 39.19 92.79 35.69 91.95C32.84 91.27 30.1 90.32 27.48 89.12C25.4 88.2 23.4 87.11 21.49 85.89C20.78 85.44 20.08 84.96 19.39 84.46C18.58 83.88 17.79 83.27 17.02 82.62C15.01 80.98 13.14 79.16 11.43 77.19C11.05 76.75 10.68 76.31 10.32 75.86C9.93 75.38 9.55 74.89 9.18 74.39C9.02 74.18 8.87 73.98 8.72 73.77C7.49 72.06 6.38 70.26 5.39 68.38C4.99 67.64 4.62 66.88 4.27 66.12C1.52 60.18 0 53.57 0 46.62C0 20.87 20.87 0 46.62 0C72.37 0 93.24 20.87 93.24 46.62Z" fill="#F3F0DD"/>
<path d="M73.981 84.3701C73.581 84.6701 73.171 84.9601 72.751 85.2401C71.891 85.8201 71.011 86.3801 70.111 86.9001C65.031 89.8701 59.341 91.9001 53.261 92.7701C52.971 92.8101 52.681 92.8501 52.381 92.8801C50.831 93.0801 49.251 93.1901 47.641 93.2201H47.551C47.241 93.2401 46.931 93.2401 46.621 93.2401C42.861 93.2401 39.191 92.7901 35.691 91.9501C30.581 90.7201 25.791 88.6501 21.491 85.8901C19.931 84.9001 18.441 83.8101 17.021 82.6201C15.011 80.9801 13.141 79.1601 11.431 77.1901C11.051 76.7501 10.681 76.3101 10.321 75.8601C9.731 67.8701 17.251 60.1701 18.591 58.6001C22.901 53.5001 35.021 50.6601 46.921 51.0001C46.921 51.0001 63.131 50.9401 69.881 58.1501C72.85 61.3201 73.84 72.6201 73.981 84.3701Z" fill="#92B4EA"/>
<path d="M20.0011 57.2266L19.3911 84.4616C18.5811 83.8816 17.7911 83.2716 17.0211 82.6216C15.0111 80.9816 13.1411 79.1616 11.4311 77.1916C11.0511 76.7516 10.6811 76.3116 10.3211 75.8616C9.93111 75.3816 9.55111 74.8916 9.18111 74.3916C9.02111 74.1816 8.87111 73.9816 8.72111 73.7716C7.49111 72.0616 6.38111 70.2616 5.39111 68.3816C11.3451 62.6726 20.0011 57.2266 20.0011 57.2266Z" fill="#92B4EA"/>
<path d="M82.0402 76.9216C80.2502 79.0216 78.2702 80.9516 76.1402 82.7116C75.4402 83.2816 74.7202 83.8416 73.9802 84.3716C73.5802 84.6716 73.1702 84.9616 72.7502 85.2416C72.5602 85.3716 72.3602 85.5016 72.1702 85.6216C71.9302 85.7816 71.6902 85.9416 71.4502 86.0816C71.0102 86.3716 70.5602 86.6416 70.1102 86.9016C68.4802 87.8616 66.7802 88.7116 65.0302 89.4616L59.2402 84.6916L70.2802 58.6016L82.0402 76.9216Z" fill="#92B4EA"/>
<path d="M38.0339 42.5664L37.2749 51.9204C37.2749 51.9204 37.9119 54.7574 44.0319 55.7574C48.5909 56.5034 51.0789 53.7514 51.0789 53.7514L51.0009 51.7324L50.7919 46.4804L39.8659 43.1304L38.0339 42.5664Z" fill="#F48462"/>
<path d="M39.8672 43.1289C39.8702 43.4189 39.9522 43.7669 40.0912 44.1699C42.0212 49.6219 48.3712 51.2789 51.0022 51.7309L50.7932 46.4789L39.8672 43.1289Z" fill="black"/>
<path d="M55.0891 22.6655C55.0891 22.6655 59.5441 36.3175 56.7701 43.4765C53.9961 50.6355 47.4031 48.8285 43.5301 47.0175C39.6561 45.2065 38.0321 42.5665 38.0321 42.5665C38.0321 42.5665 34.1621 43.4745 31.9931 39.7475C29.8241 36.0205 31.7541 32.1685 33.9831 31.4585C36.2111 30.7485 38.6061 32.5395 38.6061 32.5395L36.9801 28.5395C36.9801 28.5395 47.2421 10.0075 55.0891 22.6655Z" fill="#F48462"/>
<path d="M52.917 39.3317C52.852 39.3317 52.785 39.3187 52.721 39.2917C52.467 39.1837 52.349 38.8897 52.457 38.6357C53.433 36.3467 51.921 33.5837 51.906 33.5557C51.772 33.3147 51.858 33.0107 52.099 32.8757C52.34 32.7417 52.644 32.8277 52.779 33.0677C52.852 33.1977 54.548 36.2817 53.377 39.0277C53.296 39.2177 53.111 39.3317 52.917 39.3317Z" fill="black"/>
<path d="M37.4579 38.6012C37.3379 38.6012 37.2199 38.5472 37.1419 38.4452L33.9759 34.3092C33.8419 34.1352 33.8749 33.8852 34.0499 33.7512C34.2239 33.6152 34.4739 33.6502 34.6079 33.8252L37.7739 37.9612C37.9079 38.1352 37.8739 38.3852 37.6999 38.5192C37.6269 38.5752 37.5419 38.6012 37.4579 38.6012Z" fill="black"/>
<path d="M33.7979 37.204C33.5869 37.204 33.4109 37.038 33.4009 36.825C33.3899 36.605 33.5599 36.419 33.7789 36.409L36.2769 36.291C36.5079 36.268 36.6839 36.45 36.6939 36.67C36.7049 36.89 36.5349 37.076 36.3159 37.086L33.8179 37.204C33.8099 37.204 33.8039 37.204 33.7979 37.204Z" fill="black"/>
<path d="M47.4922 33.8345C47.2212 33.8345 46.9982 33.6185 46.9922 33.3465L46.9332 30.8755C46.9272 30.5995 47.1452 30.3705 47.4212 30.3635C47.6962 30.3545 47.9262 30.5755 47.9332 30.8515L47.9922 33.3225C47.9982 33.5985 47.7802 33.8275 47.5042 33.8345C47.5002 33.8345 47.4962 33.8345 47.4922 33.8345Z" fill="black"/>
<path d="M54.792 34.0064C54.526 34.0064 54.305 33.7964 54.293 33.5274L54.187 31.0574C54.175 30.7814 54.389 30.5484 54.665 30.5364C54.942 30.5164 55.174 30.7384 55.186 31.0144L55.292 33.4844C55.304 33.7604 55.09 33.9934 54.814 34.0054C54.806 34.0064 54.799 34.0064 54.792 34.0064Z" fill="black"/>
<path d="M46.2851 29.2011C46.1871 29.2011 46.0881 29.1721 46.0011 29.1121C45.7741 28.9551 45.7171 28.6431 45.8751 28.4161C47.0211 26.7641 49.1961 27.5191 49.2891 27.5521C49.5491 27.6451 49.6831 27.9301 49.5911 28.1891C49.4991 28.4491 49.2151 28.5841 48.9541 28.4941C48.8911 28.4721 47.4051 27.9651 46.6981 28.9851C46.5991 29.1261 46.4431 29.2011 46.2851 29.2011Z" fill="black"/>
<path d="M55.8239 29.189C55.6559 29.189 55.4919 29.105 55.3979 28.952C55.2869 28.774 54.8989 28.293 54.4379 28.2C54.1849 28.151 53.9309 28.218 53.6589 28.409C53.4339 28.568 53.1209 28.514 52.9619 28.288C52.8029 28.062 52.8569 27.75 53.0829 27.591C53.5799 27.24 54.1199 27.113 54.6449 27.221C55.6099 27.421 56.1869 28.326 56.2499 28.429C56.3939 28.665 56.3199 28.972 56.0839 29.117C56.0019 29.166 55.9119 29.189 55.8239 29.189Z" fill="black"/>
<path d="M55.0891 22.6687L54.2451 21.4357C54.2451 21.4357 53.2081 22.1467 50.9011 22.6337C47.3581 23.4017 43.1961 23.1857 43.1961 23.1857C43.1961 23.1857 43.8951 24.2007 43.7341 27.8527C43.5741 31.5167 39.7731 33.5567 39.7731 33.5567C38.4371 32.6157 37.3101 32.0817 36.3631 31.7987C35.9531 31.6827 35.5891 31.6087 35.2501 31.5677C33.0571 31.3517 32.2411 32.7057 32.2411 32.7057C32.2411 32.7057 27.1961 24.6647 33.0331 18.8867C37.1261 14.8527 42.6061 15.1107 45.5101 15.6317C46.4971 15.8117 47.1821 16.0177 47.4331 16.0957C47.5011 16.1147 47.5361 16.1247 47.5361 16.1247C47.5361 16.1247 56.2751 14.0527 57.7281 15.3477C59.1811 16.6327 56.1371 22.7227 55.0891 22.6687Z" fill="black"/>
<path d="M50.0339 43.0784C49.6929 43.0784 49.3249 43.0194 48.9479 42.8644C48.4459 42.6584 48.0879 42.3154 47.9109 41.8714C47.6019 41.0924 47.9479 40.2894 47.9879 40.2004C48.0439 40.0764 48.1479 39.9814 48.2759 39.9354C48.4029 39.8894 48.5439 39.8984 48.6659 39.9584L51.9289 41.5804C52.0839 41.6574 52.1879 41.8094 52.2039 41.9814C52.2209 42.1534 52.1459 42.3224 52.0089 42.4264C51.9629 42.4614 51.1329 43.0784 50.0339 43.0784ZM48.7859 41.1354C48.7819 41.2604 48.7949 41.3894 48.8429 41.5064C48.9189 41.6944 49.0769 41.8364 49.3269 41.9384C49.7699 42.1214 50.2009 42.1014 50.5549 42.0144L48.7859 41.1354Z" fill="black"/>
<path d="M52.3799 92.8809C50.8299 93.0809 49.2499 93.1909 47.6399 93.2209L44.1699 56.2109L47.5799 57.1009L52.3799 92.8809Z" fill="#A2C5F9"/>
<path d="M51.2259 51.4375C51.2259 51.4375 55.1979 62.4815 54.0389 62.3175C52.8799 62.1535 45.7409 56.4725 45.7409 56.4725C45.7409 56.4725 41.0669 62.9005 39.4369 63.0195C37.8069 63.1385 37.2739 51.5155 37.2739 51.5155C37.2739 51.5155 38.5069 54.8025 44.5919 55.3595C50.6769 55.9165 51.2259 51.4375 51.2259 51.4375Z" fill="#E6F4FF"/>
<path d="M70.5508 86.6309C70.4108 86.7309 70.2608 86.811 70.1108 86.901C69.9608 86.991 69.8008 87.0809 69.6408 87.1709L65.6508 68.481C65.6008 68.211 65.7708 67.951 66.0408 67.891C66.3108 67.831 66.5708 68.0009 66.6308 68.2709L70.5508 86.6309Z" fill="#E6F4FF"/>
</svg>
