<svg width="94" height="94" viewBox="0 0 94 94" fill="none" xmlns="http://www.w3.org/2000/svg">
<path d="M93.25 46.62C93.25 54.99 91.04 62.85 87.17 69.65C84.45 74.43 80.9 78.69 76.72 82.22C72.29 85.97 67.15 88.91 61.53 90.81C56.85 92.38 51.84 93.24 46.63 93.24C32.82 93.24 20.4 87.23 11.87 77.69C11.36 77.13 10.87 76.55 10.39 75.96C9.01001 74.26 7.75 72.46 6.62 70.58C2.42 63.57 0 55.38 0 46.62C0 20.87 20.88 0 46.63 0C72.37 0 93.25 20.87 93.25 46.62Z" fill="#F3F0DD"/>
<path d="M34.56 37.2773C34.56 37.2773 23.892 45.3233 23.098 55.0953C21.896 69.8843 38.719 63.4144 40.568 53.9864C42.417 44.5574 34.56 37.2773 34.56 37.2773Z" fill="black"/>
<path d="M33.6028 36.2709C33.6028 36.2709 29.7528 32.0169 30.8618 25.4249C31.6138 20.9559 33.6028 19.5089 33.6028 19.5089C33.6028 19.5089 30.5738 13.4079 39.5918 13.7779C48.6098 14.1479 53.9158 18.5749 53.9158 18.5749C53.9158 18.5749 58.0378 16.5509 59.8868 21.3569C61.7358 26.1629 59.8868 33.2539 59.8868 33.2539L33.6028 36.2709Z" fill="black"/>
<path d="M76.7191 82.2239C72.2891 85.9739 67.1492 88.9139 61.5292 90.8139C56.8492 92.3839 51.8392 93.2439 46.6292 93.2439C37.3292 93.2439 28.6592 90.5139 21.3792 85.8139C20.9792 85.5639 20.5892 85.3039 20.2092 85.0339C17.1392 82.9339 14.3392 80.4639 11.8692 77.6939C11.3592 77.1339 10.8692 76.5539 10.3892 75.9639L39.8992 54.5839C39.9192 54.5739 41.0392 53.7539 41.0392 53.7539L52.6292 54.6939L57.4391 55.0839L76.7191 82.2239Z" fill="#F7B369"/>
<path d="M41.0391 54.5L11.8691 77.69C11.3591 77.13 10.8691 76.55 10.3891 75.96C9.00913 74.26 7.74914 72.46 6.61914 70.58C7.51914 69.77 8.45914 68.96 9.42914 68.15C22.7991 57 36.0191 54.95 39.8991 54.58C40.6491 54.51 41.0391 54.5 41.0391 54.5Z" fill="#F7B369"/>
<path d="M53.4009 43.7031L53.1799 55.4671C53.1799 55.4671 51.1299 58.7861 44.6769 59.1401C39.8689 59.4041 38.3989 56.7231 38.3989 56.7231L39.7549 46.4651L51.4409 44.1011L53.4009 43.7031Z" fill="#F48462"/>
<path d="M87.1688 69.65C84.4488 74.43 80.8988 78.69 76.7188 82.22C72.2888 85.97 67.1488 88.91 61.5288 90.81L69.0688 81.62L52.6288 54.69L52.5088 54.5C52.5088 54.5 54.3988 54.57 57.4388 55.08C64.3588 56.23 77.2188 59.64 87.1688 69.65Z" fill="#F7B369"/>
<path d="M53.4012 43.0312C53.3662 43.3313 53.2422 43.6832 53.0542 44.0852C50.4532 49.5222 41.7272 51.5932 38.9502 51.7722L39.7462 46.3522L53.4012 43.0312Z" fill="black"/>
<path d="M37.9211 21.1958C37.9211 21.1958 31.7971 34.8528 33.8821 42.5788C35.9671 50.3048 42.9991 49.1588 47.2131 47.7098C51.4271 46.2608 53.4021 43.7038 53.4021 43.7038C53.4021 43.7038 57.3131 45.0718 59.9721 41.4488C62.6311 37.8258 61.0561 33.6208 58.8251 32.6388C56.5941 31.6568 53.9141 33.2488 53.9141 33.2488L56.0401 29.2828C56.0401 29.2828 47.4501 8.94276 37.9211 21.1958Z" fill="#F48462"/>
<path d="M53.9138 33.2498C53.9138 33.2498 48.0158 34.4398 43.9188 27.8768C39.8218 21.3138 40.1978 18.6178 40.1978 18.6178L36.1158 25.3938C36.1158 25.3938 35.2028 20.6958 37.0818 17.7008C38.9608 14.7058 40.9118 15.3268 40.9118 15.3268L53.9158 18.5758L57.3398 28.9988L53.9138 33.2498Z" fill="black"/>
<path d="M38.3879 38.6917C38.1739 38.6917 37.9759 38.5527 37.9099 38.3387C37.0019 35.3737 39.0959 32.3717 39.1839 32.2457C39.3439 32.0197 39.6539 31.9687 39.8799 32.1267C40.1059 32.2857 40.1589 32.5987 39.9999 32.8237C39.9819 32.8497 38.1029 35.5557 38.8659 38.0457C38.9459 38.3097 38.7979 38.5897 38.5339 38.6707C38.4859 38.6847 38.4359 38.6917 38.3879 38.6917Z" fill="black"/>
<path d="M54.4798 39.7467C54.3558 39.7467 54.2328 39.7007 54.1358 39.6087C53.9348 39.4187 53.9268 39.1027 54.1168 38.9027L57.8528 34.9647C58.0428 34.7627 58.3598 34.7567 58.5588 34.9467C58.7598 35.1357 58.7678 35.4527 58.5768 35.6527L54.8408 39.5907C54.7448 39.6947 54.6118 39.7467 54.4798 39.7467Z" fill="black"/>
<path d="M58.427 38.7007C58.402 38.7007 58.375 38.6987 58.35 38.6947L55.775 38.2977C55.502 38.2557 55.315 37.9997 55.357 37.7277C55.399 37.4547 55.662 37.2717 55.927 37.3097L58.502 37.7067C58.775 37.7487 58.962 38.0047 58.92 38.2767C58.882 38.5237 58.669 38.7007 58.427 38.7007Z" fill="black"/>
<path d="M43.3278 42.6152C42.0288 42.6152 40.5548 41.7382 40.3418 41.6062C40.1888 41.5112 40.0978 41.3422 40.1038 41.1632C40.1108 40.9832 40.2128 40.8202 40.3718 40.7372L44.5228 38.5692C44.6538 38.5002 44.8088 38.4922 44.9488 38.5512C45.0858 38.6092 45.1898 38.7252 45.2328 38.8672C45.2608 38.9622 45.9138 41.1912 44.5288 42.2512C44.1858 42.5152 43.7668 42.6152 43.3278 42.6152ZM41.6858 41.1782C42.4768 41.5292 43.4638 41.8072 43.9208 41.4582C44.4248 41.0712 44.4478 40.3092 44.3888 39.7672L41.6858 41.1782Z" fill="black"/>
<path d="M35.7462 27.4603C35.5082 27.4603 35.2972 27.2893 35.2552 27.0463C35.2072 26.7743 35.3902 26.5153 35.6612 26.4683L38.0972 26.0453C38.3712 25.9883 38.6282 26.1793 38.6752 26.4513C38.7232 26.7233 38.5402 26.9823 38.2692 27.0293L35.8332 27.4523C35.8042 27.4583 35.7752 27.4603 35.7462 27.4603Z" fill="black"/>
<path d="M45.8711 29.0574C45.7951 29.0574 45.7181 29.0394 45.6451 29.0034L41.6511 26.9814C41.4041 26.8564 41.3051 26.5554 41.4301 26.3094C41.5551 26.0624 41.8581 25.9654 42.1021 26.0884L46.0961 28.1114C46.3431 28.2364 46.4421 28.5374 46.3171 28.7834C46.2301 28.9574 46.0531 29.0574 45.8711 29.0574Z" fill="black"/>
<path d="M61.364 37.2773C61.364 37.2773 69.869 44.6504 68.668 56.6664C67.466 68.6824 55.551 67.1403 53.048 62.7553C49.257 56.1123 53.402 43.7043 53.402 43.7043C53.402 43.7043 60.708 44.9273 61.364 37.2773Z" fill="black"/>
<path d="M35.7469 33.0899C35.6979 33.0899 35.6489 33.0829 35.6009 33.0679C35.3359 32.9869 35.1889 32.7079 35.2699 32.4439L35.9519 30.2239L35.3609 29.4999C35.1859 29.2859 35.2169 28.9719 35.4309 28.7969C35.6439 28.6219 35.9599 28.6529 36.1339 28.8669L36.8949 29.7979C37.0009 29.9279 37.0359 30.1019 36.9859 30.2609L36.2249 32.7369C36.1599 32.9529 35.9609 33.0899 35.7469 33.0899Z" fill="black"/>
<path d="M43.2019 33.7556C43.1529 33.7556 43.1039 33.7486 43.0549 33.7336C42.7899 33.6536 42.6429 33.3736 42.7239 33.1096L43.4029 30.8966L42.5319 29.8796C42.3519 29.6696 42.3769 29.3546 42.5869 29.1746C42.7959 28.9956 43.1129 29.0196 43.2919 29.2296L44.3419 30.4556C44.4529 30.5856 44.4899 30.7646 44.4399 30.9276L43.6799 33.4036C43.6139 33.6166 43.4149 33.7556 43.2019 33.7556Z" fill="black"/>
<path d="M44.6032 59.3775C40.3472 59.3775 37.8262 57.0565 37.7892 57.0225C37.5892 56.8335 37.5802 56.5175 37.7702 56.3165C37.9592 56.1165 38.2752 56.1075 38.4762 56.2945C38.6772 56.4835 43.4532 60.8295 51.2082 56.4765C51.4512 56.3395 51.7552 56.4265 51.8892 56.6665C52.0252 56.9075 51.9392 57.2125 51.6992 57.3475C49.0002 58.8615 46.6092 59.3775 44.6032 59.3775Z" fill="white"/>
<path d="M25.6091 69.6012C25.3091 69.8512 18.9991 75.4812 21.3791 85.8112C20.9791 85.5612 20.5891 85.3012 20.2091 85.0312C18.3391 74.6912 24.8791 68.9012 24.9591 68.8412C25.1691 68.6612 25.4791 68.6812 25.6591 68.8912C25.8401 69.1012 25.8191 69.4212 25.6091 69.6012Z" fill="white"/>
</svg>
