<svg width="94" height="94" viewBox="0 0 94 94" fill="none" xmlns="http://www.w3.org/2000/svg">
<path d="M93.24 46.62C93.24 53.32 91.82 59.7 89.28 65.46C88.72 66.71 88.12 67.93 87.46 69.12C87.13 69.73 86.78 70.33 86.42 70.92C85.78 71.97 85.1 72.98 84.39 73.96C84.27 74.12 84.16 74.28 84.05 74.43C84.04 74.45 84.03 74.46 84.01 74.48C81.73 77.53 79.08 80.29 76.14 82.71C75.05 83.6 73.92 84.45 72.75 85.24C71.89 85.82 71.01 86.38 70.11 86.9C69.49 87.26 68.86 87.61 68.22 87.95C63.63 90.35 58.6 92.01 53.26 92.77C51.39 93.04 49.49 93.19 47.55 93.22C47.24 93.24 46.93 93.24 46.62 93.24C42.86 93.24 39.19 92.79 35.69 91.95C30.58 90.72 25.79 88.65 21.49 85.89C19.93 84.9 18.44 83.81 17.02 82.62C15.01 80.98 13.14 79.16 11.43 77.19C10.65 76.28 9.88999 75.35 9.17999 74.39C9.01999 74.18 8.87 73.98 8.72 73.77C7.01 71.38 5.50999 68.82 4.26999 66.12C1.51999 60.18 0 53.57 0 46.62C0 20.87 20.87 0 46.62 0C72.37 0 93.24 20.87 93.24 46.62Z" fill="#F3F0DD"/>
<path d="M76.1402 82.7094C75.0502 83.5994 73.9202 84.4494 72.7502 85.2394C71.8902 85.8194 71.0102 86.3794 70.1102 86.8994C65.0302 89.8694 59.3402 91.8994 53.2602 92.7694C51.3902 93.0394 49.4902 93.1894 47.5502 93.2194C47.2402 93.2394 46.9302 93.2394 46.6202 93.2394C42.8602 93.2394 39.1902 92.7894 35.6902 91.9494C30.5802 90.7194 25.7902 88.6494 21.4902 85.8894C19.9302 84.8994 18.4402 83.8094 17.0202 82.6194C15.0102 80.9794 13.1402 79.1594 11.4302 77.1894C10.6502 76.2794 9.89018 75.3494 9.18018 74.3894C12.3602 66.8594 18.1702 56.0694 26.0902 53.4294C38.5602 49.2694 65.1302 55.1294 65.1302 55.1294C65.1302 55.1294 74.2302 59.5494 76.1402 82.7094Z" fill="#40507F"/>
<path d="M70.11 86.8998C65.03 89.8698 59.34 91.8998 53.26 92.7698C51.39 93.0398 49.49 93.1898 47.55 93.2198C47.24 93.2398 46.93 93.2398 46.62 93.2398C42.86 93.2398 39.19 92.7898 35.69 91.9498C30.58 90.7198 25.79 88.6498 21.49 85.8898C19.93 84.8998 18.44 83.8098 17.02 82.6198C17.1 70.4298 18.02 59.2898 20.97 56.6298C22.45 55.2898 24.22 54.2398 26.09 53.4298C30.42 51.5598 35.26 50.9298 38.44 50.7198C40.55 50.5798 41.92 50.6298 41.92 50.6298C41.92 50.6298 44.75 50.7398 48.55 51.1598C49.6 51.2898 50.66 51.4198 51.77 51.5798C58.24 52.5098 65.82 54.3198 67.78 57.7398C69.47 60.6798 70.01 73.8498 70.11 86.8998Z" fill="#40507F"/>
<path d="M55.5711 26.2107L36.3011 40.8007C36.3011 40.8007 25.8011 30.2607 30.0711 24.2407C32.7211 20.4907 38.0812 18.6907 41.7512 17.8607C42.1712 17.7707 42.5611 17.6907 42.9311 17.6207C44.5111 17.3107 45.5711 17.2207 45.5711 17.2207L45.5811 17.2807C46.2511 17.0307 52.9311 12.2007 56.5911 13.8007C61.6201 15.9907 55.5711 26.2107 55.5711 26.2107Z" fill="black"/>
<path d="M38.3 43.0781L37.665 53.4321C37.665 53.4321 39.3501 56.5231 45.3761 57.3871C49.8661 58.0311 51.5131 57.1081 51.5131 57.1081L51.2061 51.8261L50.9001 46.6741L40.1111 43.5971L38.3 43.0781Z" fill="#F48462"/>
<path d="M40.1099 43.5977C40.1189 43.8817 40.2059 44.2227 40.3499 44.6157C42.3489 49.9297 48.6149 51.4337 51.2059 51.8267L50.8999 46.6747L40.1099 43.5977Z" fill="black"/>
<path d="M54.6562 23.2184C54.6562 23.2184 59.2932 36.5334 56.7092 43.6144C54.1242 50.6954 47.6192 49.0494 43.7812 47.3464C39.9442 45.6444 38.2992 43.0834 38.2992 43.0834C38.2992 43.0834 34.5182 44.0494 32.3172 40.4324C30.1162 36.8164 31.9362 32.9974 34.1102 32.2574C36.2842 31.5174 38.6692 33.2294 38.6692 33.2294L36.9962 29.3344C36.9942 29.3354 46.7092 10.9444 54.6562 23.2184Z" fill="#F48462"/>
<path d="M37.9668 38.8833C37.8558 38.8833 37.7428 38.8463 37.6508 38.7703L33.1918 35.1293C32.9778 34.9553 32.9468 34.6393 33.1208 34.4253C33.2978 34.2113 33.6118 34.1813 33.8248 34.3543L38.2838 37.9953C38.4978 38.1693 38.5288 38.4853 38.3548 38.6993C38.2548 38.8203 38.1118 38.8833 37.9668 38.8833Z" fill="black"/>
<path d="M33.7178 38.5643C33.4838 38.5643 33.2748 38.3983 33.2278 38.1593C33.1758 37.8883 33.3528 37.6263 33.6248 37.5733L36.7448 36.9703C37.0128 36.9173 37.2768 37.0943 37.3308 37.3663C37.3828 37.6373 37.2058 37.8993 36.9348 37.9513L33.8148 38.5543C33.7818 38.5623 33.7498 38.5643 33.7178 38.5643Z" fill="black"/>
<path d="M45.6868 28.7876C45.5698 28.7876 45.4529 28.7466 45.3579 28.6636C45.1499 28.4816 45.1289 28.1666 45.3109 27.9586C46.8629 26.1826 48.7669 26.6446 49.5569 27.1356C49.7909 27.2816 49.8628 27.5906 49.7168 27.8246C49.5688 28.0586 49.2629 28.1296 49.0289 27.9856C48.8649 27.8866 47.4128 27.0746 46.0618 28.6166C45.9638 28.7296 45.8258 28.7876 45.6868 28.7876Z" fill="black"/>
<path d="M55.7461 28.362C55.6241 28.362 55.5011 28.317 55.4041 28.227C54.4191 27.304 53.2801 27.847 53.2331 27.87C52.9861 27.993 52.6871 27.892 52.5631 27.647C52.4401 27.401 52.5371 27.103 52.7811 26.978C52.8531 26.941 54.576 26.086 56.088 27.496C56.289 27.685 56.3001 28.001 56.1111 28.203C56.0131 28.309 55.8801 28.362 55.7461 28.362Z" fill="black"/>
<path d="M53.398 38.1069C53.341 38.1069 53.283 38.0969 53.226 38.0769C52.966 37.9819 52.833 37.6949 52.928 37.4349C54.244 33.8419 52.5321 31.7599 52.4581 31.6729C52.2801 31.4629 52.3051 31.1479 52.5141 30.9689C52.7231 30.7889 53.0361 30.8119 53.2161 31.0209C53.3061 31.1249 55.3931 33.6089 53.8671 37.7779C53.7931 37.9819 53.602 38.1069 53.398 38.1069Z" fill="black"/>
<path d="M55.3941 33.3335C55.1621 33.3335 54.9551 33.1715 54.9061 32.9355L54.4031 30.5205C54.3951 30.4865 54.3921 30.4515 54.3921 30.4175C54.3921 30.1855 54.5541 29.9775 54.7901 29.9285C55.0541 29.8725 55.3251 30.0445 55.3811 30.3155L55.8841 32.7305C55.8921 32.7645 55.8951 32.7995 55.8951 32.8325C55.8951 33.0645 55.7331 33.2725 55.4971 33.3215C55.4621 33.3295 55.4281 33.3335 55.3941 33.3335Z" fill="black"/>
<path d="M47.8299 33.5115C47.5989 33.5115 47.3909 33.3495 47.3419 33.1135L46.8389 30.6995C46.7819 30.4285 46.9559 30.1645 47.2269 30.1085C47.4919 30.0515 47.7619 30.2255 47.8179 30.4955L48.3209 32.9095C48.3779 33.1805 48.2039 33.4445 47.9329 33.5005C47.8989 33.5085 47.8649 33.5115 47.8299 33.5115Z" fill="black"/>
<path d="M55.5671 26.2106C55.5671 26.2106 54.5701 24.0606 51.9891 23.8846C49.4071 23.7086 47.7881 25.4346 47.7881 25.4346C47.7881 25.4346 48.6542 29.8536 45.0002 31.9486C41.3462 34.0436 38.6682 33.2306 38.6682 33.2306L36.1761 32.1666L34.5361 28.3296L42.3932 20.8396L52.2401 16.3906L56.8301 21.1016L55.5671 26.2106Z" fill="black"/>
<path d="M50.541 42.0699C50.138 42.0699 47.753 41.9679 46.823 39.6219C46.721 39.3649 46.847 39.0749 47.103 38.9729C47.359 38.8709 47.65 38.9969 47.752 39.2539C48.49 41.1169 50.522 41.0689 50.562 41.0699C50.847 41.0699 51.069 41.2819 51.079 41.5519C51.088 41.8279 50.872 42.0589 50.596 42.0689C50.589 42.0689 50.571 42.0699 50.541 42.0699Z" fill="black"/>
<path d="M48.687 58.1911C41.908 58.1911 36.749 53.4961 36.499 53.2651C36.297 53.0771 36.284 52.7621 36.472 52.5591C36.661 52.3561 36.975 52.3441 37.179 52.5311C37.245 52.5931 43.998 58.7321 51.861 56.8101C52.127 56.7441 52.399 56.9091 52.465 57.1771C52.53 57.4451 52.366 57.7161 52.098 57.7811C50.928 58.0671 49.786 58.1911 48.687 58.1911Z" fill="white"/>
<path d="M84.3901 73.9601C84.2601 74.1401 84.1401 74.3101 84.0101 74.4801C81.7301 77.5301 79.0801 80.2901 76.1401 82.7101C75.0601 83.5901 73.9401 84.4401 72.7801 85.2201L64.1001 81.5201L67.2091 56.9531L84.3901 73.9601Z" fill="#40507F"/>
</svg>
