<svg width="94" height="94" viewBox="0 0 94 94" fill="none" xmlns="http://www.w3.org/2000/svg">
<path d="M93.25 46.62C93.25 54.99 91.04 62.85 87.17 69.65C86.07 71.58 84.83 73.43 83.47 75.18C81.47 77.76 79.21 80.12 76.72 82.22C76.65 82.28 76.58 82.34 76.51 82.39C73.49 84.92 70.15 87.07 66.55 88.78C64.93 89.55 63.25 90.23 61.53 90.81C56.85 92.38 51.84 93.24 46.63 93.24C42.16 93.24 37.84 92.61 33.75 91.43C30.15 90.4 26.73 88.95 23.55 87.13C19.16 84.63 15.21 81.43 11.87 77.69C11.67 77.47 11.48 77.25 11.29 77.03C10.98 76.68 10.68 76.32 10.39 75.96C9.01001 74.26 7.75 72.46 6.62 70.58C2.42 63.57 0 55.38 0 46.62C0 20.87 20.88 0 46.63 0C72.37 0 93.25 20.87 93.25 46.62Z" fill="#F3F0DD"/>
<path d="M39.4322 26.7044C39.4322 26.7044 31.3491 20.2424 35.0291 14.8874C38.7101 9.53238 46.5991 14.9804 46.5991 14.9804C46.5991 14.9804 49.6731 11.9054 54.0211 14.3934C58.3691 16.8814 58.8662 22.9494 58.8662 22.9494C58.8662 22.9494 63.2952 22.8484 63.5482 28.2384C63.8012 33.6284 58.0002 38.4274 58.0002 38.4274L39.4322 26.7044Z" fill="black"/>
<path d="M76.51 82.3897C73.49 84.9197 70.15 87.0697 66.55 88.7797C64.93 89.5497 63.25 90.2297 61.53 90.8097C56.85 92.3797 51.84 93.2397 46.63 93.2397C42.16 93.2397 37.84 92.6097 33.75 91.4297C30.15 90.3997 26.73 88.9497 23.55 87.1297L23 55.9697C35.34 47.3097 47.31 49.4697 47.31 49.4697C47.31 49.4697 63.03 47.6797 71.24 55.1897C72.44 56.2897 73.46 57.5497 74.25 59.0397C75.56 61.4897 76.21 71.3297 76.51 82.3897Z" fill="#6876AA"/>
<path d="M53.6198 41.3945L53.7218 51.6656C53.7218 51.6656 51.8988 54.6365 45.8958 55.1845C41.4238 55.5925 39.8408 54.5966 39.8408 54.5966L40.4138 49.3885L40.9788 44.3095L51.8048 41.8156L53.6198 41.3945Z" fill="#F48462"/>
<path d="M51.8041 41.8164C51.7811 42.0974 51.6771 42.4294 51.5151 42.8104C49.2681 47.9634 42.9961 49.1324 40.4131 49.3894L40.9781 44.3104L51.8041 41.8164Z" fill="black"/>
<path d="M38.4559 20.9215C38.4559 20.9215 33.1929 33.8515 35.3889 40.9855C37.5849 48.1195 44.1019 46.8215 47.9829 45.3335C51.8639 43.8455 53.6209 41.3975 53.6209 41.3975C53.6209 41.3975 57.3109 42.5455 59.6719 39.0805C62.0319 35.6165 60.4269 31.7475 58.3149 30.9055C56.2029 30.0635 53.7579 31.6345 53.7579 31.6345L55.6099 27.8685C55.6099 27.8685 46.9389 9.18948 38.4559 20.9215Z" fill="#F48462"/>
<path d="M54.1872 37.2674C54.0342 37.2674 53.8822 37.1974 53.7842 37.0634C53.6212 36.8404 53.6692 36.5284 53.8912 36.3644L58.4862 32.9914C58.7072 32.8294 59.0202 32.8744 59.1852 33.0984C59.3482 33.3214 59.3002 33.6334 59.0782 33.7974L54.4832 37.1704C54.3942 37.2364 54.2912 37.2674 54.1872 37.2674Z" fill="black"/>
<path d="M58.4051 37.168C58.3661 37.168 58.3261 37.163 58.2851 37.153L55.2291 36.399C54.9611 36.333 54.7971 36.062 54.8641 35.794C54.9291 35.527 55.1931 35.362 55.4701 35.429L58.5261 36.183C58.7941 36.249 58.9581 36.52 58.8911 36.788C58.8351 37.016 58.6301 37.168 58.4051 37.168Z" fill="black"/>
<path d="M47.1081 26.3456C47.0511 26.3456 46.9941 26.3356 46.9371 26.3156C46.1791 26.0396 43.9971 25.9186 43.2191 25.8946C42.9441 25.8856 42.7271 25.6555 42.7351 25.3785C42.7441 25.1035 42.9541 24.8916 43.2501 24.8946C43.5531 24.9046 46.2341 24.9956 47.2791 25.3756C47.5391 25.4706 47.6721 25.7575 47.5781 26.0165C47.5041 26.2195 47.3121 26.3456 47.1081 26.3456Z" fill="black"/>
<path d="M37.1407 25.9593C36.8997 25.9593 36.6868 25.7833 36.6478 25.5373C36.6048 25.2653 36.7918 25.0083 37.0638 24.9653C38.4208 24.7513 38.8327 24.7713 38.9007 24.7763C39.1757 24.7993 39.3798 25.0423 39.3558 25.3173C39.3328 25.5893 39.0948 25.7962 38.8238 25.7732C38.7978 25.7692 38.4278 25.7622 37.2208 25.9542C37.1928 25.9572 37.1667 25.9593 37.1407 25.9593Z" fill="black"/>
<path d="M39.754 37.3847C39.54 37.3847 39.3429 37.2467 39.2759 37.0317C37.9919 32.8687 40.1349 29.8727 40.2269 29.7477C40.3889 29.5257 40.7009 29.4757 40.9239 29.6397C41.1469 29.8017 41.1949 30.1147 41.0339 30.3367C41.0149 30.3637 39.0989 33.0697 40.2299 36.7367C40.3119 37.0007 40.164 37.2807 39.9 37.3617C39.852 37.3777 39.803 37.3847 39.754 37.3847Z" fill="black"/>
<path d="M37.2371 30.8941C37.1951 30.8941 37.1531 30.8891 37.1101 30.8771C36.8431 30.8081 36.6832 30.5341 36.7542 30.2671L37.3731 27.9061C37.4421 27.6381 37.7142 27.4751 37.9832 27.5491C38.2502 27.6181 38.4101 27.8921 38.3391 28.1591L37.7202 30.5201C37.6622 30.7451 37.4591 30.8941 37.2371 30.8941Z" fill="black"/>
<path d="M43.7382 30.9569C43.6962 30.9569 43.6541 30.9519 43.6111 30.9399C43.3441 30.8709 43.1841 30.5969 43.2551 30.3299L43.8741 27.9679C43.9431 27.6999 44.2141 27.5389 44.4841 27.6109C44.7511 27.6799 44.9111 27.9539 44.8411 28.2209L44.2221 30.5829C44.1631 30.8089 43.9602 30.9569 43.7382 30.9569Z" fill="black"/>
<path d="M37.404 23.8321C37.404 23.8321 38.499 21.7561 41.061 21.7131C43.623 21.6701 45.137 23.4601 45.137 23.4601C45.137 23.4601 44.056 27.7851 47.562 30.0431C51.068 32.3001 53.758 31.6331 53.758 31.6331L56.276 30.7071L58.093 26.9961L50.705 19.1901L41.194 14.2891L36.416 18.7141L37.404 23.8321Z" fill="black"/>
<path d="M41.7291 39.7847C41.6061 39.7847 41.5291 39.7787 41.5111 39.7767C41.2371 39.7537 41.0321 39.5107 41.0561 39.2357C41.0801 38.9607 41.3431 38.7677 41.5951 38.7807C41.6911 38.7867 43.6461 38.9157 44.4611 37.1307C44.5751 36.8787 44.8751 36.7727 45.1241 36.8837C45.3751 36.9987 45.4851 37.2957 45.3711 37.5467C44.4301 39.6067 42.4011 39.7847 41.7291 39.7847Z" fill="black"/>
<path d="M40.4128 49.3867C40.4128 49.3867 38.2948 51.6327 37.0328 55.7757C36.3168 58.1257 36.4928 61.5937 36.9858 61.5977C37.4788 61.6017 41.1768 55.8797 43.5358 55.5307C45.8948 55.1827 47.8689 62.0327 48.8759 62.2727C49.8829 62.5127 53.7988 59.8167 55.1888 55.9147C56.5788 52.0117 54.0848 49.4967 54.0848 49.4967C54.0848 49.4967 41.9098 58.7377 40.4128 49.3867Z" fill="#F7B369"/>
<path d="M33.75 91.4287C30.15 90.3987 26.73 88.9488 23.55 87.1288C19.16 84.6288 15.21 81.4288 11.87 77.6888C11.67 77.4688 11.48 77.2487 11.29 77.0287C11.73 75.6787 12.21 74.3287 12.74 73.0187C17.55 61.0387 23 55.9688 23 55.9688L33.75 91.4287Z" fill="#6876AA"/>
<path d="M83.4698 75.1814C81.4698 77.7614 79.2098 80.1214 76.7198 82.2214C76.6498 82.2814 76.5798 82.3414 76.5098 82.3914C73.4898 84.9214 70.1498 87.0714 66.5498 88.7814L71.2398 55.1914C71.2398 55.1914 77.8198 60.2614 83.4698 75.1814Z" fill="#6876AA"/>
<path d="M22.9012 85.2388C22.8832 85.2388 22.8662 85.2378 22.8492 85.2358C22.5742 85.2078 22.3742 84.9628 22.4032 84.6878L23.3552 75.4378C23.3832 75.1618 23.6442 74.9588 23.9032 74.9918C24.1782 75.0198 24.3782 75.2648 24.3492 75.5398L23.3972 84.7898C23.3712 85.0478 23.1542 85.2388 22.9012 85.2388Z" fill="#F7B369"/>
</svg>
