<svg width="94" height="94" viewBox="0 0 94 94" fill="none" xmlns="http://www.w3.org/2000/svg">
<path d="M93.24 46.62C93.24 51.49 92.5 56.19 91.11 60.6C88.99 67.34 85.39 73.42 80.68 78.45C80.58 78.57 80.48 78.68 80.37 78.79C80.23 78.94 80.08 79.09 79.94 79.23C71.48 87.87 59.68 93.24 46.62 93.24C44.6 93.24 42.59 93.11 40.64 92.87C40.62 92.86 40.61 92.86 40.59 92.86C35.79 92.23 31.21 90.88 26.98 88.91C26.63 88.75 26.28 88.58 25.93 88.41C19.04 85 13.12 79.92 8.69 73.71C8.31 73.17 7.93 72.63 7.57 72.07C6.67 70.71 5.85 69.3 5.11 67.85C1.84 61.48 0 54.27 0 46.62C0 20.87 20.87 0 46.62 0C72.37 0 93.24 20.87 93.24 46.62Z" fill="#F3F0DD"/>
<path d="M80.68 78.4491C80.58 78.5691 80.48 78.6791 80.37 78.7891C80.23 78.9391 80.08 79.0891 79.94 79.2291C71.48 87.8691 59.68 93.2391 46.62 93.2391C44.6 93.2391 42.59 93.1091 40.64 92.8691C40.62 92.8591 40.61 92.8591 40.59 92.8591C35.79 92.2291 31.21 90.8792 26.98 88.9092C27.38 72.0192 27.21 57.2391 27.21 56.9591C27.37 56.6091 35.19 54.5991 45.6 54.2591C61.981 53.7391 75.82 62.9791 80.68 78.4491Z" fill="#68B6D8"/>
<path d="M40.6409 92.8687C40.6209 92.8587 40.6109 92.8587 40.5909 92.8587C35.7909 92.2287 31.2109 90.8788 26.9809 88.9088C26.6309 88.7488 26.2809 88.5788 25.9309 88.4088C19.0409 84.9988 13.1209 79.9187 8.69092 73.7087C17.6709 61.3987 25.0109 57.8087 27.2109 56.9587C27.6609 56.7787 27.8909 56.7188 27.8909 56.7188L40.6409 92.8687Z" fill="#68B6D8"/>
<path d="M47.6881 27.1279C47.6881 27.1279 58.2641 27.8989 59.1181 17.7589C60.0271 6.96288 50.0491 5.67689 45.6921 9.94089C41.3351 14.2059 42.0101 18.6709 42.0101 18.6709C42.0101 18.6709 39.1161 15.9279 35.8041 19.1249C33.3731 21.4709 34.4981 25.4349 34.4981 25.4349C34.4981 25.4349 29.0421 25.0879 29.4321 29.8699C29.8221 34.6519 33.1721 37.1579 33.1721 37.1579L47.6881 27.1279Z" fill="black"/>
<path d="M37.5391 45.582L38.3581 56.861C38.3581 56.861 40.6281 59.956 47.2651 60.013C52.2091 60.056 53.8561 58.819 53.8561 58.819L52.7561 53.156L51.6761 47.634L39.5711 45.878L37.5391 45.582Z" fill="#F48462"/>
<path d="M39.5698 45.8789C39.6208 46.1849 39.7638 46.5399 39.9768 46.9429C42.9098 52.3939 49.8978 53.1079 52.7548 53.1559L51.6748 47.6339L39.5698 45.8789Z" fill="black"/>
<path d="M52.3229 21.7433C52.3229 21.7433 59.2699 35.4553 57.5069 43.4813C55.7439 51.5083 48.4749 50.6753 44.0809 49.3933C39.6869 48.1123 37.5369 45.5843 37.5369 45.5843C37.5369 45.5843 33.5919 47.1783 30.6879 43.5903C27.7839 40.0033 29.1949 35.6123 31.4359 34.4973C33.6769 33.3813 36.5029 34.8843 36.5029 34.8843L34.1289 30.9193C34.1289 30.9193 41.9519 9.6383 52.3229 21.7433Z" fill="#F48462"/>
<path d="M36.4961 41.0532C36.4071 41.0532 36.3161 41.0302 36.2351 40.9792L31.8381 38.2783C31.6031 38.1333 31.5291 37.8263 31.6731 37.5903C31.8181 37.3553 32.1262 37.2803 32.3612 37.4263L36.7582 40.1273C36.9932 40.2723 37.0671 40.5792 36.9221 40.8152C36.8281 40.9682 36.6641 41.0532 36.4961 41.0532Z" fill="black"/>
<path d="M32.8438 41.3509C32.6588 41.3509 32.4818 41.248 32.3948 41.072C32.2728 40.824 32.3748 40.5239 32.6238 40.4019L34.9238 39.2729C35.1718 39.1529 35.4708 39.2549 35.5928 39.5019C35.7138 39.7499 35.6128 40.05 35.3638 40.172L33.0638 41.301C32.9928 41.335 32.9178 41.3509 32.8438 41.3509Z" fill="black"/>
<path d="M54.1758 27.1021C54.0758 27.1021 53.9748 27.0721 53.8868 27.0091C52.6558 26.1351 51.4858 26.9061 51.4368 26.9401C51.2078 27.0921 50.8978 27.0351 50.7428 26.8081C50.5878 26.5811 50.6438 26.2721 50.8698 26.1161C50.9418 26.0661 52.6548 24.9081 54.4658 26.1951C54.6908 26.3541 54.7438 26.6671 54.5838 26.8921C54.4858 27.0291 54.3328 27.1021 54.1758 27.1021Z" fill="black"/>
<path d="M52.3458 39.8773C52.3098 39.8773 52.2738 39.8733 52.2378 39.8653C51.9678 39.8053 51.7978 39.5393 51.8568 39.2693C52.7768 35.0943 50.4098 32.3043 50.3858 32.2763C50.2048 32.0683 50.2278 31.7523 50.4358 31.5713C50.6448 31.3903 50.9588 31.4133 51.1418 31.6223C51.2528 31.7503 53.8608 34.8253 52.8338 39.4843C52.7818 39.7183 52.5748 39.8773 52.3458 39.8773Z" fill="black"/>
<path d="M54.0178 33.7437C53.7458 33.7437 53.5228 33.5257 53.5178 33.2527L53.4708 30.5637C53.4658 30.2877 53.6858 30.0597 53.9618 30.0547C54.2508 30.0857 54.4658 30.2697 54.4708 30.5457L54.5178 33.2337C54.5228 33.5097 54.3028 33.7377 54.0268 33.7427C54.0238 33.7437 54.0208 33.7437 54.0178 33.7437Z" fill="black"/>
<path d="M46.614 34.2649C46.342 34.2649 46.119 34.0469 46.114 33.7739L46.067 31.0859C46.062 30.8099 46.282 30.5819 46.558 30.5769C46.815 30.5459 47.062 30.7919 47.067 31.0679L47.114 33.7559C47.119 34.0319 46.899 34.2599 46.623 34.2649C46.62 34.2649 46.617 34.2649 46.614 34.2649Z" fill="black"/>
<path d="M53.7422 24.8418C53.7422 24.8418 52.3532 22.6638 49.5372 22.8488C46.7222 23.0338 45.2232 25.1348 45.2232 25.1348C45.2232 25.1348 46.8012 29.7828 43.1582 32.5778C39.5152 35.3728 36.5032 34.8838 36.5032 34.8838L33.6562 34.0958L31.3262 30.1888L38.7262 20.9538L48.7192 14.7148L54.3632 19.1378L53.7422 24.8418Z" fill="black"/>
<path d="M50.0491 42.6993C49.1061 42.6993 47.3221 42.4323 46.2851 40.5843C46.1501 40.3443 46.2361 40.0393 46.4761 39.9033C46.7181 39.7693 47.0211 39.8543 47.1571 40.0953C48.2341 42.0133 50.4131 41.6843 50.5051 41.6693C50.7771 41.6193 51.0341 41.8093 51.0791 42.0803C51.1241 42.3523 50.9421 42.6093 50.6701 42.6553C50.6381 42.6613 50.4021 42.6993 50.0491 42.6993Z" fill="black"/>
<path d="M56.9842 37.8745C56.9442 37.8745 56.9042 37.8745 56.8642 37.8735C54.2162 37.8075 52.1172 35.5335 52.1862 32.8065C52.2192 31.4885 52.7482 30.2595 53.6742 29.3485C54.6052 28.4335 55.8272 27.9415 57.1122 27.9785C59.7602 28.0445 61.8592 30.3185 61.7902 33.0465C61.7572 34.3645 61.2282 35.5925 60.3022 36.5035C59.4002 37.3895 58.2262 37.8745 56.9842 37.8745ZM56.9932 28.9765C56.0152 28.9765 55.0892 29.3595 54.3752 30.0605C53.6342 30.7885 53.2122 31.7725 53.1852 32.8315C53.1302 35.0075 54.7922 36.8205 56.8892 36.8735C57.9082 36.9105 58.8652 36.5145 59.6002 35.7905C60.3412 35.0625 60.7632 34.0785 60.7892 33.0205C60.8442 30.8435 59.1822 29.0305 57.0852 28.9775C57.0562 28.9765 57.0252 28.9765 56.9932 28.9765Z" fill="white"/>
<path d="M45.5751 38.6861C45.5331 38.6861 45.4921 38.6861 45.4491 38.6851C44.1281 38.6521 42.8981 38.1062 41.9871 37.1482C41.0761 36.1912 40.5921 34.9352 40.6251 33.6142C40.6581 32.2932 41.2041 31.0621 42.1621 30.1511C43.1201 29.2401 44.3801 28.7631 45.6971 28.7901C48.4251 28.8581 50.5891 31.1341 50.5211 33.8621C50.4531 36.5481 48.2461 38.6861 45.5751 38.6861ZM45.5701 29.7891C44.5531 29.7891 43.5911 30.1731 42.8511 30.8761C42.0871 31.6041 41.6511 32.5852 41.6251 33.6402C41.5991 34.6942 41.9841 35.6962 42.7111 36.4602C43.4381 37.2242 44.4191 37.6591 45.4741 37.6861C47.6421 37.7361 49.4661 36.0141 49.5201 33.8371C49.5751 31.6601 47.8481 29.8451 45.6711 29.7901C45.6381 29.7891 45.6041 29.7891 45.5701 29.7891Z" fill="white"/>
<path d="M49.555 33.8245C49.292 33.8245 49.071 33.6185 49.057 33.3525C49.041 33.0775 49.252 32.8405 49.528 32.8255L53.013 32.6285C53.281 32.5935 53.525 32.8235 53.54 33.0995C53.556 33.3745 53.345 33.6115 53.069 33.6265L49.584 33.8235C49.574 33.8245 49.565 33.8245 49.555 33.8245Z" fill="white"/>
<path d="M41.109 34.784C41.028 34.784 40.946 34.764 40.871 34.723C40.826 34.698 36.204 32.232 34.013 34.449C33.819 34.645 33.503 34.647 33.306 34.453C33.11 34.259 33.108 33.942 33.302 33.746C36.021 30.996 41.133 33.728 41.349 33.845C41.592 33.977 41.681 34.28 41.55 34.523C41.458 34.689 41.286 34.784 41.109 34.784Z" fill="white"/>
<path d="M47.6958 60.747C44.8068 60.747 41.2048 59.949 37.2568 57.264C37.0278 57.109 36.9688 56.798 37.1248 56.57C37.2808 56.342 37.5918 56.283 37.8198 56.438C46.9388 62.641 53.8048 58.374 54.0918 58.19C54.3248 58.04 54.6328 58.107 54.7828 58.339C54.9318 58.57 54.8658 58.88 54.6338 59.029C54.5898 59.058 51.8978 60.747 47.6958 60.747Z" fill="white"/>
<path d="M43.2752 28.4278C43.1802 28.4278 43.0852 28.4018 43.0002 28.3448C42.7702 28.1928 42.7062 27.8818 42.8592 27.6518C44.2622 25.5328 46.3592 25.7538 47.2712 26.1628C47.5232 26.2758 47.6352 26.5728 47.5222 26.8238C47.4092 27.0748 47.1132 27.1858 46.8632 27.0758C46.7812 27.0388 44.9672 26.2768 43.6942 28.2048C43.5962 28.3488 43.4372 28.4278 43.2752 28.4278Z" fill="black"/>
</svg>
