<svg width="94" height="94" viewBox="0 0 94 94" fill="none" xmlns="http://www.w3.org/2000/svg">
<path d="M93.25 46.62C93.25 55.83 90.58 64.42 85.96 71.66C82.63 76.88 78.29 81.39 73.21 84.92C70.49 86.81 67.56 88.42 64.46 89.71C58.97 91.98 52.95 93.24 46.63 93.24C46.27 93.24 45.9 93.24 45.53 93.23C34.31 92.97 24.07 88.75 16.16 81.91C14.78 80.72 13.48 79.45 12.25 78.11C4.64 69.82 0 58.76 0 46.62C0 20.87 20.88 0 46.63 0C72.37 0 93.25 20.87 93.25 46.62Z" fill="#F3F0DD"/>
<path d="M73.209 84.9203C70.489 86.8103 67.559 88.4203 64.459 89.7103C58.969 91.9803 52.949 93.2403 46.629 93.2403C46.269 93.2403 45.8991 93.2403 45.5291 93.2303C34.3091 92.9703 24.069 88.7503 16.159 81.9103C14.779 80.7203 13.479 79.4503 12.249 78.1103C15.529 71.0003 23.139 57.5903 35.039 54.3703C35.179 54.3303 35.319 54.3003 35.449 54.2603C49.219 50.7803 67.899 54.0303 71.619 56.8203C73.149 58.0803 73.419 70.5903 73.209 84.9203Z" fill="#92B4EA"/>
<path d="M38.619 30.6047C38.619 30.6047 31.115 21.3247 34.264 17.6427C37.413 13.9607 42.28 17.6427 42.28 17.6427C42.28 17.6427 42.549 13.2857 47.403 13.7357C52.258 14.1857 55.183 19.3587 55.183 19.3587C55.183 19.3587 59.454 15.0847 62.379 19.3587C65.303 23.6327 63.279 30.6047 63.279 30.6047C63.279 30.6047 66.653 30.1057 65.753 34.0667C64.853 38.0277 59.547 42.1107 59.547 42.1107L38.619 30.6047Z" fill="black"/>
<path d="M55.0428 45.2148L55.1838 55.6798C55.1838 55.6798 53.3368 58.7138 47.2218 59.2938C42.6658 59.7258 41.0498 58.7168 41.0498 58.7168L41.6138 53.4078L42.1708 48.2308L53.1928 45.6498L55.0428 45.2148Z" fill="#F48462"/>
<path d="M53.1942 45.6523C53.1712 45.9383 53.0672 46.2773 52.9042 46.6663C50.6332 51.9253 44.2462 53.1393 41.6152 53.4103L42.1722 48.2333L53.1942 45.6523Z" fill="black"/>
<path d="M39.5161 24.4081C39.5161 24.4081 34.2001 37.6041 36.4641 44.8651C38.7281 52.1261 45.3641 50.7811 49.3141 49.2501C53.2641 47.7191 55.0451 45.2181 55.0451 45.2181C55.0451 45.2181 58.8091 46.3741 61.2021 42.8351C63.5951 39.2961 61.9441 35.3601 59.7891 34.5091C57.6341 33.6591 55.1471 35.2691 55.1471 35.2691L57.0211 31.4251C57.0211 31.4251 48.1171 12.4211 39.5161 24.4081Z" fill="#F48462"/>
<path d="M55.6049 40.9987C55.4529 40.9987 55.3009 40.9287 55.2029 40.7957C55.0389 40.5737 55.0859 40.2607 55.3069 40.0967L59.2499 37.1797C59.4729 37.0167 59.7849 37.0617 59.9499 37.2847C60.1139 37.5067 60.0669 37.8197 59.8459 37.9837L55.9029 40.9007C55.8129 40.9677 55.7079 40.9987 55.6049 40.9987Z" fill="black"/>
<path d="M59.9018 40.8825C59.8628 40.8825 59.8238 40.8785 59.7838 40.8685L56.6678 40.1115C56.3998 40.0465 56.2348 39.7765 56.2998 39.5075C56.3648 39.2395 56.6328 39.0735 56.9038 39.1395L60.0198 39.8965C60.2878 39.9615 60.4528 40.2315 60.3878 40.5005C60.3318 40.7285 60.1268 40.8825 59.9018 40.8825Z" fill="black"/>
<path d="M48.0059 30.5596C47.8009 30.5596 47.6079 30.4316 47.5349 30.2276C46.8399 28.2766 45.1699 28.5046 44.9779 28.5336C44.7099 28.5776 44.4479 28.3996 44.3999 28.1286C44.3519 27.8576 44.5309 27.5996 44.8009 27.5496C45.7219 27.3786 47.6779 27.6526 48.4759 29.8916C48.5689 30.1516 48.4329 30.4376 48.1729 30.5306C48.1189 30.5506 48.0619 30.5596 48.0059 30.5596Z" fill="black"/>
<path d="M38.1928 29.5384C38.0508 29.5384 37.9108 29.4784 37.8118 29.3614C37.6328 29.1514 37.6588 28.8354 37.8698 28.6564C38.3378 28.2594 39.5818 27.2024 40.1488 27.8494C40.3318 28.0564 40.3118 28.3724 40.1038 28.5554C39.9708 28.6724 39.7928 28.7054 39.6348 28.6604C39.5278 28.6944 39.2028 28.8364 38.5158 29.4194C38.4218 29.4994 38.3068 29.5384 38.1928 29.5384Z" fill="black"/>
<path d="M40.0898 39.4708C39.9398 39.4708 39.7908 39.4028 39.6928 39.2738C37.9848 37.0348 41.2598 33.5018 41.4008 33.3528C41.5908 33.1508 41.9058 33.1428 42.1068 33.3308C42.3078 33.5198 42.3188 33.8358 42.1288 34.0378C41.3358 34.8848 39.4938 37.3668 40.4868 38.6678C40.6548 38.8878 40.6118 39.2008 40.3928 39.3688C40.3028 39.4378 40.1968 39.4708 40.0898 39.4708Z" fill="black"/>
<path d="M39.2359 34.799C39.2119 34.799 39.1879 34.798 39.1639 34.794C38.8919 34.755 38.7009 34.502 38.7399 34.228L39.0929 31.765C39.1329 31.491 39.3869 31.302 39.6589 31.341C39.9309 31.38 40.1219 31.633 40.0829 31.907L39.7299 34.37C39.6939 34.619 39.4799 34.799 39.2359 34.799Z" fill="black"/>
<path d="M46.4488 34.8103C46.1408 34.7913 45.9318 34.5543 45.9498 34.2783L46.1078 31.7953C46.1258 31.5213 46.3218 31.3223 46.6388 31.3283C46.9138 31.3463 47.1228 31.5833 47.1058 31.8593L46.9478 34.3423C46.9308 34.6073 46.7098 34.8103 46.4488 34.8103Z" fill="black"/>
<path d="M38.4542 27.3815C38.4542 27.3815 39.5622 25.2625 42.1732 25.2095C44.7842 25.1565 46.3332 26.9745 46.3332 26.9745C46.3332 26.9745 45.2472 31.3865 48.8292 33.6735C52.4112 35.9605 55.1492 35.2705 55.1492 35.2705L57.7122 34.3185L59.5502 30.5305L51.9932 22.6035L42.2832 17.6445L37.4302 22.1715L38.4542 27.3815Z" fill="black"/>
<path d="M44.2041 43.6949C43.0341 43.6949 42.0631 42.6619 42.0191 42.6119C41.9031 42.4859 41.8591 42.3089 41.9041 42.1429C41.9481 41.9769 42.0751 41.8459 42.2401 41.7949L46.013 40.6349C46.191 40.5809 46.3861 40.6299 46.5161 40.7629C46.6471 40.8959 46.6931 41.0909 46.6351 41.2689C46.1801 42.6559 45.5001 43.4579 44.6131 43.6509C44.4751 43.6809 44.3381 43.6949 44.2041 43.6949ZM43.452 42.4689C43.746 42.6319 44.0851 42.7449 44.4021 42.6739C44.7601 42.5949 45.0481 42.2879 45.2701 41.9099L43.452 42.4689Z" fill="black"/>
<path d="M85.959 71.6603C82.629 76.8803 78.289 81.3903 73.209 84.9203C70.489 86.8103 67.559 88.4203 64.459 89.7103L71.619 56.8203C72.109 57.1603 79.75 62.5503 85.959 71.6603Z" fill="#92B4EA"/>
<path d="M56.1838 66.0359C53.4668 66.0359 48.2188 61.9509 46.4718 60.5269C44.6268 62.2599 39.9497 66.4349 38.2447 65.8449C37.9357 65.7379 37.6938 65.5079 37.5478 65.1809C36.8058 63.5229 38.6178 59.0149 38.9888 58.1279C39.0868 57.8949 39.3448 57.7709 39.5878 57.8409C39.6218 57.8509 43.1138 58.8359 47.1038 58.5399C51.6968 58.1989 56.0638 54.9399 56.1078 54.9069C56.2388 54.8069 56.4098 54.7769 56.5648 54.8319C56.7198 54.8829 56.8408 55.0069 56.8878 55.1639C57.3528 56.7299 59.5447 64.6039 57.0077 65.8649C56.7727 65.9819 56.4948 66.0359 56.1838 66.0359ZM46.8688 59.5589C50.1118 62.2389 55.1948 65.6509 56.5628 64.9689C57.8008 64.3549 57.0868 59.6399 56.1208 56.1199C54.7308 57.0539 51.0908 59.2469 47.1788 59.5379C47.0748 59.5459 46.9708 59.5519 46.8688 59.5589ZM39.7478 58.9159C38.9768 60.8569 38.0508 63.8579 38.4608 64.7729C38.5078 64.8779 38.5528 64.8939 38.5708 64.9009C39.4048 65.1949 43.0467 62.4019 46.0037 59.5939C43.1247 59.6549 40.7068 59.1489 39.7478 58.9159Z" fill="#F7B369"/>
</svg>
