<svg width="94" height="94" viewBox="0 0 94 94" fill="none" xmlns="http://www.w3.org/2000/svg">
<path d="M93.25 46.62C93.25 52.88 92.02 58.85 89.78 64.3C89.58 64.8 89.36 65.29 89.13 65.78C83.51 78.25 72.56 87.81 59.17 91.53C58.22 91.8 57.25 92.04 56.27 92.24C55.94 92.31 55.62 92.37 55.29 92.43C52.48 92.97 49.58 93.24 46.63 93.24C44.98 93.24 43.35 93.16 41.74 92.99C40.69 92.88 39.65 92.73 38.62 92.55C37.26 92.31 35.93 92.02 34.61 91.67C32.83 91.2 31.08 90.62 29.39 89.94C25.48 88.39 21.83 86.32 18.52 83.82C13.25 79.84 8.85999 74.76 5.67999 68.93C2.05999 62.3 0 54.7 0 46.62C0 20.87 20.88 0 46.63 0C72.38 0 93.25 20.87 93.25 46.62Z" fill="#F3F0DD"/>
<path d="M59.1701 91.5276C55.1801 92.6476 50.9701 93.2376 46.6301 93.2376C43.9001 93.2376 41.2201 93.0076 38.6201 92.5476C37.2601 92.3076 35.9301 92.0176 34.6101 91.6676C32.8301 91.1976 31.0801 90.6177 29.3901 89.9377L32.7001 56.6076L50.7501 52.3477L57.9301 54.4776L59.1701 91.5276Z" fill="#A37B90"/>
<path d="M53.0502 46.5308C48.3202 45.6508 34.7802 23.8708 34.7802 23.8708C34.7802 23.8708 28.0402 15.5609 29.8602 14.4609C31.6802 13.3709 33.4102 15.0408 33.4102 15.0408C33.4102 15.0408 39.4402 14.0908 44.9602 13.8708C45.6602 13.8408 46.3502 13.8208 47.0202 13.8208C49.0502 13.8108 50.8902 13.9409 52.1602 14.3009C57.1702 15.7209 60.5302 23.9309 60.5302 23.9309C60.5302 23.9309 63.0402 23.7008 64.1002 27.1208C65.1702 30.5508 57.7712 47.4108 53.0502 46.5308Z" fill="black"/>
<path d="M52.9929 43.8125L53.2249 55.2825C53.2249 55.2825 51.2229 58.6215 44.5239 59.3025C39.5329 59.8095 37.7539 58.7155 37.7539 58.7155L38.3339 52.8925L38.9069 47.2135L50.9699 44.3035L52.9929 43.8125Z" fill="#F48462"/>
<path d="M50.969 44.3047C50.946 44.6187 50.835 44.9907 50.658 45.4187C48.207 51.1997 41.215 52.5777 38.334 52.8947L38.907 47.2157L50.969 44.3047Z" fill="black"/>
<path d="M35.8199 21.1194C35.8199 21.1194 30.0908 35.6224 32.6248 43.5654C35.1598 51.5074 42.4239 49.9844 46.7418 48.2764C51.0598 46.5694 52.9939 43.8144 52.9939 43.8144C52.9939 43.8144 57.1289 45.0534 59.7249 41.1574C62.3219 37.2614 60.4839 32.9584 58.1149 32.0424C55.7469 31.1264 53.0329 32.9094 53.0329 32.9094L55.0589 28.6814C55.0589 28.6814 45.1599 7.91736 35.8199 21.1194Z" fill="#F48462"/>
<path d="M35.8198 21.1196C35.8198 21.1196 40.2838 19.3236 42.1888 20.8976C44.0938 22.4716 46.3388 35.7676 53.0338 32.9096C59.7288 30.0516 56.2648 21.5326 56.2648 21.5326C56.2648 21.5326 39.4268 7.11359 35.8198 21.1196Z" fill="black"/>
<path d="M38.3882 52.3555C38.3882 52.3555 36.9102 71.9665 34.6102 91.6665C22.1402 88.3565 11.7302 80.0065 5.68018 68.9265C9.38018 65.0465 15.3002 58.5565 20.4102 56.4865C29.3302 52.8665 38.3882 52.3555 38.3882 52.3555Z" fill="#40507F"/>
<path d="M42.628 59.8074C40.19 59.8074 38.402 59.4274 38.226 59.3884C37.956 59.3284 37.786 59.0624 37.846 58.7924C37.906 58.5234 38.17 58.3534 38.442 58.4114C38.543 58.4334 48.553 60.5524 53.79 54.4064C53.971 54.1954 54.286 54.1714 54.495 54.3494C54.705 54.5294 54.73 54.8444 54.552 55.0544C51.2 58.9864 46.211 59.8074 42.628 59.8074Z" fill="#92B4EA"/>
<path d="M89.1302 65.7795C83.5102 78.2495 72.5602 87.8095 59.1702 91.5295C58.2202 91.7995 57.2502 92.0395 56.2702 92.2395C55.9402 92.3095 55.6202 92.3695 55.2902 92.4295C53.9402 77.1795 53.1602 50.5195 53.1602 50.5195C53.1602 50.5195 73.9302 50.8295 89.1302 65.7795Z" fill="#40507F"/>
<path d="M53.5482 39.3151C53.4232 39.3151 53.2982 39.2682 53.2002 39.1742C53.0022 38.9832 52.9962 38.6662 53.1882 38.4672L56.8012 34.7262C56.9912 34.5282 57.3082 34.5232 57.5082 34.7142C57.7062 34.9052 57.7122 35.2222 57.5202 35.4212L53.9072 39.1622C53.8092 39.2642 53.6782 39.3151 53.5482 39.3151Z" fill="black"/>
<path d="M58.4362 38.4022C58.3942 38.4022 58.3522 38.3972 58.3102 38.3852L55.1902 37.5702C54.9222 37.5012 54.7622 37.2272 54.8332 36.9612C54.9022 36.6922 55.1783 36.5292 55.4423 36.6042L58.5623 37.4192C58.8303 37.4882 58.9902 37.7622 58.9192 38.0282C58.8612 38.2542 58.6592 38.4022 58.4362 38.4022Z" fill="black"/>
<path d="M34.875 27.6452C34.77 27.6452 34.663 27.6112 34.573 27.5422C34.357 27.3752 34.311 27.0702 34.473 26.8522C34.512 26.8002 35.449 25.5792 37.826 25.9132C38.099 25.9522 38.289 26.2062 38.25 26.4792C38.21 26.7522 37.948 26.9312 37.684 26.9032C35.939 26.6522 35.298 27.4222 35.272 27.4552C35.172 27.5792 35.023 27.6452 34.875 27.6452Z" fill="black"/>
<path d="M45.6788 27.779C45.5658 27.779 45.4518 27.741 45.3588 27.663C44.1088 26.62 42.6828 26.9861 42.6238 27.0021C42.3598 27.0741 42.0838 26.916 42.0118 26.65C41.9398 26.384 42.0948 26.111 42.3598 26.038C42.4398 26.016 44.3368 25.509 46.0008 26.895C46.2128 27.072 46.2408 27.387 46.0648 27.599C45.9648 27.717 45.8218 27.779 45.6788 27.779Z" fill="black"/>
<path d="M35.3499 33.3615C35.0339 33.3375 34.8279 33.0955 34.8509 32.8215L35.0678 30.1505C35.0898 29.8755 35.3359 29.6745 35.6059 29.6925C35.8809 29.7145 36.0859 29.9565 36.0639 30.2305L35.8469 32.9015C35.8269 33.1635 35.6079 33.3615 35.3499 33.3615Z" fill="black"/>
<path d="M43.2488 33.6843C42.9328 33.6603 42.7268 33.4183 42.7498 33.1443L42.9668 30.4743C42.9878 30.1993 43.2378 30.0023 43.5048 30.0163C43.7798 30.0383 43.9848 30.2804 43.9628 30.5544L43.7458 33.2243C43.7248 33.4863 43.5068 33.6843 43.2488 33.6843Z" fill="black"/>
<path d="M37.2669 39.7331C37.0759 39.7331 36.8939 39.6231 36.8109 39.4371C35.1349 35.6851 37.6479 32.6621 37.7559 32.5351C37.9349 32.3261 38.2479 32.2991 38.4589 32.4781C38.6699 32.6561 38.6959 32.9711 38.5189 33.1821C38.4279 33.2891 36.309 35.8631 37.723 39.0291C37.836 39.2811 37.7229 39.5771 37.4709 39.6891C37.4049 39.7191 37.3359 39.7331 37.2669 39.7331Z" fill="black"/>
<path d="M40.3921 42.1348C40.1161 42.1348 39.8921 41.9108 39.8921 41.6348C39.8921 41.3598 40.1151 41.1358 40.3901 41.1348C40.4601 41.1338 42.1211 41.1048 42.7191 39.6778C42.8261 39.4228 43.1161 39.3038 43.3731 39.4098C43.6281 39.5158 43.7471 39.8088 43.6411 40.0638C42.7851 42.1118 40.4901 42.1348 40.3921 42.1348Z" fill="black"/>
</svg>
