<svg width="94" height="94" viewBox="0 0 94 94" fill="none" xmlns="http://www.w3.org/2000/svg">
<path d="M93.25 46.62C93.25 52.88 92.02 58.85 89.78 64.3C88.14 68.29 85.96 72.01 83.33 75.36C77.29 83.07 68.87 88.83 59.17 91.53C55.18 92.65 50.97 93.24 46.63 93.24C44.98 93.24 43.35 93.16 41.74 92.99C40.69 92.88 39.65 92.73 38.62 92.55C37.48 92.35 36.36 92.11 35.25 91.83C35.04 91.78 34.82 91.73 34.61 91.67C32.83 91.2 31.08 90.62 29.39 89.94C26.41 88.76 23.57 87.27 20.93 85.52C20.11 84.98 19.3 84.41 18.52 83.82C16.96 82.64 15.48 81.37 14.08 80C10.75 76.76 7.92002 73.03 5.68002 68.93C2.06002 62.3 0 54.7 0 46.62C0 20.87 20.88 0 46.63 0C72.38 0 93.25 20.87 93.25 46.62Z" fill="#F3F0DD"/>
<path d="M35.1452 25.4129C35.1452 25.4129 30.6842 29.1549 30.2632 32.9099C29.8412 36.6649 29.8412 36.6649 29.8412 36.6649C29.8412 36.6649 24.4942 38.3729 22.8792 44.8339C20.6882 53.6049 26.6662 56.6549 26.6662 56.6549L73.1022 61.6679C73.1022 61.6679 78.5592 56.8849 77.4672 49.1999C76.3752 41.5139 71.8762 39.0689 71.8762 39.0689C71.8762 39.0689 72.6172 34.1279 70.1302 29.1639C67.2612 23.4359 61.3692 23.3789 61.3692 23.3789L35.1452 25.4129Z" fill="black"/>
<path d="M83.3302 75.3609C77.2902 83.0709 68.8702 88.8309 59.1702 91.5309C55.1802 92.6509 50.9702 93.2409 46.6302 93.2409C44.9802 93.2409 43.3502 93.1609 41.7402 92.9909C40.6902 92.8809 39.6501 92.7309 38.6201 92.5509C37.4801 92.3509 36.3602 92.1109 35.2502 91.8309C35.0402 91.7809 34.8202 91.7309 34.6102 91.6709C32.8302 91.2009 31.0802 90.6209 29.3902 89.9409C26.4102 88.7609 23.5702 87.2709 20.9302 85.5209C21.0302 83.0309 21.2002 81.6209 21.2002 81.6209L28.7302 57.8709L29.4702 55.5309C29.9102 54.1309 30.8102 52.9609 32.0002 52.1809C32.6102 51.7709 33.3002 51.4709 34.0402 51.3109C35.4202 50.9909 37.1401 50.6409 39.0901 50.3109C39.7001 50.2209 40.3102 50.1209 40.9602 50.0309C42.9802 49.7509 45.2002 49.5309 47.4902 49.4309C48.8702 49.3709 50.2502 49.3609 51.6402 49.4109C52.2602 49.4309 52.8802 49.4609 53.5002 49.5009C54.2202 49.5609 54.9302 49.6309 55.6502 49.7109C56.4502 49.8109 57.2402 49.9309 58.0302 50.0909C59.8302 50.4309 61.5902 50.9109 63.2602 51.5609C67.6902 53.2909 71.5402 56.8509 74.7102 60.8409C78.7502 65.9309 81.6902 71.7309 83.3302 75.3609Z" fill="#F7B369"/>
<path d="M53.6421 47.2734C53.6421 47.2734 56.9071 48.3434 57.8971 49.8624C59.0071 51.5664 56.9311 56.0514 51.0251 59.5394C46.7101 62.0874 43.0681 62.9884 43.0681 62.9884C43.0681 62.9884 39.3111 57.7924 38.5901 54.6334C37.8701 51.4744 40.5141 47.3314 40.5141 47.3314L53.6421 47.2734Z" fill="#A37B90"/>
<path d="M64.2111 32.7313C60.8611 46.9813 48.3511 42.7213 48.3511 42.7213C48.3511 42.7213 29.1111 40.1413 36.3511 31.2513C36.3511 31.2513 32.4311 25.2513 32.4611 22.3113C32.4811 20.2813 36.7511 15.5513 42.7611 13.7613C43.3611 13.5813 43.9711 13.4313 44.6011 13.3213C46.8211 12.9113 49.2311 12.9313 51.7111 13.6313C61.9701 16.5113 65.5101 27.1913 64.2111 32.7313Z" fill="black"/>
<path d="M40.481 46.0727L40.5139 46.3327L41.3279 51.2137L41.951 55.0427C41.951 55.0427 41.731 55.9777 46.175 55.1437C52.128 54.0027 53.7509 51.1887 53.7509 51.1887L52.912 42.1367L51.1339 42.7047L40.481 46.0727Z" fill="#F48462"/>
<path d="M40.5142 46.3317L41.3282 51.2127C44.2022 50.5047 49.3592 48.5967 50.9472 43.7477C51.0672 43.3547 51.1352 43.0057 51.1372 42.7227L40.5232 46.2547L40.5142 46.3317Z" fill="black"/>
<path d="M35.7611 23.077C35.7611 23.077 31.7291 36.533 34.6111 43.468C37.4941 50.403 43.897 48.4789 47.642 46.6159C51.387 44.7529 52.9121 42.133 52.9121 42.133C52.9121 42.133 56.7181 42.929 58.7511 39.233C60.7841 35.537 58.8041 31.8159 56.6091 31.1749C54.4131 30.5339 52.1141 32.342 52.1141 32.342L53.6091 28.3919C53.6091 28.3919 43.1331 10.5129 35.7611 23.077Z" fill="#F48462"/>
<path d="M37.849 38.9966C37.659 38.9966 37.478 38.8876 37.394 38.7036C36.182 36.0426 37.77 32.9816 37.837 32.8526C37.966 32.6076 38.269 32.5156 38.512 32.6436C38.756 32.7726 38.85 33.0746 38.722 33.3186C38.707 33.3456 37.298 36.0796 38.304 38.2896C38.418 38.5406 38.308 38.8376 38.056 38.9516C37.989 38.9826 37.918 38.9966 37.849 38.9966Z" fill="black"/>
<path d="M53.3709 38.3502C53.2679 38.3502 53.1659 38.3192 53.0769 38.2542C52.8529 38.0912 52.8049 37.7792 52.9669 37.5562L55.9639 33.4362C56.1269 33.2122 56.4399 33.1642 56.6619 33.3262C56.8859 33.4882 56.9349 33.8012 56.7719 34.0242L53.7749 38.1442C53.6779 38.2782 53.5259 38.3502 53.3709 38.3502Z" fill="black"/>
<path d="M56.9158 36.8958C56.9038 36.8958 54.4588 36.8398 54.4588 36.8398C54.1838 36.8338 53.9648 36.6048 53.9708 36.3278C53.9788 36.0518 54.2138 35.8558 54.4828 35.8398L56.9278 35.8958C57.2028 35.9018 57.4218 36.1308 57.4158 36.4078C57.4088 36.6788 57.1878 36.8958 56.9158 36.8958Z" fill="black"/>
<path d="M52.1128 32.3381C52.1128 32.3381 46.1748 30.1961 43.6448 26.4411C41.1148 22.6861 40.7818 20.6831 40.7818 20.6831C40.7818 20.6831 40.3028 23.4201 38.3508 24.2991C36.3988 25.1791 35.1448 25.4111 35.1448 25.4111L34.3278 29.3181L34.0288 20.2891C34.0288 20.2891 39.1578 16.6421 39.8948 16.5471C40.6318 16.4531 50.1438 16.9281 50.7528 17.4191C51.3618 17.9101 55.2178 24.7561 55.2178 24.7561L55.8388 27.9921L52.1128 32.3381Z" fill="black"/>
<path d="M53.3548 47.9141C53.3548 47.9141 46.9978 53.9071 43.2758 53.9411C39.5528 53.9761 40.0748 50.8801 40.0748 50.8801L40.6888 58.0231L43.9769 59.1011L52.1978 55.7881L56.8118 50.6241L53.3548 47.9141Z" fill="#A37B90"/>
<path d="M46.6308 59.4614C46.6308 59.4614 49.4188 63.2744 49.9848 69.2574C50.5518 75.2404 47.0778 81.9634 47.0778 81.9634C47.0778 81.9634 41.5088 75.6484 40.7718 70.8814C40.0348 66.1144 42.5858 59.3464 42.5858 59.3464C42.5858 59.3464 40.0618 65.0884 39.4378 68.6024C38.8138 72.1164 37.9528 76.6324 37.9528 76.6324C37.9528 76.6324 34.5738 72.1524 34.7758 66.8344C34.9778 61.5164 40.6898 58.0234 40.6898 58.0234L46.6308 59.4614Z" fill="#A37B90"/>
<path d="M45.918 61.2183C44.38 61.2183 42.3991 60.6813 42.1221 60.6043C42.0921 60.5953 42.0681 60.5863 42.0451 60.5763C41.9371 60.5263 41.8451 60.4363 41.7951 60.3173C41.4581 59.5233 39.8321 55.4843 40.8811 54.0323C41.0851 53.7513 41.4811 53.4333 42.1881 53.4863C42.7551 53.5333 43.203 53.8003 43.482 54.2593C44.317 55.6313 43.3871 58.5403 42.9271 59.7783C44.0071 60.0373 45.8461 60.3823 46.6971 60.1353C47.5951 59.8763 48.1051 56.7803 47.7461 55.0313C47.6911 54.7603 47.8651 54.4963 48.1361 54.4413C48.4011 54.3883 48.6711 54.5593 48.7271 54.8303C49.0501 56.4083 48.8371 60.5583 46.9751 61.0963C46.6751 61.1833 46.311 61.2183 45.918 61.2183ZM42.0231 54.4793C41.7931 54.4793 41.7261 54.5713 41.6921 54.6183C41.2731 55.1983 41.6871 57.0643 42.2461 58.6923C42.7121 57.2373 43.0611 55.4883 42.6281 54.7783C42.5171 54.5943 42.356 54.5033 42.107 54.4833C42.076 54.4813 42.0491 54.4793 42.0231 54.4793Z" fill="#92B4EA"/>
<path d="M45.7399 69.3236C45.3099 69.3236 44.9358 69.1416 44.6598 68.7976C43.3318 67.1436 44.5658 61.4476 44.7118 60.8036C44.7598 60.5866 44.9459 60.4286 45.1669 60.4146C45.3839 60.4046 45.5928 60.5336 45.6688 60.7426C46.0538 61.8016 47.9179 67.1636 46.7879 68.7846C46.5429 69.1356 46.1828 69.3226 45.7458 69.3236C45.7428 69.3236 45.7399 69.3236 45.7399 69.3236ZM45.3289 62.9226C45.0039 65.0306 44.8538 67.4436 45.4388 68.1706C45.5258 68.2796 45.6028 68.2946 45.7408 68.3236C45.8648 68.3236 45.9179 68.2826 45.9669 68.2126C46.4399 67.5336 45.9729 65.1106 45.3289 62.9226Z" fill="#92B4EA"/>
<path d="M35.2501 91.8286C35.0401 91.7786 34.8201 91.7286 34.6101 91.6686C32.8301 91.1986 31.0801 90.6186 29.3901 89.9386C26.4101 88.7586 23.5701 87.2686 20.9301 85.5186C20.1101 84.9786 19.3001 84.4086 18.5201 83.8186C16.9601 82.6386 15.4801 81.3686 14.0801 79.9986C14.1001 79.8686 14.1301 79.7386 14.1601 79.6086C16.7101 68.0686 21.5501 60.9686 25.5501 56.8486C29.1701 53.1286 32.6361 51.8086 32.6361 51.8086C32.5961 51.9286 32.0401 52.0486 32.0001 52.1786C31.6101 53.6186 31.4301 55.6686 31.4201 58.1586C31.3901 66.7486 33.3501 80.5086 35.2501 91.8286Z" fill="#F7B369"/>
<path d="M42.3672 34.1112C42.0592 34.0842 41.8662 33.8662 41.8662 33.6122C41.8682 33.5642 42.1022 31.1092 42.1022 31.1092C42.1292 30.8342 42.3782 30.6292 42.6482 30.6592C42.9072 30.6832 43.1002 30.9012 43.1002 31.1562C43.0982 31.2042 42.8642 33.6592 42.8642 33.6592C42.8392 33.9172 42.6212 34.1112 42.3672 34.1112Z" fill="black"/>
<path d="M35.146 33.9209C35.125 33.9209 35.102 33.9189 35.081 33.9169C34.829 33.8839 34.645 33.6689 34.645 33.4219C34.645 33.4009 34.646 33.3789 34.649 33.3569L34.967 30.9119C35.003 30.6379 35.256 30.4449 35.528 30.4809C35.78 30.5139 35.963 30.7279 35.963 30.9759C35.963 30.9969 35.962 31.0189 35.959 31.0409L35.641 33.4859C35.608 33.7379 35.393 33.9209 35.146 33.9209Z" fill="black"/>
<path d="M41.838 42.5994C40.692 42.5994 39.619 41.9834 39.568 41.9534C39.407 41.8594 39.311 41.6824 39.321 41.4954C39.33 41.3084 39.443 41.1424 39.613 41.0654L43.169 39.4514C43.326 39.3794 43.509 39.3944 43.652 39.4904C43.795 39.5854 43.88 39.7484 43.876 39.9204C43.869 40.1684 43.765 42.3464 42.262 42.5674C42.12 42.5904 41.979 42.5994 41.838 42.5994ZM41.089 41.4954C41.41 41.5794 41.773 41.6284 42.115 41.5804C42.424 41.5344 42.623 41.1574 42.74 40.7464L41.089 41.4954Z" fill="black"/>
<path d="M34.4259 29.3543C34.1969 29.3543 33.9909 29.1963 33.9379 28.9633C33.8779 28.6933 34.0469 28.4263 34.3169 28.3663L36.5449 27.8673C36.8199 27.8083 37.0819 27.9763 37.1429 28.2453C37.2029 28.5153 37.0339 28.7823 36.7639 28.8423L34.5359 29.3413C34.4979 29.3503 34.4619 29.3543 34.4259 29.3543Z" fill="black"/>
<path d="M44.5448 29.8526C44.4998 29.8526 44.4538 29.8466 44.4078 29.8336L40.8908 28.8336C40.6248 28.7576 40.4707 28.4816 40.5467 28.2156C40.6217 27.9506 40.8938 27.7936 41.1638 27.8716L44.6818 28.8716C44.9478 28.9476 45.1017 29.2236 45.0257 29.4896C44.9627 29.7096 44.7628 29.8526 44.5448 29.8526Z" fill="black"/>
<path d="M42.6011 31.6583C42.4921 31.6583 42.3821 31.6223 42.2901 31.5503L41.4661 30.8953C41.2501 30.7233 41.2141 30.4083 41.3861 30.1923C41.5591 29.9753 41.8721 29.9423 42.0891 30.1113L42.9131 30.7663C43.1291 30.9383 43.1651 31.2533 42.9931 31.4693C42.8941 31.5933 42.7471 31.6583 42.6011 31.6583Z" fill="black"/>
<path d="M35.4629 31.4754C35.3399 31.4754 35.2179 31.4304 35.1209 31.3404L34.4349 30.6974C34.2339 30.5094 34.2229 30.1924 34.4119 29.9904C34.6009 29.7884 34.9179 29.7784 35.1189 29.9674L35.8059 30.6104C36.0069 30.7984 36.0179 31.1154 35.8289 31.3174C35.7299 31.4224 35.5969 31.4754 35.4629 31.4754Z" fill="black"/>
</svg>
