<svg width="94" height="94" viewBox="0 0 94 94" fill="none" xmlns="http://www.w3.org/2000/svg">
<path d="M93.25 46.62C93.25 55.83 90.58 64.42 85.96 71.66C85.14 72.94 84.26 74.18 83.33 75.38C80.45 79.04 77.04 82.26 73.21 84.92C72.79 85.21 72.36 85.5 71.93 85.78C69.58 87.3 67.08 88.62 64.46 89.71C63.77 89.99 63.08 90.26 62.38 90.51C57.46 92.28 52.16 93.24 46.63 93.24C46.27 93.24 45.9 93.24 45.53 93.23C40.91 93.12 36.45 92.34 32.25 90.98C26.52 89.13 21.28 86.19 16.77 82.42C16.57 82.26 16.36 82.08 16.16 81.91C14.78 80.72 13.48 79.45 12.25 78.11C12.09 77.94 11.94 77.77 11.79 77.59C4.45004 69.36 0 58.51 0 46.62C0 20.87 20.88 0 46.63 0C72.37 0 93.25 20.87 93.25 46.62Z" fill="#F3F0DD"/>
<path d="M32.25 90.9796C26.52 89.1296 21.28 86.1896 16.77 82.4196C16.57 82.2596 16.36 82.0796 16.16 81.9096C14.78 80.7196 13.48 79.4496 12.25 78.1096C12.09 77.9396 11.94 77.7696 11.79 77.5896C16.49 63.8996 24.3 52.9896 33.3 53.0196C44.53 53.1096 38.68 74.2096 32.25 90.9796Z" fill="#40507F"/>
<path d="M52.5028 25.3312C52.5028 25.3312 65.8478 21.7402 75.7738 33.8972C85.6998 46.0532 79.5318 61.0182 63.8058 60.5882C48.0798 60.1582 44.4238 44.0872 44.4238 44.0872L52.5028 25.3312Z" fill="black"/>
<path d="M71.93 85.7796C69.58 87.2996 67.08 88.6196 64.46 89.7096C63.77 89.9896 63.08 90.2596 62.38 90.5096C57.46 92.2796 52.16 93.2396 46.63 93.2396C46.27 93.2396 45.9 93.2396 45.53 93.2296C34.6 92.9796 24.59 88.9596 16.77 82.4196C17.71 71.9196 18.98 63.4796 20.67 61.0496C24.22 55.9396 28.39 54.0596 33.3 53.0196C35.92 52.4796 38.69 52.1896 41.69 51.7596C46.09 51.1496 51.39 51.2796 56.13 51.8196H56.19C60.83 52.3596 64.94 53.3096 67.12 54.3796C68.93 55.2596 70.67 69.3196 71.93 85.7796Z" fill="#40507F"/>
<path d="M35.3321 43.2447C34.7741 45.7947 33.2431 47.6257 31.9121 47.3347C30.5811 47.0437 29.9551 44.7407 30.5131 42.1907C31.0711 39.6407 32.6021 37.8097 33.9331 38.1007C35.2641 38.3907 35.8901 40.6947 35.3321 43.2447Z" fill="#92B4EA"/>
<path d="M83.3298 75.3802C80.4498 79.0402 77.0398 82.2602 73.2098 84.9202C70.4898 86.8102 67.5598 88.4202 64.4598 89.7102C63.7698 89.9902 63.0798 90.2602 62.3798 90.5102L53.7998 51.8202C53.7998 51.8202 54.6498 51.7502 56.1298 51.8202H56.1898C60.8798 52.0802 74.0498 51.9002 83.3298 75.3802Z" fill="#40507F"/>
<path d="M32.4688 35.3391C32.4688 35.3391 28.6748 31.3051 29.6228 24.9221C30.2658 20.5951 32.1578 19.1621 32.1578 19.1621C32.1578 19.1621 29.1208 13.3311 37.8308 13.5201C46.5408 13.7091 53.6768 12.9661 57.5578 20.4581C59.8438 24.8721 58.9338 34.4591 58.9338 34.4591L32.4688 35.3391Z" fill="black"/>
<path d="M51.7123 42.1406L51.6503 52.7696C51.6503 52.7696 49.7153 55.8136 43.4943 56.2826C38.8603 56.6316 37.4072 54.2446 37.4072 54.2446L38.5833 44.9506L49.8253 42.5466L51.7123 42.1406Z" fill="#F48462"/>
<path d="M51.7 41.4922C51.671 41.7822 51.559 42.1242 51.385 42.5162C48.976 47.8122 40.593 49.9722 37.916 50.1962L38.583 44.9502L51.7 41.4922Z" fill="black"/>
<path d="M36.3548 20.7092C36.3548 20.7092 30.6988 34.0032 32.8548 41.4202C35.0108 48.8372 41.7749 47.6012 45.8159 46.1242C49.8559 44.6472 51.7138 42.1432 51.7138 42.1432C51.7138 42.1432 55.5129 43.3902 58.0119 39.8442C60.5109 36.2982 58.9119 32.2692 56.7409 31.3632C54.5699 30.4572 52.0128 32.0432 52.0128 32.0432L53.9909 28.1762C53.9909 28.1762 45.3238 8.70722 36.3548 20.7092Z" fill="#F48462"/>
<path d="M52.0132 32.0438C52.0132 32.0438 46.3432 33.3018 42.2672 27.0438C38.1912 20.7858 38.5042 18.1778 38.5042 18.1778L34.6902 24.7928C34.6902 24.7928 33.7222 20.2758 35.4802 17.3508C37.2382 14.4258 39.1322 14.9888 39.1322 14.9888L51.7422 17.8828L55.2402 27.8788L52.0132 32.0438Z" fill="black"/>
<path d="M37.122 37.6048C36.912 37.6048 36.7159 37.4708 36.6459 37.2608C35.7119 34.4078 37.68 31.4668 37.765 31.3428C37.92 31.1158 38.2309 31.0568 38.4579 31.2108C38.6869 31.3658 38.746 31.6768 38.592 31.9048C38.574 31.9308 36.8169 34.5698 37.5969 36.9498C37.6829 37.2128 37.539 37.4948 37.277 37.5808C37.226 37.5968 37.174 37.6048 37.122 37.6048Z" fill="black"/>
<path d="M52.6711 38.3229C52.5511 38.3229 52.43 38.2799 52.334 38.1919C52.13 38.0059 52.1151 37.6899 52.3021 37.4849L55.8351 33.6159C56.0221 33.4119 56.3381 33.3979 56.5411 33.5839C56.7451 33.7699 56.7601 34.0869 56.5731 34.2909L53.0401 38.1599C52.9411 38.2689 52.8071 38.3229 52.6711 38.3229Z" fill="black"/>
<path d="M56.4609 37.2389C56.4389 37.2389 56.4158 37.2379 56.3938 37.2349L53.9009 36.8989C53.6269 36.8619 53.4348 36.6099 53.4718 36.3359C53.5078 36.0619 53.7639 35.8699 54.0339 35.9069L56.5269 36.2429C56.8009 36.2799 56.9929 36.5319 56.9559 36.8059C56.9219 37.0569 56.7069 37.2389 56.4609 37.2389Z" fill="black"/>
<path d="M34.3638 26.8138C34.1298 26.8138 33.9208 26.6477 33.8738 26.4087C33.8218 26.1377 33.9988 25.8747 34.2698 25.8227L36.6128 25.3688C36.8718 25.3158 37.1448 25.4928 37.1988 25.7638C37.2508 26.0348 37.0738 26.2978 36.8018 26.3498L34.4588 26.8038C34.4288 26.8108 34.3958 26.8138 34.3638 26.8138Z" fill="black"/>
<path d="M44.1648 28.1677C44.0918 28.1677 44.0168 28.1517 43.9478 28.1177L40.0547 26.2396C39.8057 26.1196 39.7008 25.8207 39.8218 25.5717C39.9418 25.3217 40.2438 25.2196 40.4888 25.3386L44.3818 27.2167C44.6308 27.3367 44.7357 27.6357 44.6147 27.8837C44.5287 28.0637 44.3508 28.1677 44.1648 28.1677Z" fill="black"/>
<path d="M34.4703 32.2447C34.4253 32.2447 34.3783 32.2387 34.3323 32.2257C34.0663 32.1497 33.9133 31.8727 33.9893 31.6067L34.6022 29.4607L34.0253 28.7807C33.8463 28.5707 33.8723 28.2547 34.0823 28.0757C34.2953 27.8967 34.6092 27.9237 34.7872 28.1327L35.5383 29.0167C35.6463 29.1447 35.6843 29.3167 35.6383 29.4777L34.9503 31.8807C34.8883 32.1017 34.6873 32.2447 34.4703 32.2447Z" fill="black"/>
<path d="M41.168 32.759C41.123 32.759 41.076 32.753 41.03 32.739C40.764 32.663 40.6109 32.386 40.6869 32.121L41.2989 29.982L40.4449 29.024C40.2609 28.818 40.2789 28.502 40.4849 28.318C40.6919 28.134 41.008 28.153 41.191 28.359L42.228 29.523C42.342 29.651 42.383 29.828 42.335 29.993L41.6459 32.396C41.5859 32.616 41.386 32.759 41.168 32.759Z" fill="black"/>
<path d="M39.0441 41.0547C38.7261 41.0547 38.4132 40.9887 38.1162 40.8327C37.8712 40.7047 37.7761 40.4027 37.9041 40.1577C38.0341 39.9137 38.3392 39.8197 38.5792 39.9467C39.6082 40.4827 41.5012 38.8457 42.0822 38.2277C42.2722 38.0267 42.5881 38.0167 42.7891 38.2067C42.9901 38.3957 43.0001 38.7117 42.8101 38.9127C42.5731 39.1667 40.7411 41.0547 39.0441 41.0547Z" fill="black"/>
<path d="M37.6642 52.2179L32.3643 53.1429C32.3643 53.1429 32.4762 60.2459 42.4462 61.1429C52.4162 62.0399 59.1113 52.1049 59.1113 52.1049L48.6412 50.8359L37.6642 52.2179Z" fill="#F48462"/>
<path d="M56.8991 43.8439C57.0611 46.4489 56.0901 48.6299 54.7301 48.7139C53.3711 48.7989 52.1372 46.7549 51.9752 44.1499C51.8132 41.5449 52.7841 39.3639 54.1441 39.2799C55.5041 39.1949 56.7371 41.2389 56.8991 43.8439Z" fill="#92B4EA"/>
<path d="M27.7628 88.1319C27.6298 88.1319 27.4968 88.0789 27.3998 87.9749C18.2078 78.2289 25.9318 68.3309 26.0108 68.2329C26.1838 68.0189 26.4988 67.9849 26.7128 68.1549C26.9288 68.3279 26.9638 68.6419 26.7918 68.8579C26.4918 69.2339 19.5389 78.1839 28.1259 87.2899C28.3149 87.4899 28.3068 87.8069 28.1048 87.9959C28.0088 88.0869 27.8858 88.1319 27.7628 88.1319Z" fill="#92B4EA"/>
</svg>
