<svg width="94" height="94" viewBox="0 0 94 94" fill="none" xmlns="http://www.w3.org/2000/svg">
<path d="M93.24 46.62C93.24 55.52 90.74 63.84 86.42 70.92C78.23 84.31 63.47 93.24 46.62 93.24C32.57 93.24 19.97 87.02 11.43 77.19C4.30999 69.01 0 58.31 0 46.62C0 20.87 20.87 0 46.62 0C72.37 0 93.24 20.87 93.24 46.62Z" fill="#F3F0DD"/>
<path d="M51.7432 34.3837C51.7432 34.3837 59.1392 30.8817 59.9502 36.6827C60.8902 43.4027 52.8292 43.7777 52.8292 43.7777L51.7432 34.3837Z" fill="#F48462"/>
<path d="M55.707 40.368C55.628 40.368 55.547 40.349 55.473 40.309C55.229 40.179 55.137 39.876 55.267 39.632L57.61 35.234C57.74 34.991 58.043 34.897 58.286 35.028C58.53 35.158 58.622 35.461 58.492 35.705L56.149 40.103C56.059 40.272 55.886 40.368 55.707 40.368Z" fill="black"/>
<path d="M56.4288 39.0149C56.1578 39.0149 55.9348 38.7979 55.9288 38.5259C55.9228 38.2509 56.1418 38.0209 56.4178 38.0149L58.5648 37.9669C58.8868 37.9399 59.0698 38.1799 59.0758 38.4559C59.0818 38.7309 58.8628 38.9609 58.5868 38.9669L56.4398 39.0149C56.4368 39.0149 56.4328 39.0149 56.4288 39.0149Z" fill="black"/>
<path d="M86.4202 70.9207C83.4702 75.7407 79.6702 79.9807 75.2302 83.4207C74.9402 83.6607 74.6502 83.8807 74.3502 84.0907C66.6002 89.8507 57.0102 93.2407 46.6202 93.2407C40.3902 93.2407 34.4402 92.0207 29.0102 89.8007C28.7002 89.6707 28.3902 89.5407 28.0802 89.4007C21.6402 86.6107 15.9602 82.4107 11.4302 77.1907C13.3002 71.3807 16.7902 65.8607 23.0102 62.3607C38.8902 53.4307 62.6702 53.4307 73.2502 58.4507C79.7492 61.5307 84.0402 67.0507 86.4202 70.9207Z" fill="#A37B90"/>
<path d="M54.778 27.7154C54.778 27.7154 59.666 19.8314 58.679 16.4654C57.692 13.0994 53.29 16.3984 53.29 16.3984C53.29 16.3984 52.289 9.14842 46.889 10.5564C39.701 12.4304 32.562 25.0884 32.562 25.0884C32.562 25.0884 28.902 24.1694 27.663 27.3784C26.222 31.1134 27.486 35.3044 29.795 39.0324C32.104 42.7604 38.356 39.6854 38.356 39.6854L54.778 27.7154Z" fill="black"/>
<path d="M39.604 50.5353L39.865 59.1703C39.865 59.1703 43.063 60.8403 46.977 60.7553C52.262 60.6403 53.963 58.3153 53.963 58.3153L53.496 47.1133L39.604 50.5353Z" fill="#F48462"/>
<path d="M39.6001 50.3345C39.6001 50.3345 42.9411 56.8245 48.9021 55.6955C53.7071 54.7855 53.5111 47.9805 53.5111 47.9805L39.6001 50.3345Z" fill="black"/>
<path d="M54.778 27.7151C54.778 27.7151 57.4221 42.7321 54.7461 48.6011C51.7441 55.1861 44.0581 54.3051 41.3021 52.3511C37.5851 49.7161 35.982 45.455 35.982 45.455C35.982 45.455 31.059 46.6361 29.247 42.6541C27.345 38.4711 30.301 34.922 32.775 34.623C35.249 34.324 35.556 34.765 35.556 34.765L34.652 30.2541C34.652 30.2541 49.088 12.9011 54.778 27.7151Z" fill="#F48462"/>
<path d="M35.5561 34.7624C35.5561 34.7624 38.772 34.8764 42.404 31.9884C46.6641 28.6004 45.9911 23.0074 45.9911 23.0074C45.9911 23.0074 53.7451 27.4534 55.6721 33.3134C57.5991 39.1734 57.5721 19.2874 48.9941 20.0074C40.4181 20.7274 28.9731 26.3294 35.5561 34.7624Z" fill="black"/>
<path d="M34.978 41.3974C34.869 41.3974 34.76 41.3624 34.668 41.2894L30.712 38.1534C30.496 37.9824 30.459 37.6684 30.63 37.4514C30.803 37.2344 31.117 37.1984 31.333 37.3704L35.29 40.5064C35.506 40.6774 35.543 40.9914 35.371 41.2084C35.272 41.3334 35.126 41.3974 34.978 41.3974Z" fill="black"/>
<path d="M31.4659 42.1425C31.3199 42.1425 31.1759 42.0795 31.0779 41.9575C30.9039 41.7435 30.9359 41.4295 31.1499 41.2545L33.3439 39.4675C33.5589 39.2945 33.8739 39.3245 34.0479 39.5395C34.2219 39.7535 34.1899 40.0675 33.9759 40.2425L31.7819 42.0295C31.6889 42.1055 31.5769 42.1425 31.4659 42.1425Z" fill="black"/>
<path d="M43.1822 36.9992C42.9282 36.9992 42.7102 36.8062 42.6852 36.5482L42.4482 34.1222C42.4212 33.8472 42.6222 33.6022 42.8972 33.5752C43.1782 33.5592 43.4172 33.7502 43.4432 34.0242L43.6802 36.4502C43.7072 36.7252 43.5062 36.9702 43.2312 36.9972C43.2152 36.9982 43.1992 36.9992 43.1822 36.9992Z" fill="black"/>
<path d="M52.631 36.6435C52.377 36.6435 52.159 36.4505 52.134 36.1925L51.897 33.7665C51.87 33.4915 52.071 33.2465 52.346 33.2195C52.622 33.2055 52.866 33.3955 52.892 33.6685L53.129 36.0945C53.156 36.3695 52.955 36.6145 52.68 36.6415C52.663 36.6425 52.647 36.6435 52.631 36.6435Z" fill="black"/>
<path d="M49.1679 42.6566C49.1419 42.6566 49.1159 42.6546 49.0899 42.6506C48.8169 42.6076 48.6309 42.3516 48.6729 42.0786C49.2379 38.4876 47.9639 35.5816 47.9499 35.5526C47.8369 35.3006 47.9509 35.0046 48.2029 34.8926C48.4559 34.7766 48.7509 34.8936 48.8639 35.1446C48.9219 35.2736 50.2719 38.3536 49.6619 42.2356C49.6219 42.4806 49.4099 42.6566 49.1679 42.6566Z" fill="black"/>
<path d="M53.4601 31.5694C53.3501 31.5694 53.2401 31.5334 53.1471 31.4594C52.3461 30.8154 50.8991 30.8804 50.8841 30.8814C50.6121 30.9214 50.3741 30.6844 50.3591 30.4084C50.3451 30.1334 50.5561 29.8974 50.8311 29.8834C50.9071 29.8774 52.6721 29.7964 53.7731 30.6804C53.9881 30.8534 54.0221 31.1674 53.8501 31.3834C53.7511 31.5064 53.6061 31.5694 53.4601 31.5694Z" fill="black"/>
<path d="M42.3811 31.9372C42.2321 31.9372 42.0841 31.8712 41.9851 31.7442C41.8161 31.5252 41.8561 31.2122 42.0731 31.0422C43.1901 30.1772 44.9541 30.2922 45.0291 30.2962C45.3041 30.3162 45.5111 30.5552 45.4921 30.8292C45.4731 31.1042 45.2411 31.3172 44.9591 31.2942C44.9441 31.2942 43.4991 31.2032 42.6861 31.8332C42.5961 31.9032 42.4881 31.9372 42.3811 31.9372Z" fill="black"/>
<path d="M34.4121 34.8336C34.4121 34.8336 36.1441 39.2296 36.7151 39.0256C37.2851 38.8216 36.0411 31.8306 34.3501 31.6116C32.6591 31.3926 34.4121 34.8336 34.4121 34.8336Z" fill="black"/>
<path d="M47.379 46.4399C45.926 46.4399 45.142 45.5469 44.905 44.9659C44.801 44.7099 44.925 44.4179 45.18 44.3149C45.432 44.2099 45.723 44.3329 45.829 44.5849C45.888 44.7169 46.431 45.8219 48.271 45.3059C48.535 45.2349 48.813 45.3869 48.887 45.6529C48.961 45.9189 48.806 46.1949 48.54 46.2689C48.115 46.3879 47.728 46.4399 47.379 46.4399Z" fill="black"/>
<path d="M30.1391 83.8718L29.0091 89.8018C28.6991 89.6718 28.3891 89.5418 28.0791 89.4018L29.1691 83.6818C29.2191 83.4118 29.4791 83.2318 29.7591 83.2818C30.0291 83.3418 30.1991 83.5918 30.1391 83.8718Z" fill="#F7B369"/>
<path d="M53.8702 56.6385C53.8702 56.6385 59.0552 67.1085 57.8022 66.9505C56.5492 66.7925 48.8592 61.1454 48.8592 61.1454C48.8592 61.1454 42.7852 67.9255 41.0222 68.0535C39.2592 68.1815 39.7292 56.2305 39.7292 56.2305C39.7292 56.2305 41.0252 60.1055 47.6232 60.0385C54.3832 59.9705 53.8702 56.6385 53.8702 56.6385Z" fill="#F7B369"/>
</svg>
