<svg width="94" height="94" viewBox="0 0 94 94" fill="none" xmlns="http://www.w3.org/2000/svg">
<path d="M93.25 46.62C93.25 58.07 89.12 68.56 82.28 76.67C81.42 77.69 80.51 78.68 79.57 79.62C78.05 81.14 76.42 82.56 74.69 83.85C73.85 84.49 72.98 85.1 72.09 85.68C71.99 85.75 71.89 85.81 71.78 85.87C70.52 86.69 69.21 87.45 67.86 88.13C67.55 88.29 67.24 88.45 66.92 88.6C65.47 89.3 63.98 89.93 62.46 90.48C60.44 91.21 58.36 91.81 56.22 92.25C53.12 92.9 49.92 93.24 46.63 93.24C45.22 93.24 43.82 93.18 42.44 93.05C41 92.92 39.58 92.73 38.18 92.46C37.4 92.32 36.63 92.16 35.87 91.98C33.65 91.46 31.5 90.78 29.42 89.94C27.57 89.21 25.78 88.36 24.05 87.4C23.85 87.29 23.65 87.18 23.46 87.06C22.28 86.4 21.14 85.69 20.04 84.91C19.09 84.26 18.16 83.56 17.26 82.82C17.15 82.74 17.05 82.66 16.94 82.57C15.67 81.51 14.45 80.39 13.29 79.21C12.96 78.88 12.64 78.54 12.33 78.2C11.44 77.24 10.59 76.24 9.79001 75.21C9.00001 74.19 8.24999 73.14 7.54999 72.06C2.77999 64.74 0 56.01 0 46.62C0 20.87 20.88 0 46.63 0C72.38 0 93.25 20.87 93.25 46.62Z" fill="#F3F0DD"/>
<path d="M59.0088 40.9237L37.8288 38.7837L36.8288 38.6837L34.1388 38.4137C34.1388 38.4137 32.2988 31.7437 33.9788 27.1737C35.6588 22.6137 39.5888 24.4737 39.5888 24.4737C39.5888 24.4737 41.3388 22.9737 44.5288 21.6537C45.5988 21.2137 46.8088 20.8037 48.1688 20.4737C49.6288 20.1137 51.2588 19.8537 53.0488 19.7537C61.5688 19.2837 58.7888 25.0837 58.7888 25.0837C58.7888 25.0837 60.6788 26.4237 61.4488 30.6337C62.5888 36.8537 59.0088 40.9237 59.0088 40.9237Z" fill="black"/>
<path d="M82.2788 76.6711C81.4188 77.6911 80.5088 78.6811 79.5688 79.6211C78.0488 81.1411 76.4188 82.5611 74.6888 83.8511C73.8488 84.4911 72.9788 85.1011 72.0888 85.6811C71.9888 85.7511 71.8888 85.8111 71.7788 85.8711L72.0588 65.3711C72.0588 65.3711 76.8888 69.8711 82.2788 76.6711Z" fill="#F7B369"/>
<path d="M67.8589 88.1299C67.5489 88.2899 67.2389 88.4499 66.9189 88.5999C63.5589 90.2299 59.9689 91.4699 56.2189 92.2499C53.1189 92.8999 49.9189 93.2399 46.6289 93.2399C45.2189 93.2399 43.8189 93.1799 42.4389 93.0499C40.9989 92.9199 39.5789 92.7299 38.1789 92.4599C37.3989 92.3199 36.6289 92.1599 35.8689 91.9799C33.6489 91.4599 31.4989 90.7799 29.4189 89.9399L39.1389 56.9799C39.1389 56.9799 46.8279 52.6199 54.5519 56.4849C59.1899 58.8049 65.4089 75.5399 67.8589 88.1299Z" fill="#68B6D8"/>
<path d="M55.3101 56.7399L40.5301 57.6698C40.5301 57.6698 39.0501 73.0299 38.1801 92.4599C37.4001 92.3199 36.6301 92.1598 35.8701 91.9798C31.6801 90.9898 27.7201 89.4398 24.0501 87.3998C23.8501 87.2898 23.6501 87.1798 23.4601 87.0598C22.2801 86.3998 21.1401 85.6899 20.0401 84.9099C19.0901 84.2599 18.1601 83.5599 17.2601 82.8199C17.1501 82.7399 17.0501 82.6599 16.9401 82.5699C15.6701 81.5099 14.4501 80.3899 13.2901 79.2099C12.9601 78.8799 12.6401 78.5398 12.3301 78.1998C12.6101 71.8498 13.4801 67.1198 15.2501 65.4698C23.1101 58.1598 42.6101 55.7198 42.6101 55.7198L51.7301 55.5898C51.7301 55.5898 53.1691 56.0099 55.3101 56.7399Z" fill="#F7B369"/>
<path d="M74.6902 83.8494C73.8502 84.4894 72.9802 85.0994 72.0902 85.6794C70.7302 86.5694 69.3202 87.3894 67.8602 88.1294C67.5502 88.2894 67.2402 88.4494 66.9202 88.5994C65.4702 89.2994 63.9802 89.9294 62.4602 90.4794C62.4502 90.3594 62.4622 90.2354 62.4302 90.1194C56.1832 67.7024 54.5532 56.4844 54.5532 56.4844C60.1832 58.4144 71.4302 62.7894 73.3502 67.2194C74.0792 68.9094 74.4902 75.3694 74.6902 83.8494Z" fill="#F7B369"/>
<path d="M45.745 25.0605C45.745 25.0605 37.041 5.6275 27.104 15.5005C18.791 23.7595 31.684 36.4885 39.139 32.8585C46.594 29.2275 45.745 25.0605 45.745 25.0605Z" fill="black"/>
<path d="M40.4038 48.1992L40.8098 58.5952C40.8098 58.5952 42.8018 61.5102 48.9018 61.7672C53.4468 61.9582 54.7898 59.5762 54.7898 59.5762L53.3368 50.5222L42.2608 48.5362L40.4038 48.1992Z" fill="#F48462"/>
<path d="M40.395 47.5664C40.432 47.8494 40.553 48.1804 40.736 48.5574C43.265 53.6594 51.535 55.5004 54.161 55.6324L53.338 50.5224L40.395 47.5664Z" fill="black"/>
<path d="M54.7299 26.7346C54.7299 26.7346 60.6949 39.5556 58.8269 46.8816C56.9589 54.2076 50.3019 53.2186 46.3009 51.9046C42.2999 50.5916 40.4019 48.2016 40.4019 48.2016C40.4019 48.2016 36.7258 49.5456 34.1658 46.1576C31.6058 42.7696 33.0389 38.7766 35.1339 37.8196C37.2289 36.8626 39.7809 38.3316 39.7809 38.3316L37.7199 34.6136C37.7199 34.6136 45.5659 15.2856 54.7299 26.7346Z" fill="#F48462"/>
<path d="M39.7812 38.3314C39.7812 38.3314 45.3683 39.3774 49.1523 33.1234C52.9363 26.8694 52.5453 24.3284 52.5453 24.3284L56.4912 30.6754C56.4912 30.6754 57.2912 26.2254 55.4772 23.4204C53.6622 20.6164 51.8282 21.2284 51.8282 21.2284L39.5862 24.4694L36.4893 34.3614L39.7812 38.3314Z" fill="black"/>
<path d="M54.5129 43.2941C54.4669 43.2941 54.4199 43.2881 54.3729 43.2741C54.1069 43.1971 53.9549 42.9191 54.0319 42.6541C54.7179 40.2951 52.9139 37.7851 52.8949 37.7601C52.7329 37.5371 52.7819 37.2241 53.0039 37.0611C53.2269 36.8981 53.5389 36.9471 53.7029 37.1701C53.7889 37.2891 55.8129 40.1071 54.9919 42.9331C54.9299 43.1521 54.7299 43.2941 54.5129 43.2941Z" fill="black"/>
<path d="M39.325 44.5057C39.195 44.5057 39.065 44.4557 38.967 44.3547L35.385 40.6847C35.192 40.4877 35.196 40.1707 35.393 39.9777C35.592 39.7857 35.908 39.7887 36.1 39.9867L39.682 43.6567C39.875 43.8537 39.871 44.1707 39.674 44.3637C39.577 44.4577 39.451 44.5057 39.325 44.5057Z" fill="black"/>
<path d="M35.583 43.5685C35.344 43.5685 35.132 43.3955 35.091 43.1515C35.045 42.8795 35.229 42.6215 35.501 42.5755L37.929 42.1655C38.197 42.1265 38.459 42.3035 38.505 42.5755C38.551 42.8475 38.367 43.1055 38.095 43.1515L35.667 43.5615C35.638 43.5665 35.611 43.5685 35.583 43.5685Z" fill="black"/>
<path d="M56.8599 32.6489C56.8339 32.6489 56.8069 32.6469 56.7799 32.6429L54.4729 32.2749C54.2009 32.2319 54.0149 31.9749 54.0579 31.7029C54.1019 31.4299 54.3549 31.2429 54.6309 31.2879L56.9379 31.6559C57.2099 31.6999 57.3959 31.9559 57.3529 32.2279C57.3129 32.4739 57.1009 32.6489 56.8599 32.6489Z" fill="black"/>
<path d="M47.3159 34.2956C47.1359 34.2956 46.9619 34.1986 46.8729 34.0276C46.7449 33.7826 46.8399 33.4806 47.0839 33.3526L50.8309 31.3896C51.0729 31.2616 51.3779 31.3536 51.5069 31.6006C51.6349 31.8456 51.5399 32.1476 51.2959 32.2756L47.5489 34.2386C47.4739 34.2776 47.3939 34.2956 47.3159 34.2956Z" fill="black"/>
<path d="M56.9332 37.9671C56.7222 37.9671 56.5262 37.8321 56.4572 37.6201L55.7061 35.2911C55.6541 35.1321 55.6862 34.9571 55.7902 34.8271L56.4962 33.9381C56.6692 33.7221 56.9842 33.6881 57.1982 33.8571C57.4152 34.0291 57.4511 34.3431 57.2791 34.5601L56.7392 35.2391L57.4081 37.3131C57.4931 37.5761 57.3482 37.8571 57.0862 37.9421C57.0362 37.9591 56.9842 37.9671 56.9332 37.9671Z" fill="black"/>
<path d="M49.4908 38.6873C49.2798 38.6873 49.0838 38.5523 49.0148 38.3403L48.2638 36.0113C48.2108 35.8483 48.2447 35.6703 48.3557 35.5383L49.3318 34.3663C49.5088 34.1553 49.8238 34.1273 50.0358 34.3023C50.2478 34.4793 50.2758 34.7943 50.0998 35.0063L49.3008 35.9663L49.9668 38.0333C50.0518 38.2963 49.9067 38.5773 49.6447 38.6623C49.5937 38.6793 49.5418 38.6873 49.4908 38.6873Z" fill="black"/>
<path d="M52.6858 46.7375C51.0398 46.7375 49.2358 44.9975 48.9978 44.7605C48.8018 44.5655 48.8018 44.2495 48.9958 44.0535C49.1908 43.8575 49.5078 43.8575 49.7028 44.0515C50.2908 44.6345 52.1819 46.1755 53.1739 45.6175C53.4099 45.4825 53.7178 45.5655 53.8558 45.8055C53.9918 46.0465 53.9068 46.3515 53.6668 46.4875C53.3568 46.6635 53.0248 46.7375 52.6858 46.7375Z" fill="black"/>
<path d="M20.0388 84.91C19.0888 84.26 18.1588 83.56 17.2588 82.82C17.1488 82.74 17.0488 82.66 16.9388 82.57C15.6688 81.51 14.4488 80.39 13.2888 79.21C12.0488 77.94 10.8788 76.61 9.78882 75.21C8.99882 74.19 8.24883 73.14 7.54883 72.06C13.8288 66.05 19.0288 62.75 19.0288 62.75L20.0388 84.91Z" fill="#F7B369"/>
<path d="M49.589 62.2737C44.512 62.2737 40.454 59.3327 40.283 59.2067C40.06 59.0437 40.012 58.7307 40.176 58.5087C40.341 58.2857 40.653 58.2387 40.875 58.4017C40.914 58.4307 44.849 61.2747 49.592 61.2747C49.632 61.2747 49.671 61.2737 49.711 61.2737C54.097 61.2287 54.798 58.7847 54.825 58.6807C54.895 58.4157 55.164 58.2607 55.433 58.3227C55.699 58.3907 55.86 58.6587 55.794 58.9247C55.761 59.0587 54.922 62.2207 49.72 62.2737C49.676 62.2727 49.633 62.2737 49.589 62.2737Z" fill="white"/>
</svg>
