<svg width="94" height="94" viewBox="0 0 94 94" fill="none" xmlns="http://www.w3.org/2000/svg">
<path d="M93.25 46.62C93.25 52.88 92.02 58.85 89.78 64.3C88.14 68.29 85.96 72.01 83.33 75.36C83.28 75.42 83.24 75.48 83.19 75.53C79.62 80.05 75.23 83.9 70.23 86.81C66.8 88.84 63.09 90.44 59.17 91.53C56.52 92.27 53.78 92.78 50.96 93.03C49.54 93.17 48.09 93.24 46.63 93.24C44.98 93.24 43.35 93.16 41.74 92.99C40.69 92.88 39.65 92.73 38.62 92.55C37.48 92.35 36.36 92.11 35.25 91.83C35.04 91.78 34.82 91.73 34.61 91.67C32.83 91.2 31.08 90.62 29.39 89.94C29.35 89.92 29.31 89.91 29.27 89.89C26.99 88.98 24.8 87.9 22.72 86.64C22.11 86.28 21.52 85.91 20.93 85.52C20.91 85.51 20.9 85.5 20.88 85.48C20.36 85.14 19.83 84.78 19.32 84.41C19.05 84.21 18.78 84.02 18.52 83.82C16.96 82.64 15.48 81.37 14.08 80C13.86 79.79 13.64 79.57 13.44 79.35C10.38 76.26 7.76999 72.76 5.67999 68.93C2.05999 62.3 0 54.7 0 46.62C0 20.87 20.88 0 46.63 0C72.38 0 93.25 20.87 93.25 46.62Z" fill="#F3F0DD"/>
<path d="M56.6722 21.1035C56.6722 21.1035 61.6772 20.2885 61.7792 33.5305C61.8812 46.7725 61.7792 48.1985 61.7792 48.1985H49.4912L51.8222 24.7205L56.6722 21.1035Z" fill="black"/>
<path d="M37.007 17.2266C37.007 17.2266 32.177 23.4226 29.95 32.2066C28.168 39.2326 26.9609 46.6256 26.9609 46.6256L40.46 48.1966L40.858 24.6066L37.007 17.2266Z" fill="black"/>
<path d="M41.8889 58.4743C38.9239 58.4743 36.8659 57.6263 36.8269 57.6093C36.5949 57.5103 36.4859 57.2413 36.5849 57.0083C36.6839 56.7753 36.9559 56.6663 37.1859 56.7653C37.2549 56.7943 44.2789 59.6673 50.9299 54.3043C51.1259 54.1463 51.4159 54.1763 51.5749 54.3733C51.7339 54.5703 51.7029 54.8583 51.5069 55.0183C48.1089 57.7573 44.6159 58.4743 41.8889 58.4743Z" fill="#F7C537"/>
<path d="M70.2299 86.8081C66.7999 88.8381 63.0899 90.4381 59.1699 91.5281C56.5199 92.2681 53.7799 92.7781 50.9599 93.0281C49.5399 93.1681 48.0899 93.2381 46.6299 93.2381C44.9799 93.2381 43.3499 93.1581 41.7399 92.9881C40.6899 92.8781 39.6499 92.7281 38.6199 92.5481C37.4799 92.3481 36.3599 92.1081 35.2499 91.8281C35.0399 91.7781 34.8199 91.7281 34.6099 91.6681C32.8299 91.1981 31.0799 90.6181 29.3899 89.9381C29.3499 89.9181 29.3099 89.9081 29.2699 89.8881C26.9899 88.9781 24.7999 87.8981 22.7199 86.6381C22.1099 86.2781 21.5199 85.9081 20.9299 85.5181C20.9099 85.5081 20.8999 85.4981 20.8799 85.4781C21.3399 79.6481 22.4399 72.8181 24.8999 67.1181C24.9599 66.9781 25.0199 66.8381 25.0899 66.6981C28.4599 59.1781 33.7599 55.6081 37.4099 53.9681C39.7899 52.9081 41.4699 52.6481 41.4699 52.6481C41.4699 52.6481 45.6199 51.8681 50.6499 51.7981C57.0499 51.7081 64.8699 52.7581 67.3499 58.0581C69.2499 62.1281 69.9899 74.2781 70.2299 86.8081Z" fill="#A37B90"/>
<path d="M38.3198 52.7812C38.0298 52.9712 37.7299 53.3713 37.4099 53.9713C35.0599 58.3913 32.0798 73.4113 29.2698 89.8913C26.9898 88.9813 24.7998 87.9013 22.7198 86.6413C22.1098 86.2813 21.5198 85.9112 20.9298 85.5212C20.9098 85.5112 20.8998 85.5012 20.8798 85.4812C20.3598 85.1412 19.8298 84.7812 19.3198 84.4112C19.5398 82.1812 19.6599 80.8913 19.6599 80.8913L25.6398 62.0912C25.6398 62.0912 28.3598 58.3812 31.6698 56.0212C34.9698 53.6712 38.3198 52.7812 38.3198 52.7812Z" fill="#68B6D8"/>
<path d="M83.19 75.5308C79.62 80.0508 75.23 83.9008 70.23 86.8108C66.8 88.8408 63.09 90.4408 59.17 91.5308C56.52 92.2708 53.7801 92.7808 50.9601 93.0308C51.3401 72.1608 51.5501 53.2508 50.8201 52.5808C50.6101 52.3908 50.5901 52.1108 50.6501 51.8008C50.8401 51.0208 51.6501 50.0808 51.6501 50.0808C70.0701 49.3508 77.6201 62.1309 78.8301 64.9309C80.5501 68.9109 81.97 72.1508 83.19 75.5308Z" fill="#68B6D8"/>
<path d="M51.4489 42.3828L51.2168 52.8298C51.2168 52.8298 49.2658 55.7908 43.1438 56.1518C38.5828 56.4208 37.0068 55.3558 37.0068 55.3558L37.7589 50.0788L38.4988 44.9328L49.5878 42.7508L51.4489 42.3828Z" fill="#F48462"/>
<path d="M49.5887 42.75C49.5557 43.035 49.4398 43.369 49.2628 43.751C46.8098 48.917 40.3938 49.901 37.7588 50.078L38.4988 44.932L49.5887 42.75Z" fill="black"/>
<path d="M36.6992 21.0673C36.6992 21.0673 30.9261 34.0433 32.9251 41.3683C34.9251 48.6933 41.5941 47.5873 45.5891 46.2003C49.5841 44.8133 51.4511 42.3813 51.4511 42.3813C51.4511 42.3813 55.1662 43.6683 57.6792 40.2233C60.1922 36.7783 58.6861 32.7913 56.5661 31.8663C54.4461 30.9413 51.9082 32.4593 51.9082 32.4593L53.9151 28.6903C53.9151 28.6903 45.7082 9.41433 36.6992 21.0673Z" fill="#F48462"/>
<path d="M37.1888 37.6912C36.9748 37.6912 36.7778 37.5531 36.7118 37.3391C35.8388 34.5161 37.8217 31.6521 37.9067 31.5321C38.0657 31.3061 38.3768 31.2532 38.6028 31.4112C38.8288 31.5692 38.8827 31.8812 38.7247 32.1072C38.7067 32.1322 36.9398 34.6942 37.6658 37.0432C37.7478 37.3072 37.5997 37.5872 37.3357 37.6682C37.2877 37.6842 37.2378 37.6912 37.1888 37.6912Z" fill="black"/>
<path d="M52.4619 38.6519C52.3389 38.6519 52.2159 38.6069 52.1189 38.5159C51.9179 38.3269 51.9089 38.0099 52.0979 37.8089L55.6329 34.0629C55.8209 33.8629 56.1378 33.8529 56.3388 34.0419C56.5398 34.2309 56.5489 34.5479 56.3589 34.7489L52.8239 38.4949C52.7269 38.5989 52.5949 38.6519 52.4619 38.6519Z" fill="black"/>
<path d="M56.2051 37.6443C56.1801 37.6443 56.1541 37.6423 56.1291 37.6383L53.6841 37.2683C53.4121 37.2273 53.2231 36.9723 53.2651 36.6993C53.3061 36.4263 53.5631 36.2343 53.8341 36.2803L56.2791 36.6503C56.5511 36.6913 56.7401 36.9463 56.6981 37.2193C56.6611 37.4663 56.4481 37.6443 56.2051 37.6443Z" fill="black"/>
<path d="M45.3459 28.1929C45.1649 28.1929 44.9909 28.0939 44.9019 27.9219C44.3379 26.8229 42.7759 27.1469 42.7599 27.1509C42.4889 27.2129 42.2229 27.0369 42.1659 26.7679C42.1069 26.4979 42.2779 26.2319 42.5489 26.1739C42.6439 26.1539 44.8779 25.6929 45.7899 27.4649C45.9169 27.7109 45.82 28.0119 45.574 28.1389C45.501 28.1749 45.4229 28.1929 45.3459 28.1929Z" fill="black"/>
<path d="M34.633 27.0985C34.529 27.0985 34.423 27.0665 34.334 26.9985C34.114 26.8335 34.067 26.5235 34.23 26.3035C34.724 25.6355 36.134 24.6785 37.925 25.8455C38.157 25.9955 38.222 26.3055 38.071 26.5365C37.921 26.7695 37.61 26.8345 37.38 26.6825C35.96 25.7615 35.122 26.7815 35.031 26.9005C34.933 27.0305 34.784 27.0985 34.633 27.0985Z" fill="black"/>
<path d="M42.8502 56.8377C39.5592 56.8377 36.8782 55.8407 36.8282 55.8217C36.5702 55.7227 36.4412 55.4337 36.5402 55.1757C36.6392 54.9177 36.9282 54.7917 37.1842 54.8867C37.2742 54.9207 46.0362 58.1677 50.8352 52.5047C51.0162 52.2937 51.3302 52.2687 51.5402 52.4467C51.7512 52.6247 51.7762 52.9407 51.5992 53.1517C49.1332 56.0617 45.7542 56.8377 42.8502 56.8377Z" fill="#FFB255"/>
<path d="M43.0871 32.8393C43.0661 32.8393 43.0441 32.8373 43.0221 32.8353C42.7491 32.8003 42.554 32.5493 42.589 32.2753L42.876 30.0283L42.23 29.0103C42.083 28.7773 42.1521 28.4683 42.3851 28.3203C42.6161 28.1723 42.9261 28.2403 43.0751 28.4753L43.816 29.6463C43.878 29.7453 43.904 29.8613 43.889 29.9773L43.579 32.4023C43.55 32.6553 43.3351 32.8393 43.0871 32.8393Z" fill="black"/>
<path d="M35.8879 32.2623C35.8639 32.2623 35.8389 32.2613 35.8149 32.2573C35.5419 32.2173 35.3519 31.9633 35.3919 31.6903L35.7169 29.4793L34.9219 28.4363C34.7539 28.2163 34.7969 27.9033 35.0169 27.7353C35.2339 27.5683 35.5479 27.6093 35.7169 27.8293L36.6399 29.0393C36.7219 29.1463 36.7569 29.2823 36.7379 29.4153L36.3829 31.8343C36.3459 32.0833 36.1319 32.2623 35.8879 32.2623Z" fill="black"/>
<path d="M34.0742 24.0568C34.0742 24.0568 38.2762 23.8528 40.7732 24.0568C43.2702 24.2608 43.2702 24.2608 43.2702 24.2608L44.5622 21.1028V24.7698C44.5622 24.7698 47.1302 25.7858 47.8812 26.6018C48.6322 27.4178 49.6902 29.4548 49.6902 29.4548L51.0522 27.6888L50.2392 35.2598C50.2392 35.2598 51.5182 31.7738 53.9782 31.8198C56.4382 31.8658 57.2212 32.3368 57.2212 32.3368C57.2212 32.3368 59.3132 25.0738 58.9582 23.0368C58.6032 20.9998 56.6732 21.1018 56.6732 21.1018C56.6732 21.1018 54.6452 14.1758 44.6682 14.1758C34.6912 14.1768 34.0742 24.0568 34.0742 24.0568Z" fill="black"/>
<path d="M25.64 62.0898L25.09 66.6998L22.72 86.6398C22.11 86.2798 21.5199 85.9098 20.9299 85.5198C20.9099 85.5098 20.8999 85.4998 20.8799 85.4798C20.3599 85.1398 19.8299 84.7798 19.3199 84.4098C19.0499 84.2098 18.78 84.0198 18.52 83.8198C16.96 82.6398 15.48 81.3698 14.08 79.9998C13.86 79.7898 13.6399 79.5698 13.4399 79.3498C19.1499 69.0098 25.64 62.0898 25.64 62.0898Z" fill="#68B6D8"/>
<path d="M40.3568 41.0195C39.8918 41.0195 39.4788 40.9365 39.1908 40.8335C38.9298 40.7415 38.7948 40.4555 38.8858 40.1955C38.9788 39.9365 39.2608 39.7995 39.5228 39.8905C39.5938 39.9155 41.2518 40.4665 42.2498 39.0955C42.4138 38.8725 42.7268 38.8245 42.9488 38.9865C43.1718 39.1495 43.2198 39.4625 43.0578 39.6855C42.3028 40.7215 41.2368 41.0195 40.3568 41.0195Z" fill="black"/>
</svg>
