<svg width="94" height="94" viewBox="0 0 94 94" fill="none" xmlns="http://www.w3.org/2000/svg">
<path d="M93.24 46.62C93.24 55.13 90.96 63.11 86.97 69.98C86.82 70.24 86.66 70.5 86.5 70.76C86.13 71.38 85.74 72 85.33 72.6C85.16 72.85 84.99 73.1 84.8 73.35C78.72 82.06 69.72 88.56 59.24 91.51C59.02 91.57 58.79 91.63 58.57 91.69C54.76 92.7 50.75 93.24 46.62 93.24C30.51 93.24 16.3 85.07 7.95 72.64C7.16 71.49 6.43 70.29 5.76 69.07C2.09 62.41 0 54.76 0 46.62C0 20.87 20.87 0 46.62 0C72.37 0 93.24 20.87 93.24 46.62Z" fill="#F3F0DD"/>
<path d="M39.0072 32.5534C39.0072 32.5534 31.1082 30.0184 31.0652 35.9564C31.0152 42.8354 39.1672 42.1384 39.1672 42.1384L39.0072 32.5534Z" fill="#F27E64"/>
<path d="M35.7541 39.0936C35.5981 39.0936 35.4451 39.0206 35.3471 38.8846L32.4061 34.7756C32.2451 34.5506 32.2971 34.2386 32.5221 34.0776C32.7481 33.9166 33.0591 33.9696 33.2201 34.1936L36.1611 38.3026C36.3221 38.5276 36.2701 38.8397 36.0451 39.0007C35.9571 39.0637 35.8551 39.0936 35.7541 39.0936Z" fill="black"/>
<path d="M32.6831 38.0661C32.4311 38.0661 32.2151 37.8771 32.1861 37.6211C32.1561 37.3471 32.3541 37.1002 32.6281 37.0692L34.7921 36.8301C35.0741 36.8061 35.3131 36.9991 35.3441 37.2721C35.3741 37.5461 35.1761 37.7931 34.9021 37.8241L32.7381 38.0631C32.7191 38.0651 32.7011 38.0661 32.6831 38.0661Z" fill="black"/>
<path d="M91.6788 58.6278C86.3988 78.5778 68.2288 93.2678 46.6188 93.2678C32.0788 93.2678 19.0988 86.6178 10.5488 76.1978C24.1888 59.5078 38.8988 57.7278 38.8988 57.7278C38.8988 57.7278 38.5488 55.2078 38.8988 54.5278C39.1488 54.0478 40.0688 53.6078 40.5788 53.3978C40.7788 53.3178 40.9088 53.2678 40.9088 53.2678C40.9088 53.2678 41.6488 53.1377 42.8088 52.9577C45.1388 52.5877 49.1588 51.9978 52.2788 51.7678C53.2288 51.6878 54.0988 51.6478 54.8088 51.6578C55.5788 51.6678 56.1688 51.7378 56.4888 51.8878C56.8788 52.0678 57.3288 53.2678 57.3288 53.2678C57.3288 53.2678 63.0988 52.3778 71.0688 53.2678C74.4198 53.6478 82.7488 55.1878 91.6788 58.6278Z" fill="#A37B90"/>
<path d="M54.2149 47.4821L55.0229 55.4531C55.0229 55.4531 52.0979 57.3991 48.2539 57.8231C43.0649 58.3961 41.0239 55.4771 41.0239 55.4771L40.1909 46.1211L54.2149 47.4821Z" fill="#F48462"/>
<path d="M54.2132 47.4713C54.2132 47.4713 52.3252 54.1613 46.3432 53.8293C41.5212 53.5623 39.5322 46.9453 39.5322 46.9453L54.2132 47.4713Z" fill="black"/>
<path d="M35.9828 26.253C35.9828 26.253 34.0128 41.164 38.7978 47.24C43.9298 53.756 50.9588 51.012 53.4678 48.681C56.8528 45.537 57.2368 41.578 57.2368 41.578C57.2368 41.578 62.3418 42.109 63.6318 37.865C64.9868 33.408 61.5428 30.235 59.0158 30.264C56.4898 30.293 56.2398 30.777 56.2398 30.777L56.5478 26.1231C56.5478 26.1231 39.7278 10.607 35.9828 26.253Z" fill="#F48462"/>
<path d="M57.638 37.3701C57.513 37.3701 57.388 37.3231 57.29 37.2291C57.092 37.0371 57.086 36.7201 57.278 36.5221L60.837 32.8441C61.029 32.6441 61.345 32.6411 61.544 32.8321C61.742 33.0241 61.748 33.3411 61.556 33.5391L57.997 37.2171C57.9 37.3201 57.769 37.3701 57.638 37.3701Z" fill="black"/>
<path d="M61.268 37.6488C61.179 37.6488 61.088 37.6248 61.006 37.5748L58.563 36.0708C58.328 35.9258 58.255 35.6178 58.399 35.3828C58.542 35.1478 58.85 35.0738 59.087 35.2188L61.53 36.7228C61.765 36.8678 61.838 37.1758 61.694 37.4108C61.6 37.5648 61.436 37.6488 61.268 37.6488Z" fill="black"/>
<path d="M49.7211 34.0409C49.4531 34.0409 49.2311 33.8289 49.2221 33.5579L49.1371 31.0879C49.1271 30.8119 49.343 30.5809 49.619 30.5709C49.889 30.5579 50.1261 30.7769 50.1361 31.0529L50.2221 33.5229C50.2321 33.7989 50.016 34.0299 49.739 34.0399C49.733 34.0409 49.7271 34.0409 49.7211 34.0409Z" fill="black"/>
<path d="M40.2709 34.4017C40.0029 34.4017 39.7809 34.1898 39.7719 33.9188L39.6869 31.4497C39.6769 31.1737 39.8929 30.9427 40.1689 30.9327C40.4389 30.8997 40.6759 31.1387 40.6859 31.4147L40.7709 33.8837C40.7809 34.1597 40.5649 34.3907 40.2889 34.4007C40.2819 34.4017 40.2759 34.4017 40.2709 34.4017Z" fill="black"/>
<path d="M45.2182 40.5139C45.0022 40.5139 44.8032 40.3729 44.7392 40.1559C43.6092 36.3389 44.5552 33.0658 44.5962 32.9278C44.6752 32.6638 44.9522 32.5129 45.2172 32.5909C45.4822 32.6689 45.6332 32.9469 45.5552 33.2119C45.5462 33.2429 44.6552 36.3498 45.6982 39.8718C45.7762 40.1368 45.6252 40.4149 45.3612 40.4939C45.3132 40.5069 45.2652 40.5139 45.2182 40.5139Z" fill="black"/>
<path d="M38.5912 29.361C38.4672 29.361 38.3422 29.315 38.2462 29.223C38.0462 29.032 38.0392 28.716 38.2292 28.516C39.2172 27.482 41.0002 27.331 41.0762 27.326C41.3492 27.303 41.5912 27.51 41.6132 27.785C41.6352 28.06 41.4292 28.301 41.1552 28.323C41.1402 28.324 39.6752 28.451 38.9532 29.207C38.8542 29.309 38.7222 29.361 38.5912 29.361Z" fill="black"/>
<path d="M50.7341 29.1582C50.6491 29.1582 50.5621 29.1362 50.4831 29.0902C49.5821 28.5642 48.1371 28.8462 48.1221 28.8502C47.8561 28.9042 47.5881 28.7312 47.5331 28.4602C47.4781 28.1902 47.6521 27.9262 47.9221 27.8712C47.9961 27.8562 49.7511 27.5072 50.9871 28.2262C51.2251 28.3652 51.3061 28.6712 51.1671 28.9102C51.0731 29.0692 50.9061 29.1582 50.7341 29.1582Z" fill="black"/>
<path d="M57.3662 32.3692C57.3662 32.3692 56.6782 37.1102 56.0682 37.0412C55.4582 36.9722 55.0612 29.7842 56.6782 29.1752C58.2942 28.5672 57.3662 32.3692 57.3662 32.3692Z" fill="black"/>
<path d="M45.9452 44.727C45.6782 44.727 45.4582 44.516 45.4462 44.247C45.4352 43.972 45.6502 43.739 45.9252 43.727C46.0252 43.723 48.3842 43.598 49.3042 41.578C49.4192 41.327 49.7162 41.216 49.9662 41.33C50.2172 41.444 50.3282 41.741 50.2142 41.992C49.0352 44.581 46.0882 44.722 45.9642 44.726C45.9582 44.727 45.9512 44.727 45.9452 44.727Z" fill="black"/>
<path d="M56.6231 30.0958C56.6231 30.0958 51.5351 29.8928 48.0221 27.4118C45.0551 25.3178 43.8061 22.1958 43.8061 22.1958C43.8061 22.1958 41.6141 22.0118 38.5911 24.0598C35.5671 26.1078 35.5821 32.0208 35.5821 32.0208C35.5821 32.0208 29.4041 22.2688 31.9831 18.6098C34.5621 14.9508 39.1671 17.6948 39.1671 17.6948C39.1671 17.6948 38.0891 11.1898 47.2521 13.3248C56.4151 15.4588 58.8261 23.1838 58.8261 23.1838C58.8261 23.1838 61.9041 22.7768 62.4121 25.6228C62.9201 28.4688 61.8811 31.4298 61.8811 31.4298C61.8811 31.4298 60.4811 30.2128 58.4481 31.0688C56.4151 31.9248 56.4151 31.9248 56.4151 31.9248L56.6231 30.0958Z" fill="black"/>
<path d="M40.9099 53.2736C40.9099 53.2736 42.7279 54.9976 46.9339 55.1026C51.1399 55.2076 54.8289 51.8086 54.8289 51.8086L57.5389 56.7806L50.8379 60.8716L39.6079 59.9276V54.8926L40.9099 53.2736Z" fill="#A37B90"/>
<path d="M45.5499 61.3791C41.0049 61.3791 38.5249 58.0561 38.4959 58.0151C38.3339 57.7921 38.3829 57.4811 38.6059 57.3181C38.8289 57.1571 39.1419 57.2041 39.3039 57.4261C39.4319 57.6021 42.5259 61.7071 48.3059 59.9471C48.5719 59.8681 48.8489 60.0161 48.9299 60.2801C49.0099 60.5441 48.8609 60.8231 48.5969 60.9041C47.4969 61.2391 46.4799 61.3791 45.5499 61.3791Z" fill="white"/>
</svg>
