<svg width="1632" height="517" viewBox="0 0 1632 517" fill="none" xmlns="http://www.w3.org/2000/svg">
<path d="M1020.23 425.479C1022 408.199 1009.43 392.754 992.149 390.982C974.869 389.211 959.425 401.783 957.653 419.063C955.882 436.343 968.453 451.788 985.733 453.56C1003.01 455.331 1018.46 442.759 1020.23 425.479Z" fill="#F6F5FF"/>
<path d="M966.368 400.859L965.909 400.425C971.918 394.098 980.031 390.583 988.756 390.531L988.759 391.163C980.209 391.212 972.256 394.657 966.368 400.859Z" fill="#4F4955"/>
<path d="M988.944 454.062C971.513 454.062 957.283 439.937 957.179 422.484C957.141 415.945 959.074 409.652 962.773 404.289L963.293 404.647C959.669 409.903 957.774 416.071 957.812 422.481C957.861 430.798 961.147 438.595 967.063 444.442C972.932 450.243 980.696 453.431 988.941 453.431C989.005 453.431 989.068 453.43 989.132 453.43L989.135 454.062C989.072 454.062 989.008 454.062 988.944 454.062Z" fill="#4F4955"/>
<path d="M1007.18 448.311L1006.81 447.793C1009.34 446.021 1011.58 443.89 1013.49 441.457L1013.98 441.846C1012.04 444.328 1009.76 446.502 1007.18 448.311Z" fill="#4F4955"/>
<path d="M1019.56 430.815L1018.95 430.646C1019.72 427.883 1020.1 425.01 1020.08 422.108C1020.05 416.289 1018.4 410.624 1015.31 405.726L1015.85 405.391C1019 410.387 1020.68 416.166 1020.71 422.105C1020.73 425.063 1020.34 427.995 1019.56 430.815Z" fill="#4F4955"/>
<path d="M1003.96 431.223L974.047 431.4L973.958 416.446C973.909 408.186 980.564 401.45 988.824 401.403C997.084 401.353 1003.82 408.009 1003.87 416.268L1003.96 431.223Z" fill="#F96767"/>
<path d="M1006.16 436.116L971.899 436.319C970.545 436.327 969.441 435.236 969.433 433.881C969.424 432.526 970.516 431.422 971.869 431.414L1006.13 431.211C1007.49 431.203 1008.59 432.294 1008.6 433.649C1008.61 435.003 1007.52 436.108 1006.16 436.116Z" fill="#F98D87"/>
<path d="M989.071 443.178C986.393 443.195 984.209 441.036 984.194 438.358L984.182 436.245L993.879 436.188L993.892 438.301C993.908 440.978 991.75 443.162 989.071 443.178Z" fill="#F96767"/>
<path d="M1005.29 414.424C1003.6 401.537 992.297 400.003 992.183 399.99L992.26 399.363C992.379 399.377 1004.16 400.973 1005.91 414.341L1005.29 414.424Z" fill="#4F4955"/>
</svg>
