<svg width="1632" height="517" viewBox="0 0 1632 517" fill="none" xmlns="http://www.w3.org/2000/svg">
<path d="M805.198 31.6367H385V338.367H805.198V31.6367Z" fill="#F6F5FF"/>
<path d="M805.198 31.6367H385V73.2056H805.198V31.6367Z" fill="#E5E8FF"/>
<path d="M440.468 56.8185C434.646 56.8185 429.923 52.0994 429.923 46.2743V10.5442C429.923 4.72257 434.642 0 440.468 0C446.289 0 451.012 4.71913 451.012 10.5442V46.2743C451.012 52.0959 446.289 56.8185 440.468 56.8185Z" fill="#F0F1FF"/>
<path d="M517.784 56.8185C511.963 56.8185 507.24 52.0994 507.24 46.2743V10.5442C507.24 4.72257 511.959 0 517.784 0C523.606 0 528.329 4.71913 528.329 10.5442V46.2743C528.325 52.0959 523.606 56.8185 517.784 56.8185Z" fill="#F0F1FF"/>
<path d="M595.098 56.8185C589.276 56.8185 584.554 52.0994 584.554 46.2743V10.5442C584.554 4.72257 589.273 0 595.098 0C600.92 0 605.642 4.71913 605.642 10.5442V46.2743C605.642 52.0959 600.923 56.8185 595.098 56.8185Z" fill="#F0F1FF"/>
<path d="M672.413 56.8185C666.592 56.8185 661.869 52.0994 661.869 46.2743V10.5442C661.869 4.72257 666.588 0 672.413 0C678.235 0 682.957 4.71913 682.957 10.5442V46.2743C682.957 52.0959 678.235 56.8185 672.413 56.8185Z" fill="#F0F1FF"/>
<path d="M749.728 56.8185C743.907 56.8185 739.184 52.0994 739.184 46.2743V10.5442C739.184 4.72257 743.903 0 749.728 0C755.55 0 760.273 4.71913 760.273 10.5442V46.2743C760.269 52.0959 755.55 56.8185 749.728 56.8185Z" fill="#F0F1FF"/>
<path d="M486.053 89.0273H405.91V136.095H486.053V89.0273Z" fill="#E5E8FF"/>
<path d="M585.467 89.0273H505.324V136.095H585.467V89.0273Z" fill="#E5E8FF"/>
<path d="M684.874 89.0273H604.731V136.095H684.874V89.0273Z" fill="white"/>
<path d="M784.285 89.0273H704.142V136.095H784.285V89.0273Z" fill="#E5E8FF"/>
<path d="M486.053 149.906H405.91V196.974H486.053V149.906Z" fill="#E5E8FF"/>
<path d="M585.467 149.906H505.324V196.974H585.467V149.906Z" fill="white"/>
<path d="M684.874 149.906H604.731V196.974H684.874V149.906Z" fill="#E5E8FF"/>
<path d="M784.285 149.906H704.142V196.974H784.285V149.906Z" fill="white"/>
<path d="M486.053 210.758H405.91V257.825H486.053V210.758Z" fill="white"/>
<path d="M585.467 210.758H505.325V257.825H585.467V210.758Z" fill="#E5E8FF"/>
<path d="M684.874 210.758H604.731V257.825H684.874V210.758Z" fill="#E5E8FF"/>
<path d="M784.286 210.758H704.143V257.825H784.286V210.758Z" fill="#E5E8FF"/>
<path d="M486.053 271.617H405.91V318.685H486.053V271.617Z" fill="#E5E8FF"/>
<path d="M585.467 271.617H505.324V318.685H585.467V271.617Z" fill="white"/>
<path d="M684.874 271.617H604.731V318.685H684.874V271.617Z" fill="#E5E8FF"/>
<path d="M784.285 271.617H704.142V318.685H784.285V271.617Z" fill="#E5E8FF"/>
<path d="M813.012 72.7305H490.823V73.6578H813.012V72.7305Z" fill="#584F55"/>
<path d="M851.861 72.7305H829.604V73.6578H851.861V72.7305Z" fill="#584F55"/>
<path d="M499.132 184.531H421.946V185.459H499.132V184.531Z" fill="#584F55"/>
<path d="M760.27 184.531H525.855V185.459H760.27V184.531Z" fill="#584F55"/>
<path d="M725.345 300.023H560.172V300.951H725.345V300.023Z" fill="#584F55"/>
</svg>
