<svg width="1632" height="517" viewBox="0 0 1632 517" fill="none" xmlns="http://www.w3.org/2000/svg">
<path d="M1575.2 144.129L1560.13 173.846H1593.48C1593.48 160.86 1586.04 149.635 1575.2 144.129Z" fill="#F96767"/>
<path d="M1567.82 148.508L1567.82 148.511H1567.82V148.508Z" fill="#B6B9C2"/>
<path d="M1552.75 178.223L1567.82 148.511C1563.29 146.202 1558.18 144.879 1552.75 144.879C1534.33 144.879 1519.4 159.808 1519.4 178.223C1519.4 196.639 1534.33 211.568 1552.75 211.568C1571.16 211.568 1586.09 196.639 1586.09 178.223H1552.75Z" fill="#FFCF85"/>
<path d="M1523.06 163.089L1552.75 178.219L1567.82 148.507C1563.29 146.198 1558.18 144.875 1552.75 144.875C1539.79 144.876 1528.58 152.287 1523.06 163.089Z" fill="#FFEED7"/>
<path d="M1546.51 148.282L1545.83 147.87L1554.45 133.789H1568.8V134.578H1554.89L1546.51 148.282Z" fill="#584F55"/>
<path d="M1584.38 162.57L1583.71 162.159L1592.33 148.078H1605.76V148.867H1592.77L1584.38 162.57Z" fill="#584F55"/>
<path d="M1571.82 200.777L1571.15 200.367L1579.77 186.285H1599.32V187.074H1580.21L1571.82 200.777Z" fill="#584F55"/>
<path d="M1550.46 208.183C1540.94 206.392 1534.37 200.609 1530.53 196.073L1531.05 195.633C1534.82 200.085 1541.26 205.759 1550.58 207.513L1550.46 208.183Z" fill="#584F55"/>
<path d="M1527.46 191.986C1525.37 188.83 1524.39 186.515 1524.35 186.418L1524.98 186.156C1524.99 186.179 1525.97 188.514 1528.03 191.61L1527.46 191.986Z" fill="#584F55"/>
</svg>
