<svg width="800" height="800" viewBox="0 0 800 800" fill="none" xmlns="http://www.w3.org/2000/svg">
<path d="M144.25 407.997C144.25 407.997 123.125 331.497 131.75 277.622C135.143 248.413 148.058 221.134 168.5 199.997C168.5 199.997 187.5 127.622 302 90.1217C416.5 52.6217 605.125 72.1217 639.5 224.997C673.875 377.872 652 420.247 652 420.247C657.472 421.949 662.55 424.724 666.937 428.411C671.324 432.098 674.932 436.623 677.551 441.72C680.169 446.818 681.746 452.386 682.188 458.099C682.63 463.813 681.929 469.557 680.125 474.997C667.625 516.372 609.125 515.622 609.125 515.622C598.615 530.184 587.219 544.085 575 557.247C567.01 566.163 557.484 573.573 546.875 579.122C546.875 579.122 613.25 632.997 623.375 659.622C633.5 686.247 618.75 708.872 611.75 711.122C604.75 713.372 584.375 725.247 521.125 721.372C457.875 717.497 457 713.497 427.375 719.747C397.875 726.183 367.549 727.954 337.5 724.997C320.25 720.997 271.875 702.247 253.125 700.747C234.375 699.247 193.5 699.997 192.625 687.497C191.75 674.997 207.5 646.372 225 622.872C234.299 609.65 245.951 598.251 259.375 589.247C234.711 572.662 214.976 549.731 202.25 522.872C202.25 522.872 153.875 536.122 126.5 482.247C99.1252 428.372 144.25 407.997 144.25 407.997Z" fill="#1D1D1B"/>
<path d="M161.375 394.746C161.375 394.746 132.5 310.371 152.875 270.496C173.25 230.621 175 226.746 175 226.746C175 226.746 210.125 146.371 283.5 122.121C356.875 97.8712 462.5 76.7462 551.25 131.496C640 186.246 640.375 367.371 639.5 377.621C638.625 387.871 636.375 388.496 636.375 388.496C636.174 341.07 622.379 294.696 596.625 254.871C553.625 189.246 502 144.746 403.625 146.371C305.25 147.996 220 224.996 213.75 240.871C207.5 256.746 202 267.371 202 267.371C202 267.371 191.125 250.996 188.75 250.996C186.375 250.996 180.125 254.121 181.75 258.871C183.375 263.621 195 275.996 195 279.121C194.363 283.134 193.316 287.072 191.875 290.871C191.875 290.871 173.125 273.621 170 275.996C166.875 278.371 166.875 288.496 166.875 288.496C166.875 288.496 184.875 307.246 184.125 309.621C177.261 325.863 172.514 342.919 170 360.371C169.195 372.252 166.274 383.893 161.375 394.746Z" fill="#7B5207"/>
<path d="M166.125 431.5C166.125 431.5 176.25 460.375 181.75 473.625C185 481.362 187.106 489.531 188 497.875C179.51 496.944 171.418 493.782 164.546 488.711C157.674 483.639 152.267 476.838 148.875 469C138.75 442.375 162.5 434.625 166.125 431.5Z" fill="#FCD396"/>
<path d="M639.5 440.125C639.5 440.125 635.625 455.75 631 472.875C629.023 481.356 625.867 489.519 621.625 497.125C621.625 497.125 657.5 494.75 662.25 473.625C663.027 469.926 663.051 466.108 662.319 462.4C661.588 458.691 660.117 455.168 657.993 452.041C655.869 448.914 653.137 446.247 649.96 444.2C646.783 442.153 643.225 440.767 639.5 440.125Z" fill="#FCD396"/>
<path d="M414.5 170.5C478.625 170.5 552.875 205.75 591.875 297.875C630.875 390 622.375 483 566.125 534.625C509.875 586.25 459.125 617.375 363.75 602.625C268.375 587.875 230.125 534.625 201.25 469C172.375 403.375 187.5 172.125 414.5 170.5Z" fill="#FCD396"/>
<path d="M277.875 600C284.625 595 325.5 636.75 417.625 627.375C509.75 618 523.125 593.75 527 593.75C530.875 593.75 595 641.375 603.625 660.875C612.25 680.375 610.625 693.75 606.75 694.5C603.095 694.905 599.406 694.905 595.75 694.5C595.75 694.5 556 629.625 548.125 628.875C540.25 628.125 538 630.5 539.5 634.375C541 638.25 581 696.875 578.625 697.625C576.25 698.375 569.25 704.625 564.5 701.5C559.75 698.375 528.625 650 525 650C521.375 650 512.5 652.25 513.25 654.625C514 657 549.25 703.875 546.125 705.375C540.206 706.594 534.167 707.139 528.125 707C528.125 707 496.875 660.875 492.125 660.875C487.375 660.875 484.375 668.75 484.375 668.75C484.375 668.75 511.75 709.375 508.625 709.375C487.411 704.067 465.618 701.422 443.75 701.5C412.5 703.125 388.25 715.625 360.875 712.5C333.5 709.375 300 687.5 273.125 686.125C246.25 684.75 220.75 684.625 220 681.5C219.25 678.375 227.875 637.5 277.875 600Z" fill="#FAB900"/>
<path d="M265.375 272.875C259.625 272.875 338 257.25 341.875 262C345.75 266.75 348.875 272.875 342.625 272.875C336.375 272.875 277 287.5 271.625 286.125C266.25 284.75 266.125 272.875 265.375 272.875Z" fill="#1D1D1B"/>
<path d="M498.125 265.125C501.25 265.125 566.875 274.5 567.625 279.875C568.375 285.25 573.125 287 565.375 287.75C542.758 285.433 520.301 281.76 498.125 276.75C492.625 275 498.125 265.125 498.125 265.125Z" fill="#1D1D1B"/>
<path d="M295.75 296.372C338.75 286.122 398.875 290.872 396.625 367.372C394.375 443.872 304.375 456.497 261.375 425.997C218.375 395.497 216.875 315.122 295.75 296.372Z" fill="#1D1D1B"/>
<path d="M298.625 307.128C335 298.503 386.125 302.503 384 367.378C381.875 432.253 305.875 442.378 269.5 417.378C233.125 392.378 231.75 323.003 298.625 307.128Z" fill="white"/>
<path d="M480.125 298.621C517.625 278.871 579.375 300.246 581.75 369.746C584.125 439.246 506 454.121 466.875 422.121C427.75 390.121 420 330.746 480.125 298.621Z" fill="#1D1D1B"/>
<path d="M485.125 310.124C515.875 293.749 567.25 311.374 569.125 368.874C571 426.374 506.625 438.749 474.125 412.249C441.625 385.749 435.375 336.624 485.125 310.124Z" fill="white"/>
<path d="M306.75 351.748C318.125 342.998 338 346.373 338.75 361.123C339.35 364.901 338.92 368.77 337.504 372.324C336.088 375.877 333.74 378.982 330.706 381.312C327.672 383.642 324.066 385.109 320.268 385.56C316.469 386.011 312.62 385.428 309.125 383.873C289.5 376.748 300 357.248 306.75 351.748Z" fill="#1D1D1B"/>
<path d="M501.25 351.748C512.625 342.998 532.5 346.373 533.25 361.123C533.895 364.911 533.494 368.802 532.092 372.379C530.689 375.956 528.338 379.083 525.291 381.423C522.244 383.763 518.616 385.228 514.799 385.659C510.981 386.091 507.118 385.474 503.625 383.873C484.125 376.748 494.25 357.248 501.25 351.748Z" fill="#1D1D1B"/>
<path d="M397.375 454.873C400.75 455.623 445.75 482.248 452 478.373C458.25 474.498 453.625 456.498 445.75 450.248C437.875 443.998 438.75 447.873 438 443.998C437.787 443.203 437.773 442.366 437.961 441.564C438.149 440.762 438.532 440.018 439.076 439.4C439.62 438.781 440.309 438.307 441.081 438.019C441.853 437.731 442.684 437.638 443.5 437.748C450.333 439.288 456.532 442.879 461.268 448.039C466.004 453.2 469.051 459.684 470 466.623C473.875 490.123 459.875 497.123 441.125 492.373C422.357 485.849 404.883 476.075 389.5 463.498C387.5 460.373 393.5 454.123 397.375 454.873Z" fill="#1D1D1B"/>
<path d="M325 515.875C330.375 515.125 351.5 542.375 405.375 540.125C426.535 539.825 447.558 536.671 467.875 530.75C470.43 531.251 472.742 532.595 474.442 534.567C476.142 536.539 477.131 539.024 477.25 541.625C476.5 544 441.375 558.875 388.25 554.125C332.375 549.25 317.125 528.375 315.625 525.25C314.125 522.125 319.25 516.625 325 515.875Z" fill="#1D1D1B"/>
</svg>
