<svg width="1632" height="517" viewBox="0 0 1632 517" fill="none" xmlns="http://www.w3.org/2000/svg">
<path d="M1162.07 372.988H1161.29V516.521H1162.07V372.988Z" fill="#584F55"/>
<path d="M1162.95 499.546C1152.42 500.798 1141.63 497.063 1133.31 490.49C1124.98 483.917 1119.01 474.696 1115.17 464.81C1125.67 464.234 1136.37 468.139 1144.68 474.585C1152.98 481.033 1159.68 489.554 1162.95 499.546Z" fill="#BFB738"/>
<path d="M1160.6 471.472C1166.53 474.434 1173.62 474.692 1180 472.878C1186.38 471.064 1192.1 467.295 1196.85 462.666C1202.67 457.002 1207.34 449.365 1206.78 441.265C1206.73 440.636 1205.79 439.949 1205.73 440.576C1200.89 444.423 1194.33 445.397 1188.48 447.393C1176.19 451.58 1166.73 460.038 1160.6 471.472Z" fill="#9B9938"/>
<path d="M1162.42 439.78C1154.84 439.252 1147.6 435.069 1143.36 428.768C1141.12 425.442 1139.71 421.638 1138.33 417.875C1136.95 414.125 1135.57 410.376 1134.19 406.625C1140.17 409.807 1145.52 413.642 1151.04 417.566C1154.79 420.225 1158.57 423.249 1160.31 427.499C1161.77 431.088 1162.62 435.909 1162.42 439.78Z" fill="#9B9938"/>
<path d="M1160.15 411.007C1161.05 408.271 1162.29 405.458 1164.66 403.829C1166.9 402.295 1169.74 402.07 1172.41 401.604C1177.47 400.721 1182.34 398.799 1186.64 395.992C1184.6 402.979 1178.93 408.42 1172.14 411.035C1168.33 412.503 1163.66 413.082 1160.15 411.007Z" fill="#BFB738"/>
<path d="M1161.69 385.79C1158.75 381.948 1154.7 378.707 1149.94 377.874C1147.09 377.376 1143.92 377.684 1141.58 375.988C1142.08 378.407 1143.62 380.489 1145.31 382.3C1146.55 383.633 1147.91 384.904 1149.58 385.646C1150.66 386.129 1151.83 386.372 1153 386.548C1155.63 386.938 1159.05 386.046 1161.69 385.79Z" fill="#BFB738"/>
<path d="M1161.76 375.725C1160.48 373.134 1161.51 369.813 1163.64 367.853C1166.7 365.034 1171.52 364.571 1174.22 361.41C1174.38 363.455 1174.36 365.424 1174.05 367.451C1173.89 368.544 1173.64 369.666 1172.97 370.547C1172.41 371.298 1171.58 371.808 1170.78 372.3C1167.85 374.1 1165.19 375.442 1161.76 375.725Z" fill="#9B9938"/>
<path d="M1160.94 498.238C1139.19 489.502 1125.62 470.641 1125.49 470.452L1126.01 470.086C1126.14 470.274 1139.6 488.987 1161.18 497.652L1160.94 498.238Z" fill="#584F55"/>
<path d="M1157.57 434.965C1146.94 425.089 1140.24 412.631 1140.18 412.507L1140.73 412.211C1140.8 412.334 1147.45 424.701 1158 434.503L1157.57 434.965Z" fill="#584F55"/>
<path d="M1164.06 408.805L1163.96 408.183C1164.06 408.168 1173.61 406.61 1181.26 400.75L1181.65 401.252C1173.87 407.212 1164.16 408.79 1164.06 408.805Z" fill="#584F55"/>
<path d="M1155.98 495.984C1155.73 495.673 1149.98 488.289 1149.37 483.315L1149.99 483.238C1150.59 488.035 1156.42 495.52 1156.48 495.595L1155.98 495.984Z" fill="#584F55"/>
<path d="M1149.3 492.253C1149.25 492.241 1143.99 491.093 1137.12 490.707L1137.15 490.078C1144.08 490.467 1149.39 491.624 1149.44 491.636L1149.3 492.253Z" fill="#584F55"/>
<path d="M1139.96 485.471C1139.83 485.264 1136.82 480.351 1136.82 476.938H1137.45C1137.45 480.174 1140.47 485.089 1140.5 485.139L1139.96 485.471Z" fill="#584F55"/>
<path d="M1134.73 480.761C1134.72 480.757 1133.39 480.359 1129.73 480.035L1129.79 479.406C1133.53 479.738 1134.86 480.14 1134.92 480.157L1134.73 480.761Z" fill="#584F55"/>
<path d="M1168.76 468.684L1168.56 468.084C1189.41 461.217 1202.84 444.72 1202.97 444.555L1203.46 444.949C1203.33 445.117 1189.79 461.756 1168.76 468.684Z" fill="#584F55"/>
<path d="M1172.78 467.203L1172.69 466.581C1173.07 466.521 1182.19 465.126 1186.05 466.598L1185.83 467.186C1182.11 465.778 1172.88 467.189 1172.78 467.203Z" fill="#584F55"/>
<path d="M1179.6 463.993L1179.08 463.629C1179.12 463.573 1183.03 457.994 1182.64 454.022L1183.27 453.961C1183.68 458.169 1179.76 463.757 1179.6 463.993Z" fill="#584F55"/>
<path d="M1186.71 459.73L1186.57 459.116C1186.83 459.054 1192.76 457.652 1195.37 457.652C1195.51 457.652 1195.65 457.656 1195.77 457.666L1195.72 458.295C1193.52 458.145 1186.78 459.715 1186.71 459.73Z" fill="#584F55"/>
<path d="M1194.13 454.099L1193.54 453.886C1193.97 452.676 1194.84 449.274 1193.62 448.075L1194.06 447.625C1195.81 449.352 1194.2 453.906 1194.13 454.099Z" fill="#584F55"/>
<path d="M1154.54 431.936C1154.51 431.924 1150.86 430.647 1146.72 429.289L1146.92 428.688C1151.06 430.046 1154.71 431.326 1154.75 431.34L1154.54 431.936Z" fill="#584F55"/>
<path d="M1150.42 427.264C1150.41 427.106 1150.22 423.35 1150.42 421.109L1151.05 421.165C1150.85 423.361 1151.04 427.194 1151.05 427.233L1150.42 427.264Z" fill="#584F55"/>
<path d="M1145.66 421.04C1145.63 421.035 1143.62 420.452 1142.04 420.208L1142.13 419.586C1143.75 419.836 1145.75 420.409 1145.83 420.433L1145.66 421.04Z" fill="#584F55"/>
<path d="M1170.97 409.652C1170.41 409.09 1167.86 408.363 1166.92 408.13L1167.07 407.516C1167.44 407.607 1170.63 408.419 1171.42 409.205L1170.97 409.652Z" fill="#584F55"/>
<path d="M1172.19 406.425L1171.72 405.994C1171.74 405.978 1173.38 404.187 1173.08 402.248L1173.7 402.152C1174.05 404.395 1172.26 406.344 1172.19 406.425Z" fill="#584F55"/>
<path d="M1179.28 405.055L1176.33 404.518L1176.44 403.898L1179.4 404.436L1179.28 405.055Z" fill="#584F55"/>
<path d="M1158.36 384.523C1158.3 384.507 1152.66 382.812 1148.95 381.343L1149.18 380.758C1152.87 382.216 1158.48 383.904 1158.54 383.92L1158.36 384.523Z" fill="#584F55"/>
<path d="M1164.46 373.232L1164.06 372.743C1164.1 372.71 1168.16 369.397 1170.41 365.941L1170.94 366.287C1168.63 369.826 1164.63 373.096 1164.46 373.232Z" fill="#584F55"/>
<path d="M1481.26 506.102C1481.26 506.102 1462.19 461.966 1483.25 419.746C1483.25 419.746 1497.35 443.438 1481.26 506.102Z" fill="#888738"/>
<path d="M1481.26 506.105C1481.26 506.105 1454.01 500.346 1457.34 446.477C1457.34 446.477 1483.92 477.402 1481.26 506.105Z" fill="#9B9938"/>
<path d="M1481.48 504.365C1481.48 504.365 1471.52 487.397 1507.38 464.828C1507.38 464.828 1502.77 495.571 1481.48 504.365Z" fill="#BFB738"/>
<path d="M1481.05 516.161C1478.68 499.574 1480.26 471.936 1481.41 456.938L1482.2 456.999C1481.05 471.964 1479.47 499.536 1481.83 516.05L1481.05 516.161Z" fill="#584F55"/>
<path d="M1482.63 451.678L1481.85 451.61C1482.23 447.084 1482.52 444.266 1482.53 444.238L1483.31 444.319C1483.31 444.347 1483.02 447.161 1482.63 451.678Z" fill="#584F55"/>
<path d="M1479.87 503.583C1478.12 500.421 1476.03 496.013 1473.65 490.483L1474.37 490.172C1476.74 495.678 1478.82 500.062 1480.56 503.201L1479.87 503.583Z" fill="#584F55"/>
<path d="M1471.25 484.747C1466.62 473.446 1462.65 462.357 1462.61 462.245L1463.36 461.98C1463.4 462.091 1467.36 473.167 1471.98 484.448L1471.25 484.747Z" fill="#584F55"/>
<path d="M1480.97 507.371L1480.2 507.219C1481.13 502.442 1487.93 491.834 1493.47 483.777L1494.12 484.225C1486.24 495.691 1481.69 503.694 1480.97 507.371Z" fill="#584F55"/>
<path d="M1497.27 479.714L1496.63 479.258C1499.87 474.676 1502.35 471.374 1502.37 471.34L1503 471.815C1502.98 471.847 1500.51 475.141 1497.27 479.714Z" fill="#584F55"/>
<path d="M1396.01 506.47C1396.23 505.608 1396.82 504.847 1397.6 504.416C1398.21 504.075 1398.97 503.905 1399.38 503.332C1399.85 502.676 1399.75 501.624 1400.44 501.219C1400.82 500.999 1401.29 501.069 1401.72 501.031C1402.37 500.973 1402.98 500.66 1403.62 500.529C1404.26 500.398 1405.05 500.518 1405.37 501.089C1405.5 501.309 1405.54 501.574 1405.69 501.773C1406.07 502.257 1406.83 502.113 1407.4 502.346C1408.02 502.604 1408.35 503.413 1408.09 504.035C1409.31 504.132 1409.74 505.678 1410.56 506.601C1410.93 507.023 1411.43 507.358 1411.62 507.886C1411.99 508.922 1410.96 510.108 1411.41 511.112C1412.41 510.809 1413.32 511.892 1413.49 512.918C1413.67 513.946 1413.45 515.032 1413.79 516.019H1392.33V507.69L1396.01 506.47Z" fill="#A9ABB3"/>
<path d="M1399.34 505.98C1398.65 505.828 1397.94 506.037 1397.24 506.13C1396.54 506.223 1395.73 506.155 1395.28 505.612C1394.54 504.73 1395.27 503.429 1395.98 502.532C1395.35 502.446 1394.9 501.816 1394.82 501.182C1394.74 500.547 1393.66 498.678 1392.86 498.889C1392.06 499.101 1391.31 499.51 1390.49 499.641C1389.36 499.821 1388.15 499.416 1387.35 498.591C1385.95 498.378 1384.47 499.397 1384.18 500.783L1386.41 515.503C1388.51 515.53 1390.6 515.558 1392.69 515.585C1393.05 515.59 1393.43 515.59 1393.75 515.417C1394.07 515.244 1394.3 514.836 1394.14 514.51C1394.65 514.779 1395.31 514.455 1395.61 513.961C1395.9 513.469 1395.94 512.866 1395.96 512.29C1396.69 512.31 1397.43 512.268 1398.15 512.163C1398.37 512.132 1398.6 512.089 1398.78 511.95C1399.53 511.342 1398.35 510.115 1398.66 509.197C1398.93 508.404 1400.15 508.29 1400.44 507.503C1400.67 506.834 1400.03 506.131 1399.34 505.98Z" fill="#C8CAD4"/>
<path d="M1428.14 496.368C1427.82 496.548 1427.57 496.839 1427.26 497.035C1426.6 497.451 1425.75 497.383 1424.99 497.592C1423.83 497.914 1422.97 498.865 1422.17 499.771C1421.73 500.273 1421.29 500.775 1420.85 501.277C1419.69 502.606 1418.45 504.092 1418.41 505.86C1418.4 506.515 1418.55 507.172 1418.46 507.82C1418.36 508.552 1417.96 509.203 1417.71 509.896C1417.46 510.589 1417.38 511.435 1417.84 512.005C1418.25 512.504 1419.04 512.732 1419.18 513.362C1419.31 513.952 1418.77 514.529 1418.87 515.125C1419.01 515.926 1420.07 516.101 1420.88 516.082C1423.42 516.024 1425.95 515.967 1428.49 515.91L1430.96 496.784C1430.07 496.335 1429.01 495.885 1428.14 496.368Z" fill="#C8CAD4"/>
<path d="M1428.48 516.526H1386L1385.93 516.12L1372.8 435.883H1441.68L1441.58 436.445L1428.48 516.526ZM1386.82 515.558H1427.66L1440.54 436.85H1373.94L1386.82 515.558Z" fill="#584F55"/>
<path d="M1416.08 516.526H1398.4L1398.37 516.075L1393.08 435.883H1421.39L1416.08 516.526ZM1399.31 515.558H1415.17L1420.36 436.85H1394.12L1399.31 515.558Z" fill="#584F55"/>
<path d="M1450.23 431.312H1364.24V437.389H1450.23V431.312Z" fill="#FECE84"/>
<path d="M1438.44 452.168H1376.03V453.135H1438.44V452.168Z" fill="#584F55"/>
<path d="M1434.09 478.746H1380.38V479.713H1434.09V478.746Z" fill="#584F55"/>
<path d="M1430.23 502.363H1384.25V503.332H1430.23V502.363Z" fill="#584F55"/>
<path d="M1554.07 260.543H1503.2V265.989H1554.07V260.543Z" fill="#8A7079"/>
<path d="M1511.96 260.543H1503.2V265.989H1511.96V260.543Z" fill="#AE9697"/>
<path d="M1569.85 255.094H1506.54V260.54H1569.85V255.094Z" fill="#BFB738"/>
<path d="M1514.61 255.094H1506.54V260.54H1514.61V255.094Z" fill="#E0D338"/>
<path d="M1562.62 249.648H1503.2V255.095H1562.62V249.648Z" fill="#F96767"/>
<path d="M1516.96 249.648H1503.2V255.095H1516.96V249.648Z" fill="#F9A28C"/>
<path d="M1575.23 256.707H1538.2V257.698H1575.23V256.707Z" fill="#584F55"/>
<path d="M1532.91 256.707H1526.66V257.698H1532.91V256.707Z" fill="#584F55"/>
<path d="M1559.39 265.977H1233.74V272.414H1559.39V265.977Z" fill="#FECE84"/>
<path d="M1364.36 265.977H1233.74V272.414H1364.36V265.977Z" fill="#FEB981"/>
<path d="M1481.09 272.414H1473.17C1473.17 272.414 1520.49 329.954 1538.63 516.126H1546.55C1528.42 329.954 1481.09 272.414 1481.09 272.414Z" fill="#C28569"/>
<path d="M1546.68 272.414H1540.93V516.126H1546.68V272.414Z" fill="#DE9169"/>
<path d="M1290.45 272.414H1282.53C1282.53 272.414 1329.85 329.954 1347.99 516.126H1355.91C1337.77 329.954 1290.45 272.414 1290.45 272.414Z" fill="#C28569"/>
<path d="M1356.04 272.414H1350.28V516.126H1356.04V272.414Z" fill="#DE9169"/>
<path d="M1403.45 260.117H1350.28V265.981H1403.45V260.117Z" fill="#F96767"/>
<path d="M1449.52 261.945H1378.64V265.981H1449.52V261.945Z" fill="#8B8D93"/>
<path d="M1398.6 261.945H1378.64V265.981H1398.6V261.945Z" fill="#757982"/>
<path d="M1361.54 152.926L1346.22 222.009H1466.27L1481.59 152.926H1361.54Z" fill="#8B8D93"/>
<path d="M1401.18 181.027L1395.9 204.823H1437.26L1442.53 181.027H1401.18Z" fill="#A9ABB3"/>
<path d="M1401.18 181.027L1395.9 204.823H1401.57L1406.85 181.027H1401.18Z" fill="#989AA1"/>
<path d="M1361.54 152.926L1346.22 222.009H1353.83L1369.15 152.926H1361.54Z" fill="#757982"/>
<path d="M1424.43 195.691H1412.2L1401.67 240.206L1408.14 261.948H1420.37L1413.9 240.206L1424.43 195.691Z" fill="#A4A6AD"/>
<path d="M1416.16 195.691H1412.2L1401.67 240.206L1408.14 261.948H1412.1L1405.63 240.206L1416.16 195.691Z" fill="#989AA1"/>
<path d="M1472.67 157.371H1408.92V157.866H1472.67V157.371Z" fill="#584F55"/>
<path d="M1401.37 157.371H1390.6V157.866H1401.37V157.371Z" fill="#584F55"/>
<path d="M1390.6 218.59H1341.75V219.085H1390.6V218.59Z" fill="#584F55"/>
<path d="M1494.21 243.301H1469.14C1469.14 243.301 1467.99 257.087 1473.26 265.983H1490.1C1495.36 257.087 1494.21 243.301 1494.21 243.301Z" fill="#FEB07F"/>
<path d="M1469.14 243.301C1469.14 243.301 1468.93 245.862 1469.11 249.48H1494.25C1494.42 245.862 1494.21 243.301 1494.21 243.301H1469.14Z" fill="#FECE84"/>
<path d="M1493.46 256.346C1493.57 255.773 1493.66 255.205 1493.75 254.645H1469.6C1469.69 255.205 1469.78 255.774 1469.89 256.346H1493.46Z" fill="#FECE84"/>
<path d="M1479.72 243.298H1492.08C1492.08 243.298 1506.32 228.653 1509.92 208.574C1509.92 208.574 1482.81 216.468 1479.72 243.298Z" fill="#888738"/>
<path d="M1486.24 193.301C1470.62 206.858 1476.46 243.3 1476.46 243.3H1486.24C1491.73 227.911 1486.24 193.301 1486.24 193.301Z" fill="#9B9938"/>
<path d="M1455.87 209.949C1456.38 233.633 1471.48 243.301 1471.48 243.301H1479.72C1471.31 213.552 1455.87 209.949 1455.87 209.949Z" fill="#BFB738"/>
<path d="M1481.79 239.669C1479.84 221.646 1483.73 202.203 1483.77 202.008L1484.25 202.109C1484.21 202.303 1480.34 221.672 1482.28 239.616L1481.79 239.669Z" fill="#584F55"/>
<path d="M1491.11 236.965L1490.64 236.822C1493.71 226.757 1505.45 214.196 1505.57 214.07L1505.93 214.41C1505.81 214.536 1494.15 227.012 1491.11 236.965Z" fill="#584F55"/>
<path d="M1474.35 239.752C1470.63 232.139 1460.23 218.593 1460.13 218.458L1460.52 218.156C1460.63 218.291 1471.05 231.879 1474.79 239.537L1474.35 239.752Z" fill="#584F55"/>
<path d="M1488.84 262.956L1488.52 262.577C1492.54 259.218 1492.52 246.522 1492.52 246.395L1493.01 246.391C1493.01 246.923 1493.04 259.447 1488.84 262.956Z" fill="#584F55"/>
<path d="M1546.87 418.821C1546.87 418.821 1538.19 402.306 1551.65 383.589C1565.11 364.871 1567.59 349.656 1567.59 349.656C1567.59 349.656 1582.96 376.863 1575.55 403.761C1568.14 430.658 1557.27 437.67 1557.2 436.795C1557.14 435.919 1546.87 418.821 1546.87 418.821Z" fill="#888738"/>
<path d="M1581.63 456.532H1599.52C1599.52 456.532 1624.29 441.669 1632 424.051C1632 424.051 1604.75 421.849 1581.63 456.532Z" fill="#888738"/>
<path d="M1493.92 386.069C1500.63 439.194 1560.71 455.277 1560.71 455.277V433.138C1525.2 379.188 1493.92 386.069 1493.92 386.069Z" fill="#9B9938"/>
<path d="M1556.68 446.045C1534.28 417.797 1505.17 397.877 1504.88 397.681L1505.33 397.027C1505.62 397.227 1534.82 417.21 1557.3 445.556L1556.68 446.045Z" fill="#584F55"/>
<path d="M1552.43 440.673C1552.06 440.659 1543.16 440.29 1536.96 437.217L1537.31 436.512C1543.36 439.508 1552.37 439.88 1552.46 439.884L1552.43 440.673Z" fill="#584F55"/>
<path d="M1545.65 433.132C1545.65 433.038 1545.01 423.751 1541.98 418.115L1542.68 417.742C1545.78 423.531 1546.42 432.694 1546.44 433.08L1545.65 433.132Z" fill="#584F55"/>
<path d="M1536.61 424.429C1534.79 424.429 1528.83 424.158 1523.34 420.869L1523.75 420.191C1529.96 423.92 1537.05 423.643 1537.12 423.631L1537.16 424.419C1537.11 424.422 1536.92 424.429 1536.61 424.429Z" fill="#584F55"/>
<path d="M1525.52 413.064L1524.73 413.049C1524.73 413.013 1524.78 409.484 1523.18 405.485L1523.91 405.191C1525.57 409.347 1525.53 412.915 1525.52 413.064Z" fill="#584F55"/>
<path d="M1514.74 407.158C1513.15 407.158 1510.96 406.863 1508.51 405.693L1508.85 404.98C1513.4 407.152 1517.08 406.11 1517.11 406.101L1517.33 406.855C1517.26 406.88 1516.28 407.158 1514.74 407.158Z" fill="#584F55"/>
<path d="M1562.55 421.736C1562.23 421.055 1554.83 404.923 1560.36 394.413C1565.76 384.149 1566.91 367.759 1566.92 367.594L1567.71 367.646C1567.69 367.812 1566.54 384.364 1561.06 394.778C1555.7 404.947 1563.19 421.24 1563.27 421.402L1562.55 421.736Z" fill="#584F55"/>
<path d="M1558.69 408.012C1554.88 403.657 1553.63 396.346 1553.57 396.036L1554.35 395.906C1554.36 395.979 1555.62 403.309 1559.29 407.492L1558.69 408.012Z" fill="#584F55"/>
<path d="M1559.53 398.733L1559.08 398.089C1559.12 398.061 1563.04 395.241 1565.17 390.98L1565.88 391.332C1563.66 395.775 1559.7 398.614 1559.53 398.733Z" fill="#584F55"/>
<path d="M1562.63 389.282C1562.59 389.061 1561.66 383.839 1562.02 380.652L1562.8 380.742C1562.46 383.812 1563.4 389.089 1563.41 389.144L1562.63 389.282Z" fill="#584F55"/>
<path d="M1566.15 378.501L1565.62 377.921C1565.65 377.888 1569.11 374.683 1569.59 372.891L1570.35 373.091C1569.82 375.106 1566.3 378.363 1566.15 378.501Z" fill="#584F55"/>
<path d="M1592.37 454.12L1591.98 453.436C1604.27 446.384 1620.83 431.072 1620.99 430.918L1621.53 431.498C1621.37 431.651 1604.75 447.024 1592.37 454.12Z" fill="#584F55"/>
<path d="M1598.77 450.674C1598.16 450.674 1597.78 450.626 1597.74 450.62L1597.84 449.836C1597.88 449.842 1601.69 450.313 1605.65 447.941L1606.05 448.618C1603.08 450.397 1600.24 450.674 1598.77 450.674Z" fill="#584F55"/>
<path d="M1604.23 446.009L1603.56 445.586C1603.6 445.527 1607.3 439.708 1608.96 437.48L1609.59 437.953C1607.95 440.156 1604.26 445.95 1604.23 446.009Z" fill="#584F55"/>
<path d="M1610.89 440.667L1610.77 439.886C1610.81 439.882 1614.16 439.345 1616.48 438.215L1616.83 438.924C1614.39 440.107 1611.04 440.645 1610.89 440.667Z" fill="#584F55"/>
<path d="M1617.67 434.871L1616.9 434.686C1617.01 434.213 1618.03 430.048 1618.74 429.051L1619.38 429.511C1618.85 430.249 1617.97 433.629 1617.67 434.871Z" fill="#584F55"/>
<path d="M1609.86 456.535H1541.23C1541.23 456.535 1555.81 486.125 1551.65 516.128H1599.44C1595.28 486.125 1609.86 456.535 1609.86 456.535Z" fill="#DE9169"/>
<path d="M1552 513.12C1551.91 514.122 1551.79 515.124 1551.65 516.127H1551.75L1598.7 504.885C1598.7 503.893 1598.72 502.908 1598.75 501.926L1552 513.12Z" fill="#C97869"/>
<path d="M1594.8 516.123L1599.31 515.043C1599.2 514.083 1599.09 513.126 1599.01 512.168L1582.5 516.122H1594.8V516.123Z" fill="#C97869"/>
<path d="M1552.36 502.717C1552.39 503.693 1552.4 504.674 1552.39 505.658L1599.29 494.426C1599.4 493.404 1599.53 492.392 1599.66 491.391L1552.36 502.717Z" fill="#C97869"/>
<path d="M1547.4 472.981C1547.66 473.871 1547.92 474.796 1548.18 475.739L1607.71 461.486C1608.25 460.124 1608.73 459.027 1609.09 458.207L1547.4 472.981Z" fill="#C97869"/>
<path d="M1551.59 492.597C1551.71 493.544 1551.81 494.5 1551.91 495.466L1600.99 483.712C1601.21 482.654 1601.44 481.619 1601.68 480.602L1551.59 492.597Z" fill="#C97869"/>
<path d="M1549.89 482.695C1550.08 483.616 1550.27 484.553 1550.46 485.504L1603.77 472.737C1604.11 471.629 1604.44 470.567 1604.77 469.551L1549.89 482.695Z" fill="#C97869"/>
<path d="M1544.35 463.965H1606.74C1608.51 459.294 1609.86 456.535 1609.86 456.535H1541.23C1541.23 456.535 1542.59 459.295 1544.35 463.965Z" fill="#FECE84"/>
<path d="M1595.73 487.203L1566.16 494.445L1566.35 495.213L1595.92 487.97L1595.73 487.203Z" fill="#584F55"/>
<path d="M1560.63 495.838L1555.74 497.035L1555.93 497.802L1560.81 496.605L1560.63 495.838Z" fill="#584F55"/>
<path d="M1603.77 487.655L1602.98 487.621C1603.52 475.021 1611.74 458.204 1611.83 458.035L1612.53 458.383C1612.45 458.551 1604.31 475.223 1603.77 487.655Z" fill="#584F55"/>
<path d="M1567.84 463.57H1548.04V464.359H1567.84V463.57Z" fill="#584F55"/>
<path d="M1573.78 463.57H1571.44V464.359H1573.78V463.57Z" fill="#584F55"/>
<path d="M1620.99 350.988C1616.45 365.594 1597.04 378.91 1571.85 397.489C1546.67 416.069 1561.12 456.532 1561.12 456.532H1584.65C1635.85 417.307 1620.99 350.988 1620.99 350.988Z" fill="#BFB738"/>
<path d="M1569.67 455.321C1569.65 455.09 1567.27 431.993 1589.74 412.471C1606.98 397.484 1613.94 376.251 1614.01 376.039L1614.76 376.279C1614.69 376.493 1607.67 397.931 1590.25 413.066C1578.68 423.12 1573.92 434.045 1571.96 441.441C1569.83 449.458 1570.45 455.175 1570.46 455.232L1569.67 455.321Z" fill="#584F55"/>
<path d="M1569.99 447.523C1569.96 447.416 1566.35 436.832 1567.79 425.109L1568.57 425.205C1567.16 436.739 1570.71 447.161 1570.74 447.263L1569.99 447.523Z" fill="#584F55"/>
<path d="M1572.84 438.078L1572.52 437.361C1572.59 437.329 1579.37 434.236 1586.87 427.746L1587.39 428.344C1579.79 434.913 1572.91 438.048 1572.84 438.078Z" fill="#584F55"/>
<path d="M1581.17 421.573C1581.17 421.277 1581.21 414.237 1584.93 408.02L1585.61 408.426C1582 414.45 1581.96 421.502 1581.96 421.573H1581.17Z" fill="#584F55"/>
<path d="M1592.9 410.563L1592.71 409.795C1592.8 409.773 1601.66 407.621 1605.06 405.02L1605.54 405.646C1602 408.35 1593.27 410.474 1592.9 410.563Z" fill="#584F55"/>
<path d="M1602.16 399.884L1601.37 399.828C1601.4 399.458 1602.04 390.747 1603.5 387.621L1604.21 387.954C1602.81 390.95 1602.16 399.795 1602.16 399.884Z" fill="#584F55"/>
<path d="M1609.44 388.14L1609.1 387.431C1609.15 387.406 1614.18 384.956 1616.37 382.758L1616.93 383.316C1614.64 385.608 1609.66 388.039 1609.44 388.14Z" fill="#584F55"/>
<path d="M1617 420.714L1616.3 420.338C1621.03 411.645 1623.37 401.508 1624.51 394.535L1625.29 394.662C1624.14 401.697 1621.78 411.926 1617 420.714Z" fill="#584F55"/>
<path d="M1626.05 389.122L1625.26 389.036C1625.48 387.002 1625.55 385.778 1625.55 385.766L1626.34 385.809C1626.34 385.822 1626.27 387.063 1626.05 389.122Z" fill="#584F55"/>
<path d="M1510.23 429.527C1501.29 418.25 1493.12 404.099 1493.04 403.957L1493.72 403.562C1493.81 403.704 1501.95 417.806 1510.85 429.037L1510.23 429.527Z" fill="#584F55"/>
<path d="M1550.18 380.959L1549.59 380.435C1557.88 371.116 1562.59 355.283 1562.64 355.125L1563.4 355.347C1563.35 355.507 1558.59 371.507 1550.18 380.959Z" fill="#584F55"/>
<path d="M1091.32 515.926H938.389V516.32H1091.32V515.926Z" fill="black"/>
<path d="M1108.57 515.926H1101.21V516.32H1108.57V515.926Z" fill="black"/>
<path d="M1245.87 515.926H1119.52V516.32H1245.87V515.926Z" fill="black"/>
<path d="M1503 515.926H1251.15V516.32H1503V515.926Z" fill="black"/>
<path d="M1622.88 515.93H1509.86V516.324H1622.88V515.93Z" fill="black"/>
</svg>
