<svg width="1789" height="1152" viewBox="0 0 1789 1152" fill="none" xmlns="http://www.w3.org/2000/svg">
<path d="M1498.42 884.698C1497.83 884.324 1497.1 883.348 1496.21 881.768C1495.56 880.601 1494.48 880.238 1492.98 880.678C1492.71 880.758 1492.58 880.938 1492.59 881.218L1492.64 884.668C1492.65 885.081 1492.49 885.424 1492.17 885.698C1486.84 890.224 1481.4 894.611 1475.84 898.858C1474.26 900.064 1473.3 901.441 1472.96 902.988C1471.23 910.868 1469.74 916.614 1468.48 920.228C1467.96 921.718 1465.99 922.688 1465.31 924.328C1464.7 925.814 1464.41 927.394 1464.42 929.068C1464.42 929.228 1464.48 929.383 1464.59 929.501C1464.7 929.619 1464.85 929.693 1465.01 929.708C1469.33 930.068 1473.17 930.548 1477.66 930.178C1488.77 929.258 1498.36 929.468 1508.36 935.418C1510.04 936.578 1511.75 937.878 1513.48 939.318C1516.67 941.968 1520.6 943.138 1523.93 945.448C1529.66 949.418 1535.32 952.478 1540.28 958.028C1543.68 961.848 1548.06 964.148 1552.14 967.128C1556.26 970.138 1561.15 970.888 1566 971.568C1569.06 971.988 1571.6 973.068 1574.52 973.898C1576.92 974.578 1579 975.331 1580.76 976.158C1584.54 977.938 1590.25 979.468 1590.63 984.488C1591.1 990.808 1592.26 996.574 1594.1 1001.79C1596.16 1007.64 1596.7 1011.6 1596.82 1017.25C1597.07 1027.91 1597.24 1038.58 1597.33 1049.25C1597.34 1050.25 1597.57 1052.09 1598.01 1054.76C1599 1060.74 1598.77 1067.11 1598.9 1073.16C1598.97 1076.47 1600.39 1079.38 1602.3 1081.71C1606.98 1087.42 1610.63 1091.95 1615.84 1099.08C1619.62 1104.26 1623.87 1109.03 1628.58 1113.39C1631.12 1115.75 1632.39 1118.25 1633.41 1121.28C1635.92 1128.73 1641.32 1140.83 1642.3 1151.27L1641.88 1152H0V886.578C2.04667 882.791 3.53667 879.014 4.47 875.248C4.84333 873.728 4.49667 873.541 3.43 874.688C2.35 875.848 1.65 877.211 1.33 878.778C1.31655 878.853 1.28122 878.923 1.2284 878.978C1.17557 879.034 1.1076 879.072 1.03296 879.089C0.958319 879.106 0.880305 879.101 0.808647 879.074C0.73699 879.047 0.674858 879 0.63 878.938C0.276667 878.458 0.0666667 877.794 0 876.948V832.898C0.26 832.104 0.666667 831.481 1.22 831.028C3.43 828.738 8.54 829.178 11.99 829.568C14.99 829.898 16.88 834.438 17.53 837.098C18.01 838.738 18.05 840.544 17.65 842.518C17.627 842.626 17.6312 842.738 17.6623 842.845C17.6933 842.951 17.7502 843.048 17.828 843.128C17.9059 843.208 18.0023 843.268 18.109 843.303C18.2156 843.337 18.3292 843.346 18.44 843.328C19.7533 843.108 20.8033 842.478 21.59 841.438C21.7967 841.158 22.0667 840.954 22.4 840.828C23.99 840.238 26.15 840.708 27.27 840.178C27.67 839.991 27.93 839.708 28.05 839.328C28.17 838.921 28.4967 838.661 29.03 838.548C33.0433 837.681 36.7267 838.158 40.08 839.978C44.75 842.508 45.54 848.198 46.77 852.818C46.5767 853.724 46.5567 854.591 46.71 855.418L46.5 857.638L46.72 857.788C46.8067 857.848 46.82 857.921 46.76 858.008L45.93 859.258L42.39 868.498C42.3412 868.625 42.3267 868.762 42.3477 868.895C42.3688 869.029 42.4248 869.154 42.51 869.258L46.45 874.028C46.611 874.221 46.8385 874.349 47.09 874.388C49.81 874.758 52.11 874.478 54.73 875.378C57.29 876.248 60.17 876.738 62.35 877.698C67.8167 880.098 71.3967 884.174 73.09 889.928C73.99 892.978 74.63 894.778 74.23 897.518C73.2 904.738 69.86 915.468 62.69 918.678C60.47 919.671 58.7467 920.578 57.52 921.398C56.42 922.011 55.12 922.044 53.62 921.498C53.4733 921.551 53.2033 921.504 52.81 921.358L48.47 921.868C43.63 919.368 32.57 916.318 27.67 920.338C22.46 925.448 23.01 926.768 28.17 931.858C29.31 932.211 30.42 932.231 31.5 931.918C38.4133 929.904 44.3067 928.334 49.18 927.208L50.94 927.398C51.6133 927.584 53.05 927.691 55.25 927.718C57.69 927.738 60.3367 928.714 63.19 930.648C65.3033 931.954 66.86 933.828 67.86 936.268C67.9933 936.601 68.27 936.798 68.69 936.858C68.7527 936.867 68.8168 936.86 68.8762 936.838C68.9357 936.816 68.9887 936.78 69.0305 936.732C69.0722 936.684 69.1014 936.627 69.1153 936.565C69.1292 936.503 69.1273 936.439 69.11 936.378C68.57 934.484 68.4767 932.971 68.83 931.838C69.98 927.788 70.94 920.388 74.09 917.848C81.2 912.108 80.69 937.378 80.75 939.498C80.85 943.148 81.41 945.438 84.09 948.278C87 951.338 87.91 954.048 92.4 955.608C92.5192 955.649 92.6474 955.658 92.771 955.633C92.8947 955.607 93.0092 955.549 93.1025 955.464C93.1957 955.379 93.2642 955.27 93.3008 955.149C93.3373 955.029 93.3405 954.9 93.31 954.778C92.84 952.778 91.73 948.378 93.94 947.168C94.5467 946.841 94.9567 946.561 95.17 946.328C95.6233 945.821 95.6567 945.288 95.27 944.728C93.57 942.241 93.24 940.081 94.28 938.248C95.83 935.518 98.19 933.118 101.12 934.248C101.259 934.301 101.382 934.389 101.477 934.502C101.573 934.616 101.639 934.752 101.668 934.898C101.697 935.043 101.688 935.194 101.643 935.336C101.598 935.477 101.518 935.605 101.41 935.708L98.05 938.918C97.8669 939.093 97.7262 939.307 97.6388 939.545C97.5513 939.782 97.5194 940.037 97.5454 940.289C97.5715 940.541 97.6548 940.783 97.7891 940.998C97.9234 941.213 98.1049 941.394 98.32 941.528L100.48 942.868C100.74 943.034 100.927 943.261 101.04 943.548C102.26 946.708 98.93 948.388 96.83 949.718C96.696 949.805 96.5834 949.921 96.5003 950.058C96.4172 950.195 96.3659 950.348 96.35 950.508C96.1767 952.348 96.7433 953.911 98.05 955.198C98.1395 955.286 98.2531 955.346 98.3765 955.371C98.5 955.395 98.6279 955.382 98.7442 955.334C98.8606 955.286 98.9602 955.205 99.0305 955.101C99.1009 954.996 99.139 954.874 99.14 954.748C99.2133 950.854 101.193 948.914 105.08 948.928C105.231 948.929 105.379 948.894 105.513 948.824C105.646 948.754 105.76 948.652 105.844 948.527C105.929 948.402 105.981 948.258 105.996 948.108C106.01 947.958 105.988 947.807 105.93 947.668L104.59 944.458C104.49 944.223 104.48 943.96 104.561 943.719C104.642 943.478 104.809 943.274 105.03 943.148C106.68 942.188 107.97 942.838 108.95 944.328C112.08 949.098 107.68 951.338 104.06 952.988C101.66 954.074 101.7 955.068 104.18 955.968C105.067 956.288 106.227 956.054 107.66 955.268C110.6 953.658 111.27 949.888 115.47 951.158C117.21 951.688 119.28 954.388 120.68 955.808C121.56 956.688 122.587 957.228 123.76 957.428C127.08 957.998 130.02 959.198 132.82 959.538C135.807 959.904 138.787 960.341 141.76 960.848C144.5 961.314 148.533 961.068 153.86 960.108L159.71 955.378L166.24 951.328C167.867 951.194 169.293 950.838 170.52 950.258C173.91 949.168 175.45 948.588 179.59 950.538C182.59 952.151 184.667 954.571 185.82 957.798C185.957 958.187 186.211 958.524 186.548 958.762C186.885 959.001 187.287 959.128 187.7 959.128H191.07C191.403 959.128 191.7 959.021 191.96 958.808C193.4 957.641 193.557 955.951 192.43 953.738C192.63 952.718 193.033 952.178 193.64 952.118C194.02 952.084 194.187 952.254 194.14 952.628C194.013 953.661 194.24 954.371 194.82 954.758C195.967 956.138 196.64 957.148 196.84 957.788C197.58 960.174 198.34 960.181 199.12 957.808C199.953 955.274 201.227 952.571 202.94 949.698C203.507 948.751 204.43 948.594 205.71 949.228C205.937 949.214 206.263 949.481 206.69 950.028C208.097 951.954 210.073 953.821 212.62 955.628C214.19 956.738 215.19 958.988 217.53 959.458C218.99 959.744 220.477 959.721 221.99 959.388C222.323 959.314 222.497 959.108 222.51 958.768L222.61 955.958L224.21 931.438C224.237 928.811 224.687 926.258 225.56 923.778C226.44 921.268 229.56 919.918 231.18 922.558C233.21 925.868 233.13 929.658 233.69 933.348C235.04 942.238 235.12 951.628 235.42 960.628C235.433 961.074 235.663 961.304 236.11 961.318L263.14 961.968C263.54 961.974 263.687 961.784 263.58 961.398C263.54 961.258 263.503 961.118 263.47 960.978C263.43 960.824 263.353 960.694 263.24 960.588C261.14 958.598 256.24 954.708 255.36 952.078C255.33 951.982 255.33 951.879 255.361 951.784C255.391 951.688 255.45 951.604 255.529 951.543C255.609 951.482 255.706 951.447 255.806 951.442C255.906 951.438 256.005 951.464 256.09 951.518L263.89 956.638C264.817 957.251 265.067 957.044 264.64 956.018L263.56 953.428C263.027 952.134 263.37 951.828 264.59 952.508C266.89 953.801 267.973 955.764 267.84 958.398C267.813 958.938 268.043 959.088 268.53 958.848L270.8 957.728C272.08 957.094 272.48 957.451 272 958.798L271.3 960.798C271.047 961.504 271.297 961.854 272.05 961.848L278.5 961.758C279.233 961.751 279.61 961.378 279.63 960.638C279.65 959.898 279.803 959.194 280.09 958.528C280.23 958.194 280.477 957.988 280.83 957.908L283.9 957.198C284.144 957.142 284.372 957.032 284.568 956.875C284.763 956.718 284.921 956.52 285.029 956.294C285.136 956.068 285.191 955.82 285.19 955.57C285.189 955.319 285.13 955.072 285.02 954.848C284.533 953.868 284.123 952.828 283.79 951.728C283.483 950.701 283.653 950.034 284.3 949.728C285.127 949.334 285.893 949.428 286.6 950.008C289.13 952.098 290.67 955.318 288.97 958.318C288.08 959.878 286.36 960.238 285.23 961.438C285.169 961.505 285.127 961.587 285.111 961.676C285.094 961.765 285.102 961.857 285.134 961.941C285.167 962.025 285.222 962.097 285.294 962.15C285.366 962.202 285.451 962.233 285.54 962.238C288.6 962.468 290.82 961.928 293.38 959.958C300.933 954.131 308.837 948.304 317.09 942.478C317.485 942.197 317.981 942.089 318.48 942.174C318.979 942.26 319.443 942.532 319.78 942.938C320.147 943.384 320.247 944.158 320.08 945.258C319.44 949.591 318.77 954.074 318.07 958.708C318.047 958.864 318.065 959.023 318.123 959.17C318.181 959.317 318.276 959.446 318.4 959.545C318.524 959.643 318.671 959.707 318.827 959.73C318.983 959.754 319.143 959.736 319.29 959.678C321.997 958.624 324.807 958.114 327.72 958.148C328.239 958.15 328.747 958 329.181 957.715C329.615 957.431 329.956 957.025 330.16 956.548C330.84 954.954 331.867 953.624 333.24 952.558C333.513 952.351 333.703 952.084 333.81 951.758C334.81 948.788 336.4 945.158 339.53 943.938L341.99 944.598C343.33 946.908 340.45 948.018 339.39 949.768C339.217 950.054 339.19 950.354 339.31 950.668C339.84 952.128 342.61 958.088 344.92 955.138C345.72 954.128 345.63 951.918 346.03 950.578C346.094 950.358 346.209 950.156 346.365 949.989C346.521 949.821 346.715 949.692 346.93 949.611C347.145 949.531 347.376 949.501 347.605 949.525C347.834 949.549 348.055 949.625 348.25 949.748C350.517 951.181 350.963 952.964 349.59 955.098C347.82 957.878 345.32 957.528 343.63 960.108C343.457 960.374 343.513 960.581 343.8 960.728C345.72 961.708 347.637 961.751 349.55 960.858C349.9 960.689 350.181 960.411 350.35 960.068C351.59 957.448 352.997 955.728 354.57 954.908C355.85 955.801 356.293 957.154 355.9 958.968C355.307 959.341 354.837 959.848 354.49 960.488C354.423 960.61 354.388 960.748 354.39 960.888C354.392 961.028 354.43 961.165 354.5 961.286C354.571 961.407 354.671 961.507 354.792 961.578C354.913 961.648 355.05 961.686 355.19 961.688L359.66 961.778C360.04 961.784 360.383 961.674 360.69 961.448C362.63 960.008 364.84 959.501 367.32 959.928C367.794 960.007 368.281 959.906 368.683 959.642C369.085 959.379 369.373 958.974 369.49 958.508C370.12 956.088 370.68 954.358 373.74 954.968L376.22 955.998C377.87 957.498 379.79 960.538 382.34 958.508C384.547 958.394 386.703 958.704 388.81 959.438C390.923 959.711 393.48 958.588 396.48 956.068C396.707 955.874 396.82 955.631 396.82 955.338C396.807 953.844 396.33 952.561 395.39 951.488L395.27 949.898C395.21 949.818 395.27 949.684 395.45 949.498C396.083 949.224 396.52 949.258 396.76 949.598L400.2 954.048C400.249 954.11 400.312 954.158 400.385 954.189C400.458 954.219 400.537 954.23 400.615 954.221C400.694 954.212 400.768 954.183 400.832 954.137C400.896 954.091 400.947 954.029 400.98 953.958C401.333 953.178 401.81 952.404 402.41 951.638C403.303 950.491 404.077 950.691 404.73 952.238C404.782 952.354 404.789 952.482 404.75 952.598L403.36 957.098C403.293 957.314 403.27 957.541 403.292 957.766C403.313 957.991 403.379 958.209 403.485 958.408C403.591 958.607 403.735 958.783 403.909 958.925C404.084 959.068 404.284 959.174 404.5 959.238L407.22 960.048C408.26 960.361 408.957 960.004 409.31 958.978C410.64 955.088 410.24 950.138 410.31 946.118C410.87 944.791 411.013 943.231 410.74 941.438L411.12 931.478L411.84 917.928L415.84 890.368C416.2 888.174 416.707 885.884 417.36 883.498C417.78 881.984 417.9 878.914 417.72 874.288C418.513 863.668 418.24 853.488 416.9 843.748C416.46 840.561 416.513 835.148 417.06 827.508L417.29 821.508L418.69 810.508L421.83 796.628C422.877 794.128 424.067 791.994 425.4 790.228C425.753 789.761 425.767 789.304 425.44 788.858L424.96 788.248C424.787 788.034 424.833 787.898 425.1 787.838C425.68 787.718 426.363 787.724 427.15 787.858C428.683 787.918 430.23 787.468 431.79 786.508C433.443 785.488 434.697 784.921 435.55 784.808C441.58 783.998 447.77 789.158 450.65 794.118C450.697 794.011 450.8 794.121 450.96 794.448C450.98 794.894 451.08 795.324 451.26 795.738C454.267 802.738 456.37 810.141 457.57 817.948C458.83 823.481 459.533 829.164 459.68 834.998C460.387 835.711 461.203 836.268 462.13 836.668C462.47 836.808 462.507 837.008 462.24 837.268L461.14 838.348C460.853 838.621 460.723 838.954 460.75 839.348C461.27 847.708 461.82 856.071 462.4 864.438C462.83 870.608 465.3 878.608 465.91 887.118C465.923 887.318 466.014 887.506 466.163 887.641C466.313 887.775 466.509 887.846 466.71 887.838L468.97 887.738C469.061 887.734 469.151 887.751 469.234 887.788C469.316 887.825 469.39 887.881 469.448 887.951C469.506 888.022 469.547 888.105 469.568 888.195C469.589 888.284 469.59 888.378 469.57 888.468L469.46 888.928C469.327 889.494 468.97 889.774 468.39 889.768L466.99 889.748C466.931 889.746 466.872 889.757 466.817 889.78C466.763 889.804 466.714 889.839 466.674 889.883C466.634 889.928 466.604 889.981 466.586 890.039C466.568 890.096 466.563 890.157 466.57 890.218L468.79 907.718L469.18 912.478L470.4 919.648L470.32 922.408C471.42 931.368 472.42 940.214 473.32 948.948C473.53 950.928 474.81 952.218 474.99 954.428C475.143 956.314 475.547 958.121 476.2 959.848C476.246 959.97 476.318 960.08 476.411 960.172C476.504 960.263 476.616 960.334 476.74 960.378C476.863 960.423 476.995 960.44 477.126 960.43C477.257 960.419 477.385 960.381 477.5 960.318C479.607 959.164 481.373 959.488 482.8 961.288C483.04 961.588 483.337 961.658 483.69 961.498C483.97 961.371 484.22 961.198 484.44 960.978C487.9 957.478 491.56 961.578 494.09 963.708C494.218 963.814 494.37 963.887 494.533 963.919C494.695 963.952 494.864 963.944 495.022 963.895C495.181 963.846 495.325 963.759 495.442 963.641C495.558 963.523 495.644 963.377 495.69 963.218C496.34 960.918 497.57 958.518 500.47 959.808C500.792 959.956 501.048 960.219 501.19 960.548C501.51 961.314 501.967 961.988 502.56 962.568C502.63 962.634 502.713 962.686 502.804 962.719C502.894 962.752 502.991 962.766 503.086 962.761C503.182 962.755 503.276 962.73 503.36 962.686C503.445 962.643 503.52 962.582 503.58 962.508L506.27 959.148C506.477 958.894 506.507 958.621 506.36 958.328L504.31 954.258C504.157 953.951 503.91 953.764 503.57 953.698L500.83 953.158C500.45 953.078 500.22 952.851 500.14 952.478C499.607 950.038 499.737 947.431 500.53 944.658C500.73 943.358 501.623 942.764 503.21 942.878C505.597 942.778 507.777 942.641 509.75 942.468C511.503 942.314 512.38 942.901 512.38 944.228C512.39 946.528 512.31 949.518 514.02 951.308C514.145 951.439 514.303 951.536 514.478 951.589C514.653 951.641 514.84 951.648 515.02 951.608C516.007 951.381 516.71 950.808 517.13 949.888C517.27 949.574 517.497 949.354 517.81 949.228C520.72 948.018 522.99 952.628 523.44 954.808C523.507 955.121 523.69 955.328 523.99 955.428C526.017 956.128 527.957 957.011 529.81 958.078C532.14 959.408 534.82 959.318 536.91 960.638C537.51 961.018 538.1 961.414 538.68 961.828C539.092 962.12 539.589 962.267 540.093 962.245C540.596 962.223 541.077 962.034 541.46 961.708C543.6 959.901 546.097 959.344 548.95 960.038C549.373 960.138 549.752 960.374 550.028 960.71C550.305 961.046 550.463 961.463 550.48 961.898L550.52 962.758C550.56 963.658 550.137 964.021 549.25 963.848C547.93 963.594 546.35 963.571 544.51 963.778C543.543 963.884 543 964.281 542.88 964.968C542.85 965.146 542.891 965.329 542.994 965.478C543.096 965.628 543.253 965.731 543.43 965.768L553.3 967.868C553.64 967.934 553.957 967.878 554.25 967.698C555.903 966.684 556.987 966.108 557.5 965.968C559.807 965.348 562.477 965.941 565.51 967.748C566.077 968.081 567.02 968.134 568.34 967.908C568.813 965.641 568.373 963.428 567.02 961.268L565.52 957.438C565.463 957.297 565.449 957.144 565.479 956.996C565.509 956.848 565.582 956.711 565.689 956.603C565.796 956.495 565.932 956.42 566.082 956.387C566.231 956.354 566.387 956.365 566.53 956.418C568.457 957.158 569.853 958.438 570.72 960.258C570.78 960.385 570.874 960.493 570.993 960.568C571.112 960.643 571.249 960.684 571.39 960.684C571.531 960.684 571.668 960.643 571.787 960.568C571.906 960.493 572 960.385 572.06 960.258L573.71 956.938C573.847 956.658 574.07 956.427 574.35 956.278C576.243 955.258 577.113 955.998 576.96 958.498C576.853 960.264 576.673 961.798 576.42 963.098C576.207 964.198 576.57 964.441 577.51 963.828L582.17 960.788C582.923 960.294 583.437 960.478 583.71 961.338C583.903 961.944 583.527 962.691 582.58 963.578C581.267 964.791 580.197 965.724 579.37 966.378C577.737 967.651 577.953 968.284 580.02 968.278L586.14 968.238C586.48 968.238 586.767 968.111 587 967.858C589.28 965.368 591.94 962.848 595.32 964.958C595.3 965.211 595.32 965.438 595.38 965.638C595.507 966.018 595.763 966.261 596.15 966.368C597.877 966.848 599.17 966.774 600.03 966.148C600.302 965.95 600.624 965.833 600.959 965.81C601.295 965.788 601.63 965.86 601.926 966.018C602.222 966.177 602.468 966.416 602.635 966.707C602.802 966.999 602.883 967.332 602.87 967.668L602.75 970.368C602.733 970.732 602.86 971.089 603.103 971.362C603.346 971.635 603.686 971.802 604.05 971.828C606.197 971.988 608.41 972.128 610.69 972.248C612.7 972.358 614.32 973.508 616.4 973.338C617.173 972.304 617.193 971.324 616.46 970.398L614.21 969.918C613.817 969.838 613.68 969.608 613.8 969.228C613.973 968.661 614.283 968.074 614.73 967.468C616.53 966.861 618.033 965.798 619.24 964.278C619.527 963.924 619.84 963.901 620.18 964.208C620.26 964.281 620.353 964.334 620.46 964.368C620.76 964.468 620.883 964.674 620.83 964.988C620.43 967.414 620.457 969.834 620.91 972.248C621.01 972.788 621.273 973.121 621.7 973.248C622.113 973.368 622.32 973.211 622.32 972.778C622.287 968.818 623.453 967.101 625.82 967.628C626.713 967.834 627.363 968.138 627.77 968.538C628.057 968.818 628.1 969.131 627.9 969.478L627.02 971.058C626.817 971.421 626.743 971.843 626.813 972.252C626.882 972.661 627.089 973.034 627.4 973.308C629.093 974.794 631.033 975.144 633.22 974.358C633.567 974.238 633.82 974.011 633.98 973.678L636.71 967.858C637.717 964.584 637.907 961.114 637.28 957.448C637.221 957.114 637.252 956.769 637.37 956.448C637.857 955.148 637.987 953.901 637.76 952.708C637.467 941.714 637.4 930.718 637.56 919.718C637.65 913.118 638.5 902.898 642.49 897.418C646.663 893.791 650.71 893.931 654.63 897.838C655.843 901.411 656.523 905.384 656.67 909.758C657.203 911.191 657.443 912.821 657.39 914.648C657.383 914.961 657.447 915.258 657.58 915.538C658.16 916.744 658.33 918.014 658.09 919.348C658.037 919.641 658.07 919.924 658.19 920.198C659.337 922.751 660.043 925.698 660.31 929.038L664.84 947.718C664.94 948.184 664.903 948.624 664.73 949.038C664.463 950.971 664.64 952.864 665.26 954.718C665.053 955.604 665.063 956.464 665.29 957.298L665.44 972.108C665.44 972.461 665.62 972.631 665.98 972.618L672.49 972.288C672.806 972.273 673.12 972.346 673.397 972.497C673.674 972.649 673.904 972.874 674.06 973.148C675.35 975.428 680.88 974.798 682.86 974.528C682.977 974.513 683.089 974.472 683.187 974.407C683.286 974.343 683.368 974.256 683.428 974.155C683.488 974.054 683.524 973.94 683.533 973.822C683.542 973.705 683.524 973.587 683.48 973.478L682.59 971.208C682.528 971.05 682.505 970.88 682.522 970.712C682.54 970.543 682.597 970.38 682.69 970.238C683.277 969.318 683.843 968.391 684.39 967.458C687.15 962.678 681.6 960.038 683.17 955.318C683.99 952.868 686.6 950.848 688.73 949.378C688.97 949.211 689.243 949.096 689.531 949.043C689.819 948.989 690.115 948.997 690.399 949.066C690.684 949.135 690.95 949.263 691.181 949.443C691.412 949.622 691.603 949.849 691.74 950.108C691.94 950.488 691.93 951.021 691.71 951.708C691.31 952.988 688.83 954.778 687.81 955.838C687.53 956.131 687.4 956.478 687.42 956.878C687.5 958.531 687.977 960.058 688.85 961.458C689.043 961.764 689.307 961.844 689.64 961.698L695.42 959.168C695.8 959.001 696.193 958.964 696.6 959.058L701.48 960.148C701.552 960.165 701.62 960.195 701.68 960.238C701.741 960.28 701.792 960.334 701.831 960.395C701.87 960.456 701.896 960.524 701.908 960.595C701.92 960.666 701.917 960.738 701.9 960.808C700.8 965.358 703.6 968.938 697.59 971.068C697.103 971.241 696.87 971.571 696.89 972.058C696.91 972.464 697.123 972.661 697.53 972.648L704.42 972.408C704.499 972.405 704.577 972.385 704.649 972.348C704.721 972.312 704.786 972.261 704.84 972.198L712.81 962.178C712.913 962.051 713.041 961.948 713.186 961.875C713.331 961.801 713.49 961.76 713.653 961.753C713.815 961.747 713.976 961.775 714.125 961.836C714.275 961.897 714.41 961.99 714.52 962.108L720.08 968.068C720.134 968.125 720.199 968.171 720.272 968.201C720.345 968.231 720.423 968.245 720.502 968.242C720.581 968.239 720.658 968.219 720.728 968.184C720.799 968.149 720.861 968.099 720.91 968.038L736.61 948.488C736.725 948.346 736.875 948.237 737.044 948.169C737.214 948.102 737.397 948.079 737.578 948.103C737.758 948.127 737.928 948.198 738.072 948.307C738.216 948.416 738.329 948.561 738.4 948.728C738.753 949.541 738.827 950.588 738.62 951.868C737.75 957.198 736.2 963.598 736.55 968.948C736.555 969.035 736.577 969.119 736.616 969.197C736.655 969.275 736.709 969.344 736.776 969.4C736.842 969.457 736.92 969.499 737.003 969.524C737.086 969.549 737.174 969.557 737.26 969.548L748.77 968.248C749.143 968.201 749.327 967.991 749.32 967.618C749.307 967.104 749.38 966.608 749.54 966.128C749.66 965.788 749.893 965.664 750.24 965.758L750.91 965.928C750.994 965.948 751.081 965.946 751.164 965.921C751.246 965.897 751.32 965.85 751.379 965.787C751.437 965.723 751.477 965.645 751.495 965.561C751.513 965.477 751.508 965.389 751.48 965.308L750.27 961.798C749.717 960.184 750.19 959.784 751.69 960.598C753.597 961.638 755.133 963.728 756.3 966.868C756.343 966.984 756.418 967.086 756.516 967.162C756.614 967.238 756.732 967.286 756.855 967.299C756.978 967.313 757.103 967.292 757.215 967.238C757.327 967.185 757.422 967.102 757.49 966.998C758.377 965.658 759.45 964.491 760.71 963.498C760.841 963.395 760.947 963.263 761.02 963.112C761.092 962.961 761.13 962.796 761.13 962.628C761.12 959.208 763.73 958.708 766.41 958.258C766.544 958.234 766.672 958.181 766.783 958.103C766.895 958.024 766.988 957.922 767.055 957.804C767.123 957.686 767.164 957.554 767.175 957.418C767.186 957.282 767.168 957.145 767.12 957.018C765.533 952.818 766.12 949.018 768.88 945.618C769.1 945.351 769.23 945.044 769.27 944.698C769.51 942.618 768.69 938.858 771.54 938.378C776.71 937.498 776.27 944.068 774.69 946.748C774.143 947.681 773.52 948.558 772.82 949.378C770.44 952.158 772.36 954.568 773.41 957.188C773.557 957.548 773.567 957.911 773.44 958.278C772.967 959.738 772.78 961.221 772.88 962.728C772.885 962.792 772.903 962.855 772.933 962.912C772.963 962.969 773.005 963.018 773.056 963.058C773.107 963.098 773.166 963.126 773.229 963.142C773.291 963.157 773.357 963.159 773.42 963.148L773.78 963.078C774.527 962.938 774.96 962.494 775.08 961.748C775.86 956.838 778.77 956.498 782.86 955.358C783.143 955.278 783.395 955.113 783.584 954.885C783.773 954.657 783.89 954.375 783.92 954.078C784.22 951.078 783.817 948.488 782.71 946.308C781.697 944.288 781.167 942.998 781.12 942.438C780.73 937.728 787.08 934.678 788.24 939.768C788.81 942.258 787.36 943.638 788.67 946.568C790.82 951.418 789.44 955.338 788.2 959.848C788.145 960.051 788.135 960.264 788.171 960.472C788.207 960.679 788.288 960.877 788.408 961.05C788.528 961.223 788.684 961.368 788.866 961.475C789.048 961.581 789.25 961.647 789.46 961.668L792.54 961.958C792.726 961.976 792.913 961.949 793.086 961.88C793.26 961.811 793.414 961.701 793.536 961.56C793.659 961.419 793.746 961.251 793.79 961.07C793.834 960.888 793.834 960.699 793.79 960.518C792.97 957.098 791.42 952.598 793.99 949.568C794.203 949.314 794.463 949.251 794.77 949.378C800.43 951.698 797.94 956.588 798.96 961.048C799.033 961.381 799.243 961.551 799.59 961.558C801.01 961.591 802.16 962.154 803.04 963.248C803.304 963.576 803.641 963.838 804.025 964.012C804.409 964.186 804.829 964.266 805.25 964.248L812.47 963.918H813.27C814.41 964.011 815.507 963.864 816.56 963.478C817.96 963.858 818.92 962.638 818.6 961.398C818.23 959.918 818.16 958.778 818.1 957.278C818.34 956.704 818.657 956.284 819.05 956.018C819.18 955.927 819.334 955.877 819.493 955.872C819.652 955.867 819.808 955.909 819.944 955.992C820.079 956.074 820.188 956.194 820.256 956.337C820.325 956.48 820.351 956.64 820.33 956.798C820.07 958.924 820.947 960.194 822.96 960.608C823.36 960.694 823.507 960.538 823.4 960.138C822.92 958.371 822.643 957.241 822.57 956.748C822.03 952.868 822.94 950.524 825.3 949.718C825.747 951.204 825.767 952.711 825.36 954.238C824.927 955.864 825.377 957.221 826.71 958.308C826.762 958.348 826.824 958.373 826.89 958.379C826.955 958.385 827.021 958.372 827.079 958.342C827.138 958.311 827.186 958.264 827.218 958.206C827.25 958.149 827.265 958.083 827.26 958.018C827.1 956.104 827.837 954.731 829.47 953.898C829.597 953.832 829.74 953.801 829.883 953.808C830.026 953.816 830.164 953.861 830.284 953.939C830.404 954.017 830.501 954.126 830.565 954.254C830.63 954.382 830.659 954.525 830.65 954.668L830.42 958.668C830.412 958.81 830.445 958.952 830.516 959.077C830.586 959.201 830.69 959.303 830.816 959.37C830.942 959.438 831.085 959.467 831.227 959.456C831.37 959.445 831.506 959.394 831.62 959.308C832.93 958.328 835.15 955.788 836.46 955.388C837.307 955.134 837.937 955.448 838.35 956.328C838.448 956.53 838.6 956.703 838.79 956.828L842.96 959.408C843.052 959.463 843.159 959.487 843.265 959.476C843.372 959.466 843.472 959.422 843.551 959.35C843.631 959.278 843.685 959.183 843.707 959.078C843.728 958.974 843.715 958.865 843.67 958.768L841.86 954.968C841.687 954.601 841.717 954.254 841.95 953.928C843.197 952.181 843.597 950.278 843.15 948.218C843.047 947.76 843.114 947.283 843.34 946.878C844.433 944.891 845.65 944.851 846.99 946.758C848.55 949.231 848.467 951.411 846.74 953.298C846.35 953.724 846.131 954.28 846.125 954.859C846.12 955.439 846.328 956.001 846.71 956.438C847.803 957.684 849.203 958.184 850.91 957.938C851.71 957.818 852.167 957.354 852.28 956.548C852.76 953.048 850.12 951.448 851.88 947.408C853.02 944.798 854.76 944.378 857.42 944.898C857.94 944.998 858.273 945.301 858.42 945.808C858.653 946.594 858.57 947.344 858.17 948.058C858.098 948.183 858 948.291 857.882 948.374C857.765 948.456 857.631 948.512 857.49 948.538C856.75 948.671 856.17 949.031 855.75 949.618C855.641 949.772 855.578 949.955 855.571 950.143C855.564 950.332 855.612 950.517 855.71 950.678C856.743 952.378 857.2 954.224 857.08 956.218C857.013 957.364 857.55 957.858 858.69 957.698L859.02 957.658C860.113 957.504 860.763 956.884 860.97 955.798L861.93 950.748C861.964 950.552 862.074 950.378 862.237 950.262C862.399 950.146 862.601 950.098 862.8 950.128C864.06 950.308 865.167 949.968 866.12 949.108C866.687 948.588 867.413 948.431 868.3 948.638C869.1 948.824 868.393 950.671 866.18 954.178C866.116 954.279 866.087 954.399 866.099 954.519C866.111 954.638 866.162 954.751 866.244 954.838C866.327 954.925 866.436 954.982 866.555 955C866.674 955.018 866.795 954.996 866.9 954.938L869.8 953.308C870.508 952.912 871.069 952.298 871.4 951.558C872.207 949.758 873.607 948.668 875.6 948.288C876.047 948.201 876.25 947.928 876.21 947.468L875.91 943.978C875.643 941.864 876.493 940.728 878.46 940.568C880.42 940.408 883.43 940.381 887.49 940.488C889.517 940.534 890.46 939.504 890.32 937.398C890.301 937.14 890.191 936.898 890.01 936.718L888.98 935.668C888.707 935.388 888.587 935.051 888.62 934.658C888.673 934.118 889.05 933.844 889.75 933.838C890.777 933.831 891.823 933.928 892.89 934.128C893.04 934.157 893.195 934.147 893.341 934.1C893.486 934.052 893.617 933.969 893.721 933.857C893.825 933.745 893.899 933.608 893.936 933.459C893.972 933.311 893.97 933.155 893.93 933.008L892.92 929.198C892.871 929.012 892.863 928.818 892.898 928.63C892.933 928.441 893.009 928.263 893.121 928.107C893.232 927.951 893.377 927.822 893.545 927.729C893.713 927.635 893.899 927.58 894.09 927.568L896.42 927.408C896.523 927.4 896.623 927.372 896.714 927.326C896.806 927.28 896.888 927.215 896.955 927.137C897.022 927.059 897.072 926.969 897.104 926.871C897.136 926.773 897.148 926.67 897.14 926.568C896.987 924.441 897.9 923.141 899.88 922.668C900.613 922.814 901.023 923.388 901.11 924.388L901.86 928.418C901.924 928.751 902.115 929.045 902.39 929.238L906.31 931.978C906.667 932.225 907.092 932.356 907.527 932.351C907.961 932.347 908.384 932.208 908.736 931.953C909.088 931.699 909.352 931.341 909.493 930.93C909.633 930.519 909.643 930.074 909.52 929.658L909.09 928.248C908.423 926.014 909.103 925.231 911.13 925.898C911.27 925.944 911.647 926.288 912.26 926.928C913.22 927.928 914.45 927.948 915.73 927.728C916.05 927.674 916.23 927.484 916.27 927.158C916.55 924.578 918.59 921.918 921.45 922.808C924.32 923.698 924.3 924.838 925.77 927.088C925.957 927.381 926.227 927.534 926.58 927.548C927.587 927.581 928.75 927.311 930.07 926.738L934.72 925.828C935.427 925.908 936.117 925.838 936.79 925.618C937.083 925.518 937.22 925.314 937.2 925.008L936.98 921.798C936.953 921.444 937.117 921.244 937.47 921.198C938.897 921.018 940.173 921.348 941.3 922.188C941.627 922.434 941.887 922.378 942.08 922.018C943.047 920.218 944.36 918.698 946.02 917.458C946.27 917.268 946.582 917.178 946.896 917.206C947.21 917.234 947.504 917.377 947.72 917.608L949.72 919.738C949.933 919.964 949.89 920.124 949.59 920.218C947.363 920.904 945.943 922.438 945.33 924.818C945.23 925.211 945.383 925.384 945.79 925.338L948.88 924.958C949.408 924.895 949.899 924.655 950.273 924.278C950.648 923.9 950.883 923.406 950.94 922.878L951.66 916.028C951.693 915.717 951.817 915.423 952.017 915.184C952.218 914.944 952.485 914.77 952.785 914.682C953.086 914.594 953.407 914.597 953.706 914.691C954.006 914.784 954.272 914.964 954.47 915.208C956.65 917.908 956.05 919.028 960.78 919.668C960.964 919.692 961.133 919.784 961.254 919.926C961.376 920.067 961.442 920.25 961.44 920.438L961.43 920.728C961.423 921.048 961.263 921.178 960.95 921.118L957.41 920.488C957.228 920.454 957.039 920.491 956.882 920.591C956.725 920.691 956.61 920.847 956.56 921.028C956.367 921.788 956.383 922.558 956.61 923.338C956.721 923.714 956.947 924.046 957.255 924.286C957.564 924.527 957.94 924.664 958.33 924.678L965.02 924.938C965.813 924.971 966.203 924.591 966.19 923.798C966.163 922.564 966.357 921.384 966.77 920.258C966.827 920.098 966.918 919.952 967.037 919.831C967.156 919.71 967.301 919.617 967.46 919.558L970.03 918.588C970.457 918.308 970.803 918.251 971.07 918.418C971.257 918.531 971.363 918.791 971.39 919.198C971.43 919.791 971.537 920.371 971.71 920.938C971.75 921.798 971.947 922.438 972.3 922.858C972.47 923.059 972.697 923.205 972.952 923.275C973.206 923.346 973.475 923.337 973.724 923.252C973.973 923.166 974.189 923.007 974.343 922.795C974.498 922.584 974.584 922.33 974.59 922.068L974.73 917.178C974.733 917.089 974.756 917.003 974.797 916.925C974.838 916.847 974.896 916.779 974.966 916.727C975.036 916.675 975.117 916.64 975.203 916.624C975.289 916.609 975.377 916.613 975.46 916.638C975.94 916.784 976.217 917.158 976.29 917.758C976.52 919.758 976.71 922.308 979.21 922.838C979.517 922.898 979.67 922.774 979.67 922.468C979.683 920.488 979.217 918.711 978.27 917.138L978.42 912.928C978.424 912.837 978.448 912.748 978.489 912.667C978.53 912.586 978.587 912.515 978.657 912.458C978.727 912.402 978.808 912.361 978.895 912.338C978.982 912.316 979.072 912.312 979.16 912.328C979.78 912.428 980.323 912.931 980.79 913.838C981.077 914.904 981.56 915.774 982.24 916.448C983.033 917.094 983.1 917.961 982.44 919.048C982.367 920.474 982.597 921.768 983.13 922.928C983.271 923.241 983.53 923.486 983.85 923.608C985.283 924.168 986.86 924.024 988.58 923.178C989.853 923.424 990.977 924.098 991.95 925.198C992.053 925.313 992.18 925.404 992.322 925.462C992.464 925.521 992.617 925.547 992.77 925.538C995.31 925.408 996.49 923.858 998.62 923.438C999.34 923.298 1000.07 923.164 1000.82 923.038C1001.17 922.984 1001.42 922.801 1001.57 922.488C1002.01 921.588 1002.14 920.604 1001.95 919.538C1002.73 918.548 1005.05 915.878 1006.47 916.768C1006.6 916.849 1006.71 916.957 1006.8 917.085C1006.88 917.213 1006.94 917.358 1006.96 917.51C1006.99 917.663 1006.98 917.819 1006.94 917.969C1006.9 918.118 1006.83 918.258 1006.73 918.378C1006.38 918.784 1006.01 919.241 1005.61 919.748C1005.3 920.134 1005.16 920.498 1005.2 920.838C1005.26 921.351 1005.55 921.714 1006.07 921.928C1006.23 921.987 1006.39 922.012 1006.56 922.002C1006.72 921.992 1006.89 921.946 1007.03 921.868C1008.52 921.068 1010.58 918.148 1012.43 919.218C1013.08 919.598 1013.2 920.104 1012.8 920.738L1010.66 924.108C1009.98 925.181 1010.26 925.584 1011.51 925.318L1015.63 924.448C1016.36 924.294 1016.68 923.844 1016.59 923.098C1016.33 921.058 1016.91 919.314 1018.34 917.868C1018.47 917.741 1018.63 917.647 1018.8 917.593C1018.97 917.539 1019.15 917.527 1019.33 917.558L1021.29 917.918C1022.59 918.151 1023.03 917.641 1022.61 916.388C1021.83 914.048 1022.41 912.131 1024.34 910.638C1024.61 910.429 1024.83 910.163 1024.98 909.86C1025.14 909.557 1025.23 909.223 1025.24 908.883C1025.25 908.543 1025.19 908.204 1025.06 907.89C1024.92 907.576 1024.72 907.296 1024.47 907.068L1021.25 904.188C1021.9 902.601 1022.13 901.121 1021.94 899.748C1022.21 898.481 1022.69 897.434 1023.37 896.608C1023.8 896.092 1024.41 895.764 1025.08 895.695C1025.74 895.625 1026.41 895.82 1026.94 896.238C1029.29 898.098 1029.16 901.188 1029.47 904.018C1029.53 904.542 1029.77 905.03 1030.15 905.398C1030.53 905.767 1031.02 905.993 1031.55 906.038C1034.5 906.278 1037.04 906.348 1039.75 907.908C1042.64 909.578 1045.3 911.058 1048.24 913.118C1051.33 915.278 1054.82 917.328 1058.72 919.268C1058.88 919.351 1059.07 919.389 1059.25 919.379C1059.43 919.369 1059.61 919.311 1059.76 919.211C1059.92 919.11 1060.04 918.971 1060.12 918.807C1060.2 918.643 1060.24 918.461 1060.23 918.278L1060.08 915.518C1060.01 914.291 1060.57 913.861 1061.74 914.228L1062.53 914.468C1062.9 914.583 1063.23 914.793 1063.49 915.077C1063.75 915.362 1063.93 915.71 1064.02 916.088C1064.46 918.054 1064.24 919.934 1063.36 921.728C1063.18 922.094 1063.29 922.261 1063.7 922.228C1065.33 922.101 1066.9 922.364 1068.41 923.018C1068.74 923.163 1069.12 923.177 1069.46 923.056C1069.8 922.935 1070.09 922.689 1070.25 922.368C1070.92 921.081 1071.69 919.914 1072.56 918.868C1074.15 916.961 1074.72 917.158 1074.27 919.458C1074.07 920.491 1074.39 921.134 1075.24 921.388C1076.98 921.908 1077.07 922.518 1075.5 923.218L1074.64 923.608C1074.47 923.684 1074.33 923.807 1074.23 923.964C1074.13 924.12 1074.08 924.301 1074.09 924.486C1074.09 924.67 1074.15 924.849 1074.26 925.001C1074.36 925.152 1074.51 925.27 1074.68 925.338L1079.47 927.258C1079.57 927.296 1079.68 927.304 1079.78 927.282C1079.88 927.26 1079.98 927.208 1080.06 927.133C1080.13 927.058 1080.18 926.963 1080.2 926.859C1080.23 926.755 1080.22 926.647 1080.18 926.548C1079.44 924.694 1079.68 923.064 1080.89 921.658C1081.03 921.503 1081.2 921.392 1081.4 921.339C1081.6 921.285 1081.81 921.292 1082.01 921.359C1082.2 921.425 1082.37 921.548 1082.5 921.712C1082.62 921.875 1082.7 922.072 1082.71 922.278L1082.84 924.528C1082.85 924.716 1082.91 924.898 1083.01 925.057C1083.11 925.217 1083.25 925.349 1083.41 925.44C1083.58 925.532 1083.76 925.581 1083.95 925.582C1084.14 925.583 1084.32 925.537 1084.49 925.448C1086.25 924.501 1087.57 924.801 1088.46 926.348C1088.71 926.781 1089.07 927.142 1089.5 927.396C1089.93 927.65 1090.42 927.789 1090.92 927.798L1097.86 927.918C1098.51 927.871 1098.95 927.744 1099.19 927.538C1099.42 927.344 1099.39 926.991 1099.1 926.478C1098.32 925.078 1097.6 923.714 1096.93 922.388C1096.87 921.154 1097.02 920.371 1097.38 920.038C1097.65 919.784 1098.11 919.898 1098.75 920.378C1099.18 920.704 1099.63 920.984 1100.09 921.218C1100.8 922.158 1101.65 922.751 1102.63 922.998C1102.98 923.084 1103.25 922.974 1103.43 922.668C1105.13 919.821 1106.94 917.084 1108.86 914.458C1109.77 913.218 1111.56 912.398 1112.88 912.798C1114.86 913.384 1114.88 914.018 1112.93 914.698C1112.24 914.938 1111.34 914.978 1110.22 914.818C1109.88 914.769 1109.54 914.854 1109.26 915.055C1108.98 915.257 1108.79 915.559 1108.73 915.898C1108.58 916.678 1108.95 917.231 1109.84 917.558C1111.27 918.091 1112.65 918.788 1113.96 919.648C1114.2 919.802 1114.49 919.866 1114.77 919.828C1115.98 919.661 1117.02 919.161 1117.88 918.328C1117.96 918.248 1118.06 918.201 1118.17 918.193C1118.28 918.186 1118.39 918.219 1118.48 918.287C1118.57 918.355 1118.63 918.453 1118.65 918.563C1118.68 918.674 1118.66 918.789 1118.61 918.888C1117.63 920.701 1116.1 921.424 1114.03 921.058C1113.87 921.029 1113.72 920.967 1113.6 920.875C1113.47 920.784 1113.36 920.665 1113.28 920.528C1112.98 920.001 1112.58 919.548 1112.08 919.168C1111.92 919.044 1111.74 918.959 1111.54 918.917C1111.35 918.875 1111.15 918.879 1110.95 918.927C1110.76 918.975 1110.58 919.067 1110.42 919.195C1110.27 919.323 1110.14 919.485 1110.06 919.668L1106.98 926.338C1106.93 926.442 1106.91 926.555 1106.91 926.669C1106.91 926.784 1106.94 926.896 1106.99 926.999C1107.04 927.101 1107.11 927.191 1107.2 927.262C1107.29 927.332 1107.4 927.382 1107.51 927.408C1112.52 928.548 1116.83 927.451 1120.46 924.118C1120.63 923.956 1120.86 923.867 1121.1 923.867C1121.34 923.867 1121.57 923.956 1121.75 924.118C1122.95 925.211 1124.35 925.954 1125.94 926.348C1126.05 926.375 1126.16 926.37 1126.27 926.334C1126.37 926.297 1126.47 926.232 1126.54 926.144C1126.61 926.056 1126.65 925.949 1126.66 925.837C1126.68 925.724 1126.66 925.61 1126.61 925.508C1125.17 922.548 1122.67 919.908 1127 917.528C1128.58 916.654 1129.16 917.094 1128.73 918.848L1128.49 919.848C1128.41 920.201 1128.46 920.534 1128.63 920.848L1131.08 925.278C1131.24 925.564 1131.49 925.714 1131.82 925.728C1135.93 925.898 1137.64 925.528 1140.36 922.368C1140.8 921.861 1141.26 921.844 1141.73 922.318C1142.65 923.224 1143.75 923.681 1145.03 923.688C1145.21 923.688 1145.39 923.636 1145.54 923.537C1145.7 923.439 1145.82 923.299 1145.89 923.134C1145.97 922.968 1146 922.785 1145.97 922.605C1145.95 922.424 1145.87 922.255 1145.75 922.118C1142.64 918.478 1142.68 914.864 1145.86 911.278C1146.11 910.991 1146.43 910.831 1146.81 910.798C1147.54 910.731 1148.28 910.804 1149.01 911.018C1152.65 912.064 1153.34 911.038 1151.08 907.938C1147.85 903.508 1144.2 898.078 1147.67 892.478C1149.14 890.088 1152.03 891.748 1152.93 893.718C1154.03 895.604 1154.45 897.608 1154.18 899.728C1153.97 901.418 1154.02 902.498 1155.09 903.658C1157.48 906.238 1159.07 909.004 1159.87 911.958C1159.92 912.145 1160.01 912.318 1160.14 912.464C1160.27 912.61 1160.43 912.726 1160.6 912.802C1160.78 912.878 1160.97 912.912 1161.17 912.903C1161.36 912.894 1161.55 912.841 1161.72 912.748L1162.19 912.488C1163.38 911.841 1163.81 910.861 1163.5 909.548C1162.29 904.498 1160.17 901.648 1164.06 897.168C1164.68 896.448 1165.38 896.364 1166.15 896.918C1168.29 898.458 1168.07 900.158 1167.58 902.818C1167.03 905.838 1167.8 908.564 1169.88 910.998C1170.52 913.404 1172.06 914.521 1174.5 914.348C1174.83 914.328 1175.13 914.391 1175.42 914.538L1177.17 915.468C1177.34 915.553 1177.53 915.576 1177.71 915.532C1177.89 915.487 1178.05 915.379 1178.15 915.228L1180.71 911.568C1180.82 911.412 1180.96 911.282 1181.13 911.189C1181.3 911.096 1181.49 911.04 1181.68 911.028C1182.96 910.934 1183.28 911.531 1182.63 912.818C1182.12 913.838 1181.72 914.691 1181.44 915.378C1181.09 916.264 1181.34 916.498 1182.2 916.078C1183.75 915.331 1185.11 914.484 1186.3 913.538C1186.87 913.084 1187.37 912.914 1187.8 913.028C1187.93 913.06 1188.05 913.124 1188.15 913.215C1188.25 913.306 1188.32 913.42 1188.36 913.547C1188.4 913.673 1188.41 913.809 1188.39 913.94C1188.36 914.072 1188.31 914.195 1188.22 914.298L1186.13 916.828L1181.8 920.528C1181.74 920.58 1181.7 920.649 1181.68 920.726C1181.66 920.802 1181.66 920.883 1181.69 920.957C1181.71 921.031 1181.76 921.095 1181.82 921.139C1181.89 921.184 1181.96 921.208 1182.04 921.208C1188.82 921.274 1195.64 921.284 1202.49 921.238C1206.51 921.208 1212.57 917.008 1216.22 915.108C1216.32 915.055 1216.44 915.029 1216.55 915.034C1216.66 915.04 1216.78 915.075 1216.87 915.137C1216.97 915.199 1217.05 915.285 1217.1 915.387C1217.15 915.489 1217.18 915.603 1217.17 915.718C1217.07 917.448 1214.83 920.438 1213.91 922.058C1213.76 922.322 1213.71 922.632 1213.77 922.932C1213.83 923.231 1214 923.499 1214.24 923.688C1215.86 924.934 1217.71 925.574 1219.79 925.608C1222.3 925.648 1223.68 927.278 1226.17 927.428C1229.46 927.621 1232.59 928.298 1235.58 929.458C1235.67 929.491 1235.76 929.5 1235.85 929.486C1235.94 929.472 1236.02 929.434 1236.1 929.376C1236.17 929.318 1236.22 929.242 1236.25 929.156C1236.29 929.071 1236.29 928.978 1236.28 928.888C1235.59 924.921 1234.09 921.358 1231.79 918.198C1231.62 917.971 1231.52 917.731 1231.48 917.478C1231.43 917.164 1231.4 916.878 1231.39 916.618C1231.38 916.492 1231.42 916.368 1231.48 916.26C1231.55 916.153 1231.64 916.068 1231.76 916.017C1231.87 915.966 1232 915.951 1232.12 915.975C1232.24 915.998 1232.35 916.058 1232.44 916.148L1237.6 921.298C1237.67 921.367 1237.76 921.418 1237.85 921.446C1237.95 921.474 1238.05 921.478 1238.15 921.457C1238.24 921.436 1238.33 921.391 1238.41 921.327C1238.49 921.262 1238.54 921.18 1238.58 921.088C1238.92 920.201 1239.35 919.311 1239.86 918.418C1240.09 917.998 1240.36 917.728 1240.67 917.608C1241.23 917.374 1241.72 917.541 1242.14 918.108C1242.36 918.408 1242.44 918.741 1242.39 919.108L1241.46 925.668C1241.45 925.789 1241.48 925.91 1241.55 926.012C1241.61 926.113 1241.71 926.188 1241.83 926.225C1241.95 926.261 1242.07 926.256 1242.18 926.211C1242.3 926.166 1242.39 926.084 1242.45 925.978C1243.13 924.618 1244.15 923.588 1245.51 922.888C1245.67 922.808 1245.85 922.789 1246.02 922.833C1246.19 922.877 1246.34 922.982 1246.44 923.128C1247.87 925.218 1244.92 927.468 1243.76 929.208C1243.62 929.414 1243.53 929.652 1243.51 929.9C1243.49 930.148 1243.52 930.398 1243.62 930.629C1243.71 930.859 1243.87 931.063 1244.06 931.222C1244.25 931.38 1244.48 931.489 1244.73 931.538C1247.42 932.068 1250.09 931.868 1252.79 932.228C1254.75 932.488 1256.52 933.538 1258.54 934.048C1259.63 934.321 1259.81 934.034 1259.06 933.188L1255.21 928.818C1254.88 928.449 1254.72 927.966 1254.75 927.473C1254.78 926.979 1255 926.517 1255.37 926.188C1258.25 923.638 1265.24 921.428 1268.9 920.368C1269.61 920.154 1270.38 920.175 1271.08 920.428C1273.43 921.258 1279.83 923.788 1279.18 927.258C1278.8 929.318 1278.48 931.414 1278.21 933.548C1278.16 933.934 1278.33 934.158 1278.71 934.218C1281.38 934.628 1282.28 932.898 1283.45 930.948C1283.54 930.788 1283.68 930.655 1283.84 930.564C1284 930.472 1284.19 930.424 1284.37 930.425C1284.56 930.426 1284.74 930.476 1284.91 930.569C1285.07 930.663 1285.2 930.797 1285.3 930.958C1285.73 931.678 1286.35 932.038 1287.18 932.038C1287.31 932.038 1287.45 932 1287.56 931.93C1287.67 931.859 1287.76 931.758 1287.82 931.638C1288.06 931.151 1288.43 930.848 1288.94 930.728C1289.01 930.71 1289.09 930.711 1289.16 930.731C1289.24 930.751 1289.3 930.788 1289.36 930.841C1289.41 930.893 1289.45 930.958 1289.48 931.031C1289.5 931.104 1289.51 931.182 1289.5 931.258C1289.22 932.968 1289.89 933.978 1291.66 934.118C1299.13 934.708 1306.13 932.398 1313.4 931.838C1319.98 931.338 1326.65 929.698 1333.5 929.698C1334.81 929.704 1335.6 929.334 1335.87 928.588C1336.96 925.648 1338.95 923.764 1341.85 922.938C1341.95 922.91 1342.04 922.857 1342.12 922.783C1342.19 922.71 1342.24 922.618 1342.27 922.518C1343.92 916.464 1345.62 910.468 1347.36 904.528C1348.44 900.821 1348.83 897.478 1348.52 894.498C1347.06 880.344 1346.17 871.011 1345.86 866.498C1345.68 863.948 1346.37 860.588 1346.38 857.828C1346.41 847.068 1346.75 836.354 1347.42 825.688C1347.42 825.64 1347.41 825.593 1347.39 825.551C1347.37 825.508 1347.34 825.472 1347.3 825.445C1347.26 825.418 1347.22 825.401 1347.17 825.396C1347.12 825.392 1347.07 825.399 1347.03 825.418L1346.77 825.528C1346.57 825.611 1346.39 825.743 1346.25 825.912C1346.11 826.081 1346.01 826.283 1345.97 826.498C1343.71 837.258 1341.58 845.591 1339.59 851.498C1336.95 859.324 1335.35 864.244 1334.78 866.258C1334.54 867.104 1333.84 868.588 1332.68 870.708C1331.87 870.801 1331.16 870.518 1330.57 869.858C1330.35 869.618 1330.05 869.46 1329.72 869.408C1327.68 869.088 1326.38 868.254 1325.82 866.908C1329 862.981 1331.21 859.098 1332.44 855.258C1335.24 846.551 1337.62 836.714 1339.59 825.748C1339.89 824.098 1339.04 822.208 1339.55 820.108C1341.31 812.908 1342.8 804.228 1347.38 797.368C1347.48 797.209 1347.53 797.019 1347.51 796.83C1347.5 796.641 1347.41 796.463 1347.28 796.328C1344.89 793.941 1342.29 791.794 1339.47 789.888C1335.61 787.288 1331.91 782.198 1332.12 777.428C1332.34 772.468 1332.18 767.408 1334.11 763.118C1338.12 754.238 1345.78 750.388 1355.04 747.678C1356.35 747.298 1357.74 747.278 1359.23 747.618C1362.24 748.308 1365.5 748.448 1368.06 749.958C1370.48 751.371 1372.72 753.294 1374.79 755.728C1375.23 756.861 1375.53 758.874 1375.7 761.768C1375.76 762.828 1376.45 763.631 1377.77 764.178C1380.19 765.178 1382.26 766.698 1383.99 768.738C1384.58 772.398 1383.53 775.768 1383.56 778.748C1383.66 787.608 1380.95 791.518 1375 797.528C1374.78 797.745 1374.64 798.02 1374.57 798.32C1374.51 798.619 1374.53 798.931 1374.64 799.218C1377.49 806.788 1377.79 815.768 1376.5 823.738C1374.63 835.358 1375.07 847.638 1375.03 859.398C1375.02 860.828 1374.54 861.368 1373.48 862.148C1373.19 862.354 1373.06 862.634 1373.08 862.988C1373.58 871.741 1374.07 880.491 1374.55 889.238C1374.77 893.178 1374.74 895.848 1374.45 897.248C1372.72 905.681 1371.95 913.741 1372.15 921.428C1372.2 923.521 1372.81 923.698 1373.98 921.958C1374.71 920.851 1375.66 919.844 1376.82 918.938C1376.96 918.825 1377.07 918.671 1377.13 918.497C1377.19 918.322 1377.19 918.135 1377.14 917.957C1377.09 917.78 1376.99 917.621 1376.85 917.5C1376.71 917.379 1376.53 917.302 1376.35 917.278C1372.05 916.758 1374.9 909.788 1376.78 908.388C1378.98 906.738 1386.25 909.328 1388.37 910.468C1388.84 910.724 1389.22 911.124 1389.46 911.611C1389.69 912.097 1389.77 912.646 1389.67 913.178C1388.63 918.778 1388.27 919.058 1382.68 919.928C1382.3 919.988 1382.08 920.204 1382.02 920.578L1381.73 922.358C1381.68 922.718 1381.8 922.994 1382.11 923.188C1386.23 925.768 1390.44 917.568 1394.99 916.978C1396.78 916.744 1397.73 917.671 1397.86 919.758C1397.88 920.151 1398.07 920.268 1398.44 920.108C1400.31 919.261 1402.43 918.744 1404.79 918.558C1405.17 921.798 1400.85 920.858 1399.92 922.718C1399.81 922.944 1399.77 923.184 1399.8 923.438C1399.84 923.798 1400.04 923.974 1400.41 923.968C1404.67 923.921 1408.86 924.428 1412.98 925.488C1413.73 925.681 1414.63 925.628 1415.67 925.328C1415.99 925.23 1416.27 925.03 1416.46 924.758L1418.09 922.378C1418.26 922.13 1418.5 921.936 1418.78 921.816C1419.05 921.696 1419.36 921.655 1419.66 921.699C1419.95 921.743 1420.23 921.869 1420.46 922.063C1420.69 922.257 1420.87 922.511 1420.96 922.798C1421.29 923.811 1421.84 924.654 1422.63 925.328C1422.9 925.565 1423.25 925.687 1423.61 925.668C1426.4 925.548 1429.1 926.004 1431.69 927.038C1431.96 927.144 1432.24 927.151 1432.53 927.058C1434.16 926.488 1435.41 924.888 1434.42 923.188C1433.87 922.248 1432.83 921.568 1432.49 920.648C1432.13 919.694 1432.41 918.991 1433.32 918.538C1433.49 918.453 1433.68 918.405 1433.87 918.399C1434.06 918.392 1434.24 918.425 1434.42 918.498C1436.48 919.324 1438.16 920.671 1439.45 922.538C1439.66 922.844 1439.69 923.168 1439.54 923.508L1438.12 926.718C1438.08 926.82 1438.06 926.93 1438.06 927.04C1438.06 927.151 1438.09 927.259 1438.13 927.359C1438.18 927.458 1438.25 927.546 1438.33 927.616C1438.42 927.687 1438.51 927.738 1438.62 927.768C1440.35 928.248 1440.98 927.118 1441.28 925.568C1441.65 923.728 1442.36 922.034 1443.42 920.488C1443.53 920.336 1443.59 920.159 1443.6 919.976C1443.61 919.793 1443.57 919.61 1443.49 919.448L1441.15 914.928C1440.89 914.43 1440.82 913.86 1440.93 913.313C1441.05 912.767 1441.35 912.277 1441.78 911.928C1444.12 910.028 1446.77 908.841 1449.72 908.368C1453.22 907.808 1454.69 906.768 1455.97 903.698C1456.1 903.397 1456.31 903.144 1456.58 902.968C1459.32 901.188 1465.35 898.108 1466.23 893.758C1467 889.998 1467.75 885.884 1468.48 881.418C1468.49 881.335 1468.49 881.251 1468.47 881.17C1468.44 881.089 1468.41 881.014 1468.35 880.949C1468.3 880.884 1468.23 880.83 1468.16 880.792C1468.09 880.754 1468 880.732 1467.92 880.728C1465.44 880.578 1463.31 880.718 1460.78 881.458C1456.49 882.708 1450.1 883.488 1447.37 886.978C1446.19 888.484 1445.8 888.301 1446.2 886.428C1449.97 868.721 1452.77 850.828 1454.62 832.748C1455.35 825.641 1456.23 819.518 1457.28 814.378C1460.07 800.631 1463.3 786.648 1466.97 772.428C1467.37 770.874 1466.96 770.614 1465.73 771.648C1458.75 777.534 1451.16 783.301 1442.96 788.948C1439.82 791.108 1434.85 789.048 1436.02 784.748C1440.01 770.188 1444.01 757.938 1448.04 747.998C1448.36 747.191 1449.13 746.581 1450.36 746.168C1450.51 746.116 1450.63 746.013 1450.71 745.878L1453.66 741.058C1453.85 740.758 1453.9 740.438 1453.82 740.098C1452.85 735.808 1450.47 733.288 1447.83 730.128C1447.72 729.995 1447.65 729.835 1447.62 729.666C1447.59 729.496 1447.6 729.322 1447.66 729.16C1447.72 728.998 1447.82 728.855 1447.95 728.744C1448.08 728.633 1448.23 728.559 1448.4 728.528C1448.99 728.421 1449.67 728.698 1450.44 729.358C1451.47 730.231 1452.51 731.144 1453.58 732.098C1453.69 732.2 1453.83 732.273 1453.98 732.309C1454.13 732.345 1454.29 732.344 1454.43 732.305C1454.58 732.266 1454.72 732.192 1454.83 732.088C1454.94 731.983 1455.03 731.853 1455.08 731.708C1456.33 728.128 1457.98 724.674 1460.03 721.348C1460.41 720.734 1460.88 720.588 1461.43 720.908C1461.65 721.032 1461.82 721.231 1461.9 721.47C1461.99 721.708 1461.98 721.97 1461.89 722.208C1460.83 724.834 1460.21 726.924 1460.03 728.478C1459.81 730.364 1460.23 730.521 1461.28 728.948C1463.05 726.314 1465.38 723.824 1468.29 721.478C1468.46 721.338 1468.62 721.281 1468.76 721.308C1468.87 721.328 1468.97 721.374 1469.06 721.448C1469.2 721.588 1469.22 721.741 1469.12 721.908C1468.69 722.594 1468.47 723.334 1468.48 724.128C1468.49 724.528 1468.69 724.761 1469.09 724.828C1471.04 725.158 1472.16 723.928 1473.59 723.558C1474.77 723.258 1475.96 722.951 1477.16 722.638C1477.26 722.614 1477.35 722.562 1477.42 722.489C1477.49 722.416 1477.54 722.324 1477.56 722.223C1477.59 722.122 1477.58 722.017 1477.54 721.919C1477.51 721.821 1477.45 721.734 1477.37 721.668L1467.37 713.618C1467.22 713.497 1467.1 713.333 1467.04 713.148C1466.98 712.962 1466.98 712.763 1467.03 712.575C1467.08 712.386 1467.19 712.218 1467.34 712.09C1467.48 711.963 1467.67 711.882 1467.86 711.858C1470.44 711.498 1473 710.528 1475.42 710.298C1477.31 710.111 1479.16 710.014 1480.95 710.008C1481.51 710.008 1481.71 709.741 1481.55 709.208L1477.73 696.678C1477.29 695.231 1477.71 694.904 1479 695.698C1482.01 697.544 1485.21 698.908 1488.6 699.788C1489.1 699.919 1489.64 699.855 1490.1 699.608C1490.55 699.361 1490.9 698.95 1491.07 698.458C1492.81 693.388 1493.41 688.658 1493.63 683.398C1493.64 683.104 1493.79 682.914 1494.06 682.828C1494.66 682.621 1495.14 682.758 1495.5 683.238C1499.59 688.651 1502.97 694.341 1505.64 700.308C1505.68 700.4 1505.75 700.479 1505.83 700.539C1505.91 700.599 1506.01 700.636 1506.11 700.648C1506.21 700.66 1506.31 700.646 1506.4 700.608C1506.5 700.569 1506.58 700.507 1506.64 700.428L1514.23 690.758C1514.29 690.676 1514.38 690.613 1514.48 690.578C1514.57 690.542 1514.68 690.535 1514.78 690.557C1514.88 690.579 1514.98 690.629 1515.05 690.702C1515.12 690.774 1515.18 690.867 1515.2 690.968C1516.35 695.618 1515.2 701.898 1514.18 706.668C1514.03 707.394 1514.32 707.701 1515.05 707.588L1521.74 706.598C1521.85 706.581 1521.95 706.597 1522.05 706.642C1522.15 706.687 1522.23 706.761 1522.29 706.853C1522.34 706.946 1522.37 707.053 1522.37 707.162C1522.37 707.272 1522.33 707.378 1522.27 707.468L1515.5 716.978C1515.39 717.128 1515.32 717.3 1515.28 717.481C1515.24 717.662 1515.24 717.849 1515.28 718.031C1515.32 718.213 1515.39 718.386 1515.5 718.538C1515.6 718.691 1515.74 718.82 1515.9 718.918L1519.78 721.298C1519.93 721.385 1520.04 721.515 1520.11 721.67C1520.19 721.825 1520.21 721.998 1520.18 722.166C1520.15 722.334 1520.07 722.49 1519.96 722.614C1519.84 722.737 1519.69 722.822 1519.52 722.858C1518.55 723.078 1517.67 723.491 1516.88 724.098C1516.63 724.279 1516.45 724.539 1516.37 724.838C1515.6 727.598 1515.74 729.748 1513.05 731.738C1512.92 731.837 1512.82 731.965 1512.75 732.111C1512.68 732.257 1512.64 732.417 1512.65 732.578L1512.84 736.368C1512.85 736.505 1512.81 736.641 1512.74 736.76C1512.67 736.878 1512.57 736.975 1512.45 737.038C1511.72 737.408 1510.86 737.538 1510.23 737.958C1507.42 739.811 1506.94 742.234 1508.8 745.228C1508.88 745.363 1508.93 745.519 1508.94 745.679C1508.95 745.839 1508.91 745.998 1508.84 746.141C1508.77 746.284 1508.66 746.405 1508.53 746.494C1508.39 746.583 1508.24 746.636 1508.08 746.648C1504.8 746.908 1504.09 749.288 1502.39 751.128C1500.2 753.494 1497.52 754.861 1494.35 755.228C1494 755.268 1493.66 755.42 1493.4 755.66C1493.13 755.901 1492.95 756.218 1492.88 756.568C1492.7 757.454 1493.02 758.028 1493.83 758.288C1497.61 759.488 1500.3 759.768 1503.4 763.098C1511.4 771.688 1519.84 780.878 1529.04 788.168C1529.11 788.226 1529.2 788.268 1529.29 788.292C1529.38 788.316 1529.48 788.321 1529.57 788.307C1529.66 788.293 1529.75 788.26 1529.83 788.21C1529.91 788.161 1529.98 788.095 1530.03 788.018C1534.47 781.464 1538.98 774.894 1543.57 768.308C1544.79 766.558 1547.23 766.818 1548.51 764.948C1549.54 763.454 1549.64 761.761 1548.83 759.868C1547.51 756.794 1546.2 753.728 1544.89 750.668C1544.74 750.308 1544.66 749.988 1544.66 749.708C1544.66 749.602 1544.69 749.5 1544.75 749.414C1544.81 749.327 1544.9 749.261 1545 749.224C1545.1 749.188 1545.2 749.182 1545.31 749.207C1545.41 749.233 1545.5 749.289 1545.57 749.368L1549.24 753.418C1549.36 753.546 1549.51 753.641 1549.67 753.694C1549.84 753.746 1550.02 753.753 1550.19 753.714C1550.36 753.675 1550.51 753.592 1550.64 753.473C1550.76 753.354 1550.85 753.204 1550.9 753.038L1553.75 743.248C1553.84 742.908 1554.05 742.664 1554.38 742.518C1554.76 742.344 1555.12 742.361 1555.47 742.568C1555.82 742.774 1555.96 743.078 1555.89 743.478L1554.63 749.908C1554.61 749.992 1554.63 750.079 1554.68 750.152C1554.72 750.224 1554.8 750.276 1554.88 750.298L1555.18 750.368C1555.59 750.474 1555.88 750.338 1556.05 749.958C1557.08 747.691 1558.17 745.361 1559.3 742.968C1559.41 742.741 1559.54 742.588 1559.69 742.508C1560.08 742.301 1560.47 742.371 1560.85 742.718C1560.93 742.788 1560.98 742.876 1561.01 742.975C1561.04 743.073 1561.04 743.178 1561.02 743.278L1558.8 751.538C1558.72 751.831 1558.82 752.048 1559.09 752.188L1559.33 752.318C1559.39 752.347 1559.45 752.355 1559.51 752.338C1559.57 752.321 1559.63 752.282 1559.66 752.228C1561.22 749.554 1562.64 747.784 1563.92 746.918C1566.09 745.451 1566.53 745.818 1565.26 748.018L1561.97 753.658C1561.84 753.884 1561.81 754.124 1561.9 754.378C1561.95 754.544 1562.05 754.671 1562.19 754.758C1562.48 754.931 1562.75 754.911 1563.01 754.698L1567.41 751.048C1567.72 750.794 1568 750.824 1568.25 751.138L1568.42 751.348C1568.48 751.426 1568.51 751.523 1568.51 751.622C1568.51 751.72 1568.47 751.814 1568.41 751.888C1564.61 756.354 1560.37 760.411 1555.69 764.058C1552.7 766.398 1552.07 772.838 1550.12 775.348C1544.61 782.441 1539.14 789.558 1533.71 796.698C1532.93 797.724 1531.73 798.554 1530.1 799.188C1529.78 799.308 1529.46 799.308 1529.15 799.188C1528.26 798.848 1527.47 798.368 1526.76 797.748C1517.62 789.714 1509.13 781.081 1501.29 771.848C1501.25 771.797 1501.19 771.759 1501.12 771.739C1501.06 771.719 1500.99 771.717 1500.92 771.734C1500.86 771.75 1500.8 771.785 1500.76 771.834C1500.71 771.882 1500.68 771.942 1500.67 772.008C1497.96 785.534 1495.47 799.104 1493.2 812.718C1492.79 815.151 1492.45 817.858 1492.18 820.838C1491.93 823.551 1491.65 826.261 1491.34 828.968C1490.37 837.528 1491.21 844.768 1492.55 854.608C1493.93 864.741 1495.89 874.771 1498.42 884.698ZM1466.19 727.178C1466.08 727.249 1466 727.35 1465.95 727.468L1464.26 731.298C1464.21 731.425 1464.19 731.567 1464.22 731.703C1464.25 731.838 1464.33 731.961 1464.43 732.053C1464.53 732.145 1464.66 732.202 1464.8 732.215C1464.94 732.228 1465.08 732.198 1465.2 732.128L1469.91 729.348C1469.99 729.3 1470.06 729.236 1470.11 729.16C1470.17 729.084 1470.21 728.997 1470.22 728.905C1470.24 728.814 1470.24 728.719 1470.22 728.628C1470.2 728.537 1470.16 728.452 1470.1 728.378L1468.55 726.368C1468.45 726.237 1468.3 726.149 1468.14 726.121C1467.98 726.094 1467.81 726.128 1467.67 726.218L1466.19 727.178ZM1467.05 734.538C1466.89 734.653 1466.77 734.819 1466.71 735.01C1466.65 735.201 1466.66 735.407 1466.73 735.593C1466.8 735.78 1466.93 735.938 1467.1 736.042C1467.27 736.146 1467.47 736.19 1467.67 736.168L1474.17 735.358C1474.35 735.337 1474.51 735.266 1474.65 735.152C1474.78 735.038 1474.88 734.887 1474.93 734.718L1475.43 732.998C1475.49 732.786 1475.47 732.56 1475.38 732.361C1475.29 732.162 1475.12 732.004 1474.92 731.918L1472.87 731.048C1472.73 730.989 1472.58 730.967 1472.43 730.983C1472.28 730.998 1472.13 731.052 1472.01 731.138L1467.05 734.538ZM1475.66 744.008C1475.53 743.977 1475.41 743.91 1475.32 743.815C1475.23 743.72 1475.16 743.6 1475.14 743.47C1475.11 743.34 1475.12 743.205 1475.17 743.081C1475.21 742.956 1475.29 742.848 1475.4 742.768C1476.33 742.068 1477.02 741.224 1477.47 740.238C1477.56 740.047 1477.6 739.839 1477.59 739.629C1477.59 739.42 1477.53 739.215 1477.43 739.03C1477.33 738.845 1477.19 738.685 1477.02 738.563C1476.85 738.442 1476.66 738.361 1476.45 738.328C1473.61 737.888 1471.92 737.748 1469.02 738.998C1466.66 740.008 1464.24 739.868 1462.07 740.778C1460.98 741.238 1459.9 741.704 1458.81 742.178C1458.52 742.304 1458.29 742.501 1458.12 742.768C1455.79 746.468 1457.81 748.668 1456.66 751.978C1454.99 756.824 1452.36 764.068 1448.79 773.708C1448.64 774.114 1448.73 774.184 1449.08 773.918C1456.04 768.531 1462.95 763.078 1469.81 757.558C1474.01 754.188 1478.15 754.908 1483 754.948C1483.35 754.95 1483.7 754.83 1483.97 754.607C1484.24 754.384 1484.43 754.073 1484.5 753.728C1485.14 750.578 1482.02 747.088 1480.96 744.168C1480.91 744.021 1480.82 743.887 1480.71 743.775C1480.6 743.663 1480.47 743.575 1480.33 743.518C1480.18 743.46 1480.03 743.434 1479.87 743.441C1479.71 743.448 1479.56 743.488 1479.42 743.558C1478.21 744.164 1476.95 744.314 1475.66 744.008ZM1363.61 920.218C1363.59 912.258 1364.37 904.698 1364.57 896.418C1364.78 887.608 1363.19 878.508 1361.84 869.828C1361.66 868.674 1361.18 867.684 1360.41 866.858C1359.98 866.398 1359.57 866.288 1359.19 866.528C1359.12 866.573 1359.06 866.637 1359.01 866.712C1358.97 866.786 1358.94 866.871 1358.94 866.958C1358.67 876.104 1358.43 885.154 1358.22 894.108C1358.15 896.934 1357.75 899.651 1357 902.258C1354.7 910.288 1351.61 918.288 1349.69 926.378C1349.62 926.691 1349.74 926.804 1350.05 926.718C1354.71 925.464 1359.45 925.148 1364.26 925.768C1364.33 925.778 1364.41 925.769 1364.48 925.742C1364.54 925.715 1364.6 925.67 1364.65 925.612C1364.69 925.554 1364.72 925.486 1364.73 925.413C1364.75 925.34 1364.74 925.266 1364.71 925.198C1364.01 923.368 1363.62 922.158 1363.61 920.218ZM39.19 877.128C40.8 878.068 42.94 876.848 44.18 875.868C44.3023 875.77 44.4016 875.646 44.4708 875.506C44.54 875.366 44.5774 875.212 44.5803 875.056C44.5831 874.9 44.5514 874.746 44.4874 874.604C44.4234 874.463 44.3286 874.338 44.21 874.238C43.2167 873.391 42.3933 872.394 41.74 871.248C41.4133 870.688 41.0533 870.661 40.66 871.168C39.68 872.414 38.9933 873.814 38.6 875.368C38.5224 875.67 38.3374 875.934 38.08 876.108C35.4 877.901 33.2667 880.201 31.68 883.008C31.6016 883.144 31.5515 883.295 31.5328 883.452C31.514 883.608 31.5269 883.767 31.5707 883.919C31.6145 884.071 31.6883 884.213 31.7878 884.336C31.8873 884.459 32.0104 884.562 32.15 884.638L32.57 884.868C33.59 885.428 34.3733 885.194 34.92 884.168L38.6 877.298C38.74 877.038 38.9367 876.981 39.19 877.128ZM1482.74 879.638C1481.66 879.124 1480.56 878.861 1479.43 878.848C1478.94 878.843 1478.46 879.012 1478.08 879.325C1477.71 879.638 1477.45 880.075 1477.37 880.558L1476.3 886.858C1476.13 887.838 1476.43 888.011 1477.2 887.378L1483.1 882.468C1483.32 882.286 1483.49 882.052 1483.59 881.787C1483.7 881.523 1483.73 881.236 1483.7 880.954C1483.66 880.672 1483.55 880.403 1483.39 880.173C1483.22 879.943 1483 879.759 1482.74 879.638ZM27.48 885.588C27.381 885.64 27.2976 885.717 27.2379 885.812C27.1782 885.907 27.1445 886.016 27.14 886.128L26.82 893.918C26.8133 894.053 26.8498 894.187 26.924 894.3C26.9983 894.413 27.1066 894.5 27.2334 894.548C27.3601 894.596 27.4987 894.602 27.6293 894.566C27.7599 894.53 27.8757 894.454 27.96 894.348L32.68 888.448C32.7789 888.323 32.8276 888.165 32.8165 888.006C32.8054 887.847 32.7353 887.698 32.62 887.588L29.79 884.858C29.6926 884.766 29.5689 884.707 29.4361 884.689C29.3033 884.671 29.1683 884.695 29.05 884.758L27.48 885.588ZM9.94 894.558L8.97 897.398C8.52333 898.891 8.47333 900.154 8.82 901.188C8.92667 901.514 9.14667 901.728 9.48 901.828C12.1533 902.621 14.8433 902.398 17.55 901.158C18.05 901.218 18.66 900.881 19.38 900.148C21.7733 899.954 23.6167 898.681 24.91 896.328C25.07 896.041 25.12 895.734 25.06 895.408C24.68 893.188 24.6933 890.984 25.1 888.798C25.1259 888.662 25.1166 888.521 25.0728 888.39C25.0291 888.259 24.9524 888.141 24.8501 888.047C24.7478 887.954 24.6233 887.889 24.4885 887.857C24.3537 887.826 24.213 887.829 24.08 887.868C19.3333 889.261 14.62 891.491 9.94 894.558ZM1045.88 914.478C1041.91 911.938 1038.05 909.981 1034.3 908.608C1033.31 908.241 1032.58 908.064 1032.12 908.078C1031.69 908.084 1031.41 908.298 1031.3 908.718L1029.29 916.008C1029.27 916.088 1029.27 916.171 1029.28 916.252C1029.3 916.334 1029.33 916.41 1029.38 916.476C1029.43 916.541 1029.5 916.595 1029.57 916.631C1029.65 916.668 1029.73 916.687 1029.81 916.688L1034.01 916.708C1034.46 916.71 1034.91 916.845 1035.29 917.095C1035.67 917.346 1035.97 917.701 1036.15 918.118L1037.53 921.298C1037.72 921.751 1038.06 921.928 1038.54 921.828C1039.72 921.594 1040.55 920.898 1041.02 919.738C1041.06 919.628 1041.13 919.531 1041.22 919.455C1041.31 919.379 1041.42 919.327 1041.54 919.303C1041.65 919.279 1041.77 919.285 1041.89 919.319C1042 919.353 1042.1 919.414 1042.19 919.498C1043.04 920.338 1044.29 921.648 1045.81 921.278C1046.22 921.178 1046.38 920.924 1046.29 920.518C1045.93 918.778 1045.91 917.031 1046.23 915.278C1046.26 915.124 1046.24 914.965 1046.18 914.823C1046.11 914.681 1046.01 914.56 1045.88 914.478ZM1454.84 913.018C1454.81 920.298 1454.89 924.598 1453.95 929.348C1453.72 930.508 1454.17 930.934 1455.31 930.628L1458.3 929.838C1459.26 929.584 1459.7 928.961 1459.63 927.968C1459.52 926.354 1459.72 924.791 1460.21 923.278C1460.31 922.979 1460.31 922.66 1460.21 922.368C1458.93 918.628 1460.39 915.098 1461.66 910.548C1462 909.328 1461.57 908.918 1460.36 909.318L1456.65 910.528C1455.44 910.921 1454.84 911.751 1454.84 913.018ZM1052.14 918.858C1051.87 917.858 1051.36 917.028 1050.61 916.368C1050.55 916.315 1050.48 916.279 1050.4 916.262C1050.33 916.245 1050.25 916.248 1050.17 916.271C1050.1 916.295 1050.03 916.337 1049.98 916.394C1049.93 916.451 1049.89 916.521 1049.87 916.598C1049.69 917.351 1049.65 918.134 1049.75 918.948C1049.8 919.321 1049.94 919.601 1050.18 919.788C1050.45 919.994 1050.79 920.104 1051.2 920.118C1051.51 920.124 1051.78 920.221 1052.02 920.408C1053.43 921.508 1054.93 921.608 1056.51 920.708C1056.6 920.661 1056.66 920.59 1056.71 920.505C1056.76 920.419 1056.78 920.322 1056.77 920.225C1056.77 920.127 1056.73 920.032 1056.68 919.951C1056.62 919.871 1056.54 919.807 1056.45 919.768C1055.23 919.241 1053.95 919.044 1052.6 919.178C1052.36 919.198 1052.21 919.091 1052.14 918.858ZM1444.48 929.088C1444.47 929.17 1444.48 929.253 1444.5 929.333C1444.53 929.412 1444.57 929.485 1444.62 929.547C1444.68 929.609 1444.74 929.659 1444.82 929.694C1444.9 929.729 1444.98 929.747 1445.06 929.748L1448.85 929.768C1448.96 929.767 1449.06 929.737 1449.15 929.683C1449.24 929.628 1449.31 929.55 1449.36 929.457C1449.41 929.364 1449.44 929.26 1449.43 929.154C1449.43 929.049 1449.4 928.946 1449.34 928.858L1446.14 924.008C1446.07 923.91 1445.98 923.835 1445.87 923.792C1445.76 923.749 1445.64 923.741 1445.52 923.768C1445.4 923.795 1445.3 923.856 1445.22 923.943C1445.14 924.031 1445.09 924.14 1445.07 924.258L1444.48 929.088ZM84.51 951.308C84.17 950.481 83.5567 949.901 82.67 949.568C82.33 949.448 82.1167 949.561 82.03 949.908C81.51 951.928 82.44 953.778 84.83 953.178C85.1833 953.084 85.3167 952.861 85.23 952.508C85.1567 952.248 85.0267 952.018 84.84 951.818C84.7 951.671 84.59 951.501 84.51 951.308ZM510.81 957.068C510.971 957.3 511.189 957.487 511.443 957.611C511.697 957.735 511.978 957.793 512.26 957.778L516.23 957.568C516.6 957.55 516.954 957.41 517.235 957.168C517.516 956.926 517.708 956.598 517.781 956.234C517.853 955.871 517.802 955.493 517.635 955.162C517.468 954.831 517.195 954.566 516.86 954.408L513.86 952.978C513.623 952.865 513.362 952.81 513.1 952.818L511.03 952.878C510.732 952.886 510.441 952.975 510.189 953.135C509.937 953.295 509.733 953.519 509.598 953.785C509.462 954.052 509.402 954.349 509.421 954.647C509.441 954.945 509.541 955.232 509.71 955.478L510.81 957.068ZM332.17 955.508C331.43 956.188 331.117 956.848 331.23 957.488C331.383 958.381 331.907 958.751 332.8 958.598C335.573 958.111 336.557 956.638 335.75 954.178C335.685 953.978 335.572 953.798 335.42 953.653C335.268 953.509 335.083 953.404 334.88 953.349C334.677 953.293 334.463 953.289 334.257 953.336C334.051 953.383 333.86 953.479 333.7 953.618C333.18 954.068 332.76 954.968 332.17 955.508ZM528.12 960.168C527.3 959.198 524.6 957.568 523.17 957.618C523.006 957.621 522.846 957.664 522.703 957.742C522.561 957.82 522.439 957.932 522.35 958.068C520.503 960.861 517.9 962.144 514.54 961.918C514.382 961.907 514.227 961.958 514.107 962.061C513.987 962.164 513.913 962.31 513.9 962.468L513.88 962.738C513.82 963.384 514.113 963.751 514.76 963.838C519.54 964.451 523.95 963.498 527.99 960.978C528.056 960.937 528.113 960.882 528.157 960.818C528.2 960.753 528.229 960.68 528.241 960.603C528.254 960.526 528.249 960.447 528.228 960.372C528.207 960.297 528.17 960.227 528.12 960.168ZM375.418 961.428C375.53 961.308 375.608 961.159 375.649 960.99C375.69 960.821 375.693 960.635 375.657 960.444C375.621 960.252 375.547 960.057 375.44 959.872C375.332 959.686 375.193 959.513 375.031 959.362C374.868 959.211 374.685 959.085 374.492 958.991C374.299 958.898 374.1 958.838 373.906 958.817C373.712 958.795 373.527 958.811 373.362 958.864C373.196 958.918 373.054 959.007 372.942 959.127C372.83 959.247 372.752 959.396 372.711 959.565C372.67 959.734 372.667 959.92 372.703 960.112C372.739 960.304 372.813 960.498 372.92 960.683C373.028 960.869 373.167 961.042 373.329 961.193C373.492 961.344 373.675 961.47 373.868 961.564C374.061 961.657 374.26 961.717 374.454 961.739C374.648 961.76 374.833 961.744 374.998 961.691C375.164 961.638 375.306 961.548 375.418 961.428ZM689.6 964.578L686.83 970.978C686.765 971.128 686.732 971.29 686.734 971.454C686.735 971.617 686.771 971.779 686.839 971.928C686.907 972.076 687.005 972.21 687.128 972.318C687.25 972.427 687.394 972.508 687.55 972.558L691.99 973.988C692.051 974.009 692.116 974.014 692.18 974.002C692.243 973.99 692.303 973.961 692.353 973.919C692.403 973.877 692.442 973.823 692.466 973.761C692.49 973.7 692.498 973.633 692.49 973.568C692.297 972.181 692.403 970.828 692.81 969.508C692.912 969.193 693.135 968.931 693.43 968.778L696.74 967.038C696.97 966.916 697.171 966.748 697.331 966.544C697.492 966.34 697.607 966.104 697.67 965.852C697.734 965.6 697.743 965.338 697.698 965.082C697.653 964.826 697.555 964.583 697.41 964.368L696.28 962.688C695.613 961.694 694.753 961.484 693.7 962.058L690.09 964.048C689.863 964.174 689.7 964.351 689.6 964.578Z" fill="#262C3A"/>
</svg>
