<svg width="1632" height="517" viewBox="0 0 1632 517" fill="none" xmlns="http://www.w3.org/2000/svg">
<path d="M1201.92 107.404C1200 106.038 1199.54 103.368 1200.9 101.44L1218.37 76.7812L1225.35 81.727L1207.89 106.386C1206.52 108.314 1203.85 108.77 1201.92 107.404Z" fill="#9B9938"/>
<path d="M1225.35 81.727L1218.37 76.7812L1214.11 82.7993C1215.15 83.7598 1216.23 84.6835 1217.42 85.5226C1218.61 86.363 1219.84 87.0806 1221.09 87.7437L1225.35 81.727Z" fill="#888738"/>
<path d="M1259.39 74.7035C1250.45 87.3209 1232.98 90.3061 1220.36 81.371C1207.74 72.4359 1204.76 54.9642 1213.69 42.3454C1222.63 29.728 1240.1 26.7428 1252.72 35.6779C1265.34 44.6143 1268.32 62.0861 1259.39 74.7035Z" fill="#BFB738"/>
<path d="M1253.4 70.4678C1246.81 79.7821 1233.91 81.9855 1224.6 75.3903C1215.28 68.7951 1213.08 55.8966 1219.67 46.5836C1226.27 37.2693 1239.17 35.0659 1248.48 41.6611C1257.8 48.2563 1260 61.1534 1253.4 70.4678Z" fill="#E2F1FF"/>
<path d="M1236.52 82.0948C1231.77 82.0948 1227 80.6799 1222.9 77.778C1220.42 76.0221 1218.34 73.8473 1216.71 71.3151L1217.24 70.9727C1218.83 73.438 1220.86 75.5541 1223.27 77.2636C1232.59 83.8602 1245.48 82.5627 1253.28 74.2471L1253.74 74.6782C1249.16 79.5653 1242.86 82.0948 1236.52 82.0948Z" fill="#4F4955"/>
<path d="M1257.94 68.4758L1257.36 68.2098C1258.25 66.3092 1258.87 64.2927 1259.21 62.2148L1259.83 62.3172C1259.49 64.4496 1258.85 66.5221 1257.94 68.4758Z" fill="#4F4955"/>
<path d="M1213.81 64.8609C1211.9 57.986 1213.17 50.7086 1217.28 44.8924C1224.8 34.2765 1239.56 31.7525 1250.17 39.2727C1255.97 43.3767 1259.58 49.7972 1260.08 56.8891L1259.45 56.9341C1258.96 50.0305 1255.45 43.7819 1249.81 39.7884C1239.47 32.4701 1225.12 34.9246 1217.8 45.2581C1213.79 50.9174 1212.56 58.001 1214.42 64.6917L1213.81 64.8609Z" fill="#4F4955"/>
<path d="M1250.98 68.7515C1245.33 76.7288 1234.29 78.6157 1226.31 72.9674C1218.33 67.319 1216.45 56.2733 1222.09 48.296C1227.74 40.3187 1238.79 38.4318 1246.77 44.0802C1254.74 49.7286 1256.63 60.7743 1250.98 68.7515Z" fill="#F1FBFF"/>
<path d="M1249.03 58.3842C1247.32 58.8604 1245.55 57.8603 1245.07 56.1508C1244.59 54.4413 1245.59 52.669 1247.3 52.1928C1249.01 51.7167 1250.79 52.7167 1251.26 54.4263C1251.74 56.1358 1250.74 57.9081 1249.03 58.3842Z" fill="white"/>
</svg>
