<svg width="200" height="200" viewBox="0 0 200 200" fill="none" xmlns="http://www.w3.org/2000/svg">
<path d="M36.0554 102.003C36.0554 102.003 30.7741 82.8781 32.9304 69.4093C33.7785 62.1071 37.0072 55.2873 42.1179 50.0031C42.1179 50.0031 46.8679 31.9093 75.4929 22.5343C104.118 13.1593 151.274 18.0343 159.868 56.2531C168.462 94.4718 162.993 105.066 162.993 105.066C164.361 105.491 165.63 106.185 166.727 107.107C167.824 108.029 168.726 109.16 169.381 110.434C170.035 111.708 170.429 113.1 170.54 114.529C170.65 115.957 170.475 117.393 170.024 118.753C166.899 129.097 152.274 128.909 152.274 128.909C149.647 132.55 146.797 136.025 143.743 139.316C141.745 141.545 139.364 143.397 136.712 144.784C136.712 144.784 153.305 158.253 155.837 164.909C158.368 171.566 154.68 177.222 152.93 177.784C151.18 178.347 146.087 181.316 130.274 180.347C114.462 179.378 114.243 178.378 106.837 179.941C99.4616 181.55 91.88 181.993 84.3679 181.253C80.0554 180.253 67.9616 175.566 63.2741 175.191C58.5866 174.816 48.3679 175.003 48.1491 171.878C47.9304 168.753 51.8679 161.597 56.2429 155.722C58.5675 152.416 61.4806 149.567 64.8366 147.316C58.6705 143.169 53.7369 137.437 50.5554 130.722C50.5554 130.722 38.4616 134.034 31.6179 120.566C24.7741 107.097 36.0554 102.003 36.0554 102.003Z" fill="black"/>
<path d="M40.3429 98.6885C40.3429 98.6885 33.1241 77.5948 38.2179 67.626C43.3116 57.6573 43.7491 56.6885 43.7491 56.6885C43.7491 56.6885 52.5304 36.5948 70.8741 30.5323C89.2179 24.4698 115.624 19.1885 137.812 32.876C159.999 46.5635 160.093 91.8448 159.874 94.4073C159.655 96.9698 159.093 97.126 159.093 97.126C159.043 85.2695 155.594 73.6759 149.155 63.7198C138.405 47.3135 125.499 36.1885 100.905 36.5948C76.3116 37.001 54.9991 56.251 53.4366 60.2198C51.8741 64.1885 50.4991 66.8448 50.4991 66.8448C50.4991 66.8448 47.7804 62.751 47.1866 62.751C46.5929 62.751 45.0304 63.5323 45.4366 64.7198C45.8429 65.9073 48.7491 69.001 48.7491 69.7823C48.5899 70.7856 48.3281 71.7699 47.9679 72.7198C47.9679 72.7198 43.2804 68.4073 42.4991 69.001C41.7179 69.5948 41.7179 72.126 41.7179 72.126C41.7179 72.126 46.2179 76.8135 46.0304 77.4073C44.3145 81.4677 43.1277 85.7318 42.4991 90.0948C42.2978 93.0649 41.5676 95.9752 40.3429 98.6885Z" fill="#7B5207"/>
<path d="M41.5295 107.875C41.5295 107.875 44.0607 115.094 45.4357 118.406C46.2483 120.34 46.7747 122.383 46.9982 124.469C44.8757 124.236 42.8527 123.446 41.1347 122.178C39.4167 120.91 38.065 119.21 37.217 117.25C34.6857 110.594 40.6232 108.656 41.5295 107.875Z" fill="#FCD396"/>
<path d="M159.875 110.031C159.875 110.031 158.906 113.938 157.75 118.219C157.256 120.339 156.467 122.38 155.406 124.281C155.406 124.281 164.375 123.688 165.563 118.406C165.757 117.481 165.763 116.527 165.58 115.6C165.397 114.673 165.029 113.792 164.498 113.01C163.967 112.229 163.284 111.562 162.49 111.05C161.696 110.538 160.806 110.192 159.875 110.031Z" fill="#FCD396"/>
<path d="M103.623 42.625C119.654 42.625 138.217 51.4375 147.967 74.4687C157.717 97.5 155.592 120.75 141.529 133.656C127.467 146.563 114.779 154.344 90.9357 150.656C67.0919 146.969 57.5294 133.656 50.3107 117.25C43.0919 100.844 46.8732 43.0312 103.623 42.625Z" fill="#FCD396"/>
<path d="M69.4717 150C71.1592 148.75 81.378 159.187 104.409 156.844C127.44 154.5 130.784 148.438 131.753 148.438C132.722 148.438 148.753 160.344 150.909 165.219C153.065 170.094 152.659 173.438 151.69 173.625C150.777 173.726 149.854 173.726 148.94 173.625C148.94 173.625 139.003 157.406 137.034 157.219C135.065 157.031 134.503 157.625 134.878 158.594C135.253 159.563 145.253 174.219 144.659 174.406C144.065 174.594 142.315 176.156 141.128 175.375C139.94 174.594 132.159 162.5 131.253 162.5C130.347 162.5 128.128 163.062 128.315 163.656C128.503 164.25 137.315 175.969 136.534 176.344C135.054 176.648 133.545 176.785 132.034 176.75C132.034 176.75 124.222 165.219 123.034 165.219C121.847 165.219 121.097 167.188 121.097 167.188C121.097 167.188 127.94 177.344 127.159 177.344C121.856 176.017 116.407 175.355 110.94 175.375C103.128 175.781 97.0655 178.906 90.2217 178.125C83.378 177.344 75.003 171.875 68.2842 171.531C61.5655 171.187 55.1905 171.156 55.003 170.375C54.8155 169.594 56.9717 159.375 69.4717 150Z" fill="#FAB900"/>
<path d="M66.341 68.2247C64.9035 68.2247 84.4972 64.3184 85.466 65.5059C86.4347 66.6934 87.216 68.2247 85.6535 68.2247C84.091 68.2247 69.2472 71.8809 67.9035 71.5372C66.5597 71.1934 66.5285 68.2247 66.341 68.2247Z" fill="black"/>
<path d="M124.533 66.2812C125.314 66.2812 141.72 68.625 141.908 69.9688C142.095 71.3125 143.283 71.75 141.345 71.9375C135.691 71.3583 130.077 70.44 124.533 69.1875C123.158 68.75 124.533 66.2812 124.533 66.2812Z" fill="black"/>
<path d="M73.9414 74.0949C84.6914 71.5324 99.7226 72.7199 99.1601 91.8449C98.5976 110.97 76.0976 114.126 65.3476 106.501C54.5976 98.8762 54.2226 78.7824 73.9414 74.0949Z" fill="black"/>
<path d="M74.654 76.7782C83.7477 74.622 96.529 75.622 95.9977 91.8407C95.4665 108.059 76.4665 110.591 67.3727 104.341C58.279 98.0907 57.9352 80.747 74.654 76.7782Z" fill="white"/>
<path d="M120.031 74.6611C129.406 69.7236 144.843 75.0674 145.437 92.4424C146.031 109.817 126.499 113.536 116.718 105.536C106.937 97.5361 104.999 82.6924 120.031 74.6611Z" fill="black"/>
<path d="M121.28 77.5291C128.967 73.4354 141.811 77.8416 142.28 92.2166C142.749 106.592 126.655 109.685 118.53 103.06C110.405 96.4354 108.842 84.1541 121.28 77.5291Z" fill="white"/>
<path d="M76.692 87.9429C79.5357 85.7554 84.5045 86.5992 84.692 90.2867C84.8421 91.2311 84.7345 92.1985 84.3805 93.0868C84.0266 93.9751 83.4394 94.7515 82.681 95.3339C81.9226 95.9163 81.021 96.2832 80.0714 96.3959C79.1218 96.5086 78.1594 96.3629 77.2857 95.9742C72.3795 94.1929 75.0045 89.3179 76.692 87.9429Z" fill="black"/>
<path d="M125.316 87.9429C128.16 85.7554 133.128 86.5992 133.316 90.2867C133.477 91.2335 133.377 92.2064 133.026 93.1007C132.676 93.9949 132.088 94.7766 131.326 95.3616C130.564 95.9466 129.657 96.3128 128.703 96.4207C127.749 96.5286 126.783 96.3743 125.91 95.9742C121.035 94.1929 123.566 89.3179 125.316 87.9429Z" fill="black"/>
<path d="M99.3494 113.73C100.193 113.918 111.443 120.574 113.006 119.605C114.568 118.636 113.412 114.136 111.443 112.574C109.474 111.011 109.693 111.98 109.506 111.011C109.452 110.812 109.449 110.603 109.496 110.403C109.543 110.202 109.639 110.016 109.775 109.862C109.911 109.707 110.083 109.588 110.276 109.516C110.469 109.444 110.677 109.421 110.881 109.449C112.589 109.834 114.139 110.731 115.323 112.022C116.507 113.312 117.268 114.933 117.506 116.668C118.474 122.543 114.974 124.293 110.287 123.105C105.595 121.474 101.226 119.03 97.3806 115.886C96.8806 115.105 98.3806 113.543 99.3494 113.73Z" fill="black"/>
<path d="M81.2535 128.973C82.5973 128.785 87.8785 135.598 101.347 135.035C106.637 134.96 111.893 134.172 116.972 132.691C117.611 132.817 118.189 133.153 118.614 133.646C119.039 134.139 119.286 134.76 119.316 135.41C119.129 136.004 110.347 139.723 97.066 138.535C83.0973 137.316 79.2848 132.098 78.9098 131.316C78.5348 130.535 79.816 129.16 81.2535 128.973Z" fill="black"/>
</svg>
