<svg width="1632" height="517" viewBox="0 0 1632 517" fill="none" xmlns="http://www.w3.org/2000/svg">
<path d="M1288.78 490.897C1287.54 490.897 1285.38 490.691 1283.62 490.281V499.679C1283.62 499.679 1294.62 499.415 1297.28 498.596V490.195C1294.29 490.644 1290.37 490.897 1288.78 490.897Z" fill="#FE9B71"/>
<path d="M1338.3 507.157C1337.78 505.697 1334.13 505.385 1330.37 505.697C1326.62 506.01 1317.45 504.134 1312.24 502.779C1307.03 501.424 1303.06 497.046 1300.98 496.628C1298.89 496.211 1294.83 499.026 1291.6 498.297C1288.37 497.567 1288.16 497.672 1285.55 497.567C1282.95 497.463 1282.22 499.548 1282.71 501.424C1283.21 503.3 1284.3 508.199 1283.26 510.702C1282.22 513.204 1282.71 516.122 1282.71 516.122C1282.71 516.122 1333.5 516.122 1334.34 516.122H1336.21C1338.09 514.037 1338.82 508.617 1338.3 507.157Z" fill="#F96767"/>
<path d="M1283.39 504.646C1283.73 506.733 1283.9 509.168 1283.26 510.703C1282.22 513.205 1282.71 516.124 1282.71 516.124C1282.71 516.124 1294.75 516.124 1307.2 516.124C1303.48 511.889 1295.21 504.42 1283.39 504.646Z" fill="#F9B39E"/>
<path d="M1282.71 512.785C1282.46 514.582 1282.71 516.121 1282.71 516.121C1282.71 516.121 1333.5 516.121 1334.33 516.121H1336.21C1336.91 515.346 1337.45 514.109 1337.82 512.785H1282.71Z" fill="#8B5C67"/>
<path d="M1330.37 505.696C1329.68 505.753 1328.81 505.736 1327.81 505.662C1323.08 508.321 1318.39 512.784 1318.39 512.784H1337.82C1338.46 510.55 1338.62 508.071 1338.3 507.154C1337.78 505.696 1334.13 505.384 1330.37 505.696Z" fill="#F9B39E"/>
<path d="M1320.34 507.867L1319.88 507.696C1320.62 505.667 1322.54 504.254 1322.62 504.195L1322.91 504.594C1322.89 504.607 1321.03 505.983 1320.34 507.867Z" fill="#584F55"/>
<path d="M1316.65 506.789L1316.16 506.697C1316.43 505.286 1318.14 503.519 1318.21 503.445L1318.57 503.789C1318.55 503.807 1316.89 505.525 1316.65 506.789Z" fill="#584F55"/>
<path d="M1313.15 506.156L1312.67 506.028C1313 504.82 1314.68 502.572 1314.75 502.477L1315.14 502.774C1315.13 502.797 1313.45 505.042 1313.15 506.156Z" fill="#584F55"/>
<path d="M1309.98 505.231L1309.49 505.127C1309.82 503.602 1311.74 501.982 1311.82 501.914L1312.13 502.293C1312.12 502.308 1310.27 503.872 1309.98 505.231Z" fill="#584F55"/>
<path d="M1306.37 503.74L1305.91 503.546C1306.55 502.024 1308.25 500.569 1308.33 500.508L1308.65 500.887C1308.63 500.901 1306.96 502.326 1306.37 503.74Z" fill="#584F55"/>
<path d="M1297.9 503.896C1297.62 503.896 1297.34 503.884 1297.05 503.861C1294.91 503.684 1293.75 503.149 1293.59 502.272C1293.36 501.041 1295.27 499.647 1296.6 499.011C1298.74 497.993 1302.25 498.154 1305.99 499.445L1306.31 499.552L1306.11 499.823C1306.08 499.865 1303.13 503.896 1297.9 503.896ZM1300.08 498.839C1298.8 498.839 1297.68 499.043 1296.81 499.46C1295.38 500.142 1293.93 501.377 1294.08 502.183C1294.19 502.794 1295.26 503.216 1297.09 503.367C1301.74 503.767 1304.71 500.728 1305.5 499.801C1303.55 499.161 1301.69 498.839 1300.08 498.839Z" fill="#584F55"/>
<path d="M1305.77 499.95L1305.69 499.794C1305.64 499.689 1304.39 497.214 1305.49 494.856C1306.28 493.166 1308.07 491.998 1310.8 491.387C1312.73 490.953 1314 491.077 1314.58 491.747C1314.85 492.052 1315.09 492.623 1314.73 493.599C1313.82 496.063 1309.79 499.365 1305.95 499.926L1305.77 499.95ZM1312.75 491.632C1312.24 491.632 1311.62 491.711 1310.91 491.869C1308.34 492.447 1306.66 493.519 1305.94 495.063C1305.09 496.875 1305.81 498.841 1306.06 499.407C1309.97 498.753 1313.52 495.458 1314.27 493.428C1314.42 493.014 1314.54 492.443 1314.21 492.071C1313.95 491.779 1313.45 491.632 1312.75 491.632Z" fill="#584F55"/>
<path d="M1301.68 506.548L1301.37 506.165C1305.73 502.608 1305.67 499.72 1305.67 499.691L1305.65 499.396L1305.95 499.433C1306 499.443 1311.74 500.156 1317.32 498.359L1317.47 498.831C1312.48 500.439 1307.36 500.074 1306.15 499.953C1306.07 500.806 1305.51 503.428 1301.68 506.548Z" fill="#584F55"/>
<path d="M1206.3 462.008L1202.02 466.971C1202.02 466.971 1210.52 473.957 1213.07 475.073L1216.96 470.561C1214.53 469.269 1208.93 465.099 1206.3 462.008Z" fill="#FE9B71"/>
<path d="M1238.54 508.354C1239.1 506.909 1236.54 504.288 1233.49 502.074C1230.45 499.86 1224.73 492.447 1221.67 488.016C1218.6 483.586 1218.46 477.682 1217.16 476.006C1215.85 474.328 1210.94 473.804 1208.97 471.14C1207 468.477 1206.77 468.42 1204.86 466.638C1202.96 464.856 1201.05 465.959 1200.19 467.702C1199.34 469.446 1196.97 473.872 1194.55 475.085C1192.13 476.298 1190.59 478.831 1190.59 478.831C1190.59 478.831 1229.05 512.009 1229.68 512.554L1231.1 513.779C1233.89 513.428 1237.98 509.8 1238.54 508.354Z" fill="#F96767"/>
<path d="M1198.61 470.582C1197.5 472.383 1196.04 474.337 1194.55 475.08C1192.13 476.293 1190.59 478.827 1190.59 478.827C1190.59 478.827 1199.71 486.691 1209.14 494.824C1209.09 489.19 1207.7 478.127 1198.61 470.582Z" fill="#F9B39E"/>
<path d="M1192.77 476.305C1191.41 477.5 1190.59 478.83 1190.59 478.83C1190.59 478.83 1229.05 512.008 1229.68 512.552L1231.1 513.778C1232.14 513.647 1233.35 513.06 1234.5 512.304L1192.77 476.305Z" fill="#8B5C67"/>
<path d="M1233.49 502.068C1232.93 501.66 1232.28 501.075 1231.57 500.366C1226.26 499.293 1219.79 499.604 1219.79 499.604L1234.5 512.3C1236.44 511.023 1238.19 509.254 1238.54 508.347C1239.1 506.904 1236.54 504.284 1233.49 502.068Z" fill="#F9B39E"/>
<path d="M1224.48 497.159L1224.24 496.725C1226.13 495.679 1228.51 495.863 1228.6 495.866L1228.56 496.361C1228.53 496.358 1226.24 496.186 1224.48 497.159Z" fill="#584F55"/>
<path d="M1222.39 493.925L1222.08 493.537C1223.21 492.645 1225.65 492.42 1225.75 492.41L1225.8 492.904C1225.78 492.907 1223.4 493.125 1222.39 493.925Z" fill="#584F55"/>
<path d="M1220.16 491.158L1219.88 490.747C1220.91 490.043 1223.65 489.44 1223.77 489.414L1223.87 489.897C1223.84 489.905 1221.11 490.508 1220.16 491.158Z" fill="#584F55"/>
<path d="M1218.35 488.388L1218.06 487.994C1219.3 487.048 1221.81 487.077 1221.91 487.078L1221.91 487.574C1221.88 487.574 1219.46 487.551 1218.35 488.388Z" fill="#584F55"/>
<path d="M1216.6 484.898L1216.38 484.454C1217.85 483.721 1220.11 483.736 1220.19 483.73L1220.18 484.226C1220.18 484.226 1220.18 484.226 1220.17 484.226C1220.01 484.226 1217.92 484.239 1216.6 484.898Z" fill="#584F55"/>
<path d="M1216.97 481.956C1215.02 481.956 1211.98 481.469 1209.46 478.908C1207.96 477.38 1207.43 476.213 1207.88 475.444C1208.51 474.362 1210.86 474.549 1212.29 474.94C1214.57 475.565 1217.13 477.983 1219.12 481.406L1219.28 481.692L1218.96 481.77C1218.94 481.777 1218.16 481.956 1216.97 481.956ZM1210.07 475.128C1209.24 475.128 1208.54 475.299 1208.31 475.693C1207.99 476.231 1208.52 477.25 1209.81 478.56C1213.09 481.898 1217.31 481.538 1218.51 481.351C1216.61 478.201 1214.25 475.992 1212.15 475.418C1211.48 475.234 1210.74 475.128 1210.07 475.128Z" fill="#584F55"/>
<path d="M1225.49 483.501C1223.23 483.501 1220.67 482.95 1218.77 481.737L1218.62 481.643L1218.66 481.471C1218.69 481.356 1219.36 478.666 1221.73 477.6C1223.44 476.831 1225.55 477.12 1228.02 478.442C1229.76 479.373 1230.64 480.295 1230.65 481.185C1230.65 481.591 1230.46 482.18 1229.55 482.684C1228.59 483.217 1227.12 483.501 1225.49 483.501ZM1219.19 481.416C1222.58 483.474 1227.42 483.301 1229.31 482.25C1229.7 482.037 1230.16 481.68 1230.15 481.186C1230.15 480.513 1229.31 479.693 1227.79 478.879C1225.46 477.632 1223.5 477.355 1221.94 478.049C1220.11 478.868 1219.38 480.828 1219.19 481.416Z" fill="#584F55"/>
<path d="M1228.21 488.441C1223.37 486.394 1219.74 482.776 1218.9 481.893C1218.29 482.487 1216.15 484.11 1211.21 483.969L1211.23 483.473C1211.42 483.479 1211.6 483.481 1211.78 483.481C1216.98 483.481 1218.69 481.401 1218.71 481.379L1218.89 481.148L1219.09 481.367C1219.12 481.409 1223 485.697 1228.4 487.984L1228.21 488.441Z" fill="#584F55"/>
<path d="M1252.51 278.253C1252.51 278.253 1250.63 282.84 1252.51 293.681C1254.38 304.522 1261.89 323.702 1265.02 329.956C1268.14 336.21 1272.73 346.218 1275.02 352.056C1277.32 357.894 1278.15 369.568 1278.15 375.614C1278.15 381.659 1279.82 402.925 1280.03 413.14C1280.24 423.355 1281.69 447.122 1282.32 455.044C1282.94 462.967 1281.69 486.734 1280.86 488.401C1280.03 490.068 1286.28 490.903 1288.78 490.903C1291.28 490.903 1299.62 490.278 1300.87 489.235C1302.13 488.192 1300.25 484.648 1300.87 482.147C1301.5 479.645 1301.5 444.203 1303.17 434.405C1304.84 424.606 1305.04 393.751 1304.63 385.62C1304.21 377.49 1303.96 350.178 1304.81 348.302C1305.67 346.426 1307.76 337.044 1309.21 331.207C1310.67 325.369 1309.01 307.858 1307.96 299.935C1306.92 292.013 1308.17 288.677 1306.92 285.134C1305.67 281.589 1306.71 274.71 1305.88 274.919C1305.05 275.127 1256.05 274.915 1256.05 274.915L1252.51 278.253Z" fill="#8A7079"/>
<path d="M1302.99 335.401C1302.63 334.267 1302.13 332.802 1301.55 331.105C1298.61 322.403 1293.67 307.837 1293.93 299.523L1293.44 299.508C1293.17 307.914 1298.13 322.53 1301.09 331.264C1301.66 332.959 1302.16 334.423 1302.52 335.552C1304.67 342.313 1304.57 348.237 1304.57 348.294L1304.81 348.299V348.298C1304.89 348.141 1304.97 347.915 1305.06 347.659C1305.02 345.931 1304.75 340.943 1302.99 335.401Z" fill="#4F4955"/>
<path d="M1294.29 307.722C1294.26 307.666 1291.55 302.025 1289.85 294.889L1290.33 294.773C1292.02 301.854 1294.71 307.452 1294.73 307.505L1294.29 307.722Z" fill="#4F4955"/>
<path d="M1275.02 352.057C1272.73 346.219 1268.14 336.213 1265.02 329.957C1265.43 338.192 1260.53 347.365 1257.72 357.06C1254.91 366.753 1249.59 379.888 1246.15 386.768C1242.71 393.647 1238.64 403.655 1233.95 411.16C1229.26 418.665 1217.44 442.975 1214 447.978C1210.56 452.981 1205.55 456.734 1204.93 459.235C1204.3 461.737 1214.62 469.555 1217.44 470.806C1220.25 472.057 1223.07 472.057 1222.75 470.806C1222.44 469.555 1225.88 463.301 1228.07 460.799C1230.26 458.296 1245.21 427.732 1258.66 409.595C1272.1 391.457 1278.13 373.972 1278.13 373.972L1277.98 370.123C1277.64 364.03 1276.74 356.416 1275.02 352.057Z" fill="#746574"/>
<path d="M1291.12 482.46L1290.62 482.456C1290.62 482.33 1290.75 469.707 1292.5 450.912C1293.95 435.172 1292.01 403.04 1290.73 381.778C1290.3 374.618 1289.96 368.963 1289.84 365.508C1289.32 350.227 1287.83 341.56 1284.71 335.594C1284.08 334.395 1283.27 332.474 1282.29 329.886L1282.76 329.711C1283.72 332.28 1284.52 334.181 1285.14 335.365C1288.31 341.401 1289.81 350.13 1290.33 365.492C1290.45 368.938 1290.79 374.591 1291.22 381.747C1292.51 403.024 1294.45 435.18 1292.99 450.958C1291.25 469.73 1291.12 482.334 1291.12 482.46Z" fill="#4F4955"/>
<path d="M1279.69 322.509C1276.7 313.602 1273.77 303.753 1273.75 303.655L1274.22 303.516C1274.25 303.612 1277.17 313.453 1280.16 322.35L1279.69 322.509Z" fill="#4F4955"/>
<path d="M1228.25 414.129L1227.83 413.855C1234.69 403.498 1240.6 392.431 1245.42 380.961L1245.87 381.155C1241.05 392.648 1235.11 403.744 1228.25 414.129Z" fill="#4F4955"/>
<path d="M1269.04 168.445C1269.04 168.445 1256.63 174.472 1251.78 177.577C1246.93 180.682 1242.08 185.686 1241.46 187.719C1240.83 189.752 1240.21 194.912 1240.21 199.29C1240.21 203.668 1239.27 204.45 1240.21 210.235C1241.15 216.02 1240.31 220.086 1239.79 221.024C1239.27 221.963 1245.83 223.37 1247.87 222.9C1249.9 222.431 1254.4 222.431 1254.4 222.431C1254.4 222.431 1253.03 246.979 1253.03 253.39C1253.03 259.802 1251.67 269.495 1251.88 272.622C1252.09 275.749 1251.05 277 1252.5 278.251C1253.96 279.503 1264.6 278.668 1270.43 278.251C1276.27 277.834 1287.74 279.572 1294.41 278.912C1301.08 278.251 1308.38 278.668 1309 277.834C1309.63 277 1308.58 275.958 1309 271.58C1309.42 267.202 1307.54 257.403 1308.17 247.813C1308.79 238.223 1308.38 231.343 1308.17 228.216C1307.96 225.089 1308.17 212.789 1308.17 212.789L1310.25 216.75C1310.25 216.75 1313.49 217.688 1318.28 214.353C1323.07 211.017 1325.26 210.392 1325.58 209.662C1325.89 208.932 1324.01 208.307 1322.66 205.18C1321.3 202.053 1317.76 194.13 1315.99 190.17C1314.21 186.209 1312.96 181.622 1311.09 179.85C1309.21 178.078 1303.06 176.41 1300.77 175.056C1298.47 173.701 1295.35 172.137 1293.57 171.511C1291.8 170.886 1285.65 169.635 1283.67 169.218C1281.69 168.8 1269.04 168.445 1269.04 168.445Z" fill="#F96767"/>
<path d="M1308.17 247.813C1308.29 245.953 1308.37 244.228 1308.42 242.579C1305.78 243.16 1304.01 242.376 1301.25 241.314C1299.82 240.764 1298.19 240.446 1296.79 241.075C1295.96 241.451 1295.29 242.135 1294.43 242.451C1291.8 243.422 1289.3 240.583 1286.51 240.236C1283.66 239.883 1281.19 242.155 1278.4 242.793C1276.52 243.223 1274.47 242.869 1272.85 241.835C1272.14 241.389 1271.51 240.819 1270.72 240.549C1269.2 240.026 1267.56 240.752 1266.07 241.35C1263.16 242.512 1259.84 243.217 1256.92 242.067C1255.78 241.618 1254.64 240.918 1253.45 241.036C1253.28 244.766 1253.14 248.32 1253.07 250.899C1254.81 251.042 1256.56 251.095 1258.28 250.844C1260.4 250.537 1262.53 249.788 1264.63 250.166C1266.19 250.446 1267.57 251.317 1269.04 251.907C1271.44 252.869 1274.07 253.071 1276.64 253.262C1278.36 253.39 1280.17 253.5 1281.72 252.736C1282.69 252.253 1283.5 251.446 1284.52 251.066C1287.39 250.004 1290.24 252.646 1293.26 253.124C1297.27 253.758 1301.59 250.54 1305.19 252.42C1305.92 252.799 1306.53 253.361 1307.24 253.78C1307.51 253.941 1307.79 254.075 1308.08 254.192C1308.02 252.095 1308.03 249.95 1308.17 247.813Z" fill="#F9B39E"/>
<path d="M1283.68 169.216C1281.7 168.799 1269.04 168.445 1269.04 168.445C1269.04 168.445 1267.37 169.258 1265.02 170.436C1264.98 171.493 1265.16 172.814 1265.95 174.012C1267.62 176.514 1272.52 180.057 1276.38 179.848C1280.24 179.64 1283.15 179.119 1286.39 175.158C1288.08 173.077 1288.98 171.504 1289.14 170.383C1287 169.904 1284.74 169.44 1283.68 169.216Z" fill="#F9B39E"/>
<path d="M1268.25 159.314C1268.25 159.314 1269.6 167.965 1268.87 169.113C1268.14 170.259 1267.84 172.24 1268.67 173.491C1269.5 174.742 1274.38 178.286 1278.51 177.451C1282.63 176.618 1285.34 172.552 1285.55 171.301C1285.76 170.05 1284.48 169.529 1284.24 167.235C1283.99 164.942 1284.24 159.312 1284.24 159.312H1268.25V159.314Z" fill="#FE9B71"/>
<path d="M1278.37 260.796C1278.37 260.796 1277.61 264.172 1278.37 265.97H1300.8C1300.8 265.97 1301.27 262.217 1297.75 260.419C1294.23 258.62 1291.18 257.761 1286.65 257.916C1282.11 258.072 1278.37 260.796 1278.37 260.796Z" fill="#584F55"/>
<path d="M1241.13 222C1241.13 222 1241.13 228.447 1242.08 232.59C1243.03 236.705 1256.25 244.363 1270.65 256.982C1271.62 257.84 1273.62 260.109 1274.09 260.891C1274.55 261.672 1275.23 261.933 1276.12 261.776C1277 261.619 1278.15 260.577 1279.35 260.63C1280.55 260.683 1283.78 264.591 1284.77 264.696C1285.76 264.799 1285.81 264.278 1285.86 263.966C1285.92 263.653 1284.51 261.203 1283.21 260.318C1283.21 260.318 1284.72 260.369 1285.34 260.735C1285.97 261.099 1288.73 264.54 1290.19 265.009C1291.65 265.479 1291.49 264.488 1291.49 264.071C1291.49 263.653 1290.71 262.507 1290.35 262.09C1289.98 261.672 1287.58 259.848 1287.58 259.848C1287.58 259.848 1287.89 259.639 1288.26 259.691C1288.62 259.743 1293.16 262.142 1293.73 263.34C1294.31 264.539 1294.72 264.993 1295.04 265.131C1295.35 265.269 1295.87 265.112 1296.08 264.539C1296.29 263.966 1295.4 262.088 1295.14 261.724C1294.88 261.36 1292.69 259.536 1291.75 259.222C1290.81 258.91 1292.01 258.909 1292.32 259.013C1292.64 259.117 1294.98 259.743 1296.86 261.046C1298.74 262.349 1299.21 261.203 1299.15 260.473C1299.1 259.743 1297.54 258.909 1297.12 258.649C1296.7 258.388 1293.32 256.825 1292.06 256.616C1290.81 256.407 1286.59 256.355 1286.17 256.304C1285.76 256.252 1280.47 255.261 1277.42 252.291C1274.37 249.321 1259.97 235.72 1253.88 232.28L1254.4 222.426C1254.4 222.426 1250.21 222.348 1247.01 222.503C1243.8 222.662 1241.13 222 1241.13 222Z" fill="#FE9B71"/>
<path d="M1308.15 214.571C1307.81 213.015 1307.85 211.37 1307.48 209.809C1307.16 208.437 1306.52 207.164 1305.89 205.906C1305.54 205.222 1305.2 204.54 1304.85 203.857C1304.22 204.217 1303.6 204.626 1302.96 204.903C1301.02 205.737 1298.6 205.239 1297.15 203.711C1296.65 203.185 1296.25 202.547 1295.63 202.176C1294.27 201.363 1292.53 202.159 1291.23 203.067C1289.93 203.974 1288.51 205.06 1286.94 204.788C1285.35 204.513 1284.3 202.914 1282.77 202.386C1280.95 201.757 1279.02 202.771 1277.32 203.666C1275.61 204.561 1273.5 205.361 1271.85 204.374C1270.63 203.646 1270 202.095 1268.66 201.608C1266.77 200.916 1264.98 202.721 1263.11 203.458C1261.33 204.159 1259.07 203.02 1257.18 202.596C1257.16 202.71 1257.15 202.826 1257.13 202.94C1256.68 206.209 1255.91 209.468 1256.05 212.766C1256.17 215.703 1256.73 218.673 1257.56 221.495C1256.52 221.739 1255.47 221.982 1254.42 222.226L1254.4 222.418C1254.4 222.418 1254.26 224.831 1254.08 228.341C1254.5 228.787 1254.96 229.183 1255.53 229.439C1259.7 231.33 1264.27 226.244 1268.75 227.224C1271.53 227.833 1273.6 230.701 1276.45 230.705C1279.37 230.711 1281.59 227.671 1284.51 227.563C1287.8 227.441 1290.39 231.061 1293.66 230.793C1295.82 230.615 1297.75 228.739 1299.87 229.19C1301.52 229.539 1302.62 231.197 1304.25 231.602C1305.76 231.977 1307.31 231.116 1308.27 229.851C1308.23 229.231 1308.2 228.664 1308.17 228.203C1308.01 225.82 1308.1 218.093 1308.15 214.571Z" fill="#F9B39E"/>
<path d="M1366.96 263.449C1364.04 262.407 1355.29 260.947 1352.79 258.862C1350.52 256.975 1327.24 218.689 1322.85 211.461C1321.72 212.109 1320.22 213.003 1318.28 214.352C1316.79 215.388 1315.48 215.981 1314.34 216.348C1318.3 223.282 1333.46 249.687 1337.98 255.109C1343.19 261.363 1343.61 262.197 1343.19 263.032C1342.78 263.865 1343.32 265.976 1343.32 265.976H1369.05C1369.05 265.976 1369.88 264.491 1366.96 263.449Z" fill="#FE9B71"/>
<path d="M1257.81 221.432C1256.92 218.431 1256.42 215.514 1256.3 212.763C1256.2 210.322 1256.6 207.85 1256.99 205.46C1257.13 204.632 1257.26 203.806 1257.38 202.981C1257.79 200.105 1258.07 196.384 1256.63 193.102L1256.18 193.299C1257.56 196.47 1257.29 200.102 1256.89 202.913C1256.78 203.737 1256.64 204.558 1256.51 205.381C1256.11 207.797 1255.7 210.294 1255.81 212.785C1255.92 215.5 1256.41 218.371 1257.26 221.322L1254.31 222.008L1253.86 222.432C1254.19 222.428 1254.4 222.427 1254.4 222.427C1254.4 222.427 1254.4 222.499 1254.39 222.605L1254.55 222.459L1257.88 221.683L1257.81 221.432Z" fill="#584F55"/>
<path d="M1257.45 195.787L1257.01 195.57L1257.98 193.555L1258.43 193.772L1257.45 195.787Z" fill="#584F55"/>
<path d="M1305.66 206.028C1306.28 207.254 1306.92 208.52 1307.24 209.875C1307.43 210.668 1307.5 211.506 1307.57 212.316C1307.67 213.369 1307.78 214.454 1308.13 215.514C1308.14 214.498 1308.16 213.695 1308.16 213.236C1308.13 212.919 1308.1 212.598 1308.07 212.272C1307.99 211.447 1307.92 210.59 1307.72 209.763C1307.39 208.351 1306.74 207.058 1306.1 205.804L1304.07 201.766C1303.55 200.755 1302.97 199.606 1302.95 198.412C1302.95 197.686 1303.14 196.934 1303.33 196.207C1303.62 195.097 1303.92 193.951 1303.52 192.836L1303.05 193.006C1303.4 193.974 1303.13 194.998 1302.85 196.082C1302.65 196.842 1302.45 197.628 1302.46 198.42C1302.48 199.727 1303.09 200.929 1303.62 201.991L1305.66 206.028Z" fill="#584F55"/>
<path d="M1302.78 196.253C1302.34 195.425 1301.83 194.638 1301.26 193.915L1301.65 193.609C1302.24 194.356 1302.76 195.166 1303.22 196.022L1302.78 196.253Z" fill="#584F55"/>
<path d="M1302.16 229.083C1301.73 227.911 1300.22 227.472 1298.97 227.63C1298.22 227.727 1297.51 227.972 1296.77 228.233C1296.21 228.427 1295.63 228.627 1295.03 228.76C1293.54 229.093 1291.94 228.968 1290.52 228.416C1289.79 228.135 1289.1 227.745 1288.44 227.365C1288.16 227.207 1287.89 227.05 1287.61 226.901L1287.84 226.465C1288.12 226.616 1288.4 226.776 1288.69 226.934C1289.33 227.305 1290 227.687 1290.69 227.956C1292.03 228.47 1293.53 228.586 1294.93 228.277C1295.49 228.153 1296.06 227.956 1296.6 227.766C1297.34 227.509 1298.11 227.244 1298.91 227.14C1300.36 226.956 1302.11 227.498 1302.62 228.914L1302.16 229.083Z" fill="#584F55"/>
<path d="M1280.02 227.083L1279.84 226.624C1281.49 225.985 1283.55 225.196 1285.57 225.583L1285.48 226.07C1283.6 225.69 1281.61 226.468 1280.02 227.083Z" fill="#584F55"/>
<path d="M1304.65 230.671C1304.07 230.671 1303.49 230.458 1303.05 230.07L1303.38 229.699C1303.8 230.069 1304.4 230.239 1304.95 230.149L1305.03 230.637C1304.9 230.658 1304.78 230.671 1304.65 230.671Z" fill="#584F55"/>
<path d="M1275.13 207.27C1274.87 207.27 1274.6 207.232 1274.33 207.146L1274.49 206.674C1275.52 207.012 1276.54 206.449 1277.63 205.864C1277.99 205.666 1278.36 205.461 1278.74 205.298C1281 204.296 1283.77 204.714 1285.64 206.34L1285.32 206.715C1283.62 205.235 1281 204.843 1278.94 205.75C1278.58 205.907 1278.22 206.107 1277.86 206.3C1276.98 206.776 1276.07 207.27 1275.13 207.27Z" fill="#584F55"/>
<path d="M1289.3 206.603C1289.05 206.603 1288.8 206.59 1288.55 206.563L1288.6 206.071C1289.84 206.19 1291.09 205.984 1292.21 205.449L1292.42 205.894C1291.45 206.362 1290.38 206.603 1289.3 206.603Z" fill="#584F55"/>
<path d="M1271.25 262.276C1270.59 262.231 1269.62 262.139 1268.65 262.044C1267.72 261.956 1266.8 261.864 1266.14 261.821C1265.34 262.376 1264.33 262.244 1263.79 262.117C1263.36 262.014 1262.95 261.859 1262.56 261.71C1262.24 261.589 1261.91 261.465 1261.58 261.372C1259.72 260.853 1257.71 261.291 1255.93 261.677L1255.82 261.194C1257.66 260.792 1259.73 260.339 1261.71 260.897C1262.06 260.994 1262.4 261.124 1262.73 261.248C1263.13 261.399 1263.5 261.541 1263.9 261.637C1264.38 261.748 1265.28 261.868 1265.92 261.372L1265.99 261.316L1266.09 261.321C1266.75 261.366 1267.72 261.459 1268.69 261.553C1269.66 261.646 1270.63 261.742 1271.29 261.784L1271.25 262.276Z" fill="#584F55"/>
<path d="M1275.83 180.026C1274.65 180.026 1273.39 179.748 1272.08 179.198C1270.75 178.639 1269.5 177.874 1268.3 177.13L1268.56 176.707L1268.56 176.708C1269.75 177.441 1270.97 178.198 1272.27 178.741C1273.71 179.344 1275.08 179.613 1276.32 179.511L1276.36 180.006C1276.18 180.02 1276.01 180.026 1275.83 180.026Z" fill="#4F4955"/>
<path d="M1278.06 179.987L1278.04 179.491C1279.02 179.445 1280.01 179.296 1280.96 179.055L1281.09 179.535C1280.1 179.786 1279.08 179.936 1278.06 179.987Z" fill="#4F4955"/>
<path d="M1291.24 142.52C1291.82 141.219 1292.4 139.921 1292.97 138.62C1293.26 137.965 1293.56 137.3 1293.67 136.59C1293.78 135.838 1293.69 135.073 1293.59 134.319C1293.44 133.11 1293.28 131.9 1293.13 130.689C1292.97 129.421 1293.39 128.552 1293.48 127.276C1293.6 125.592 1293 123.868 1291.86 122.622C1290.72 121.376 1289.06 120.626 1287.37 120.597C1286.68 120.585 1285.99 120.689 1285.3 120.696C1284.36 120.705 1283.43 120.537 1282.51 120.37C1281.05 120.105 1279.58 119.836 1278.23 119.222C1275.92 118.174 1273.95 116.126 1271.42 116.053C1269.3 115.991 1267.42 117.363 1265.86 118.795C1264.29 120.228 1262.76 121.843 1260.73 122.475C1259.58 122.835 1258.28 122.868 1257.3 123.576C1255.82 124.648 1255.67 126.767 1255.66 128.601C1255.66 128.73 1255.66 128.858 1255.66 128.988C1255.65 131.163 1255.65 133.391 1256.38 135.437C1256.9 136.864 1257.75 138.156 1258.19 139.611C1259.02 142.374 1258.32 145.66 1260.07 147.954C1261.33 149.616 1263.62 150.247 1265.7 149.998C1267.77 149.748 1269.68 148.751 1271.46 147.656C1272.5 147.015 1273.53 146.332 1274.67 145.875C1276.07 145.31 1277.59 145.109 1279.08 144.874C1282.89 144.274 1287.54 143.619 1291.24 142.52Z" fill="#91484F"/>
<path d="M1263.13 145.733C1263.13 145.733 1266.98 160.285 1272.9 161.142C1272.9 161.142 1281.75 163.853 1285.53 159.288C1289.31 154.723 1290.66 151.156 1290.81 147.447C1290.95 143.737 1291.8 139.671 1291.23 138.887C1290.66 138.102 1289.24 136.319 1288.88 134.678C1288.52 133.038 1289.02 130.398 1285.46 130.469C1281.89 130.54 1278.68 129.042 1276.97 128.542C1275.26 128.043 1271.97 129.327 1271.12 129.969C1270.26 130.612 1271.05 131.324 1267.77 132.038C1264.49 132.751 1263.99 133.251 1264.13 134.391C1264.27 135.533 1265.34 146.232 1264.7 146.447C1264.06 146.661 1263.13 145.733 1263.13 145.733Z" fill="#FE9B71"/>
<path d="M1263.13 144C1263.13 144 1263.48 136.2 1262.44 135.867C1261.39 135.534 1259.54 135.963 1259.11 137.151C1258.68 138.341 1259.87 144.761 1263.13 144Z" fill="#FE9B71"/>
<path d="M1264.47 150.546C1264.77 150.126 1265.41 150.115 1265.88 150.336C1266.34 150.556 1266.7 150.944 1267.13 151.231C1267.76 151.651 1268.51 151.837 1269.25 152.002C1270.27 152.232 1271.38 152.434 1272.34 152.013C1272.66 151.872 1272.94 151.666 1273.26 151.513C1273.78 151.258 1274.36 151.155 1274.93 151.052C1275.59 150.936 1276.27 150.823 1276.9 151.035C1277.2 151.137 1277.47 151.311 1277.76 151.445C1278.58 151.822 1279.54 151.865 1280.39 151.564C1280.71 151.451 1281.01 151.292 1281.34 151.206C1281.67 151.12 1282.01 151.11 1282.34 151.114C1283.39 151.126 1284.44 151.272 1285.45 151.549C1286.57 151.855 1287.56 150.762 1288.31 149.878C1289.06 148.992 1289.56 147.927 1290.01 146.858C1290.07 146.699 1290.15 146.531 1290.28 146.422C1290.41 146.311 1290.63 146.281 1290.75 146.403C1290.8 146.445 1290.82 146.501 1290.85 146.555C1291.44 147.858 1291.14 149.374 1290.79 150.759C1290.58 151.591 1290.34 152.421 1290.09 153.242C1289.78 154.286 1289.39 155.385 1288.52 156.046C1286.71 157.425 1286.48 160.36 1284.79 161.882C1283.82 162.754 1282.57 163.273 1281.29 163.514C1280.01 163.756 1278.69 163.737 1277.39 163.633C1276.96 163.599 1276.52 163.554 1276.12 163.4C1275.72 163.249 1275.38 163 1275 162.82C1274.54 162.606 1274.05 162.494 1273.57 162.383C1272.81 162.214 1272.06 162.043 1271.32 161.873C1270.36 161.656 1269.35 161.413 1268.64 160.739C1268.26 160.38 1267.99 159.92 1267.73 159.469C1266.6 157.54 1265.47 155.593 1264.77 153.473C1264.46 152.53 1263.9 151.359 1264.47 150.546Z" fill="#91484F"/>
<path d="M1280.72 154.213C1281.1 154.184 1281.53 154.161 1281.81 154.417C1282.19 154.76 1282.07 155.393 1281.8 155.827C1281.03 157.075 1279.42 157.527 1277.95 157.599C1276.96 157.648 1275.9 157.55 1275.11 156.951C1274.12 156.203 1273.77 153.791 1275.56 153.865C1275.85 153.876 1276.13 154.04 1276.4 154.101C1276.87 154.203 1277.36 154.217 1277.84 154.243C1278.8 154.295 1279.76 154.285 1280.72 154.213Z" fill="white"/>
<path d="M1276.8 148.074L1276.7 147.591C1277.52 147.414 1278.32 147.164 1278.6 146.537C1278.87 145.923 1278.54 145.201 1278.23 144.502L1278.12 144.262C1277.51 142.875 1277.27 141.366 1277.05 139.906L1276.54 136.649L1277.03 136.574L1277.53 139.83C1277.76 141.258 1277.99 142.736 1278.57 144.063L1278.68 144.299C1279.02 145.059 1279.41 145.921 1279.05 146.739C1278.68 147.568 1277.75 147.871 1276.8 148.074Z" fill="#584F55"/>
<path d="M1271.76 139.568C1271.76 140.217 1271.44 140.745 1271.05 140.745C1270.65 140.745 1270.33 140.219 1270.33 139.568C1270.33 138.917 1270.65 138.391 1271.05 138.391C1271.44 138.391 1271.76 138.917 1271.76 139.568Z" fill="#584F55"/>
<path d="M1268.01 137.562C1267.76 137.674 1267.39 137.762 1267.26 137.522C1267.48 137.245 1267.81 137.09 1268.13 136.944C1268.68 136.694 1269.22 136.446 1269.77 136.196C1270.7 135.774 1271.66 135.346 1272.68 135.356C1272.87 135.357 1273.08 135.377 1273.24 135.472C1273.71 135.734 1273.51 136.215 1273.08 136.341C1272.59 136.484 1271.97 136.433 1271.45 136.521C1270.26 136.721 1269.11 137.072 1268.01 137.562Z" fill="#584F55"/>
<path d="M1282.69 139.568C1282.69 140.217 1283 140.745 1283.4 140.745C1283.79 140.745 1284.11 140.219 1284.11 139.568C1284.11 138.917 1283.79 138.391 1283.4 138.391C1283 138.391 1282.69 138.917 1282.69 139.568Z" fill="#584F55"/>
<path d="M1286.44 137.562C1286.69 137.674 1287.05 137.762 1287.19 137.522C1286.97 137.245 1286.64 137.09 1286.32 136.944C1285.77 136.694 1285.22 136.446 1284.67 136.196C1283.75 135.774 1282.78 135.346 1281.76 135.356C1281.57 135.357 1281.37 135.377 1281.2 135.472C1280.73 135.734 1280.94 136.215 1281.37 136.341C1281.86 136.484 1282.48 136.433 1282.99 136.521C1284.18 136.721 1285.34 137.072 1286.44 137.562Z" fill="#584F55"/>
<path d="M1062.35 180.632C1064.44 181.759 1066.53 182.887 1068.62 184.016C1069.46 184.466 1070.29 184.916 1071.13 185.366C1074.37 187.114 1077.62 188.863 1080.88 190.574C1084.63 192.539 1088.53 194.554 1091.14 197.884C1092.86 200.079 1093.73 202.846 1094.05 205.62C1094.23 207.128 1094.19 208.665 1094.54 210.141C1094.92 211.721 1095.72 213.172 1096.11 214.749C1096.64 216.906 1096.36 219.165 1096.19 221.381C1095.25 233.508 1097.68 245.726 1096.56 257.84C1096.47 258.893 1096.3 260.037 1095.53 260.761C1094.28 261.932 1093.17 262.87 1091.88 263.984C1091.28 264.494 1090.76 265.079 1090.19 265.626C1088.62 267.161 1086.75 268.396 1084.72 269.243C1085.89 274.894 1083.28 280.817 1084.11 286.529C1084.53 289.453 1085.79 292.456 1084.84 295.252C1084.71 295.638 1084.52 296.025 1084.19 296.268C1083.75 296.597 1083.14 296.587 1082.59 296.56C1077.72 296.328 1072.86 295.958 1068.01 295.448C1066 295.238 1063.98 295.003 1061.98 295.227C1060.55 295.387 1059.16 295.776 1057.73 295.931C1055.68 296.152 1053.61 295.883 1051.57 295.613C1043.94 294.608 1036.31 293.604 1028.67 292.598C1028.67 291.738 1029.02 290.924 1029.32 290.12C1030.76 286.337 1031.28 282.282 1031.8 278.27C1032.15 275.548 1032.5 272.792 1032.16 270.069C1031.93 268.138 1031.34 266.248 1031.29 264.303C1031.24 262.255 1031.78 260.245 1032.16 258.233C1033.19 252.832 1033.14 247.225 1032 241.845C1031.23 238.159 1029.57 234.533 1028.56 230.905C1027.47 226.954 1026.36 222.931 1026.48 218.831C1026.13 220.708 1025.41 222.425 1025.07 224.302C1024.83 225.618 1024.59 226.957 1023.99 228.156C1023.05 230.062 1021.31 231.451 1020.17 233.245C1019.23 234.719 1018.73 236.417 1018.07 238.038C1016.79 241.251 1014.91 244.191 1013.05 247.111C1012.06 248.663 1010.93 250.329 1009.16 250.853C1007.84 251.246 1006.32 250.863 1005.34 249.893C1002.81 247.381 999.058 246.107 995.864 244.516C993.342 243.259 990.923 241.805 988.508 240.351C985.939 238.805 983.368 237.259 980.799 235.712C976.502 233.126 972.197 230.535 968.145 227.582C965.957 225.987 963.846 224.288 961.681 222.662C958.531 220.296 955.264 218.085 951.898 216.035C952.186 215.269 952.484 214.507 952.713 213.721C953.586 210.733 955.214 207.968 957.404 205.755C960.119 207.766 963.212 209.658 965.927 211.669C968.912 213.881 971.908 216.099 975.155 217.904C977.93 219.448 980.866 220.675 983.692 222.122C989.954 225.324 995.338 230.17 1001.65 233.155C1002.16 233.392 1002.7 233.612 1003.25 233.534C1003.8 233.458 1004.33 232.975 1004.27 232.424C1006.43 227.582 1008.91 222.792 1011.07 217.949C1011.7 216.546 1012.33 215.139 1012.82 213.68C1014.37 209.019 1014.45 203.868 1016.7 199.504C1020.34 192.466 1026.41 188.571 1030.33 187.14C1031.23 186.815 1046.4 179.18 1052.66 178.933C1055.7 178.813 1054.58 181.612 1057.62 181.833C1058.67 181.909 1061.63 181.404 1062.35 180.632Z" fill="#FFCF85"/>
<path d="M1066.49 182.871C1065.11 182.126 1063.73 181.381 1062.35 180.636C1061.63 181.409 1058.67 181.913 1057.62 181.837C1055.43 181.677 1055.38 180.193 1054.4 179.414C1053.06 179.357 1051.72 179.299 1050.46 179.246C1048.04 179.743 1045.01 180.788 1042.02 181.975C1041.9 183.132 1042.12 184.489 1043.21 185.818C1045.96 189.159 1052.01 191.518 1054.59 191.125C1057.11 190.739 1065.7 185.671 1066.49 182.871Z" fill="#FFEED7"/>
<path d="M1080.75 210.58C1080.45 209.677 1080.03 208.043 1079.7 206.661C1073.07 206.939 1066.43 203.996 1059.9 205.236C1057.56 205.68 1055.36 206.646 1053.08 207.318C1047.95 208.834 1042.48 208.839 1037.15 208.326C1033.59 207.984 1029.99 207.433 1026.48 207.921C1026.42 210.024 1026.3 212.208 1026.21 213.971C1026.09 216.267 1026.32 218.277 1026.43 219.061C1026.44 218.983 1026.47 218.91 1026.48 218.832C1026.37 222.884 1027.45 226.862 1028.53 230.771C1029.55 230.768 1030.58 230.801 1031.75 230.819C1033.36 230.843 1034.96 230.553 1036.54 230.26C1045.63 228.576 1054.86 226.726 1064.06 227.644C1066.16 227.854 1068.25 228.209 1070.36 228.349C1073.87 228.583 1077.39 228.232 1080.9 228.04C1080.95 226.483 1080.94 224.996 1080.75 223.7C1080.16 219.72 1081.34 212.35 1080.75 210.58Z" fill="#FFB575"/>
<path d="M1050.53 280.155C1052.15 279.271 1054.22 277.206 1055.4 275.733C1056.57 274.258 1062.62 270.131 1065.12 268.215C1067.63 266.298 1071.32 264.236 1075.3 260.993C1076.25 260.215 1077.11 259.403 1077.88 258.619C1075.23 258.852 1072.58 259.085 1069.93 259.318C1068.25 259.466 1066.57 259.613 1064.9 259.514C1062.71 259.384 1060.58 258.837 1058.41 258.549C1049.72 257.396 1040.49 260.362 1032.25 257.617C1032.21 257.82 1032.2 258.028 1032.16 258.232C1031.78 260.245 1031.24 262.255 1031.3 264.302C1031.35 266.247 1031.93 268.138 1032.17 270.068C1032.5 272.791 1032.15 275.547 1031.8 278.269C1031.72 278.878 1031.64 279.488 1031.56 280.097C1033.77 280.681 1036 281.204 1038.28 281.437C1041.65 281.782 1045.05 281.488 1048.44 281.282C1049.24 280.849 1050 280.444 1050.53 280.155Z" fill="#FFB575"/>
<path d="M1082.67 271.313C1082.37 272.05 1075.74 275.735 1072.64 277.21C1070.12 278.413 1066.92 281.263 1064.56 282.92C1066.02 283.186 1067.48 283.37 1068.97 283.347C1071.5 283.306 1074.01 282.67 1076.54 282.772C1079.03 282.873 1081.52 283.692 1083.98 283.572C1084.09 278.791 1085.7 273.925 1084.73 269.242C1084.73 269.242 1082.96 270.576 1082.67 271.313Z" fill="#FFB575"/>
<path d="M1082.08 241.128C1081.81 241.036 1081.52 240.962 1081.23 240.957C1081.49 245.612 1081.31 251.81 1081.78 253.918C1081.78 253.918 1079.28 257.751 1075.3 260.994C1072.44 263.323 1069.74 265.04 1067.51 266.534C1067.97 267.421 1069.05 267.933 1069.93 268.514C1072.54 270.237 1073.77 273.644 1076.33 275.307C1079.3 273.696 1082.46 271.816 1082.67 271.312C1082.96 270.575 1084.73 269.241 1084.73 269.241C1086.76 268.394 1088.62 267.161 1090.2 265.624C1090.76 265.077 1091.28 264.492 1091.88 263.982C1093.18 262.868 1094.29 261.93 1095.53 260.759C1096.3 260.035 1096.47 258.891 1096.57 257.838C1097.06 252.449 1096.85 247.039 1096.55 241.626C1096.47 241.609 1096.38 241.581 1096.3 241.566C1091.6 240.747 1086.68 242.642 1082.08 241.128Z" fill="#FFB575"/>
<path d="M1094.47 227.909C1094.97 227.993 1095.48 228.008 1095.99 228.001C1095.98 225.792 1096.02 223.584 1096.19 221.381C1096.37 219.167 1096.65 216.906 1096.12 214.749C1095.73 213.172 1094.92 211.722 1094.54 210.142C1094.42 209.62 1094.35 209.09 1094.3 208.558C1093.84 208.511 1093.39 208.48 1092.93 208.477C1089.9 208.455 1086.87 209.569 1083.9 209.032C1082.63 208.805 1081.36 208.293 1080.1 208.293C1080.33 209.18 1080.56 210.02 1080.75 210.58C1081.34 212.349 1080.16 219.719 1080.75 223.699C1080.86 224.48 1080.9 225.34 1080.91 226.23C1082.26 226.526 1083.6 227.023 1084.97 227.178C1087.11 227.421 1089.29 226.81 1091.41 227.163C1092.45 227.338 1093.43 227.738 1094.47 227.909Z" fill="#FFB575"/>
<path d="M1026.14 214.227C1024.35 213.052 1021.95 213.146 1020.08 212.07C1019.41 211.684 1018.84 211.16 1018.2 210.725C1017.2 210.038 1015.23 209.029 1013.93 209.299C1013.63 210.782 1013.29 212.257 1012.82 213.684C1012.33 215.144 1011.7 216.55 1011.07 217.953C1009.97 220.417 1008.79 222.869 1007.61 225.32C1008.27 225.697 1009.05 225.981 1009.74 226.279C1011.29 226.956 1012.59 228.086 1014.02 228.985C1016.21 230.359 1018.69 231.173 1021.18 231.888C1022.18 230.681 1023.3 229.558 1024 228.158C1024.59 226.959 1024.84 225.622 1025.07 224.304C1025.42 222.426 1026.14 220.71 1026.48 218.833C1026.3 217.41 1026.12 215.91 1026.14 214.227Z" fill="#FFB575"/>
<path d="M983.694 222.124C980.867 220.679 977.931 219.45 975.157 217.907C974.644 217.622 974.148 217.311 973.647 217.008C972.171 219.049 971.037 221.355 969.469 223.337C968.634 224.394 967.667 225.359 966.992 226.525C966.968 226.566 966.955 226.622 966.932 226.665C967.338 226.97 967.737 227.284 968.147 227.583C972.201 230.537 976.504 233.127 980.801 235.713C983.036 237.058 985.272 238.403 987.507 239.749C988.049 238.783 988.651 237.849 989.359 236.998C990.292 235.875 991.407 234.773 991.652 233.335C991.75 232.762 991.7 232.172 991.783 231.597C991.967 230.332 992.749 229.313 993.714 228.436C990.438 226.225 987.203 223.918 983.694 222.124Z" fill="#FFB575"/>
<path d="M1062.77 500.097C1064.86 499.445 1066.53 498.903 1067.58 498.702L1067.09 490.176C1065.97 490.464 1064.58 490.956 1063.06 491.843C1061.06 493.008 1057.94 493.139 1055.43 492.873L1055.94 499.466C1058.31 499.827 1060.05 500.939 1062.77 500.097Z" fill="#FE9B71"/>
<path d="M1131.06 458.074C1129.82 460.163 1125.2 463.683 1121.92 465.488L1125.13 469.551C1127.3 468.526 1129.36 468.476 1131.15 466.258C1132.52 464.544 1133.6 463.163 1134.36 462.407L1131.06 458.074Z" fill="#FE9B71"/>
<path d="M1068.01 295.452C1066.01 295.242 1063.98 295.007 1061.98 295.231C1060.55 295.39 1059.16 295.779 1057.73 295.935C1055.68 296.156 1053.61 295.887 1051.57 295.617C1044.66 294.707 1037.75 293.797 1030.84 292.887C1030.6 294.907 1029.94 301.423 1030.92 306.106C1032.1 311.708 1032.69 319.078 1033.58 322.91C1034.46 326.743 1033.87 338.241 1035.05 341.779C1036.23 345.317 1038 348.855 1038.3 350.033C1038.59 351.212 1036.97 356.077 1037.12 360.499C1037.26 364.923 1039.89 398.679 1041.25 412.437C1042.62 426.195 1042.42 431.699 1044.49 442.017C1046.55 452.336 1049.5 471.205 1049.5 477.396C1049.5 483.587 1050.68 490.957 1051.56 491.843C1052.45 492.727 1059.52 493.906 1063.06 491.843C1066.6 489.779 1069.55 489.779 1069.55 489.779C1069.55 489.779 1067.19 480.05 1066.6 473.269C1066.01 466.488 1063.36 449.389 1063.36 439.069C1063.36 428.75 1062.47 409.587 1062.77 401.037C1063.06 392.486 1063.36 369.49 1064.24 362.71C1065.12 355.929 1066.89 340.892 1069.55 336.765C1072.2 332.638 1075.32 319.961 1077.89 314.653C1080.46 309.347 1081.34 304.63 1081.78 301.976C1082.03 300.504 1082.38 298.321 1082.5 296.554C1077.66 296.326 1072.83 295.958 1068.01 295.452Z" fill="#8A7079"/>
<path d="M1131.36 456.955C1130.77 455.186 1117.6 437.89 1116.13 436.122C1114.65 434.352 1109.35 426.982 1106.65 421.381C1103.95 415.779 1097.56 406.345 1094.61 401.628C1091.66 396.912 1087.24 390.426 1084.29 386.297C1081.34 382.17 1077.51 373.325 1074.56 365.955C1071.61 358.585 1066.34 348.137 1066.34 348.137C1065.4 353.433 1064.7 359.187 1064.24 362.712C1063.72 366.664 1063.41 376.122 1063.18 385.02C1064.83 387.447 1067.48 391.722 1070.73 398.385C1076.33 409.883 1086.06 420.792 1090.77 427.867C1095.49 434.943 1101.68 441.429 1106.65 449.685C1111.61 457.939 1120.75 466.096 1120.75 466.096C1124.58 464.325 1131.95 458.725 1131.36 456.955Z" fill="#746574"/>
<path d="M1044.18 304.249C1045.45 306.914 1044.74 313.813 1044.36 317.52C1044.27 318.407 1044.2 319.146 1044.16 319.659C1044.07 321.089 1043.68 322.554 1043.15 324.58C1042.66 326.441 1042.05 328.757 1041.4 332.009C1040.86 334.689 1040.48 337.276 1040.11 339.778C1039.57 343.434 1039.05 346.878 1038.16 349.631C1038.21 349.78 1038.27 349.93 1038.29 350.04C1038.33 350.177 1038.33 350.375 1038.32 350.604C1038.38 350.441 1038.46 350.282 1038.52 350.118C1039.49 347.273 1040.02 343.666 1040.59 339.847C1040.96 337.352 1041.34 334.771 1041.87 332.103C1042.52 328.866 1043.12 326.557 1043.61 324.705C1044.15 322.65 1044.54 321.167 1044.64 319.689C1044.67 319.184 1044.75 318.452 1044.84 317.569C1045.25 313.552 1045.94 306.826 1044.62 304.043L1044.18 304.249Z" fill="#584F55"/>
<path d="M1045.36 310.056L1044.94 309.831C1046.18 307.484 1048.69 304.038 1048.71 304.004L1049.1 304.285C1049.08 304.322 1046.59 307.742 1045.36 310.056Z" fill="#584F55"/>
<path d="M1071.53 314.888C1060.02 310.905 1058.7 300.496 1058.69 300.392L1059.17 300.336C1059.18 300.44 1060.47 310.552 1071.69 314.434L1071.53 314.888Z" fill="#584F55"/>
<path d="M1062.74 409.637L1056.42 410.397C1055.83 410.466 1055.16 410.545 1054.53 410.776C1054.02 410.966 1053.56 411.248 1053.11 411.522C1052.78 411.723 1052.44 411.929 1052.09 412.093C1051.37 412.424 1050.37 412.592 1049.73 412.058L1049.42 412.43C1049.82 412.753 1050.3 412.88 1050.79 412.88C1051.31 412.88 1051.85 412.731 1052.29 412.526C1052.67 412.354 1053.02 412.138 1053.36 411.93C1053.81 411.656 1054.23 411.398 1054.7 411.225C1055.27 411.015 1055.92 410.94 1056.48 410.871L1062.75 410.117C1062.74 409.96 1062.74 409.796 1062.74 409.637Z" fill="#584F55"/>
<path d="M1057.69 450.435C1056.57 450.435 1055.43 450.106 1054.32 449.788C1052.53 449.277 1050.85 448.794 1049.39 449.639L1049.15 449.227C1050.78 448.276 1052.65 448.811 1054.45 449.327C1055.99 449.768 1057.58 450.223 1059 449.757L1059.15 450.215C1058.67 450.369 1058.18 450.435 1057.69 450.435Z" fill="#584F55"/>
<path d="M1047.38 411.615C1046.54 411.461 1045.75 411.039 1045.16 410.424L1045.51 410.09C1046.03 410.634 1046.73 411.007 1047.47 411.142L1047.38 411.615Z" fill="#584F55"/>
<path d="M1070.24 514.053H1026.01C1026.01 514.053 1024.34 509.828 1028.96 508.648C1033.58 507.469 1045.86 505.012 1049.3 503.242C1052.74 501.473 1053.04 499.115 1055.59 499.41C1058.15 499.704 1059.92 500.981 1062.77 500.097C1065.62 499.213 1067.68 498.526 1068.47 498.622C1069.25 498.721 1069.45 499.998 1069.35 501.374C1069.25 502.75 1069.94 503.142 1070.23 505.6C1070.53 508.058 1070.73 512.578 1070.24 514.053Z" fill="#FFCF85"/>
<path d="M1070.24 514.047H1026.01V515.815H1070.24V514.047Z" fill="#FFB575"/>
<path d="M1066.99 508.153C1066.99 509.945 1065.54 511.396 1063.75 511.396C1061.96 511.396 1060.51 509.945 1060.51 508.153C1060.51 506.362 1061.96 504.91 1063.75 504.91C1065.54 504.91 1066.99 506.362 1066.99 508.153Z" fill="#FFB575"/>
<path d="M1035.78 507.054C1036.02 508.142 1036.6 510.103 1037.81 510.316C1039.48 510.611 1055.4 506.877 1055.99 504.911C1056.44 503.415 1053.93 501.583 1052.53 500.789C1051.76 501.53 1050.86 502.44 1049.3 503.239C1047.05 504.4 1040.99 505.856 1035.78 507.054Z" fill="#FFB575"/>
<path d="M1040.86 511.057C1040.8 511.057 1040.74 511.034 1040.7 510.99L1039.24 509.581C1038.84 509.186 1038.44 508.795 1038.12 508.324C1037.59 507.538 1037.35 506.593 1037.14 505.758C1037.11 505.628 1037.18 505.497 1037.31 505.464C1037.43 505.421 1037.57 505.509 1037.6 505.638C1037.82 506.474 1038.04 507.339 1038.52 508.058C1038.81 508.486 1039.19 508.862 1039.57 509.225L1041.03 510.645C1041.13 510.738 1041.13 510.889 1041.04 510.985C1040.99 511.032 1040.93 511.057 1040.86 511.057Z" fill="#584F55"/>
<path d="M1044 510.199C1043.94 510.199 1043.89 510.179 1043.84 510.137L1042.74 509.147C1042.56 508.982 1042.39 508.828 1042.25 508.651C1042.02 508.381 1041.87 508.072 1041.72 507.776L1041.6 507.557C1041.2 506.79 1040.69 506.087 1040.09 505.469C1040 505.375 1040 505.224 1040.09 505.129C1040.19 505.038 1040.34 505.041 1040.43 505.135C1041.07 505.786 1041.61 506.526 1042.03 507.331L1042.15 507.559C1042.29 507.846 1042.43 508.116 1042.62 508.347C1042.75 508.497 1042.89 508.632 1043.05 508.775L1044.16 509.78C1044.26 509.869 1044.27 510.021 1044.18 510.12C1044.13 510.173 1044.07 510.199 1044 510.199Z" fill="#584F55"/>
<path d="M1046.88 509.396C1046.82 509.396 1046.75 509.37 1046.71 509.319L1045.63 508.175C1045.38 507.911 1045.1 507.615 1044.91 507.265C1044.8 507.075 1044.72 506.876 1044.64 506.683C1044.6 506.593 1044.57 506.505 1044.53 506.419C1044.23 505.743 1043.77 505.133 1043.33 504.543C1043.25 504.436 1043.28 504.286 1043.38 504.206C1043.49 504.129 1043.64 504.151 1043.72 504.255C1044.18 504.869 1044.65 505.502 1044.97 506.225C1045.01 506.316 1045.05 506.41 1045.08 506.502C1045.16 506.69 1045.23 506.866 1045.32 507.027C1045.49 507.329 1045.74 507.592 1045.98 507.844L1047.06 508.993C1047.15 509.089 1047.14 509.24 1047.05 509.33C1047 509.375 1046.94 509.396 1046.88 509.396Z" fill="#584F55"/>
<path d="M1051.04 508.838C1050.98 508.838 1050.91 508.813 1050.86 508.759C1049.37 507.1 1047.94 505.348 1046.6 503.553C1046.52 503.448 1046.55 503.296 1046.65 503.217C1046.76 503.141 1046.91 503.163 1046.99 503.268C1048.32 505.05 1049.74 506.791 1051.22 508.436C1051.31 508.536 1051.3 508.687 1051.2 508.776C1051.16 508.818 1051.1 508.838 1051.04 508.838Z" fill="#584F55"/>
<path d="M1054.55 508.059C1054.49 508.059 1054.43 508.038 1054.39 507.999L1052.27 506.108C1052.06 505.928 1051.83 505.723 1051.63 505.494C1051.41 505.244 1051.23 504.969 1051.06 504.703L1050.88 504.439C1050.33 503.629 1049.68 502.9 1048.92 502.274C1048.82 502.19 1048.81 502.038 1048.89 501.937C1048.98 501.836 1049.13 501.823 1049.23 501.907C1050.02 502.562 1050.71 503.323 1051.28 504.169L1051.46 504.439C1051.63 504.704 1051.8 504.954 1051.99 505.179C1052.17 505.385 1052.38 505.57 1052.58 505.749L1054.71 507.639C1054.81 507.727 1054.81 507.879 1054.72 507.978C1054.68 508.033 1054.61 508.059 1054.55 508.059Z" fill="#584F55"/>
<path d="M1055.66 507.029C1055.61 507.029 1055.56 507.014 1055.52 506.985C1054.19 506.055 1053.25 504.714 1052.35 503.418C1051.84 502.696 1051.32 501.951 1050.74 501.288C1050.65 501.188 1050.66 501.037 1050.76 500.951C1050.86 500.861 1051.02 500.874 1051.1 500.974C1051.7 501.655 1052.23 502.411 1052.74 503.143C1053.66 504.464 1054.54 505.712 1055.79 506.594C1055.9 506.671 1055.93 506.822 1055.85 506.928C1055.81 506.993 1055.73 507.029 1055.66 507.029Z" fill="#584F55"/>
<path d="M1145.14 473.657L1108.47 498.373C1108.47 498.373 1104.72 495.803 1107.9 492.243C1111.07 488.684 1119.88 479.78 1121.74 476.391C1123.61 473.002 1122.53 470.88 1124.82 469.697C1127.1 468.515 1129.28 468.584 1131.15 466.258C1133.02 463.932 1134.35 462.207 1135.05 461.85C1135.76 461.492 1136.64 462.442 1137.32 463.637C1138.01 464.832 1138.8 464.775 1140.42 466.647C1142.04 468.521 1144.73 472.16 1145.14 473.657Z" fill="#FFCF85"/>
<path d="M1145.11 473.654L1108.44 498.371L1109.43 499.838L1146.1 475.122L1145.11 473.654Z" fill="#FFB575"/>
<path d="M1139.16 470.579C1140.16 472.064 1139.77 474.08 1138.28 475.081C1136.79 476.082 1134.78 475.689 1133.78 474.205C1132.78 472.719 1133.17 470.704 1134.65 469.703C1136.14 468.701 1138.16 469.094 1139.16 470.579Z" fill="#FFB575"/>
<path d="M1112.66 487.116C1113.46 487.886 1115.05 489.186 1116.16 488.689C1117.71 488 1128.83 476.005 1128.22 474.046C1127.76 472.556 1124.65 472.436 1123.05 472.56C1122.83 473.604 1122.59 474.865 1121.74 476.395C1120.52 478.619 1116.31 483.212 1112.66 487.116Z" fill="#FFB575"/>
<path d="M1118.98 487.634C1118.97 487.634 1118.95 487.633 1118.94 487.63L1116.94 487.271C1116.4 487.176 1115.84 487.076 1115.31 486.86C1114.44 486.504 1113.7 485.854 1113.06 485.279C1112.96 485.191 1112.95 485.039 1113.04 484.94C1113.13 484.839 1113.28 484.834 1113.38 484.919C1114.03 485.495 1114.69 486.09 1115.49 486.414C1115.98 486.611 1116.51 486.706 1117.03 486.799L1119.02 487.158C1119.15 487.182 1119.24 487.305 1119.22 487.438C1119.2 487.554 1119.09 487.634 1118.98 487.634Z" fill="#584F55"/>
<path d="M1121.1 485.165C1121.09 485.165 1121.08 485.165 1121.07 485.164L1119.61 484.954C1119.36 484.92 1119.14 484.886 1118.92 484.82C1118.58 484.719 1118.28 484.551 1117.98 484.389L1117.77 484.273C1117.01 483.864 1116.2 483.566 1115.35 483.388C1115.22 483.362 1115.13 483.233 1115.16 483.105C1115.19 482.974 1115.31 482.891 1115.45 482.92C1116.34 483.107 1117.2 483.42 1118 483.85L1118.22 483.97C1118.5 484.127 1118.77 484.276 1119.05 484.36C1119.24 484.419 1119.45 484.449 1119.67 484.479L1121.13 484.689C1121.27 484.708 1121.36 484.83 1121.34 484.961C1121.32 485.079 1121.22 485.165 1121.1 485.165Z" fill="#584F55"/>
<path d="M1123.04 482.886C1123.02 482.886 1123 482.885 1122.98 482.881L1121.45 482.532C1121.12 482.457 1120.71 482.365 1120.34 482.185C1120.15 482.087 1119.97 481.968 1119.8 481.851C1119.72 481.798 1119.64 481.744 1119.56 481.693C1118.93 481.298 1118.21 481.047 1117.52 480.803C1117.39 480.758 1117.33 480.622 1117.37 480.497C1117.41 480.372 1117.55 480.306 1117.68 480.349C1118.4 480.603 1119.14 480.863 1119.81 481.287C1119.9 481.341 1119.98 481.397 1120.06 481.453C1120.23 481.564 1120.39 481.669 1120.56 481.753C1120.87 481.908 1121.24 481.991 1121.56 482.062L1123.09 482.412C1123.22 482.442 1123.3 482.571 1123.27 482.698C1123.25 482.811 1123.15 482.886 1123.04 482.886Z" fill="#584F55"/>
<path d="M1126.18 480.103C1126.16 480.103 1126.14 480.102 1126.12 480.097C1123.95 479.552 1121.79 478.901 1119.68 478.162C1119.56 478.117 1119.49 477.98 1119.54 477.856C1119.58 477.731 1119.72 477.667 1119.84 477.708C1121.93 478.443 1124.08 479.09 1126.24 479.631C1126.37 479.663 1126.45 479.795 1126.41 479.922C1126.39 480.03 1126.29 480.103 1126.18 480.103Z" fill="#584F55"/>
<path d="M1128.65 477.492C1128.64 477.492 1128.62 477.492 1128.62 477.491L1125.8 477.11C1125.49 477.065 1125.21 477.028 1124.93 476.955C1124.61 476.87 1124.3 476.74 1124 476.618L1123.72 476.499C1122.81 476.133 1121.86 475.897 1120.89 475.798C1120.76 475.784 1120.66 475.667 1120.67 475.534C1120.69 475.403 1120.8 475.28 1120.94 475.32C1121.95 475.424 1122.95 475.669 1123.9 476.051L1124.19 476.171C1124.48 476.296 1124.76 476.412 1125.05 476.489C1125.3 476.555 1125.55 476.59 1125.82 476.628L1128.68 477.015C1128.81 477.034 1128.9 477.154 1128.88 477.285C1128.87 477.405 1128.77 477.492 1128.65 477.492Z" fill="#584F55"/>
<path d="M1128.99 476.022H1128.99C1127.37 475.992 1125.84 475.405 1124.37 474.836C1123.55 474.521 1122.69 474.194 1121.84 473.97C1121.72 473.936 1121.64 473.805 1121.67 473.675C1121.71 473.55 1121.83 473.469 1121.97 473.505C1122.84 473.735 1123.7 474.068 1124.54 474.389C1126.04 474.968 1127.46 475.514 1129 475.543C1129.13 475.544 1129.24 475.655 1129.23 475.787C1129.23 475.917 1129.13 476.022 1128.99 476.022Z" fill="#584F55"/>
<path d="M1044.84 285.367C1044.27 285.869 1042.94 286.843 1041.26 286.843C1038.98 286.843 1036.43 287.629 1036.04 288.219C1035.64 288.808 1036.53 289.103 1037.02 289.397C1037.51 289.692 1036.72 290.085 1035.15 290.969C1033.58 291.853 1029.65 293.132 1027.78 293.426C1025.91 293.721 1024.29 293.623 1023.8 293.967C1023.31 294.31 1023.11 294.949 1023.55 295.293C1024 295.637 1030.38 295.669 1032.62 294.883C1032.62 294.883 1028.37 296.815 1025.57 297.601C1022.77 298.387 1022.38 299.371 1022.57 299.813C1022.77 300.255 1023.49 300.402 1024.38 300.206C1025.27 300.009 1031.76 298.264 1033.73 297.184C1033.73 297.184 1029.45 301.877 1027.98 302.761C1026.5 303.645 1027.19 304.973 1029.21 304.138C1031.22 303.303 1037.61 297.946 1037.61 297.946C1037.61 297.946 1035.94 300.305 1036.63 300.698C1037.32 301.091 1037.9 300.698 1039.97 299.076C1042.03 297.454 1046.07 293.125 1048.72 291.702L1048.71 291.691C1047.41 290.453 1045.65 287.378 1044.84 285.367Z" fill="#FE9B71"/>
<path d="M1032.62 294.883C1032.62 294.883 1031.78 295.263 1030.61 295.75C1031.94 295.428 1033.86 294.839 1035.89 293.772L1035.66 293.348C1033.59 294.438 1031.62 295.022 1030.33 295.325C1031.25 295.222 1032.06 295.078 1032.62 294.883Z" fill="#584F55"/>
<path d="M1033.07 297.889C1034.33 297.05 1035.7 296.103 1036.58 295.468L1036.3 295.078C1035.05 295.973 1033.58 296.983 1032.37 297.782C1032.92 297.571 1033.39 297.366 1033.73 297.182C1033.73 297.182 1033.47 297.459 1033.07 297.889Z" fill="#584F55"/>
<path d="M1036.91 299.078C1037.36 298.54 1037.89 297.906 1038.56 297.104L1038.19 296.797C1037.46 297.673 1036.88 298.374 1036.4 298.939C1037.13 298.347 1037.61 297.946 1037.61 297.946C1037.61 297.946 1037.23 298.478 1036.91 299.078Z" fill="#584F55"/>
<path d="M1072.23 140.926C1071.7 137.812 1070.58 134.662 1068.27 132.508C1065.96 130.353 1062.26 129.48 1059.55 131.111C1057.81 130.023 1055.73 128.947 1053.74 128.464C1052.54 128.172 1051.29 128.117 1050.05 128.136C1045.48 128.21 1040.78 129.379 1037.23 132.27C1037.23 132.27 1032.54 136.284 1032.65 141.432C1032.68 142.954 1032.55 144.474 1032.71 145.987C1032.99 148.672 1033.6 151.555 1035.63 153.332C1037.09 154.606 1039.05 155.101 1040.78 155.97C1043.7 157.44 1045.97 160.007 1047.54 162.878C1049.12 165.748 1050.04 168.923 1050.8 172.108C1050.95 172.764 1051.12 173.453 1051.57 173.959C1052.05 174.506 1052.78 174.748 1053.48 174.966C1055.31 175.539 1057.2 176.117 1059.1 175.939C1060.12 175.843 1061.11 175.531 1062.12 175.359C1065.13 174.844 1068.21 175.584 1071.27 175.572C1071.46 175.57 1071.67 175.562 1071.82 175.442C1071.97 175.319 1072.02 175.112 1072.06 174.921C1072.8 171.241 1072.15 167.447 1072.01 163.696C1071.72 156.097 1073.49 148.425 1072.23 140.926Z" fill="#695D63"/>
<path d="M1066.6 149.106C1066.44 148.553 1068.9 148.372 1069.4 149.106C1070.15 150.218 1070.41 153.736 1069.77 154.862C1068.75 156.638 1066.82 156.819 1066.6 156.28C1066.38 155.742 1067.19 151.139 1066.6 149.106Z" fill="#FE9B71"/>
<path d="M1061.87 164.66C1061.87 164.66 1061 176.529 1062.62 179.92C1064.24 183.311 1063.95 183.163 1062.62 184.195C1061.29 185.226 1057.02 188.764 1053.48 188.617C1049.94 188.469 1043.9 184.195 1043.9 182.573C1043.9 180.95 1045.96 181.394 1046.4 179.182C1046.85 176.971 1045.96 169.011 1045.96 169.011L1061.87 164.66Z" fill="#D79071"/>
<path d="M1034.76 149.7C1034.76 149.7 1037.71 171.075 1048.76 173.875C1059.82 176.676 1065.27 156.481 1065.42 154.416C1065.42 154.416 1058.79 148.814 1058.34 141.297C1058.34 141.297 1057.02 146.013 1052.45 147.046C1047.88 148.078 1047.43 147.599 1045.08 148.797C1042.72 149.995 1036.38 151.615 1034.76 149.7Z" fill="#FE9B71"/>
<path d="M1056.91 155.12C1056.91 156.071 1056.42 156.842 1055.81 156.842C1055.2 156.842 1054.7 156.071 1054.7 155.12C1054.7 154.169 1055.2 153.398 1055.81 153.398C1056.42 153.397 1056.91 154.168 1056.91 155.12Z" fill="#584F55"/>
<path d="M1060.08 151.963C1060.26 152.069 1060.46 152.256 1060.39 152.453C1060.3 152.663 1060.01 152.645 1059.79 152.586C1058.56 152.252 1057.31 151.806 1056.04 151.919C1055.45 151.972 1053.31 152.938 1052.87 152.513C1052.24 151.901 1053.53 151.324 1053.92 151.236C1055.96 150.768 1058.24 150.89 1060.08 151.963Z" fill="#584F55"/>
<path d="M1040.99 155.413C1040.99 156.364 1041.48 157.135 1042.09 157.135C1042.7 157.135 1043.2 156.364 1043.2 155.413C1043.2 154.462 1042.7 153.691 1042.09 153.691C1041.48 153.69 1040.99 154.462 1040.99 155.413Z" fill="#584F55"/>
<path d="M1037.83 152.256C1037.64 152.362 1037.44 152.549 1037.52 152.746C1037.6 152.956 1037.9 152.938 1038.11 152.879C1039.35 152.545 1040.59 152.099 1041.86 152.212C1042.46 152.265 1044.59 153.231 1045.03 152.806C1045.66 152.194 1044.38 151.617 1043.99 151.529C1041.95 151.061 1039.66 151.183 1037.83 152.256Z" fill="#584F55"/>
<path d="M1050.03 164.208C1049.78 164.208 1049.53 164.191 1049.28 164.133C1048.71 163.999 1048.27 163.674 1048.06 163.242C1047.75 162.605 1047.98 161.893 1048.17 161.321C1048.44 160.504 1048.72 159.534 1048.78 158.554C1048.82 157.975 1048.79 157.371 1048.75 156.787C1048.69 155.741 1048.63 154.657 1048.97 153.633L1049.43 153.787C1049.11 154.723 1049.17 155.713 1049.23 156.76C1049.26 157.359 1049.3 157.977 1049.26 158.587C1049.19 159.618 1048.9 160.624 1048.62 161.472C1048.46 161.987 1048.27 162.572 1048.49 163.033C1048.64 163.332 1048.97 163.568 1049.39 163.665C1049.79 163.76 1050.23 163.733 1050.65 163.7L1050.69 164.181C1050.47 164.193 1050.25 164.208 1050.03 164.208Z" fill="#584F55"/>
<path d="M1050.64 168.102C1050.44 168.102 1050.23 168.092 1050.03 168.077C1049.68 168.047 1049.28 167.984 1048.97 167.751L1049.26 167.365C1049.47 167.529 1049.77 167.574 1050.07 167.598C1051.51 167.729 1052.99 167.388 1054.25 166.672L1054.48 167.088C1053.33 167.75 1051.98 168.102 1050.64 168.102Z" fill="#584F55"/>
<path d="M938.363 207.112C938.363 207.112 931.619 199.87 931.423 198.986C931.226 198.102 931.667 197.741 931.795 197.835C931.923 197.929 938.796 202.937 938.796 202.937L939.088 204.49L938.363 207.112Z" fill="#D79071"/>
<path d="M979.363 172.88L951.952 210.49C951.417 211.223 950.39 211.385 949.657 210.85L927.89 194.987C927.158 194.454 926.995 193.425 927.53 192.692L954.941 155.082C955.476 154.349 956.503 154.187 957.236 154.722L979.003 170.585C979.735 171.118 979.898 172.146 979.363 172.88Z" fill="#8B8D93"/>
<path d="M957.759 158.692C957.759 159.317 957.253 159.822 956.63 159.822C956.006 159.822 955.5 159.316 955.5 158.692C955.5 158.069 956.006 157.562 956.63 157.562C957.253 157.562 957.759 158.069 957.759 158.692Z" fill="#6A6F80"/>
<path d="M955.089 162.614C955.089 163.238 954.583 163.744 953.96 163.744C953.335 163.744 952.83 163.238 952.83 162.614C952.83 161.989 953.336 161.484 953.96 161.484C954.585 161.484 955.089 161.991 955.089 162.614Z" fill="#6A6F80"/>
<path d="M958.89 162.27C958.89 162.895 958.384 163.4 957.761 163.4C957.137 163.4 956.631 162.894 956.631 162.27C956.631 161.647 957.137 161.141 957.761 161.141C958.384 161.141 958.89 161.647 958.89 162.27Z" fill="#6A6F80"/>
<path d="M959.873 180.808C959.873 184.074 957.225 186.721 953.96 186.721C950.694 186.721 948.047 184.074 948.047 180.808C948.047 177.543 950.694 174.895 953.96 174.895C957.225 174.895 959.873 177.543 959.873 180.808Z" fill="#B0B2BA"/>
<path d="M947.603 184.471C946.959 183.365 946.621 182.094 946.621 180.8C946.621 176.753 949.913 173.461 953.96 173.461C955.186 173.461 956.402 173.771 957.473 174.356L957.244 174.776C956.242 174.23 955.105 173.941 953.959 173.941C950.177 173.941 947.1 177.018 947.1 180.8C947.1 182.01 947.417 183.196 948.02 184.231L947.603 184.471Z" fill="#584F55"/>
<path d="M951.306 187.649C950.569 187.363 949.89 186.964 949.285 186.465L949.592 186.094C950.156 186.56 950.789 186.934 951.478 187.203L951.306 187.649Z" fill="#584F55"/>
<path d="M953.961 188.146V187.666C957.743 187.666 960.822 184.588 960.822 180.805H961.302C961.301 184.854 958.009 188.146 953.961 188.146Z" fill="#584F55"/>
<path d="M927.71 189.451L927.324 189.165L929.142 186.711L929.528 186.996L927.71 189.451Z" fill="#584F55"/>
<path d="M931.378 184.496L930.992 184.21L942.087 169.242L942.473 169.527L931.378 184.496Z" fill="#584F55"/>
<path d="M952.715 213.726C953.322 211.646 954.316 209.687 955.59 207.935C953.74 206.86 951.274 207.413 949.093 207.096C948.207 206.968 947.173 206.464 947.172 205.571C947.17 204.971 947.468 204.77 947.78 204.258C948.091 203.747 949.025 202.122 948.473 201.886C947.988 201.677 946.795 202.64 946.445 203.035C945.681 203.897 944.942 204.706 944.178 205.568C944.011 204.398 944.369 203.205 944.918 202.159C945.466 201.111 947.198 199.008 947.855 198.026C948.177 197.546 948.422 196.776 947.918 196.493C947.653 196.344 947.318 196.441 947.049 196.581C946.048 197.1 944.408 199.263 943.809 200.219C942.803 201.823 941.729 203.381 940.723 204.986C941.066 203.351 941.689 201.777 942.555 200.348C942.848 199.864 943.754 198.521 943.757 197.956C943.76 197.39 943.247 196.787 942.702 196.941C942.44 197.015 941.678 198.075 941.508 198.288C940.14 200.01 939.077 201.974 938.383 204.061C938.128 204.829 937.92 205.654 938.107 206.443C938.332 207.398 939.088 208.124 939.807 208.791C942.09 210.907 944.597 213.129 947.69 213.481C948.351 213.556 949.023 213.543 949.667 213.706C950.6 213.944 951.424 214.532 952.362 214.736C952.479 214.399 952.616 214.069 952.715 213.726Z" fill="#FE9B71"/>
<path d="M1054.32 276.627L1054.68 276.949C1055.01 276.58 1055.32 276.224 1055.58 275.893C1056.02 275.344 1057.25 274.324 1059.32 272.777L1059.04 272.391C1056.9 273.987 1055.68 275.005 1055.21 275.593C1054.95 275.917 1054.65 276.264 1054.32 276.627Z" fill="#584F55"/>
<path d="M1048.44 240.938C1049.35 241.191 1050.28 241.317 1051.22 241.317C1051.5 241.317 1051.79 241.306 1052.07 241.283L1052.03 240.803C1050.86 240.898 1049.7 240.789 1048.57 240.477L1048.44 240.938Z" fill="#584F55"/>
<path d="M1051.12 268.398L1051.06 267.922C1047.82 268.328 1044.53 268.417 1041.27 268.177L1041.24 268.657C1042.44 268.743 1043.66 268.788 1044.87 268.788C1046.96 268.788 1049.05 268.657 1051.12 268.398Z" fill="#584F55"/>
<path d="M1052.28 204.648L1052.6 204.533C1053.51 204.198 1054.45 203.847 1055.39 203.913L1055.42 203.432C1054.38 203.372 1053.39 203.731 1052.43 204.083L1052.12 204.198C1047.66 205.815 1042.83 206.319 1038.14 205.658L1038.07 206.134C1039.43 206.325 1040.81 206.42 1042.18 206.42C1045.61 206.42 1049.05 205.821 1052.28 204.648Z" fill="#584F55"/>
<path d="M1046.35 240.323L1040.43 240.339C1039.72 240.34 1038.99 240.343 1038.28 240.265C1035.8 239.997 1033.44 238.749 1031.37 237.648L1031.14 238.073C1033.26 239.194 1035.65 240.466 1038.23 240.743C1038.86 240.812 1039.49 240.819 1040.11 240.819C1040.22 240.819 1040.33 240.819 1040.44 240.819L1046.36 240.803L1046.35 240.323Z" fill="#584F55"/>
<path d="M1084.72 269.246L1084.58 269.055C1084.39 269.195 1082.75 270.45 1082.44 271.227C1082.16 271.841 1076.12 275.292 1072.54 276.995C1070.82 277.816 1068.75 279.422 1066.93 280.837C1065.43 282.006 1064.01 283.111 1062.98 283.633C1060.68 284.798 1056.03 288.617 1054.49 290.161C1052.96 291.688 1051.01 292.008 1049.64 292.008C1049.28 292.008 1048.4 291.263 1047.08 289.166C1045.45 286.569 1044.48 284.071 1044.64 283.739C1045.19 283.294 1047.57 282.021 1049.31 281.09C1049.82 280.815 1050.28 280.568 1050.64 280.371C1051.33 279.995 1052.16 279.379 1053.03 278.586L1052.71 278.23C1051.86 278.997 1051.07 279.591 1050.41 279.95C1050.05 280.145 1049.59 280.392 1049.08 280.665C1047.23 281.657 1044.92 282.892 1044.33 283.363C1044.08 283.569 1044.1 284.043 1044.42 284.953C1045.21 287.2 1048.15 292.487 1049.64 292.487C1051.1 292.487 1053.18 292.142 1054.82 290.501C1056.35 288.974 1060.94 285.204 1063.2 284.058C1064.27 283.517 1065.7 282.398 1067.22 281.216C1069.02 279.815 1071.07 278.226 1072.74 277.429C1075.04 276.332 1082.51 272.337 1082.89 271.405C1083.09 270.883 1084.23 269.933 1084.76 269.523C1084.74 269.431 1084.74 269.337 1084.72 269.246Z" fill="#584F55"/>
<path d="M1088.65 250.124C1089.15 249.843 1089.6 249.495 1089.94 249.009L1089.54 248.735C1088.96 249.569 1087.99 249.951 1086.97 250.356C1086.47 250.553 1085.95 250.756 1085.48 251.015C1084.79 251.398 1084.32 251.879 1083.87 252.344C1083.31 252.92 1082.8 253.409 1081.97 253.62C1081.74 252.277 1081.69 249.651 1081.65 246.862C1081.59 243.65 1081.53 240.01 1081.16 237.717C1080.79 235.463 1080.92 232.83 1081.04 230.284C1081.16 227.874 1081.27 225.6 1080.99 223.67C1080.85 222.736 1080.8 221.525 1080.83 219.964L1080.35 219.953C1080.32 221.543 1080.37 222.78 1080.51 223.741C1080.79 225.625 1080.68 227.874 1080.57 230.259C1080.44 232.831 1080.31 235.49 1080.68 237.796C1081.05 240.053 1081.11 243.675 1081.17 246.87C1081.21 249.782 1081.26 252.536 1081.53 253.876C1081.14 254.446 1078.73 257.893 1075.15 260.815C1072.74 262.776 1070.45 264.296 1068.44 265.637C1067.11 266.517 1065.97 267.277 1064.98 268.032C1064.27 268.573 1063.26 269.304 1062.2 270.079L1061.17 270.82L1061.46 271.21L1062.48 270.468C1063.55 269.693 1064.56 268.96 1065.27 268.416C1066.25 267.667 1067.39 266.911 1068.7 266.036C1070.73 264.69 1073.02 263.164 1075.45 261.188C1079.22 258.118 1081.68 254.516 1081.94 254.13C1083 253.914 1083.6 253.319 1084.22 252.68C1084.65 252.24 1085.09 251.786 1085.72 251.438C1086.16 251.194 1086.66 250.997 1087.14 250.806C1087.4 250.707 1087.65 250.607 1087.9 250.498L1087.9 250.512L1090.65 250.877L1090.72 250.401L1088.65 250.124Z" fill="#584F55"/>
<path d="M1061.13 202.75L1061.06 202.273L1058.5 202.623L1058.56 203.099L1061.13 202.75Z" fill="#584F55"/>
<path d="M1060.59 232.411C1062.75 233.557 1065.18 234.152 1067.61 234.152C1068.47 234.152 1069.32 234.078 1070.16 233.931L1070.08 233.459C1066.93 234.009 1063.64 233.485 1060.82 231.988L1060.59 232.411Z" fill="#584F55"/>
<path d="M1003.84 235.709C1003.74 235.26 1003.75 234.791 1003.76 234.295C1003.76 233.982 1003.76 233.664 1003.74 233.348C1003.59 233.438 1003.44 233.507 1003.27 233.532C1003.28 233.777 1003.28 234.027 1003.27 234.285C1003.27 234.79 1003.26 235.311 1003.38 235.82C1003.57 236.653 1004.09 237.345 1004.58 238.016C1005.13 238.756 1005.65 239.453 1005.74 240.292L1006.22 240.24C1006.11 239.272 1005.53 238.489 1004.97 237.733C1004.48 237.07 1004.02 236.445 1003.84 235.709Z" fill="#584F55"/>
<path d="M1006.79 242.45C1006.89 243.355 1007.27 244.235 1007.85 244.928L1008.22 244.621C1007.7 243.996 1007.36 243.206 1007.26 242.398L1006.79 242.45Z" fill="#584F55"/>
<path d="M988.766 232.573C987.887 233.65 986.98 234.764 986.969 236.156L987.449 236.16C987.457 234.938 988.273 233.937 989.138 232.877C990.03 231.783 990.955 230.651 990.923 229.23L990.442 229.241C990.471 230.484 989.643 231.501 988.766 232.573Z" fill="#584F55"/>
<path d="M1080.54 215.776L1081.02 215.802C1081.17 213.14 1081.25 211.334 1080.98 210.508C1080.4 208.769 1079.37 204.236 1079.36 204.191L1078.89 204.296C1078.94 204.485 1079.94 208.898 1080.52 210.66C1080.79 211.461 1080.66 213.654 1080.54 215.776Z" fill="#584F55"/>
<path d="M1073.71 234.147L1072.35 233.898L1072.26 234.372L1073.63 234.619L1073.71 234.147Z" fill="#584F55"/>
<path d="M1025.87 204.833L1025.88 204.834V204.824L1025.87 204.833Z" fill="#584F55"/>
<path d="M1027.89 202.347L1027.67 201.92C1027.36 202.077 1026.88 202.866 1026.49 203.608C1026.56 202.203 1026.57 200.589 1026.39 200.211L1025.96 200.421C1026.09 200.684 1026.13 201.742 1025.88 203.923C1025.85 204.185 1025.86 204.505 1025.88 204.824C1025.91 204.758 1025.95 204.807 1025.99 204.888L1025.88 204.835C1025.9 205.348 1025.95 205.904 1026.02 206.54C1026.2 208.061 1026.41 209.786 1026.13 211.478C1025.66 214.245 1025.93 216.404 1026.19 218.492L1026.24 218.866C1026.27 219.096 1026.28 219.364 1026.29 219.642C1026.36 219.374 1026.43 219.108 1026.48 218.836C1026.44 220.096 1026.53 221.349 1026.69 222.594C1026.79 221.274 1026.84 219.8 1026.71 218.806L1026.67 218.432C1026.41 216.377 1026.15 214.254 1026.6 211.555C1026.89 209.795 1026.67 207.959 1026.5 206.483C1026.44 205.983 1026.4 205.54 1026.37 205.125C1026.38 205.042 1026.39 204.94 1026.4 204.847C1026.95 203.705 1027.64 202.47 1027.89 202.347Z" fill="#584F55"/>
</svg>
