<svg width="1789" height="1152" viewBox="0 0 1789 1152" fill="none" xmlns="http://www.w3.org/2000/svg">
<path d="M828.681 34.7812C817.911 40.5113 811.261 47.0313 811.891 59.8413L811.711 59.5312C811.671 59.4646 811.614 59.4479 811.541 59.4813C811.461 59.5146 811.381 59.5513 811.301 59.5913C811.234 59.6246 811.194 59.6046 811.181 59.5312C810.394 55.2046 810.274 52.4013 810.821 51.1213C811.691 49.0813 811.831 46.8213 812.991 45.0713C816.581 39.7013 821.911 35.3712 828.681 34.7812Z" fill="#A3783C"/>
<path d="M1033.13 91.7865C1043.48 99.0065 1052.63 107.47 1060.59 117.177C1063.47 120.687 1064.72 125.456 1066.83 130.226C1067.67 132.126 1066.71 135.537 1064.02 134.997C1061.11 134.417 1058.56 133.187 1056.38 131.306C1049.82 125.646 1043.8 120.707 1038.52 113.677C1038.5 112.757 1039 112.173 1040.02 111.927C1044.74 116.656 1048.46 122.007 1053.72 126.086C1054.01 126.312 1054.35 126.453 1054.72 126.494C1055.08 126.534 1055.46 126.473 1055.79 126.317C1059.37 124.597 1053.47 117.836 1051.81 115.986C1047.45 111.116 1044.51 105.116 1039.02 100.486C1033.73 96.0332 1027.81 91.4732 1021.26 86.8065C1021.18 86.7506 1021.12 86.6768 1021.08 86.5914C1021.03 86.506 1021.01 86.4116 1021.02 86.3163C1021.02 86.2209 1021.04 86.1274 1021.09 86.0439C1021.13 85.9603 1021.2 85.8892 1021.28 85.8365L1021.66 85.5865C1022.13 85.2732 1022.61 85.2632 1023.1 85.5565L1033.13 91.7865Z" fill="#FFD69D"/>
<path d="M1030.71 186.732C1033.63 189.302 1037.88 191.982 1039.87 195.342C1041.64 198.335 1043.52 201.052 1045.49 203.492C1045.61 203.647 1045.77 203.768 1045.96 203.846C1046.14 203.923 1046.34 203.953 1046.54 203.935C1046.73 203.916 1046.92 203.848 1047.09 203.738C1047.26 203.627 1047.39 203.478 1047.49 203.302C1048.29 201.822 1048.48 200.235 1048.06 198.542C1048.02 198.406 1048.03 198.263 1048.07 198.13C1048.12 197.996 1048.2 197.879 1048.31 197.791C1048.42 197.704 1048.55 197.65 1048.69 197.636C1048.83 197.622 1048.97 197.648 1049.1 197.712C1052.67 199.542 1054.37 214.722 1054.42 218.022C1054.46 221.315 1054.59 223.725 1054.8 225.252C1053.95 227.065 1052.65 228.875 1050.88 230.682C1050.77 230.795 1050.63 230.877 1050.48 230.92C1050.33 230.964 1050.17 230.968 1050.01 230.932C1049.86 230.896 1049.72 230.821 1049.6 230.714C1049.49 230.607 1049.4 230.472 1049.35 230.322C1048.42 227.409 1047.15 224.475 1045.52 221.522C1042.97 216.872 1044.22 211.102 1042.39 207.622C1040.27 203.592 1038.55 198.862 1035.91 195.542C1034 193.142 1031.86 191.025 1029.49 189.192C1029.42 187.325 1029.83 186.505 1030.71 186.732Z" fill="#FFD69D"/>
<path d="M1056.52 189.117C1059.21 190.957 1061.49 193.207 1063.38 195.867C1064.18 196.994 1064.51 198.114 1064.38 199.227C1065.06 201.407 1065.14 202.871 1064.61 203.617C1064.28 204.077 1063.92 204.324 1063.52 204.357C1063.21 204.383 1062.91 204.305 1062.65 204.136C1062.39 203.968 1062.2 203.718 1062.1 203.427C1061.19 200.767 1060.42 198.044 1059.81 195.257C1059.52 193.971 1058.43 191.924 1056.52 189.117Z" fill="#FFC595"/>
<path d="M935.22 179.186C938.1 180.86 942.104 183.46 947.23 186.986C947.917 187.453 948.324 187.98 948.45 188.566C948.467 188.646 948.462 188.729 948.435 188.806C948.409 188.884 948.362 188.952 948.299 189.005C948.236 189.057 948.16 189.091 948.08 189.104C947.999 189.117 947.916 189.107 947.84 189.076C940.81 186.196 933.17 183.226 927.97 177.526C924.91 174.176 919.73 172.936 915.29 171.516C908.91 169.476 902.93 166.756 896.67 164.666C896.507 164.609 896.371 164.491 896.293 164.336C896.215 164.181 896.199 164.002 896.25 163.836L896.37 163.456C896.452 163.192 896.63 162.969 896.87 162.832C897.109 162.695 897.392 162.653 897.66 162.716C903.587 164.076 909.34 165.383 914.92 166.636C919.16 167.596 924.79 169.376 927.78 171.276C929.89 172.616 931.36 175.376 933.6 177.356C933.98 177.69 934.297 178.076 934.55 178.516C934.71 178.803 934.934 179.026 935.22 179.186Z" fill="#ECC448"/>
<path d="M874.421 76.6126C880.834 77.6326 887.238 79.216 893.631 81.3626C894.224 81.5693 894.764 81.8826 895.251 82.3026C895.444 82.7493 895.118 82.9626 894.271 82.9426C893.958 82.936 893.608 82.856 893.221 82.7026C888.721 80.936 884.604 79.806 880.871 79.3126C874.704 78.4926 867.951 78.3893 860.611 79.0026C859.211 79.1226 857.881 79.6626 856.491 79.9826C856.176 80.053 855.901 80.2429 855.721 80.5126C854.234 82.806 853.288 85.1326 852.881 87.4926C852.521 89.6026 853.751 91.2826 854.261 92.7926C855.488 96.446 857.011 99.9193 858.831 103.213C860.051 105.679 861.311 108.103 862.611 110.483C863.484 112.076 864.728 113.663 866.341 115.243C868.894 117.736 871.314 120.519 873.601 123.593L879.041 130.483C879.164 130.64 879.33 130.758 879.519 130.823C879.708 130.889 879.912 130.898 880.106 130.851C880.3 130.803 880.476 130.701 880.614 130.556C880.751 130.411 880.844 130.229 880.881 130.033C881.151 128.603 880.971 127.423 881.541 126.073C883.941 120.443 885.311 114.843 888.861 109.283C891.891 104.533 895.691 98.2126 899.981 93.2126C900.068 93.2993 900.174 93.356 900.301 93.3826C900.508 93.416 900.614 93.5393 900.621 93.7526C900.628 93.8526 900.631 93.9526 900.631 94.0526C900.624 94.246 900.558 94.416 900.431 94.5626C899.098 96.1426 898.054 97.896 897.301 99.8226C897.181 100.143 896.998 100.419 896.751 100.653C894.938 102.353 893.801 104.396 893.341 106.783C891.834 107.883 890.481 109.296 889.281 111.023C889.173 111.18 889.102 111.36 889.074 111.548C889.046 111.737 889.061 111.929 889.119 112.11C889.177 112.291 889.276 112.456 889.408 112.591C889.541 112.727 889.702 112.83 889.881 112.893C892.691 113.873 906.741 112.043 905.871 118.183C905.814 118.602 905.601 118.985 905.275 119.256C904.949 119.526 904.534 119.664 904.111 119.643C899.911 119.429 895.541 119.316 891.001 119.303C887.081 119.293 885.531 120.103 884.031 123.893C882.991 126.523 881.971 128.543 881.771 131.503C881.498 135.576 880.828 139.596 879.761 143.563C879.628 144.036 879.934 144.093 880.681 143.733C881.014 147.299 880.698 150.653 879.731 153.793C879.518 154.473 879.104 154.989 878.491 155.343C877.638 155.829 876.548 156.109 875.221 156.183C871.561 153.316 868.221 150.096 865.201 146.523C861.341 141.963 857.254 137.609 852.941 133.463C851.191 131.773 851.171 129.583 849.991 128.263C847.271 125.229 844.761 122.003 842.461 118.583C847.028 123.449 850.068 126.646 851.581 128.173C851.734 128.326 851.928 128.403 852.161 128.403C852.454 128.396 852.701 128.499 852.901 128.713C853.934 129.779 854.771 130.969 855.411 132.283C855.438 132.336 855.481 132.366 855.541 132.373C855.628 132.379 855.714 132.379 855.801 132.373C855.874 132.366 855.931 132.393 855.971 132.453C856.918 133.806 858.008 135.019 859.241 136.093C862.321 138.783 864.041 141.993 867.331 144.473C867.578 144.659 867.761 144.896 867.881 145.183C868.048 145.596 868.348 145.989 868.781 146.363C870.574 147.889 872.168 149.796 873.561 152.083C874.041 152.873 874.761 153.223 875.481 153.693C875.888 153.959 876.104 153.849 876.131 153.363L876.371 149.033L878.281 139.033C880.551 135.203 879.851 132.923 876.711 129.803C873.284 126.409 870.191 122.746 867.431 118.813C864.391 114.493 860.421 111.243 857.921 106.113C855.788 101.713 853.741 97.276 851.781 92.8026C850.881 90.736 850.518 88.876 850.691 87.2226C850.958 84.736 851.771 82.5393 853.131 80.6326C856.131 76.4326 869.611 76.3426 874.421 76.6126Z" fill="#93743A"/>
<path d="M1004.47 127.877C1013.96 134.524 1023.2 141.587 1032.19 149.067C1033 149.747 1033.83 150.411 1034.67 151.057C1044.64 158.784 1054.08 167.114 1062.98 176.047C1064.28 177.361 1066.51 179.954 1069.66 183.827C1071.45 186.027 1073.71 188.604 1076.44 191.557C1077.09 192.264 1078.35 194.011 1080.2 196.797C1082.08 199.627 1085.23 202.447 1087.99 204.657C1090.79 206.887 1091.62 209.147 1093.06 211.887C1095.12 215.797 1098.57 219.487 1101.26 223.007C1101.59 223.574 1101.88 224.121 1102.14 224.647C1102.8 225.957 1102.72 228.057 1102.92 229.537C1102.96 229.851 1103.06 230.147 1103.21 230.427C1104.1 231.977 1104.14 233.947 1104.64 235.287C1106.01 238.961 1107.38 242.631 1108.77 246.297C1109.28 247.644 1109.63 249.161 1109.82 250.847C1110.41 255.947 1112.83 260.487 1105.63 261.927C1100.83 262.887 1096.77 264.207 1091.88 262.867C1087.84 261.777 1084.93 260.957 1080.62 260.847C1077.33 260.761 1075.17 260.437 1074.13 259.877C1071.76 258.607 1067.58 258.727 1064.61 258.577C1064.25 258.564 1063.99 258.717 1063.83 259.037C1063.62 259.457 1063.75 260.001 1064.22 260.667C1061.55 259.167 1058.87 257.844 1056.16 256.697C1051.79 254.847 1047.25 252.077 1043.87 250.887C1041.42 250.027 1037.44 249.937 1034.28 248.517C1033.24 248.051 1032.21 247.714 1031.18 247.507C1031.09 247.489 1031.01 247.447 1030.94 247.385C1030.88 247.323 1030.83 247.244 1030.81 247.157C1030.78 247.07 1030.79 246.978 1030.81 246.894C1030.84 246.809 1030.89 246.734 1030.96 246.677C1032.8 245.124 1034.88 244.001 1037.2 243.307C1037.53 243.214 1037.85 243.217 1038.18 243.317C1041.36 244.317 1044.34 246.227 1047.19 247.167C1056.32 250.187 1063.76 252.314 1069.51 253.547C1072.32 254.154 1075.91 254.217 1080.27 253.737C1083.62 253.504 1086.69 252.604 1089.48 251.037C1095.65 247.567 1093.83 240.587 1092.76 234.967C1092.26 232.347 1090.79 230.087 1089.83 227.527C1088.87 224.961 1086.36 220.717 1082.31 214.797C1080.26 211.817 1077.78 209.927 1074.94 207.807C1074.66 207.6 1074.46 207.308 1074.37 206.977C1073.97 205.504 1073.13 204.367 1071.85 203.567C1071.55 203.374 1071.22 203.307 1070.87 203.367C1068.45 203.747 1067.96 202.857 1066.72 200.797C1066.17 199.871 1065.39 199.347 1064.38 199.227C1064.51 198.114 1064.18 196.994 1063.38 195.867C1061.49 193.207 1059.21 190.957 1056.52 189.117C1056.15 187.884 1055.46 186.867 1054.47 186.067C1054.22 185.867 1054.05 185.617 1053.95 185.317C1053.68 184.557 1053.42 184.034 1053.15 183.747C1048.34 178.627 1043.26 173.784 1037.89 169.217C1031.3 162.357 1022.19 156.257 1016.35 151.727C1007.07 144.541 997.52 137.727 987.7 131.287C988.8 131.147 988.67 130.687 987.31 129.907C987.037 129.747 986.933 129.514 987 129.207C987.173 128.427 987.59 128.054 988.25 128.087C989.523 128.147 990.793 128.157 992.06 128.117C992.667 128.097 993.017 127.787 993.11 127.187C993.137 127.054 993.27 126.917 993.51 126.777C993.694 126.678 993.902 126.632 994.112 126.642C994.322 126.653 994.525 126.72 994.7 126.837C996.547 128.057 998.54 128.811 1000.68 129.097C1001.03 129.144 1001.34 129.067 1001.63 128.867C1002.32 128.381 1003.27 128.051 1004.47 127.877Z" fill="#95DFB8"/>
<path d="M1065.75 269.969C1063.22 271.609 1060.42 272.219 1057.35 271.799C1055.52 271.099 1052.28 270.123 1047.63 268.869C1041.07 267.099 1034.27 262.809 1028.12 260.129C1024.75 258.663 1021.45 257.043 1018.22 255.269C1017.63 254.949 1017.33 254.599 1017.32 254.219C1017.31 253.699 1017.71 253.253 1018.52 252.879C1020.66 251.559 1022.73 251.429 1024.74 252.489C1027.6 253.996 1030.12 254.963 1032.29 255.389C1036.29 256.176 1040.12 257.489 1043.77 259.329C1046.32 260.609 1048.91 261.779 1051.55 262.839C1056.6 264.869 1060.89 267.679 1065.75 269.969Z" fill="#95DFB8"/>
<path d="M858.83 103.211C859.577 103.624 860.15 104.284 860.55 105.191C860.68 105.482 860.905 105.722 861.19 105.871C861.977 106.304 862.717 106.778 863.41 107.291C863.97 107.701 864.47 107.761 865.09 107.561C865.403 107.468 865.713 107.471 866.02 107.571C867.83 108.141 869.86 108.021 871.39 109.131C871.617 109.298 871.873 109.398 872.16 109.431C875.39 109.791 873.92 115.681 873.06 117.391C872.913 117.684 872.863 117.994 872.91 118.321L873.6 123.591C871.313 120.518 868.893 117.734 866.34 115.241C864.727 113.661 863.483 112.074 862.61 110.481C861.31 108.101 860.05 105.678 858.83 103.211Z" fill="#B3C16F"/>
<path d="M1101.26 223.008C1107.42 228.968 1110.54 238.348 1112.25 246.418C1113.38 251.808 1118.58 263.808 1111.21 266.638C1107.82 267.944 1104.36 269.071 1100.84 270.018C1096.77 271.118 1094.07 269.398 1090.94 268.748C1082.81 267.048 1074.86 264.701 1067.09 261.708C1066.04 261.301 1065.09 260.954 1064.22 260.668C1063.75 260.001 1063.62 259.458 1063.83 259.038C1063.99 258.718 1064.25 258.564 1064.61 258.578C1067.58 258.728 1071.76 258.608 1074.13 259.878C1075.17 260.438 1077.33 260.761 1080.62 260.848C1084.93 260.958 1087.84 261.778 1091.88 262.868C1096.77 264.208 1100.83 262.888 1105.63 261.928C1112.83 260.488 1110.41 255.948 1109.82 250.848C1109.63 249.161 1109.28 247.644 1108.77 246.298C1107.38 242.631 1106.01 238.961 1104.64 235.288C1104.14 233.948 1104.1 231.978 1103.21 230.428C1103.06 230.148 1102.96 229.851 1102.92 229.538C1102.72 228.058 1102.8 225.958 1102.14 224.648C1101.88 224.121 1101.59 223.574 1101.26 223.008Z" fill="#C4DF7B"/>
<path d="M901.579 68.4609C908.229 71.9309 916.219 75.1209 921.949 77.8009C931.639 82.3409 941.919 86.2109 951.129 91.5509C956.216 94.4976 959.583 96.5009 961.229 97.5609C970.869 103.751 982.159 112.051 993.079 119.641C996.913 122.301 1000.71 125.048 1004.47 127.881C1003.27 128.054 1002.32 128.384 1001.63 128.871C1001.34 129.071 1001.03 129.148 1000.68 129.101C998.539 128.814 996.546 128.061 994.699 126.841C994.524 126.724 994.321 126.656 994.111 126.646C993.902 126.635 993.693 126.682 993.509 126.781C993.269 126.921 993.136 127.058 993.109 127.191C993.016 127.791 992.666 128.101 992.059 128.121C990.793 128.161 989.523 128.151 988.249 128.091C987.589 128.058 987.173 128.431 986.999 129.211C986.933 129.518 987.036 129.751 987.309 129.911C988.669 130.691 988.799 131.151 987.699 131.291C975.833 123.564 963.606 116.431 951.019 109.891C950.743 109.746 950.5 109.538 950.309 109.281C949.459 108.151 948.249 108.391 947.579 107.581C947.213 107.134 947.006 106.891 946.959 106.851C939.593 101.291 933.519 97.4743 928.739 95.4009C922.266 92.6076 915.813 89.7709 909.379 86.8909C906.899 85.7809 903.239 84.6609 900.299 83.0609C900.226 83.0219 900.143 83.003 900.06 83.0063C899.977 83.0096 899.896 83.0349 899.826 83.0796C899.756 83.1244 899.699 83.187 899.661 83.261C899.623 83.335 899.605 83.4178 899.609 83.5009C899.616 83.5943 899.619 83.6843 899.619 83.7709C899.619 83.8861 899.65 83.999 899.708 84.0976C899.766 84.1961 899.849 84.2768 899.949 84.3309C902.123 85.5443 905.386 87.0176 909.739 88.7509C911.306 89.3776 914.286 90.8009 918.679 93.0209C921.709 94.5609 924.899 95.2109 928.009 96.9609C931.216 98.7676 934.446 100.531 937.699 102.251C938.933 102.904 940.003 103.758 940.909 104.811C941.309 105.284 941.509 105.584 941.509 105.711C941.509 106.538 941.109 106.781 940.309 106.441L905.759 91.8609C905.595 91.7927 905.449 91.6866 905.333 91.5512C905.216 91.4158 905.133 91.2547 905.089 91.0809C904.743 89.7543 903.756 88.9176 902.129 88.5709C899.376 87.4709 897.359 85.5909 896.079 82.9309C895.973 82.7043 895.696 82.4943 895.249 82.3009C894.763 81.8809 894.223 81.5676 893.629 81.3609C887.236 79.2143 880.833 77.6309 874.419 76.6109C873.553 76.1309 872.613 75.9743 871.599 76.1409C871.493 76.1609 871.429 76.1176 871.409 76.0109C871.389 75.9043 871.429 75.8409 871.529 75.8209C873.169 75.4909 875.819 76.5509 876.979 75.3009C877.186 75.0743 877.443 74.9476 877.749 74.9209C881.579 74.5309 884.819 75.7609 888.259 75.9609C889.773 76.0476 891.286 76.1509 892.799 76.2709C894.609 76.4109 896.589 77.3509 898.469 77.2409C898.699 77.2289 898.922 77.1591 899.118 77.038C899.314 76.9168 899.477 76.7482 899.591 76.5474C899.705 76.3466 899.768 76.1201 899.773 75.8884C899.778 75.6567 899.725 75.4273 899.619 75.2209L898.459 72.9509C898.299 72.6376 898.079 72.3709 897.799 72.1509L894.619 69.6609C896.113 69.8943 897.613 69.8343 899.119 69.4809C899.453 69.4009 899.763 69.4476 900.049 69.6209C900.503 69.8943 900.993 70.0376 901.519 70.0509C901.591 70.0521 901.66 70.0315 901.72 69.9919C901.779 69.9522 901.825 69.8955 901.851 69.8291C901.877 69.7628 901.882 69.6901 901.866 69.6207C901.849 69.5514 901.812 69.4886 901.759 69.4409C901.319 69.0676 901.259 68.7409 901.579 68.4609Z" fill="#C4DDA9"/>
<path d="M1006.27 236.696L1006.4 239.936C1006.42 240.303 1006.25 240.536 1005.9 240.636C1005.7 240.696 1005.5 240.696 1005.31 240.636C1005.04 240.556 1004.8 240.329 1004.58 239.956C1002.65 236.756 1001.46 233.276 999.79 229.866C998.69 227.296 996.68 225.116 995.58 222.936C992.83 217.516 991.3 214.396 985.58 209.666C981.39 206.196 973.96 200.976 971.72 196.016C971.006 194.443 971.44 194.006 973.02 194.706C984.433 199.779 993.52 207.693 1000.28 218.446C1000.74 219.186 1001.21 220.596 1001.7 222.676C1002.02 224.043 1002.52 225.426 1003.19 226.826C1004.7 229.946 1005.72 233.236 1006.27 236.696Z" fill="#F6C357"/>
<path d="M961.129 156.079C963.739 156.889 975.199 161.779 974.329 166.109C974.265 166.426 974.131 166.724 973.936 166.983C973.742 167.242 973.493 167.455 973.206 167.606C972.919 167.757 972.602 167.843 972.278 167.857C971.953 167.871 971.629 167.814 971.329 167.689C967.123 165.929 963.126 163.666 959.339 160.899C956.319 158.699 957.649 154.989 961.129 156.079Z" fill="#C9944A"/>
<path d="M962.481 232.527C958.961 229.38 956.601 226.713 955.401 224.527C953.654 221.347 951.777 219.15 949.771 217.937C944.997 215.03 940.327 211.97 935.761 208.757C934.574 207.917 933.997 206.723 934.031 205.177C934.038 204.916 934.098 204.66 934.208 204.424C934.319 204.188 934.476 203.978 934.671 203.805C934.866 203.632 935.095 203.502 935.342 203.421C935.59 203.341 935.851 203.312 936.111 203.337C943.377 204.03 949.581 206.78 954.721 211.587C957.971 214.627 961.351 219.537 964.491 223.537C968.441 228.557 973.681 231.637 973.311 238.987C973.271 239.76 973.051 240.38 972.651 240.847C972.493 241.033 972.295 241.18 972.072 241.28C971.85 241.379 971.608 241.427 971.364 241.42C971.12 241.414 970.881 241.352 970.664 241.241C970.447 241.13 970.258 240.971 970.111 240.777C967.851 237.797 965.307 235.047 962.481 232.527Z" fill="#C9944A"/>
<path d="M1015.88 70.75C1022.89 73.88 1029.12 75.72 1035.58 81.26C1040.04 85.09 1045.15 87.55 1049.19 91.49C1053.52 95.7167 1057.43 100.31 1060.9 105.27C1061.53 106.177 1063.31 107.803 1066.24 110.15C1066.58 110.43 1066.78 110.353 1066.85 109.92L1067.02 108.72C1069.67 114.027 1072.19 119.397 1074.6 124.83C1076.96 130.16 1078.54 135.93 1079.13 141.25C1079.32 142.96 1079.84 144.53 1079.77 145.94C1079.62 149.153 1079.52 152.313 1079.49 155.42C1079.55 155.36 1079.61 155.297 1079.68 155.23L1070.32 143.13C1070.15 142.905 1069.91 142.736 1069.64 142.646C1069.36 142.555 1069.07 142.546 1068.79 142.62C1067.3 143.013 1066.94 143.99 1067.69 145.55C1068.8 147.837 1070.19 150.033 1071.84 152.14C1070.67 151.08 1069.5 150.633 1068.32 150.8L1044.21 130.04C1043.12 129.307 1042.56 128.447 1042.55 127.46C1042.54 127.113 1042.41 126.83 1042.15 126.61C1041.43 126.003 1041 125.55 1040.86 125.25C1037.91 119.06 1032.6 115.98 1028.61 111.02C1028.48 110.857 1028.38 110.669 1028.33 110.468C1028.28 110.267 1028.27 110.056 1028.3 109.85C1028.33 109.644 1028.4 109.447 1028.52 109.271C1028.63 109.096 1028.78 108.945 1028.95 108.83C1031.47 107.15 1035.86 111.11 1038.52 113.68C1043.8 120.71 1049.82 125.65 1056.38 131.31C1058.56 133.19 1061.11 134.42 1064.02 135C1066.71 135.54 1067.67 132.13 1066.83 130.23C1064.72 125.46 1063.47 120.69 1060.59 117.18C1052.63 107.473 1043.48 99.01 1033.13 91.79L1034.01 91.61C1034.1 91.5907 1034.19 91.5505 1034.26 91.4925C1034.34 91.4345 1034.4 91.3602 1034.44 91.2753C1034.48 91.1904 1034.5 91.0971 1034.5 91.0026C1034.5 90.9081 1034.48 90.8148 1034.44 90.73C1032.62 86.99 1028.66 85 1025.06 83.4C1024.86 83.315 1024.68 83.173 1024.55 82.99C1023.21 81.07 1022.24 78.9867 1021.64 76.74C1021.55 76.3933 1021.35 76.1167 1021.05 75.91C1020.38 75.45 1020.11 74.81 1020.25 73.99C1020.29 73.7167 1020.18 73.55 1019.91 73.49C1019.74 73.45 1019.57 73.42 1019.4 73.4C1019.09 73.3667 1018.81 73.25 1018.58 73.05L1015.88 70.75Z" fill="#E29650"/>
<path d="M1029.49 189.188C1031.86 191.021 1034 193.138 1035.91 195.538C1038.55 198.858 1040.27 203.588 1042.39 207.618C1044.22 211.098 1042.97 216.868 1045.52 221.518C1047.15 224.471 1048.42 227.405 1049.35 230.318C1049.4 230.468 1049.49 230.603 1049.6 230.71C1049.72 230.817 1049.86 230.892 1050.01 230.928C1050.17 230.964 1050.33 230.96 1050.48 230.916C1050.63 230.873 1050.77 230.791 1050.88 230.678C1052.65 228.871 1053.95 227.061 1054.8 225.248C1059.88 219.068 1064.41 212.525 1068.38 205.618C1068.45 205.497 1068.56 205.407 1068.69 205.366C1068.82 205.326 1068.97 205.337 1069.09 205.398C1069.16 205.438 1069.23 205.495 1069.28 205.568C1069.35 205.668 1069.38 205.798 1069.37 205.958C1069.34 206.458 1069.27 207.005 1069.14 207.598C1067.33 211.048 1064.69 214.358 1062.85 217.338C1059.59 222.618 1055.78 228.378 1051.13 232.528C1047.65 235.648 1044.83 238.758 1040.54 240.858C1040.24 240.565 1040.06 240.261 1039.99 239.948C1042.28 236.638 1041.75 235.098 1041.29 231.318C1040.71 226.538 1036.99 223.098 1037.54 218.498C1038.48 210.688 1031.48 202.328 1026.17 195.188C1025.22 192.748 1022.26 190.558 1025.63 188.158C1025.77 188.063 1025.93 188.002 1026.09 187.983C1026.26 187.964 1026.43 187.986 1026.58 188.048L1029.49 189.188Z" fill="#E29650"/>
<path d="M1037.89 169.219C1043.26 173.785 1048.34 178.629 1053.15 183.749C1053.42 184.035 1053.68 184.559 1053.95 185.319C1054.05 185.619 1054.22 185.869 1054.47 186.069C1055.46 186.869 1056.15 187.885 1056.52 189.119C1058.43 191.925 1059.52 193.972 1059.81 195.259C1060.42 198.045 1061.19 200.769 1062.1 203.429C1062.2 203.72 1062.39 203.969 1062.65 204.138C1062.91 204.306 1063.21 204.384 1063.52 204.359C1063.92 204.325 1064.28 204.079 1064.61 203.619C1065.14 202.872 1065.06 201.409 1064.38 199.229C1065.39 199.349 1066.17 199.872 1066.72 200.799C1067.96 202.859 1068.45 203.749 1070.87 203.369C1071.22 203.309 1071.55 203.375 1071.85 203.569C1073.13 204.369 1073.97 205.505 1074.37 206.979C1074.46 207.309 1074.66 207.602 1074.94 207.809C1077.78 209.929 1080.26 211.819 1082.31 214.799C1086.36 220.719 1088.87 224.962 1089.83 227.529C1090.79 230.089 1092.26 232.349 1092.76 234.969C1093.83 240.589 1095.65 247.569 1089.48 251.039C1086.69 252.605 1083.62 253.505 1080.27 253.739C1080.28 253.525 1080.33 253.325 1080.44 253.139C1080.59 252.879 1080.51 252.769 1080.22 252.809C1079.11 252.942 1078.1 252.839 1077.17 252.499C1080.56 252.385 1083.82 251.799 1086.96 250.739C1089.84 249.759 1092.43 244.449 1092.3 241.489C1091.98 233.489 1089.44 229.499 1085.28 223.299C1083.47 220.612 1081.69 217.909 1079.92 215.189C1078.25 212.639 1076.11 210.439 1074.15 208.009C1073.93 207.735 1073.79 207.405 1073.75 207.059C1073.6 205.812 1072.97 204.929 1071.84 204.409C1071.56 204.275 1071.3 204.315 1071.07 204.529C1070.22 205.335 1069.57 206.359 1069.14 207.599C1069.27 207.005 1069.34 206.459 1069.37 205.959C1069.38 205.799 1069.35 205.669 1069.28 205.569C1069.23 205.495 1069.16 205.439 1069.09 205.399C1068.97 205.338 1068.82 205.326 1068.69 205.367C1068.56 205.408 1068.45 205.498 1068.38 205.619C1064.41 212.525 1059.88 219.069 1054.8 225.249C1054.59 223.722 1054.46 221.312 1054.42 218.019C1054.37 214.719 1052.67 199.539 1049.1 197.709C1048.97 197.645 1048.83 197.618 1048.69 197.632C1048.55 197.646 1048.42 197.7 1048.31 197.788C1048.2 197.876 1048.12 197.993 1048.07 198.126C1048.03 198.259 1048.02 198.403 1048.06 198.539C1048.48 200.232 1048.29 201.819 1047.49 203.299C1047.39 203.474 1047.26 203.624 1047.09 203.734C1046.92 203.845 1046.73 203.912 1046.54 203.931C1046.34 203.95 1046.14 203.919 1045.96 203.842C1045.77 203.765 1045.61 203.644 1045.49 203.489C1043.52 201.049 1041.64 198.332 1039.87 195.339C1037.88 191.979 1033.63 189.299 1030.71 186.729L1029.5 185.509C1031.78 186.859 1032.91 185.289 1034.72 184.149C1034.87 184.053 1034.98 183.917 1035.05 183.758C1035.12 183.598 1035.15 183.421 1035.12 183.249C1034.97 182.382 1034.49 181.355 1033.66 180.169C1035.78 181.975 1037.69 183.872 1039.39 185.859C1040.05 186.639 1040.8 186.972 1041.65 186.859C1041.72 186.848 1041.79 186.819 1041.85 186.773C1041.91 186.727 1041.95 186.667 1041.98 186.597C1042.01 186.528 1042.02 186.452 1042.01 186.377C1042 186.302 1041.97 186.23 1041.93 186.169C1038.36 181.342 1034.08 176.915 1029.11 172.889C1030.04 173.115 1030.9 173.615 1031.7 174.389C1031.83 174.512 1031.99 174.591 1032.17 174.616C1032.34 174.641 1032.52 174.611 1032.68 174.529C1033.61 174.042 1034.33 173.362 1034.86 172.489C1035.04 172.189 1035.3 171.995 1035.63 171.909C1036.03 171.795 1036.28 171.552 1036.37 171.179C1036.41 171 1036.52 170.844 1036.67 170.737C1036.82 170.631 1037 170.582 1037.18 170.599C1037.3 170.612 1037.42 170.619 1037.54 170.619C1037.69 170.612 1037.78 170.532 1037.79 170.379L1037.89 169.219Z" fill="#F39E60"/>
<path d="M1079.68 155.23L1079.79 157.89C1079.8 158.014 1079.77 158.138 1079.7 158.245C1079.64 158.351 1079.55 158.437 1079.43 158.49C1079.32 158.544 1079.19 158.563 1079.07 158.545C1078.94 158.527 1078.83 158.473 1078.73 158.39L1071.84 152.14C1070.19 150.033 1068.8 147.837 1067.69 145.55C1066.94 143.99 1067.3 143.013 1068.79 142.62C1069.07 142.546 1069.36 142.555 1069.64 142.646C1069.91 142.736 1070.15 142.905 1070.32 143.13L1079.68 155.23Z" fill="#F6E29A"/>
<path d="M987.7 131.293C997.52 137.733 1007.07 144.546 1016.35 151.733C1022.19 156.263 1031.3 162.363 1037.89 169.223L1037.79 170.383C1037.78 170.536 1037.69 170.616 1037.54 170.623C1037.42 170.623 1037.3 170.616 1037.18 170.603C1037 170.586 1036.82 170.635 1036.67 170.742C1036.52 170.848 1036.41 171.004 1036.37 171.183C1036.28 171.556 1036.03 171.8 1035.63 171.913C1035.3 172 1035.04 172.193 1034.86 172.493C1034.33 173.366 1033.61 174.046 1032.68 174.533C1032.52 174.615 1032.34 174.645 1032.17 174.62C1031.99 174.595 1031.83 174.516 1031.7 174.393C1030.9 173.62 1030.04 173.12 1029.11 172.893C1026.19 169.546 1022.74 166.573 1018.77 163.973C1017.67 163.253 1017.03 161.686 1016.86 159.273C1016.83 158.943 1016.7 158.632 1016.47 158.393C1011.36 153.073 1003.08 148.573 997.37 145.073C994.07 143.063 990.92 140.213 987.44 138.003C987.293 137.91 987.157 137.926 987.03 138.053L986.81 138.273C986.759 138.324 986.719 138.386 986.693 138.454C986.667 138.522 986.655 138.594 986.659 138.667C986.663 138.739 986.682 138.81 986.715 138.875C986.747 138.94 986.793 138.997 986.85 139.043C990.356 141.889 993.69 144.85 996.85 147.923C998.156 149.196 998.36 150.23 997.46 151.023C997.254 151.201 997.002 151.317 996.732 151.356C996.463 151.395 996.188 151.356 995.94 151.243C991.8 149.31 987.976 147.09 984.47 144.583C980.16 141.493 975.14 135.353 969.41 132.603C962.33 129.203 953.637 126.073 943.33 123.213C941.957 122.833 940.926 122.47 940.24 122.123C936.75 120.383 936.58 116.573 933.16 114.633C926.14 110.643 920.05 111.273 913.34 108.673C909.98 107.366 907.683 106.62 906.45 106.433C901.74 105.723 898.03 106.453 893.34 106.783C893.8 104.396 894.936 102.353 896.75 100.653C896.996 100.42 897.18 100.143 897.3 99.8228C898.053 97.8962 899.096 96.1428 900.43 94.5628C900.556 94.4162 900.623 94.2462 900.63 94.0528C900.63 93.9528 900.626 93.8528 900.62 93.7528C900.613 93.5395 900.506 93.4162 900.3 93.3828C900.173 93.3562 900.066 93.2995 899.98 93.2128C900.353 92.6062 900.893 92.0862 901.6 91.6528C901.741 91.5656 901.85 91.4356 901.912 91.2825C901.973 91.1293 901.983 90.961 901.94 90.8028C901.546 89.3962 901.61 88.6528 902.13 88.5728C903.756 88.9195 904.743 89.7562 905.09 91.0828C905.133 91.2566 905.217 91.4177 905.333 91.5531C905.449 91.6885 905.596 91.7946 905.76 91.8628L940.31 106.443C941.11 106.783 941.51 106.54 941.51 105.713C941.51 105.586 941.31 105.286 940.91 104.813C940.003 103.76 938.933 102.906 937.7 102.253C934.446 100.533 931.216 98.7695 928.01 96.9628C924.9 95.2128 921.71 94.5628 918.68 93.0228C914.286 90.8028 911.306 89.3795 909.74 88.7528C905.386 87.0195 902.123 85.5462 899.95 84.3328C899.85 84.2787 899.767 84.198 899.708 84.0995C899.65 84.0009 899.62 83.888 899.62 83.7728C899.62 83.6862 899.616 83.5962 899.61 83.5028C899.605 83.4197 899.623 83.3369 899.661 83.2629C899.699 83.1889 899.756 83.1263 899.826 83.0815C899.897 83.0368 899.977 83.0115 900.061 83.0082C900.144 83.0049 900.226 83.0238 900.3 83.0628C903.24 84.6628 906.9 85.7828 909.38 86.8928C915.813 89.7728 922.266 92.6095 928.74 95.4028C933.52 97.4762 939.593 101.293 946.96 106.853C947.007 106.893 947.213 107.136 947.58 107.583C948.25 108.393 949.46 108.153 950.31 109.283C950.501 109.54 950.743 109.748 951.02 109.893C963.607 116.433 975.833 123.566 987.7 131.293Z" fill="#D38746"/>
<path d="M915.64 125.68C913.373 124.96 911.163 124.1 909.01 123.1C908.21 122.733 907.996 122.063 908.369 121.09C908.531 120.674 908.823 120.323 909.202 120.088C909.581 119.854 910.026 119.749 910.469 119.79C915.899 120.29 920.039 121.8 925.159 123.65C926.759 124.223 928.616 124.713 930.729 125.12C939.039 126.7 945.339 131.16 953.659 133.4C958.219 134.63 967.419 138.51 968.809 143.65C968.883 143.927 968.894 144.216 968.84 144.498C968.787 144.779 968.671 145.045 968.501 145.275C968.331 145.506 968.111 145.695 967.858 145.829C967.606 145.963 967.326 146.039 967.039 146.05C965.713 146.103 964.449 145.9 963.249 145.44C959.709 144.087 956.28 142.657 952.96 141.15C952.827 141.092 952.684 141.061 952.54 141.06C952.396 141.059 952.253 141.087 952.121 141.144C951.988 141.2 951.869 141.283 951.771 141.387C951.673 141.491 951.597 141.615 951.549 141.75L950.729 143.99C950.68 144.125 950.602 144.249 950.502 144.352C950.401 144.456 950.281 144.538 950.147 144.592C950.014 144.647 949.87 144.673 949.726 144.669C949.582 144.665 949.44 144.632 949.309 144.57C948.009 143.95 946.459 143.85 945.229 143.34C936.449 139.74 927.169 134.86 917.489 134.31C910.996 133.937 904.499 133.917 897.999 134.25C895.233 134.39 893.309 133.257 892.229 130.85C892.085 130.528 892.03 130.172 892.073 129.822C892.115 129.471 892.252 129.138 892.469 128.86C897.169 122.84 909.139 127.1 915.319 127.68C915.659 127.707 915.946 127.593 916.179 127.34C916.426 127.073 916.483 126.747 916.349 126.36C916.223 126.013 915.986 125.787 915.64 125.68Z" fill="#D38746"/>
<path d="M1033.66 180.17C1034.49 181.356 1034.97 182.383 1035.12 183.25C1035.15 183.422 1035.12 183.599 1035.05 183.759C1034.98 183.918 1034.87 184.054 1034.72 184.15C1032.91 185.29 1031.78 186.86 1029.5 185.51C1028.3 184.2 1027.28 182.91 1025.81 181.86C1018.53 176.68 1011.68 172.77 1005.89 168.1C1002.39 165.26 995.879 163.56 991.099 161.71C987.729 160.41 970.559 151.59 973.599 146.69C973.779 146.403 974.039 146.246 974.379 146.22C976.373 146.053 978.086 146.406 979.519 147.28C985.266 150.773 990.996 153.573 996.709 155.68C1002.76 157.9 1008.76 160.1 1013.79 163.35C1021.21 168.143 1027.83 173.75 1033.66 180.17Z" fill="#C9944A"/>
<path d="M1022.21 202.53C1024.61 205.757 1025.84 208.037 1025.91 209.37C1026.05 212.38 1026.3 214.76 1027.43 217.74C1028.58 220.78 1032.91 231.56 1027.56 232.57C1027.23 232.63 1026.93 232.564 1026.66 232.37C1025.92 231.83 1025.38 231.117 1025.05 230.23C1022.48 223.377 1019.17 216.884 1015.12 210.75C1013.2 207.33 1011.82 204.02 1008.94 201.27C1001.63 194.277 994.074 187.56 986.281 181.12C983.931 179.17 977.791 173.9 979.141 171C979.951 169.24 981.871 169.4 983.311 170.2C990.621 174.27 996.951 179.67 1004.09 184.07C1009.3 187.28 1013.12 191.75 1017.44 195.96C1019.45 197.92 1020.57 200.25 1022.21 202.53Z" fill="#C9944A"/>
<path d="M1010.49 214.623C1010.8 214.49 1011.15 214.85 1011.54 215.703C1013.97 221.003 1016.78 226.093 1019.95 230.973C1021.28 233.02 1022.11 235.686 1022.44 238.973C1022.56 240.193 1021.86 241.463 1021.49 242.613C1020.74 244.923 1021.27 247.353 1020.51 249.873L1020 250.253C1020.92 247.093 1020.35 244.293 1021.15 241.063C1022.85 234.163 1017.43 230.253 1014.32 225.063C1012.88 222.663 1011.66 219.753 1009.28 218.163C1008.96 217.948 1008.57 217.864 1008.19 217.929C1007.8 217.994 1007.46 218.203 1007.23 218.513C1005.06 221.403 1004.42 223.833 1005.71 227.493C1007.24 231.853 1009.15 236.593 1007.7 241.243C1007.67 241.33 1007.61 241.373 1007.52 241.373C1007.43 241.373 1007.33 241.373 1007.24 241.373C1007.01 241.373 1006.9 241.26 1006.92 241.033C1007.06 239.493 1006.84 238.05 1006.27 236.703C1005.72 233.243 1004.7 229.953 1003.19 226.833C1002.52 225.433 1002.02 224.05 1001.7 222.683C1001.21 220.603 1000.74 219.193 1000.28 218.453C993.521 207.7 984.434 199.786 973.021 194.713C971.441 194.013 971.007 194.45 971.721 196.023C973.961 200.983 981.391 206.203 985.581 209.673C991.301 214.403 992.831 217.523 995.581 222.943C996.681 225.123 998.691 227.303 999.791 229.873L999.651 231.433C999.645 231.511 999.615 231.586 999.565 231.646C999.515 231.707 999.448 231.75 999.373 231.771C999.297 231.792 999.217 231.789 999.143 231.762C999.07 231.736 999.006 231.687 998.961 231.623C998.067 230.35 997.137 230.27 996.171 231.383C994.011 233.863 991.201 235.383 988.881 237.623C988.201 238.283 986.751 238.723 986.521 240.093C986.467 240.386 986.531 240.656 986.711 240.903L991.481 247.293C991.607 247.46 991.671 247.675 991.664 247.909C991.657 248.144 991.579 248.386 991.441 248.603C991.421 248.636 991.347 248.683 991.221 248.743C991.034 248.816 990.864 248.793 990.711 248.673L990.221 248.303L984.481 240.253C983.501 239.44 983.087 238.606 983.241 237.753C983.447 236.6 983.664 235.43 983.891 234.243C984.441 231.263 977.331 226.113 975.031 224.763C970.621 222.163 971.291 218.293 968.151 215.183C961.921 209.033 954.451 206.763 947.441 201.913C943.601 199.263 939.111 197.213 934.611 195.493C931.111 194.16 928.751 193.066 927.531 192.213C923.101 189.143 919.191 183.413 914.261 181.923C910.971 180.933 903.471 179.683 901.721 177.533C898.287 173.306 893.957 171.536 888.731 172.223C886.041 172.583 884.351 173.873 883.381 176.323C882.201 179.333 880.551 182.943 881.121 186.223C881.135 186.312 881.174 186.395 881.233 186.463C881.293 186.53 881.37 186.58 881.456 186.607C881.543 186.634 881.636 186.637 881.725 186.615C881.814 186.593 881.896 186.547 881.961 186.483C885.141 183.273 890.211 179.363 894.941 181.113C900.631 183.213 907.731 185.613 911.121 190.573C912.247 192.226 911.881 193.363 910.021 193.983C909.353 194.201 908.626 194.151 907.991 193.843C903.021 191.393 899.031 189.003 893.261 190.143C893.093 190.176 892.938 190.254 892.811 190.369C892.685 190.483 892.592 190.63 892.542 190.794C892.493 190.957 892.489 191.131 892.531 191.297C892.573 191.462 892.659 191.613 892.781 191.733C893.294 192.233 893.337 192.73 892.911 193.223C892.691 193.483 892.291 193.69 891.711 193.843C888.491 194.693 884.451 197.843 886.341 201.753C887.374 203.88 888.441 206.166 889.541 208.613C889.578 208.692 889.638 208.757 889.713 208.8C889.788 208.844 889.875 208.864 889.961 208.857C890.048 208.851 890.13 208.818 890.198 208.764C890.266 208.71 890.316 208.636 890.341 208.553L890.601 207.683C890.743 207.191 890.715 206.662 890.521 206.183C889.291 203.163 889.881 199.653 892.891 198.033C898.201 195.183 907.941 202.723 912.181 206.043C913.441 207.023 914.761 207.423 916.241 207.373C922.941 207.143 925.591 210.993 929.961 215.023C931.161 216.136 933.724 217.443 937.651 218.943C941.411 220.383 944.951 224.723 948.271 227.163C950.564 228.843 952.441 230.37 953.901 231.743C958.711 236.253 969.581 243.303 970.121 250.403L966.871 253.103C966.637 253.296 966.494 253.546 966.441 253.853C966.181 255.553 966.451 257.176 967.251 258.723C967.411 259.03 967.654 259.243 967.981 259.363C969.407 259.876 971.011 260.1 972.791 260.033C970.524 260.186 968.804 260.65 967.631 261.423C960.791 260.033 955.221 259.743 947.271 257.243C937.621 254.203 928.401 249.153 919.901 243.743C912.551 239.073 906.421 231.833 900.291 225.553C894.021 219.133 888.391 211.283 885.531 203.753C884.061 199.873 882.181 196.293 881.241 192.273C879.651 185.503 877.291 178.313 876.821 171.863C876.534 167.99 876.421 163.283 876.481 157.743C876.494 156.743 876.074 156.223 875.221 156.183C876.547 156.11 877.637 155.83 878.491 155.343C879.104 154.99 879.517 154.473 879.731 153.793C880.697 150.653 881.014 147.3 880.681 143.733C884.094 141.693 886.864 140.536 888.991 140.263C889.857 140.15 891.481 140.3 893.861 140.713C897.901 141.423 901.211 143.653 905.251 144.423C913.111 145.903 918.367 147.223 921.021 148.383C925.067 150.15 929.191 151.723 933.391 153.103C937.011 154.283 936.291 159.273 939.761 161.223C942.581 162.803 948.101 163.783 952.001 165.793C956.641 168.183 959.651 169.433 961.791 174.673C961.984 175.153 962.621 175.756 963.701 176.483C964.314 176.896 965.091 177.306 966.031 177.713C972.461 180.483 979.411 183.243 985.001 186.723C995.551 193.283 1006.97 203.053 1010.49 214.623ZM934.551 178.523C934.297 178.083 933.981 177.696 933.601 177.363C931.361 175.383 929.891 172.623 927.781 171.283C924.791 169.383 919.161 167.603 914.921 166.643C909.341 165.39 903.587 164.083 897.661 162.723C897.392 162.66 897.109 162.702 896.87 162.839C896.631 162.976 896.452 163.199 896.371 163.463L896.251 163.843C896.2 164.009 896.215 164.188 896.293 164.343C896.372 164.498 896.507 164.616 896.671 164.673C902.931 166.763 908.911 169.483 915.291 171.523C919.731 172.943 924.911 174.183 927.971 177.533C933.171 183.233 940.811 186.203 947.841 189.083C947.916 189.114 947.999 189.124 948.08 189.111C948.161 189.098 948.236 189.064 948.299 189.012C948.362 188.959 948.409 188.891 948.436 188.813C948.463 188.736 948.468 188.653 948.451 188.573C948.324 187.986 947.917 187.46 947.231 186.993C942.104 183.466 938.101 180.866 935.221 179.193C934.934 179.033 934.711 178.81 934.551 178.523ZM931.461 238.083C925.841 233.943 920.021 230.093 914.001 226.533C913.774 226.4 913.567 226.35 913.381 226.383C913.326 226.392 913.275 226.416 913.233 226.45C913.19 226.485 913.157 226.53 913.137 226.582C913.117 226.633 913.11 226.689 913.118 226.743C913.126 226.798 913.147 226.849 913.181 226.893C916.847 231.94 921.344 235.976 926.671 239.003C929.424 240.563 932.094 242.206 934.681 243.933C934.775 243.995 934.884 244.032 934.997 244.039C935.11 244.046 935.222 244.024 935.323 243.974C935.424 243.924 935.509 243.849 935.57 243.756C935.631 243.662 935.666 243.555 935.671 243.443C935.801 241.143 933.121 239.293 931.461 238.083Z" fill="#D38746"/>
<path d="M1002.81 60.6003C1006.52 61.4803 1010.19 62.5703 1013.82 63.8703C1020.77 66.3603 1027.1 72.1203 1033.04 76.5003C1034.09 77.2669 1035.11 78.0636 1036.12 78.8903C1037.19 79.7503 1038.25 80.4769 1039.32 81.0703C1046.57 85.1303 1051.45 87.4103 1055.8 93.2303C1059.61 98.3236 1063.35 103.487 1067.02 108.72L1066.85 109.92C1066.78 110.354 1066.58 110.43 1066.24 110.15C1063.31 107.804 1061.53 106.177 1060.9 105.27C1057.43 100.31 1053.52 95.7169 1049.19 91.4903C1045.15 87.5503 1040.04 85.0903 1035.58 81.2603C1029.12 75.7203 1022.89 73.8803 1015.88 70.7503C1011.43 67.0636 1006.43 64.1469 1000.89 62.0003C1001.02 60.5003 1001.66 60.0336 1002.81 60.6003Z" fill="#FFBF68"/>
<path d="M1002.52 54.3984L1002.65 57.2484C1002.67 57.6243 1002.82 57.9818 1003.08 58.2568C1003.34 58.5317 1003.68 58.7061 1004.06 58.7484C1007.44 59.1084 1009.99 60.3284 1013.01 61.4484C1023.34 65.2551 1032.91 70.5218 1041.72 77.2484C1050.87 83.9751 1058.42 92.0251 1064.39 101.398C1066.81 105.418 1069.48 109.388 1071.44 113.368C1075.06 120.728 1078.92 129.428 1080.27 137.538C1080.55 139.245 1080.82 140.952 1081.07 142.658C1081.88 148.098 1081.82 153.788 1081.99 159.348L1080.46 158.498C1080.17 158.338 1080.04 158.088 1080.07 157.748C1080.16 156.755 1079.96 155.978 1079.49 155.418C1079.52 152.312 1079.62 149.152 1079.77 145.938C1079.84 144.528 1079.32 142.958 1079.13 141.248C1078.54 135.928 1076.96 130.158 1074.6 124.828C1072.19 119.395 1069.67 114.025 1067.02 108.718C1063.35 103.485 1059.61 98.3218 1055.8 93.2284C1051.45 87.4084 1046.57 85.1284 1039.32 81.0684C1038.25 80.4751 1037.19 79.7484 1036.12 78.8884C1035.11 78.0618 1034.09 77.2651 1033.04 76.4984C1027.1 72.1184 1020.77 66.3584 1013.82 63.8684C1010.19 62.5684 1006.52 61.4784 1002.81 60.5984C1002.17 59.8584 1001.23 59.3251 1000 58.9984C999.814 58.9518 999.704 58.8484 999.671 58.6884C999.604 58.3951 999.718 58.2151 1000.01 58.1484C1001.53 57.8018 1002.37 56.5518 1002.52 54.3984Z" fill="#93743A"/>
<path d="M946.821 66.2536L942.191 66.4036C941.864 66.417 941.557 66.347 941.271 66.1936C939.664 65.3603 938.054 64.557 936.441 63.7836C934.181 62.7036 931.721 63.4736 929.271 62.4536C927.364 61.6536 925.497 60.7636 923.671 59.7836C921.701 58.7336 917.031 55.7236 914.921 55.8836C914.601 55.9036 914.297 55.8336 914.011 55.6736C913.197 55.2136 912.357 54.8603 911.491 54.6136C909.021 53.9136 907.421 52.5536 904.711 52.3136C904.391 52.287 904.114 52.1636 903.881 51.9436C903.294 51.3836 902.874 51.0303 902.621 50.8836C900.954 49.877 898.404 48.9336 894.971 48.0536C889.801 46.7236 883.951 44.5336 878.051 43.9036C876.171 43.7036 874.457 43.267 872.911 42.5936C868.304 40.5936 865.084 39.5536 863.251 39.4736C858.151 39.2536 853.401 38.1136 848.271 38.1036C841.821 38.1036 838.171 37.8136 833.351 40.0136C831.111 41.0436 827.851 41.9936 826.261 43.2936C825.494 43.9203 824.237 45.3536 822.491 47.5936C820.031 50.7636 818.451 56.9636 818.901 61.0436C819.161 63.4036 820.491 65.2036 821.591 67.2736C821.744 67.5536 821.831 67.8536 821.851 68.1736C821.904 68.9136 822.064 69.6303 822.331 70.3236C822.451 70.6303 822.614 70.6536 822.821 70.3936C822.921 70.267 822.951 70.1536 822.911 70.0536C822.897 70.0136 822.887 70.0136 822.881 70.0536C822.767 70.6803 822.854 71.3036 823.141 71.9236C824.154 76.6636 825.737 81.5036 827.891 86.4436C826.931 86.1436 826.494 86.827 826.581 88.4936C826.607 88.9003 826.464 89.2303 826.151 89.4836C825.631 89.917 825.084 90.007 824.511 89.7536C824.204 89.6203 823.984 89.707 823.851 90.0136C823.757 90.2336 823.631 90.337 823.471 90.3236C823.571 90.337 823.457 90.197 823.131 89.9036C821.664 87.0703 820.271 84.1236 818.951 81.0636C815.981 74.1336 812.411 68.1236 811.891 59.8436C811.261 47.0336 817.911 40.5136 828.681 34.7836C831.181 33.097 834.787 32.1403 839.501 31.9136C843.874 31.7003 848.251 31.5736 852.631 31.5336C858.531 31.4736 864.191 32.5636 869.991 33.5736C871.531 33.8436 872.481 33.5236 873.921 33.0836C874.078 33.0378 874.243 33.0312 874.402 33.0643C874.561 33.0975 874.708 33.1694 874.831 33.2736C875.257 33.627 875.384 34.0603 875.211 34.5736C875.124 34.827 874.917 35.0503 874.591 35.2436C874.251 35.4503 873.981 35.6236 873.781 35.7636C873.662 35.8477 873.568 35.9614 873.507 36.0935C873.446 36.2255 873.421 36.3712 873.434 36.5161C873.447 36.6609 873.498 36.7997 873.582 36.9186C873.665 37.0375 873.779 37.1323 873.911 37.1936C879.231 39.6136 886.091 41.0836 889.921 42.2836C895.307 43.9703 900.731 45.5303 906.191 46.9636C906.931 47.1636 908.091 47.577 909.671 48.2036C910.817 48.6636 912.004 49.007 913.231 49.2336C913.557 49.2936 913.857 49.4236 914.131 49.6236C915.221 50.4136 916.631 50.5936 917.581 51.0236C921.341 52.7136 924.891 55.5736 928.991 57.0136C929.551 57.2036 930.531 58.2936 931.261 58.6936C936.361 61.4536 941.547 63.9736 946.821 66.2536Z" fill="#95DFB8"/>
<path d="M894.621 69.6589L897.801 72.1489C898.081 72.3689 898.301 72.6356 898.461 72.9489L899.621 75.2189C899.726 75.4253 899.779 75.6547 899.774 75.8864C899.769 76.1181 899.707 76.3446 899.592 76.5454C899.478 76.7462 899.316 76.9148 899.12 77.0359C898.924 77.1571 898.701 77.2269 898.471 77.2389C896.591 77.3489 894.611 76.4089 892.801 76.2689C891.287 76.1489 889.774 76.0456 888.261 75.9589C884.821 75.7589 881.581 74.5289 877.751 74.9189C877.444 74.9456 877.187 75.0723 876.981 75.2989C875.821 76.5489 873.171 75.4889 871.531 75.8189C871.431 75.8389 871.391 75.9023 871.411 76.0089C871.431 76.1156 871.494 76.1589 871.601 76.1389C872.614 75.9723 873.554 76.1289 874.421 76.6089C869.611 76.3389 856.131 76.4289 853.131 80.6289C851.771 82.5356 850.957 84.7323 850.691 87.2189C850.517 88.8723 850.881 90.7323 851.781 92.7989C853.741 97.2723 855.787 101.709 857.921 106.109C860.421 111.239 864.391 114.489 867.431 118.809C870.191 122.742 873.284 126.406 876.711 129.799C879.851 132.919 880.551 135.199 878.281 139.029C875.371 135.269 871.881 132.189 868.851 128.589C864.761 123.739 860.101 119.969 856.851 114.399C855.831 112.639 854.431 111.139 853.571 109.419C852.791 107.852 852.057 106.266 851.371 104.659C849.631 100.559 847.151 96.8589 845.761 92.4589C844.321 87.8723 843.594 85.5623 843.581 85.5289C842.014 81.1956 840.904 77.9389 840.251 75.7589C838.921 71.3189 841.431 64.4789 843.501 60.5389C845.571 56.6089 850.101 58.1389 853.421 58.6189C860.711 59.6689 867.571 62.6289 874.791 63.8589C881.541 65.0189 888.151 67.5389 894.621 69.6589Z" fill="#95DFB8"/>
<path d="M1082.03 164.238C1094.49 176.778 1102.28 184.981 1105.4 188.848C1113.58 198.988 1121.23 209.504 1128.36 220.397C1132.5 226.727 1135.72 233.318 1139 240.128C1142.38 247.141 1143.89 255.104 1143.54 264.017C1143.39 267.617 1143.25 269.368 1140.92 272.247C1136.93 277.177 1131.94 280.438 1125.67 281.628C1122.61 282.208 1119.55 283.468 1116.2 282.918C1116.79 282.664 1117.32 282.274 1117.81 281.747C1118.02 281.521 1118.16 281.261 1118.23 280.967C1118.54 279.781 1119.03 278.951 1119.69 278.478C1124.88 274.798 1127.07 270.557 1127.81 264.237C1127.84 263.924 1128.08 263.434 1128.53 262.767C1128.72 262.501 1128.82 262.208 1128.83 261.888C1128.99 258.278 1129.56 254.557 1128.97 251.137C1128.22 246.727 1126 244.137 1123.91 240.777C1123.43 239.987 1122.72 237.837 1122.71 236.867C1122.66 233.867 1121.39 231.538 1118.89 229.878C1118.62 229.695 1118.4 229.437 1118.28 229.137C1117.54 227.357 1116.94 226.147 1116.49 225.507C1114.66 222.914 1111.13 218.268 1105.91 211.568C1104.65 209.938 1103.78 208.007 1102.48 206.257C1100.51 203.611 1098.55 200.951 1096.61 198.277C1095.64 196.951 1094.24 195.324 1092.41 193.397C1090.42 191.324 1089.16 189.564 1088.63 188.117C1086.46 182.287 1083.02 178.757 1079.59 174.227C1078.95 173.387 1077.83 173.078 1077.2 172.408C1075.39 170.461 1073.62 168.481 1071.88 166.467C1071.12 165.587 1070.55 164.594 1070.17 163.488C1070.1 163.281 1070.09 163.114 1070.14 162.988C1070.25 162.688 1070.43 162.654 1070.66 162.887C1071.15 163.381 1071.68 163.541 1072.24 163.367C1073.41 163.007 1074.46 163.041 1075.39 163.467C1075.6 163.561 1075.8 163.558 1076.01 163.458C1076.18 163.364 1076.36 163.371 1076.55 163.477C1076.72 163.584 1076.84 163.647 1076.89 163.667C1078.91 164.374 1080.91 165.151 1082.88 165.997C1083.15 166.117 1083.21 166.054 1083.04 165.807L1082.03 164.238Z" fill="#95DFB8"/>
<path d="M984.479 240.25L990.219 248.3C990.313 249.64 989.646 250.247 988.219 250.12C988.007 250.102 987.794 250.138 987.6 250.226C987.406 250.314 987.239 250.45 987.114 250.622C986.989 250.793 986.911 250.994 986.887 251.204C986.864 251.414 986.895 251.626 986.979 251.82L990.349 259.6C984.529 260.4 978.676 260.543 972.789 260.03C971.009 260.097 969.406 259.873 967.979 259.36C967.653 259.24 967.409 259.027 967.249 258.72C966.449 257.173 966.179 255.55 966.439 253.85C966.493 253.543 966.636 253.293 966.869 253.1L970.119 250.4C972.233 248.96 974.526 247.683 976.999 246.57C979.019 245.663 981.513 243.557 984.479 240.25Z" fill="#FFD69D"/>
<path d="M1068.32 150.8C1069.5 150.633 1070.67 151.08 1071.84 152.14L1078.73 158.39C1078.83 158.473 1078.94 158.527 1079.07 158.545C1079.19 158.563 1079.32 158.544 1079.43 158.49C1079.55 158.437 1079.64 158.351 1079.7 158.244C1079.77 158.137 1079.8 158.014 1079.79 157.89L1079.68 155.23C1079.61 155.296 1079.55 155.36 1079.49 155.42C1079.96 155.98 1080.16 156.756 1080.07 157.75C1080.04 158.09 1080.17 158.34 1080.46 158.5L1081.99 159.35C1082.44 160.443 1083.02 161.336 1083.71 162.03C1092.61 170.85 1098.17 176.63 1100.38 179.37C1102.91 182.496 1105.5 185.566 1108.16 188.58C1115.15 196.5 1120.83 204.23 1126.66 212.54C1132.67 221.086 1137.97 230.79 1142.56 241.65C1143.93 244.903 1144.84 247.54 1145.27 249.56C1146.82 258.03 1146.52 265.79 1142.29 273.32C1138.86 278.106 1134.33 281.3 1128.7 282.9C1126.18 283.62 1122.74 283.79 1119.75 284.5C1117.4 285.066 1114.04 284.89 1109.66 283.97C1104.52 282.89 1099.44 283.49 1094.22 282.52C1088.49 281.47 1082.65 280.83 1077.19 279.25C1068.56 276.743 1059.99 274.053 1051.5 271.18C1043.8 268.8 1033.34 263.78 1025.89 260.12C1023.42 258.9 1020.33 257.82 1017.73 256.33C1014.08 254.23 1011.88 255.65 1008.26 257.11C1005.75 258.13 1001.11 259.046 994.351 259.86C991.961 260.15 989.681 261.25 987.121 261.59C980.674 262.45 974.178 262.393 967.631 261.42C968.804 260.646 970.524 260.183 972.791 260.03C978.677 260.543 984.531 260.4 990.351 259.6C991.924 259.246 993.651 258.943 995.531 258.69C1002.46 257.73 1009.54 255.43 1016.22 253.35C1017.19 253.05 1017.71 252.42 1018.46 251.79C1018.26 252.19 1018.28 252.553 1018.52 252.88C1017.71 253.253 1017.31 253.7 1017.32 254.22C1017.33 254.6 1017.63 254.95 1018.22 255.27C1021.45 257.043 1024.75 258.663 1028.12 260.13C1034.27 262.81 1041.07 267.1 1047.63 268.87C1052.28 270.123 1055.52 271.1 1057.35 271.8C1063.13 273.166 1068.8 274.796 1074.37 276.69C1080.92 278.91 1088.62 280.94 1094 281.36C1099.24 281.77 1104.39 282.9 1109.45 282.87C1111.71 282.856 1113.96 282.873 1116.2 282.92C1119.55 283.47 1122.61 282.21 1125.67 281.63C1131.94 280.44 1136.93 277.18 1140.92 272.25C1143.25 269.37 1143.39 267.62 1143.54 264.02C1143.89 255.106 1142.38 247.143 1139 240.13C1135.72 233.32 1132.5 226.73 1128.36 220.4C1121.23 209.506 1113.58 198.99 1105.4 188.85C1102.28 184.983 1094.49 176.78 1082.03 164.24L1068.32 150.8Z" fill="#B3C16F"/>
<path d="M946.821 66.2486L981.931 87.2186C998.264 97.3919 1010.81 105.792 1019.56 112.419C1024.29 115.999 1028.31 118.749 1032.91 122.499C1036.44 125.365 1040.2 127.879 1044.21 130.039L1068.32 150.799L1082.03 164.239L1083.04 165.809C1083.21 166.055 1083.15 166.119 1082.88 165.999C1080.91 165.152 1078.91 164.375 1076.89 163.669C1076.84 163.649 1076.72 163.585 1076.55 163.479C1076.36 163.372 1076.18 163.365 1076.01 163.459C1075.8 163.559 1075.6 163.562 1075.39 163.469C1074.46 163.042 1073.41 163.009 1072.24 163.369C1071.68 163.542 1071.15 163.382 1070.66 162.889C1070.43 162.655 1070.25 162.689 1070.14 162.989C1070.09 163.115 1070.1 163.282 1070.17 163.489C1070.55 164.595 1071.12 165.589 1071.88 166.469C1073.62 168.482 1075.39 170.462 1077.2 172.409C1077.83 173.079 1078.95 173.389 1079.59 174.229C1083.02 178.759 1086.46 182.289 1088.63 188.119C1089.16 189.565 1090.42 191.325 1092.41 193.399C1094.24 195.325 1095.64 196.952 1096.61 198.279C1098.55 200.952 1100.51 203.612 1102.48 206.259C1103.78 208.009 1104.65 209.939 1105.91 211.569C1111.13 218.269 1114.66 222.915 1116.49 225.509C1116.94 226.149 1117.54 227.359 1118.28 229.139C1118.4 229.438 1118.62 229.696 1118.89 229.879C1121.39 231.539 1122.66 233.869 1122.71 236.869C1122.72 237.839 1123.43 239.989 1123.91 240.779C1126 244.139 1128.22 246.729 1128.97 251.139C1129.56 254.559 1128.99 258.279 1128.83 261.889C1128.82 262.209 1128.72 262.502 1128.53 262.769C1128.08 263.435 1127.84 263.925 1127.81 264.239C1127.07 270.559 1124.88 274.799 1119.69 278.479C1119.03 278.952 1118.54 279.782 1118.23 280.969C1118.16 281.262 1118.02 281.522 1117.81 281.749C1117.32 282.275 1116.79 282.665 1116.2 282.919C1113.96 282.872 1111.71 282.855 1109.45 282.869C1104.39 282.899 1099.24 281.769 1094 281.359C1088.62 280.939 1080.92 278.909 1074.37 276.689C1068.8 274.795 1063.13 273.165 1057.35 271.799C1060.42 272.219 1063.22 271.609 1065.75 269.969C1075.37 273.509 1081.73 274.669 1092.52 276.119C1096.67 276.685 1100.16 276.725 1102.99 276.239C1107.9 275.405 1112.55 273.745 1116.94 271.259C1122.81 267.939 1121.96 258.069 1120.92 252.469C1119.52 244.969 1118.48 237.889 1114.87 230.509C1111.73 224.059 1106.47 217.989 1101.97 211.859C1101.94 211.812 1100.3 209.282 1097.05 204.269C1094.78 200.755 1092.03 197.645 1088.8 194.939C1085.54 192.209 1083.73 188.939 1080.99 185.839C1077.64 182.045 1075.64 179.739 1074.98 178.919C1071.73 174.869 1068.47 170.539 1064.51 167.149C1055.96 159.819 1047.63 151.979 1038.97 145.219C1028.86 137.329 1018.84 129.359 1008.53 121.759C1000.46 115.829 992.451 109.499 984.101 103.989C972.791 96.5286 963.291 89.1586 951.911 83.1986C946.217 80.2119 942.227 78.2552 939.941 77.3286C930.551 73.4986 921.471 69.0786 912.071 65.2786C906.251 62.9286 900.431 59.4086 894.761 57.4586C882.427 53.2252 868.251 49.1586 852.231 45.2586C847.761 44.1686 842.131 46.0286 837.021 47.3486C831.801 48.6986 826.641 51.5686 824.581 56.6386C823.011 60.5286 823.481 67.1786 823.141 71.9186C822.854 71.2986 822.767 70.6752 822.881 70.0486C822.887 70.0086 822.897 70.0086 822.911 70.0486C822.951 70.1486 822.921 70.2619 822.821 70.3886C822.614 70.6486 822.451 70.6252 822.331 70.3186C822.064 69.6252 821.904 68.9086 821.851 68.1686C821.831 67.8486 821.744 67.5486 821.591 67.2686C820.491 65.1986 819.161 63.3986 818.901 61.0386C818.451 56.9586 820.031 50.7586 822.491 47.5886C824.237 45.3486 825.494 43.9152 826.261 43.2886C827.851 41.9886 831.111 41.0386 833.351 40.0086C838.171 37.8086 841.821 38.0986 848.271 38.0986C853.401 38.1086 858.151 39.2486 863.251 39.4686C865.084 39.5486 868.304 40.5886 872.911 42.5886C874.457 43.2619 876.171 43.6986 878.051 43.8986C883.951 44.5286 889.801 46.7186 894.971 48.0486C898.404 48.9286 900.954 49.8719 902.621 50.8786C902.874 51.0252 903.294 51.3786 903.881 51.9386C904.114 52.1586 904.391 52.2819 904.711 52.3086C907.421 52.5486 909.021 53.9086 911.491 54.6086C912.357 54.8552 913.197 55.2086 914.011 55.6686C914.297 55.8286 914.601 55.8986 914.921 55.8786C917.031 55.7186 921.701 58.7286 923.671 59.7786C925.497 60.7586 927.364 61.6486 929.271 62.4486C931.721 63.4686 934.181 62.6986 936.441 63.7786C938.054 64.5519 939.664 65.3552 941.271 66.1886C941.557 66.3419 941.864 66.4119 942.191 66.3986L946.821 66.2486Z" fill="#C4DF7B"/>
<path d="M901.58 68.4606C901.26 68.7406 901.32 69.0673 901.76 69.4406C901.813 69.4883 901.85 69.551 901.866 69.6204C901.883 69.6898 901.877 69.7625 901.851 69.8288C901.825 69.8951 901.779 69.9519 901.72 69.9915C901.661 70.0312 901.591 70.0518 901.52 70.0506C900.993 70.0373 900.503 69.8939 900.05 69.6206C899.763 69.4473 899.453 69.4006 899.12 69.4806C897.613 69.8339 896.113 69.8939 894.62 69.6606C888.15 67.5406 881.54 65.0206 874.79 63.8606C867.57 62.6306 860.71 59.6706 853.42 58.6206C850.1 58.1406 845.57 56.6106 843.5 60.5406C841.43 64.4806 838.92 71.3206 840.25 75.7606C840.903 77.9406 842.013 81.1973 843.58 85.5306C843.593 85.5639 844.32 87.8739 845.76 92.4606C847.15 96.8606 849.63 100.561 851.37 104.661C852.056 106.267 852.79 107.854 853.57 109.421C854.43 111.141 855.83 112.641 856.85 114.401C860.1 119.971 864.76 123.741 868.85 128.591C871.88 132.191 875.37 135.271 878.28 139.031L876.37 149.031C874.05 147.384 872.1 145.514 870.52 143.421C870 142.734 869.383 142.161 868.67 141.701C867.603 141.007 866.95 140.447 866.71 140.021C865.26 137.451 863.23 135.621 861.65 133.311C860.983 132.344 860.293 131.397 859.58 130.471C858.82 129.481 857.56 127.171 856.14 125.941C853.22 123.401 850.89 119.311 848.51 116.191C848.316 115.937 848.2 115.654 848.16 115.341C848.093 114.861 847.856 114.491 847.45 114.231C847.163 114.044 846.966 113.787 846.86 113.461C846.54 112.501 846.01 111.687 845.27 111.021C845.043 110.821 844.87 110.581 844.75 110.301C844.25 109.174 843.726 108.067 843.18 106.981C841.58 103.834 840.003 100.674 838.45 97.5006C837.88 96.3306 838.36 95.4506 837.92 94.3206C836.83 91.5006 836.15 88.5206 834.88 85.8506C833.073 82.0639 831.866 79.1973 831.26 77.2506C830.9 76.1039 830.45 73.6039 829.91 69.7506C829.603 67.5439 829.69 65.1406 830.17 62.5406C830.57 60.3939 831.46 58.6606 832.84 57.3406C836.49 53.8306 841.54 52.6406 846.47 52.1606C848.416 51.9739 850.573 52.1373 852.94 52.6506C859.14 54.0106 865.26 55.6539 871.3 57.5806C872.56 57.9806 877.053 59.3373 884.78 61.6506C890.63 63.4006 896.35 65.5906 901.58 68.4606Z" fill="#C4DF7B"/>
<path d="M1065.75 269.968C1060.89 267.678 1056.6 264.868 1051.55 262.838C1048.91 261.778 1046.32 260.608 1043.77 259.328C1040.12 257.488 1036.29 256.175 1032.29 255.388C1030.12 254.962 1027.6 253.995 1024.74 252.488C1022.73 251.428 1020.66 251.558 1018.52 252.878C1018.28 252.552 1018.26 252.188 1018.46 251.788L1020 250.248L1020.51 249.868C1020.84 249.702 1021.18 249.615 1021.54 249.608C1021.87 249.608 1022.19 249.545 1022.5 249.418C1028.69 246.885 1034.52 243.728 1039.99 239.948C1040.06 240.262 1040.24 240.565 1040.54 240.858C1040.17 241.738 1040.4 242.342 1041.23 242.668C1047.65 245.215 1053.27 247.262 1058.08 248.808C1064.08 250.738 1070.73 251.408 1077.17 252.498C1078.1 252.838 1079.11 252.942 1080.22 252.808C1080.51 252.768 1080.59 252.878 1080.44 253.138C1080.33 253.325 1080.28 253.525 1080.27 253.738C1075.91 254.218 1072.32 254.155 1069.51 253.548C1063.76 252.315 1056.32 250.188 1047.19 247.168C1044.34 246.228 1041.36 244.318 1038.18 243.318C1037.85 243.218 1037.53 243.215 1037.2 243.308C1034.88 244.002 1032.8 245.125 1030.96 246.678C1030.89 246.735 1030.84 246.81 1030.81 246.895C1030.79 246.979 1030.78 247.071 1030.81 247.158C1030.83 247.245 1030.88 247.324 1030.94 247.386C1031.01 247.448 1031.09 247.49 1031.18 247.508C1032.21 247.715 1033.24 248.052 1034.28 248.518C1037.44 249.938 1041.42 250.028 1043.87 250.888C1047.25 252.078 1051.79 254.848 1056.16 256.698C1058.87 257.845 1061.55 259.168 1064.22 260.668C1065.09 260.955 1066.04 261.302 1067.09 261.708C1074.86 264.702 1082.81 267.048 1090.94 268.748C1094.07 269.398 1096.77 271.118 1100.84 270.018C1104.36 269.072 1107.82 267.945 1111.21 266.638C1118.58 263.808 1113.38 251.808 1112.25 246.418C1110.54 238.348 1107.42 228.968 1101.26 223.008C1098.57 219.488 1095.12 215.798 1093.06 211.888C1091.62 209.148 1090.79 206.888 1087.99 204.658C1085.23 202.448 1082.08 199.628 1080.2 196.798C1078.35 194.012 1077.09 192.265 1076.44 191.558C1073.71 188.605 1071.45 186.028 1069.66 183.828C1066.51 179.955 1064.28 177.362 1062.98 176.048C1054.08 167.115 1044.64 158.785 1034.67 151.058C1033.83 150.412 1033 149.748 1032.19 149.068C1023.2 141.588 1013.96 134.525 1004.47 127.878C1000.71 125.045 996.914 122.298 993.081 119.638C982.161 112.048 970.871 103.748 961.231 97.5584C959.584 96.4984 956.217 94.4951 951.131 91.5484C941.921 86.2084 931.641 82.3384 921.951 77.7984C916.221 75.1184 908.231 71.9284 901.581 68.4584C896.351 65.5884 890.631 63.3984 884.781 61.6484C877.054 59.3351 872.561 57.9784 871.301 57.5784C865.261 55.6518 859.141 54.0084 852.941 52.6484C850.574 52.1351 848.417 51.9718 846.471 52.1584C841.541 52.6384 836.491 53.8284 832.841 57.3384C831.461 58.6584 830.571 60.3918 830.171 62.5384C829.691 65.1384 829.604 67.5418 829.911 69.7484C830.451 73.6018 830.901 76.1018 831.261 77.2484C831.867 79.1951 833.074 82.0618 834.881 85.8484C836.151 88.5184 836.831 91.4984 837.921 94.3184C838.361 95.4484 837.881 96.3284 838.451 97.4984C840.004 100.672 841.581 103.832 843.181 106.978C843.727 108.065 844.251 109.172 844.751 110.298C844.871 110.578 845.044 110.818 845.271 111.018C846.011 111.685 846.541 112.498 846.861 113.458C846.967 113.785 847.164 114.042 847.451 114.228C847.857 114.488 848.094 114.858 848.161 115.338C848.201 115.652 848.317 115.935 848.511 116.188C850.891 119.308 853.221 123.398 856.141 125.938C857.561 127.168 858.821 129.478 859.581 130.468C860.294 131.395 860.984 132.342 861.651 133.308C863.231 135.618 865.261 137.448 866.711 140.018C866.951 140.445 867.604 141.005 868.671 141.698C869.384 142.158 870.001 142.732 870.521 143.418C872.101 145.512 874.051 147.382 876.371 149.028L876.131 153.358C876.104 153.845 875.887 153.955 875.481 153.688C874.761 153.218 874.041 152.868 873.561 152.078C872.167 149.792 870.574 147.885 868.781 146.358C868.347 145.985 868.047 145.592 867.881 145.178C867.761 144.892 867.577 144.655 867.331 144.468C864.041 141.988 862.321 138.778 859.241 136.088C858.007 135.015 856.917 133.802 855.971 132.448C855.931 132.388 855.874 132.362 855.801 132.368C855.714 132.375 855.627 132.375 855.541 132.368C855.481 132.362 855.437 132.332 855.411 132.278C854.771 130.965 853.934 129.775 852.901 128.708C852.701 128.495 852.454 128.392 852.161 128.398C851.927 128.398 851.734 128.322 851.581 128.168C850.067 126.642 847.027 123.445 842.461 118.578C840.147 116.072 838.541 113.225 837.641 110.038C836.994 107.752 836.511 106.292 836.191 105.658C835.617 104.525 834.851 103.175 833.891 101.608C833.431 100.868 832.644 99.2218 831.531 96.6684C831.011 95.4584 831.331 93.9784 830.001 92.9084C829.754 92.7138 829.579 92.4507 829.501 92.1584L827.891 86.4384C825.737 81.4984 824.154 76.6584 823.141 71.9184C823.481 67.1784 823.011 60.5284 824.581 56.6384C826.641 51.5684 831.801 48.6984 837.021 47.3484C842.131 46.0284 847.761 44.1684 852.231 45.2584C868.251 49.1584 882.427 53.2251 894.761 57.4584C900.431 59.4084 906.251 62.9284 912.071 65.2784C921.471 69.0784 930.551 73.4984 939.941 77.3284C942.227 78.2551 946.217 80.2118 951.911 83.1984C963.291 89.1584 972.791 96.5284 984.101 103.988C992.451 109.498 1000.46 115.828 1008.53 121.758C1018.84 129.358 1028.86 137.328 1038.97 145.218C1047.63 151.978 1055.96 159.818 1064.51 167.148C1068.47 170.538 1071.73 174.868 1074.98 178.918C1075.64 179.738 1077.64 182.045 1080.99 185.838C1083.73 188.938 1085.54 192.208 1088.8 194.938C1092.03 197.645 1094.78 200.755 1097.05 204.268C1100.3 209.282 1101.94 211.812 1101.97 211.858C1106.47 217.988 1111.73 224.058 1114.87 230.508C1118.48 237.888 1119.52 244.968 1120.92 252.468C1121.96 258.068 1122.81 267.938 1116.94 271.258C1112.55 273.745 1107.9 275.405 1102.99 276.238C1100.16 276.725 1096.67 276.685 1092.52 276.118C1081.73 274.668 1075.37 273.508 1065.75 269.968Z" fill="#79BD96"/>
<path d="M1040.02 111.928C1039 112.175 1038.5 112.758 1038.52 113.678C1035.86 111.108 1031.47 107.148 1028.95 108.828C1028.78 108.943 1028.63 109.093 1028.51 109.269C1028.4 109.445 1028.33 109.642 1028.3 109.848C1028.26 110.054 1028.28 110.264 1028.33 110.466C1028.38 110.667 1028.48 110.855 1028.61 111.018C1032.6 115.978 1037.91 119.058 1040.86 125.248C1041 125.548 1041.43 126.001 1042.15 126.608C1042.41 126.828 1042.54 127.111 1042.55 127.458C1042.56 128.445 1043.12 129.305 1044.21 130.038C1040.2 127.878 1036.44 125.365 1032.91 122.498C1028.31 118.748 1024.29 115.998 1019.56 112.418C1010.81 105.791 998.262 97.3912 981.929 87.2179C982.579 87.2079 983.319 87.5679 983.869 87.2779C984.196 87.1045 984.289 86.8179 984.149 86.4179C984.106 86.2965 984.092 86.1665 984.11 86.0388C984.127 85.9112 984.175 85.7896 984.25 85.6846C984.325 85.5795 984.423 85.494 984.538 85.4354C984.653 85.3768 984.78 85.3467 984.909 85.3479C986.559 85.3479 987.719 85.5379 989.199 86.4779C991.899 88.1879 993.719 89.1479 996.939 89.6679C997.096 89.6946 997.257 89.6809 997.408 89.6282C997.558 89.5755 997.693 89.4854 997.799 89.3664C997.905 89.2474 997.979 89.1035 998.014 88.948C998.049 88.7926 998.044 88.6308 997.999 88.4779C997.209 85.8179 993.309 82.8679 991.069 81.4179C985.019 77.4979 976.319 75.3679 967.899 73.7379C964.112 73.0112 960.936 72.0479 958.369 70.8479C954.556 69.0679 950.846 66.9679 947.239 64.5479C947.1 64.4531 946.99 64.3217 946.921 64.1682C946.853 64.0147 946.828 63.8451 946.849 63.6783C946.871 63.5115 946.939 63.3541 947.045 63.2233C947.15 63.0926 947.29 62.9938 947.449 62.9379C949.482 62.2245 951.622 61.8345 953.869 61.7679C955.042 61.7345 956.726 62.0745 958.919 62.7879C961.349 63.5679 963.889 63.6679 966.149 64.3979C977.629 68.0979 991.249 70.5079 1001.42 77.2279C1001.6 77.3457 1001.75 77.5002 1001.87 77.6814C1001.99 77.8626 1002.07 78.0665 1002.1 78.2802C1002.13 78.4938 1002.12 78.7124 1002.07 78.9221C1002.01 79.1318 1001.91 79.3279 1001.78 79.4979L1000.01 81.7179C999.723 82.0797 999.575 82.5307 999.591 82.9893C999.608 83.448 999.788 83.8838 1000.1 84.2179C1001.81 86.0445 1003.95 87.5345 1006.54 88.6879C1012.83 91.4779 1018.93 93.1879 1024.97 97.3579C1030.6 101.248 1035.41 106.868 1040.02 111.928Z" fill="#F6C357"/>
<path d="M1029.11 172.893C1034.08 176.919 1038.36 181.346 1041.93 186.173C1041.98 186.234 1042 186.306 1042.01 186.381C1042.02 186.456 1042.01 186.532 1041.98 186.601C1041.96 186.671 1041.91 186.731 1041.85 186.777C1041.79 186.823 1041.72 186.852 1041.65 186.863C1040.8 186.976 1040.05 186.643 1039.39 185.863C1037.69 183.876 1035.78 181.979 1033.66 180.173C1027.83 173.753 1021.21 168.146 1013.79 163.353C1008.76 160.103 1002.76 157.903 996.711 155.683C990.997 153.576 985.267 150.776 979.521 147.283C978.087 146.409 976.374 146.056 974.381 146.223C974.041 146.249 973.781 146.406 973.601 146.693C970.561 151.593 987.731 160.413 991.101 161.713C995.881 163.563 1002.39 165.263 1005.89 168.103C1011.68 172.773 1018.53 176.683 1025.81 181.863C1027.28 182.913 1028.3 184.203 1029.5 185.513L1030.71 186.733C1029.83 186.506 1029.42 187.326 1029.49 189.193L1026.58 188.053C1026.43 187.991 1026.26 187.969 1026.09 187.988C1025.93 188.007 1025.77 188.067 1025.63 188.163C1022.26 190.563 1025.22 192.753 1026.17 195.193C1024.68 196.826 1023.57 198.299 1022.84 199.613C1022.48 200.273 1022.27 201.246 1022.21 202.533C1020.57 200.253 1019.45 197.923 1017.44 195.963C1013.12 191.753 1009.3 187.283 1004.09 184.073C996.951 179.673 990.621 174.273 983.311 170.203C981.871 169.403 979.951 169.243 979.141 171.003C977.791 173.903 983.931 179.173 986.281 181.123C994.074 187.563 1001.63 194.279 1008.94 201.273C1011.82 204.023 1013.2 207.333 1015.12 210.753C1013.71 211.013 1012 211.133 1011.28 212.563C1011.01 213.103 1010.74 213.789 1010.49 214.623C1006.97 203.053 995.551 193.283 985.001 186.723C979.411 183.243 972.461 180.483 966.031 177.713C965.091 177.306 964.314 176.896 963.701 176.483C962.621 175.756 961.984 175.153 961.791 174.673C959.651 169.433 956.641 168.183 952.001 165.793C948.101 163.783 942.581 162.803 939.761 161.223C936.291 159.273 937.011 154.283 933.391 153.103C929.191 151.723 925.067 150.149 921.021 148.383C918.367 147.223 913.111 145.903 905.251 144.423C901.211 143.653 897.901 141.423 893.861 140.713C891.481 140.299 889.857 140.149 888.991 140.263C886.864 140.536 884.094 141.693 880.681 143.733C879.934 144.093 879.627 144.036 879.761 143.563C880.827 139.596 881.497 135.576 881.771 131.503C881.971 128.543 882.991 126.523 884.031 123.893C885.531 120.103 887.081 119.293 891.001 119.303C895.541 119.316 899.911 119.429 904.111 119.643C904.534 119.664 904.949 119.526 905.275 119.256C905.601 118.985 905.814 118.602 905.871 118.183C906.741 112.043 892.691 113.873 889.881 112.893C889.702 112.83 889.54 112.727 889.408 112.592C889.276 112.456 889.177 112.291 889.119 112.11C889.061 111.929 889.046 111.737 889.074 111.548C889.102 111.36 889.173 111.18 889.281 111.023C890.481 109.296 891.834 107.883 893.341 106.783C898.031 106.453 901.741 105.723 906.451 106.433C907.684 106.619 909.981 107.366 913.341 108.673C920.051 111.273 926.141 110.643 933.161 114.633C936.581 116.573 936.751 120.383 940.241 122.123C940.927 122.469 941.957 122.833 943.331 123.213C953.637 126.073 962.331 129.203 969.411 132.603C975.141 135.353 980.161 141.493 984.471 144.583C987.977 147.089 991.801 149.309 995.941 151.243C996.189 151.356 996.464 151.395 996.733 151.356C997.003 151.317 997.255 151.201 997.461 151.023C998.361 150.229 998.157 149.196 996.851 147.923C993.691 144.849 990.357 141.889 986.851 139.043C986.794 138.997 986.748 138.94 986.715 138.875C986.683 138.81 986.664 138.739 986.66 138.667C986.656 138.594 986.668 138.522 986.694 138.454C986.72 138.386 986.76 138.324 986.811 138.273L987.031 138.053C987.157 137.926 987.294 137.909 987.441 138.003C990.921 140.213 994.071 143.063 997.371 145.073C1003.08 148.573 1011.36 153.073 1016.47 158.393C1016.7 158.632 1016.83 158.943 1016.86 159.273C1017.03 161.686 1017.67 163.253 1018.77 163.973C1022.74 166.573 1026.19 169.546 1029.11 172.893ZM916.351 126.363C916.484 126.749 916.427 127.076 916.181 127.343C915.947 127.596 915.661 127.709 915.321 127.683C909.141 127.103 897.171 122.843 892.471 128.863C892.253 129.141 892.116 129.474 892.074 129.824C892.032 130.175 892.086 130.531 892.231 130.853C893.311 133.259 895.234 134.393 898.001 134.253C904.501 133.919 910.997 133.939 917.491 134.313C927.171 134.863 936.451 139.743 945.231 143.343C946.461 143.853 948.011 143.953 949.311 144.573C949.441 144.634 949.583 144.668 949.727 144.672C949.871 144.676 950.015 144.65 950.148 144.595C950.282 144.541 950.403 144.459 950.503 144.355C950.603 144.252 950.681 144.128 950.731 143.993L951.551 141.753C951.599 141.618 951.674 141.494 951.772 141.39C951.87 141.286 951.989 141.203 952.122 141.146C952.254 141.09 952.397 141.062 952.541 141.063C952.686 141.064 952.829 141.094 952.961 141.153C956.281 142.659 959.711 144.089 963.251 145.443C964.451 145.903 965.714 146.106 967.041 146.053C967.327 146.041 967.607 145.966 967.86 145.832C968.113 145.698 968.332 145.508 968.502 145.278C968.672 145.048 968.788 144.782 968.842 144.501C968.895 144.219 968.884 143.929 968.811 143.653C967.421 138.513 958.221 134.633 953.661 133.403C945.341 131.163 939.041 126.703 930.731 125.123C928.617 124.716 926.761 124.226 925.161 123.653C920.041 121.803 915.901 120.293 910.471 119.793C910.027 119.752 909.582 119.856 909.203 120.091C908.824 120.326 908.532 120.677 908.371 121.093C907.997 122.066 908.211 122.736 909.011 123.103C911.164 124.103 913.374 124.963 915.641 125.683C915.987 125.789 916.224 126.016 916.351 126.363ZM974.331 166.113C975.201 161.783 963.741 156.893 961.131 156.083C957.651 154.993 956.321 158.703 959.341 160.903C963.127 163.669 967.124 165.933 971.331 167.693C971.631 167.818 971.954 167.875 972.279 167.861C972.603 167.846 972.92 167.761 973.207 167.61C973.494 167.459 973.743 167.246 973.938 166.987C974.132 166.728 974.266 166.43 974.331 166.113Z" fill="#F6C357"/>
<path d="M984.48 240.252C981.513 243.559 979.02 245.665 977 246.572C974.527 247.685 972.233 248.962 970.12 250.402C969.58 243.302 958.71 236.252 953.9 231.742C952.44 230.369 950.564 228.842 948.27 227.162C944.95 224.722 941.41 220.382 937.65 218.942C933.724 217.442 931.16 216.135 929.96 215.022C925.59 210.992 922.94 207.142 916.24 207.372C914.76 207.422 913.44 207.022 912.18 206.042C907.94 202.722 898.2 195.182 892.89 198.032C889.88 199.652 889.29 203.162 890.52 206.182C890.714 206.661 890.743 207.189 890.6 207.682L890.34 208.552C890.315 208.635 890.265 208.709 890.198 208.763C890.13 208.817 890.047 208.85 889.961 208.856C889.874 208.863 889.788 208.843 889.713 208.799C889.637 208.756 889.577 208.69 889.54 208.612C888.44 206.165 887.374 203.879 886.34 201.752C884.45 197.842 888.49 194.692 891.71 193.842C892.29 193.689 892.69 193.482 892.91 193.222C893.337 192.729 893.294 192.232 892.78 191.732C892.659 191.612 892.573 191.461 892.531 191.295C892.489 191.13 892.493 190.956 892.542 190.793C892.591 190.629 892.684 190.482 892.811 190.368C892.937 190.253 893.093 190.175 893.26 190.142C899.03 189.002 903.02 191.392 907.99 193.842C908.625 194.15 909.353 194.2 910.02 193.982C911.88 193.362 912.247 192.225 911.12 190.572C907.73 185.612 900.63 183.212 894.94 181.112C890.21 179.362 885.14 183.272 881.96 186.482C881.895 186.546 881.813 186.592 881.724 186.614C881.636 186.636 881.543 186.633 881.456 186.606C881.369 186.579 881.292 186.529 881.233 186.462C881.174 186.394 881.135 186.311 881.12 186.222C880.55 182.942 882.2 179.332 883.38 176.322C884.35 173.872 886.04 172.582 888.73 172.222C893.957 171.535 898.287 173.305 901.72 177.532C903.47 179.682 910.97 180.932 914.26 181.922C919.19 183.412 923.1 189.142 927.53 192.212C928.75 193.065 931.11 194.159 934.61 195.492C939.11 197.212 943.6 199.262 947.44 201.912C954.45 206.762 961.92 209.032 968.15 215.182C971.29 218.292 970.62 222.162 975.03 224.762C977.33 226.112 984.44 231.262 983.89 234.242C983.664 235.429 983.447 236.599 983.24 237.752C983.087 238.605 983.5 239.439 984.48 240.252ZM962.48 232.532C965.307 235.052 967.85 237.802 970.11 240.782C970.258 240.976 970.447 241.135 970.664 241.246C970.881 241.358 971.12 241.419 971.363 241.426C971.607 241.432 971.849 241.384 972.072 241.285C972.295 241.186 972.492 241.038 972.65 240.852C973.05 240.385 973.27 239.765 973.31 238.992C973.68 231.642 968.44 228.562 964.49 223.542C961.35 219.542 957.97 214.632 954.72 211.592C949.58 206.785 943.377 204.035 936.11 203.342C935.851 203.317 935.589 203.346 935.342 203.427C935.094 203.507 934.866 203.638 934.671 203.81C934.476 203.983 934.318 204.194 934.208 204.43C934.098 204.666 934.037 204.922 934.03 205.182C933.997 206.729 934.573 207.922 935.76 208.762C940.327 211.975 944.997 215.035 949.77 217.942C951.777 219.155 953.654 221.352 955.4 224.532C956.6 226.719 958.96 229.385 962.48 232.532Z" fill="#F6C357"/>
<path d="M931.459 238.077C933.119 239.287 935.799 241.137 935.669 243.437C935.664 243.549 935.629 243.656 935.568 243.75C935.507 243.843 935.422 243.918 935.321 243.968C935.221 244.018 935.108 244.041 934.996 244.033C934.883 244.026 934.774 243.989 934.679 243.927C932.093 242.201 929.423 240.557 926.669 238.997C921.343 235.971 916.846 231.934 913.179 226.887C913.146 226.843 913.124 226.792 913.116 226.737C913.109 226.683 913.115 226.627 913.135 226.576C913.155 226.524 913.188 226.479 913.231 226.444C913.274 226.41 913.325 226.386 913.379 226.377C913.566 226.344 913.773 226.394 913.999 226.527C920.019 230.087 925.839 233.937 931.459 238.077Z" fill="#F6C357"/>
<path d="M895.249 82.3031C895.696 82.4964 895.973 82.7064 896.079 82.9331C897.359 85.5931 899.376 87.4731 902.129 88.5731C901.609 88.6531 901.546 89.3964 901.939 90.8031C901.982 90.9613 901.973 91.1295 901.911 91.2827C901.85 91.4359 901.741 91.5658 901.599 91.6531C900.893 92.0864 900.353 92.6064 899.979 93.213C895.689 98.2131 891.889 104.533 888.859 109.283C885.309 114.843 883.939 120.443 881.539 126.073C880.969 127.423 881.149 128.603 880.879 130.033C880.842 130.229 880.75 130.411 880.612 130.556C880.475 130.701 880.299 130.803 880.104 130.851C879.91 130.898 879.707 130.889 879.518 130.824C879.329 130.758 879.163 130.64 879.039 130.483L873.599 123.593L872.909 118.323C872.863 117.996 872.913 117.686 873.059 117.393C873.919 115.683 875.389 109.793 872.159 109.433C871.873 109.4 871.616 109.3 871.389 109.133C869.859 108.023 867.829 108.143 866.019 107.573C865.713 107.473 865.403 107.47 865.089 107.563C864.469 107.763 863.969 107.703 863.409 107.293C862.716 106.78 861.976 106.306 861.189 105.873C860.905 105.724 860.679 105.484 860.549 105.193C860.149 104.286 859.576 103.626 858.829 103.213C857.009 99.9197 855.486 96.4464 854.259 92.7931C853.749 91.2831 852.519 89.603 852.879 87.493C853.286 85.133 854.233 82.8064 855.719 80.5131C855.899 80.2433 856.175 80.0534 856.489 79.9831C857.879 79.6631 859.209 79.1231 860.609 79.0031C867.949 78.3897 874.703 78.493 880.869 79.313C884.603 79.8064 888.719 80.9364 893.219 82.703C893.606 82.8564 893.956 82.9364 894.269 82.9431C895.116 82.9631 895.443 82.7497 895.249 82.3031ZM867.129 98.633C865.936 101.086 865.989 103.193 867.289 104.953C868.309 106.343 873.469 108.933 875.209 109.283C875.549 109.356 875.869 109.31 876.169 109.143C878.809 107.693 881.919 105.253 880.959 101.753C879.339 95.833 875.519 93.8697 869.499 95.8631C868.679 96.1364 867.889 97.0597 867.129 98.633Z" fill="#E29650"/>
<path d="M1020 250.252L1018.46 251.792C1017.71 252.422 1017.19 253.052 1016.22 253.352C1009.54 255.432 1002.46 257.732 995.53 258.692C993.65 258.945 991.924 259.249 990.35 259.602L986.98 251.822C986.896 251.628 986.864 251.416 986.888 251.206C986.912 250.996 986.99 250.795 987.115 250.624C987.24 250.452 987.407 250.316 987.601 250.228C987.795 250.14 988.008 250.104 988.22 250.122C989.647 250.249 990.314 249.642 990.22 248.302L990.71 248.672C990.864 248.792 991.034 248.815 991.22 248.742C991.347 248.682 991.42 248.635 991.44 248.602C991.578 248.385 991.656 248.143 991.663 247.908C991.671 247.674 991.607 247.459 991.48 247.292L986.71 240.902C986.53 240.655 986.467 240.385 986.52 240.092C986.75 238.722 988.2 238.282 988.88 237.622C991.2 235.382 994.01 233.862 996.17 231.382C997.137 230.269 998.067 230.349 998.96 231.622C999.005 231.686 999.069 231.735 999.143 231.761C999.216 231.788 999.297 231.791 999.372 231.77C999.448 231.749 999.515 231.706 999.565 231.645C999.615 231.585 999.644 231.51 999.65 231.432L999.79 229.872C1001.46 233.282 1002.65 236.762 1004.58 239.962C1004.8 240.335 1005.04 240.562 1005.31 240.642C1005.5 240.702 1005.7 240.702 1005.9 240.642C1006.25 240.542 1006.42 240.309 1006.4 239.942L1006.27 236.702C1006.84 238.049 1007.06 239.492 1006.92 241.032C1006.9 241.259 1007.01 241.372 1007.24 241.372C1007.33 241.372 1007.43 241.372 1007.52 241.372C1007.61 241.372 1007.67 241.329 1007.7 241.242C1009.15 236.592 1007.24 231.852 1005.71 227.492C1004.42 223.832 1005.06 221.402 1007.23 218.512C1007.46 218.202 1007.8 217.993 1008.19 217.928C1008.57 217.863 1008.96 217.946 1009.28 218.162C1011.66 219.752 1012.88 222.662 1014.32 225.062C1017.43 230.252 1022.85 234.162 1021.15 241.062C1020.35 244.292 1020.92 247.092 1020 250.252Z" fill="#F39E60"/>
<path d="M1026.17 195.188C1031.48 202.327 1038.48 210.687 1037.54 218.497C1036.99 223.097 1040.71 226.538 1041.29 231.318C1041.75 235.098 1042.28 236.637 1039.99 239.947C1034.52 243.727 1028.69 246.884 1022.5 249.417C1022.19 249.544 1021.87 249.607 1021.54 249.607C1021.18 249.614 1020.84 249.701 1020.51 249.867C1021.27 247.347 1020.74 244.917 1021.49 242.607C1021.86 241.457 1022.56 240.188 1022.44 238.967C1022.11 235.681 1021.28 233.014 1019.95 230.967C1016.78 226.087 1013.97 220.997 1011.54 215.697C1011.15 214.844 1010.8 214.484 1010.49 214.617C1010.74 213.784 1011.01 213.097 1011.28 212.557C1012 211.127 1013.71 211.007 1015.12 210.747C1019.17 216.881 1022.48 223.374 1025.05 230.227C1025.38 231.114 1025.92 231.827 1026.66 232.367C1026.93 232.561 1027.23 232.628 1027.56 232.568C1032.91 231.558 1028.58 220.778 1027.43 217.738C1026.3 214.758 1026.05 212.377 1025.91 209.367C1025.84 208.034 1024.61 205.754 1022.21 202.527C1022.27 201.241 1022.48 200.267 1022.84 199.607C1023.57 198.294 1024.68 196.821 1026.17 195.188Z" fill="#FFD69D"/>
</svg>
