<svg width="1789" height="1152" viewBox="0 0 1789 1152" fill="none" xmlns="http://www.w3.org/2000/svg">
<path d="M1618.55 568.069C1667.9 518.719 1667.9 438.706 1618.55 389.355C1569.2 340.005 1489.19 340.005 1439.84 389.355C1390.49 438.705 1390.49 518.717 1439.84 568.068C1489.19 617.418 1569.2 617.419 1618.55 568.069Z" fill="#FFC727"/>
<path opacity="0.6" d="M1618.55 568.069C1667.9 518.719 1667.9 438.706 1618.55 389.355C1569.2 340.005 1489.19 340.005 1439.84 389.355C1390.49 438.705 1390.49 518.717 1439.84 568.068C1489.19 617.418 1569.2 617.419 1618.55 568.069Z" fill="white"/>
<path opacity="0.4" d="M1590.02 589.487C1528.84 623.078 1452.01 600.706 1418.43 539.526C1384.83 478.346 1407.21 401.526 1468.39 367.935C1485.46 358.562 1503.76 353.544 1521.99 352.516C1508.28 354.417 1494.67 358.805 1481.8 365.868C1425.17 396.95 1404.46 468.077 1435.56 524.703C1466.65 581.34 1537.77 602.054 1594.4 570.961C1633.42 549.54 1655.4 509.118 1655.11 467.514C1659.39 515.939 1635.37 564.595 1590.02 589.487Z" fill="#FFC727"/>
<g opacity="0.3">
<path d="M1411.61 525.053C1417.31 519.108 1429.05 508.115 1448.94 497.378C1473.03 484.36 1539.97 466.859 1570.11 448.45C1612.52 422.586 1616.09 398.124 1614.84 385.735C1602.74 374.605 1588.74 366.091 1573.67 360.438C1571.56 373.432 1562.92 414.114 1491.59 445.934C1454.78 462.319 1417.78 456.33 1405.22 454.311C1400.63 477.474 1402.49 502.001 1411.61 525.053Z" fill="white"/>
<path d="M1468.57 589.607C1505.12 609.557 1550.78 611.026 1590.01 589.491C1603.76 581.938 1615.55 572.211 1625.18 560.956C1620.04 558.508 1609.64 555.046 1601.86 553.814C1567.34 548.299 1531.36 567.51 1518.36 576.25C1497.55 590.256 1478.69 590.687 1468.57 589.607Z" fill="white"/>
<path d="M1420.62 543.356C1421.2 544.358 1421.8 545.318 1422.42 546.297C1422.96 547.188 1423.54 548.058 1424.12 548.928C1425.43 550.894 1426.78 552.819 1428.19 554.681C1429.45 556.365 1430.75 558.028 1432.08 559.619C1432.57 560.228 1433.09 560.797 1433.6 561.395C1434.18 562.062 1434.75 562.73 1435.33 563.366C1435.92 564.022 1436.52 564.679 1437.12 565.304C1437.81 566.058 1438.54 566.82 1439.28 567.552C1440 568.295 1440.74 569.026 1441.48 569.728C1442.14 570.352 1442.78 570.955 1443.42 571.559C1444.85 572.893 1446.3 574.165 1447.78 575.415L1447.81 575.424C1455.84 577.193 1466.27 575.292 1481.15 568.001C1503.29 557.187 1526.23 533.592 1569.16 514.154C1609.71 495.771 1645.07 501.263 1653.41 501.876L1653.43 501.865C1658.09 476.935 1655.3 450.487 1644.06 426.016C1635.99 426.367 1610.37 432.135 1558.88 482.157C1539.3 501.173 1521.8 514.891 1506.34 524.667C1461.16 553.192 1433.3 548.049 1421.44 543.244L1421.42 543.255C1421.15 543.275 1420.89 543.316 1420.62 543.356Z" fill="white"/>
</g>
<g opacity="0.4">
<path d="M1535.19 405.66C1537.89 410.58 1545.88 411.383 1553.04 407.455C1560.19 403.527 1563.81 396.355 1561.1 391.435C1558.4 386.516 1550.41 385.712 1543.26 389.64C1536.1 393.568 1532.49 400.741 1535.19 405.66Z" fill="#FFC727"/>
<path d="M1571.63 411.373C1573.15 414.146 1577.86 414.483 1582.16 412.126C1586.45 409.769 1588.7 405.611 1587.18 402.838C1585.65 400.065 1580.94 399.728 1576.65 402.085C1572.35 404.442 1570.11 408.6 1571.63 411.373Z" fill="#FFC727"/>
<path d="M1488.11 574.822C1490.42 579.026 1497.37 579.647 1503.63 576.21C1509.89 572.773 1513.09 566.579 1510.79 562.375C1508.48 558.171 1501.53 557.55 1495.27 560.986C1489.01 564.424 1485.81 570.618 1488.11 574.822Z" fill="#FFC727"/>
<path d="M1511.68 577.059C1512.91 579.295 1516.3 579.794 1519.25 578.174C1522.2 576.554 1523.6 573.427 1522.37 571.191C1521.14 568.955 1517.76 568.456 1514.8 570.076C1511.85 571.696 1510.45 574.822 1511.68 577.059Z" fill="#FFC727"/>
<path d="M1514.36 565.047C1515.1 566.389 1517.22 566.641 1519.1 565.61C1520.98 564.579 1521.9 562.655 1521.16 561.314C1520.43 559.972 1518.31 559.721 1516.43 560.752C1514.55 561.781 1513.63 563.705 1514.36 565.047Z" fill="#FFC727"/>
<path d="M1592.87 557.565C1594.93 561.322 1600.67 562.138 1605.68 559.388C1610.68 556.638 1613.07 551.364 1611.01 547.607C1608.95 543.851 1603.22 543.034 1598.21 545.784C1593.2 548.534 1590.81 553.808 1592.87 557.565Z" fill="#FFC727"/>
<path d="M1588.26 540.712C1589.44 542.858 1592.35 543.524 1594.76 542.198C1597.18 540.872 1598.18 538.057 1597 535.911C1595.82 533.764 1592.91 533.099 1590.5 534.425C1588.08 535.751 1587.08 538.566 1588.26 540.712Z" fill="#FFC727"/>
</g>
<path d="M1428.18 554.685C1462.08 547.858 1501.32 537.451 1542.55 523.907C1584.96 510.003 1623.69 494.66 1655.57 479.691C1712.2 453.098 1747.12 427.624 1742.4 413.24C1737.78 399.086 1695.19 398.676 1635.37 410.197C1636.98 412.699 1638.52 415.265 1639.97 417.906C1640.51 418.899 1641.04 419.902 1641.56 420.905C1673.4 416.833 1694.5 418.688 1697.37 427.447C1700.28 436.335 1683.88 450.639 1655 466.515C1626.74 482.054 1586.53 499.117 1540.91 514.087C1495.2 529.081 1452.63 539.17 1420.62 543.359C1388.08 547.66 1366.45 545.867 1363.54 536.978C1360.69 528.259 1376.51 514.303 1404.4 498.757C1403.7 494.517 1403.23 490.227 1403.01 485.959C1346.7 512.479 1311.26 538.835 1315.95 553.178C1320.74 567.783 1365.26 567.37 1428.18 554.685Z" fill="#FFC727"/>
<g opacity="0.4">
<path d="M1428.18 554.685C1462.08 547.858 1501.32 537.451 1542.55 523.907C1584.96 510.003 1623.69 494.66 1655.57 479.691C1712.2 453.098 1747.12 427.624 1742.4 413.24C1737.78 399.086 1695.19 398.676 1635.37 410.197C1636.98 412.699 1638.52 415.265 1639.97 417.906C1640.51 418.899 1641.04 419.902 1641.56 420.905C1673.4 416.833 1694.5 418.688 1697.37 427.447C1700.28 436.335 1683.88 450.639 1655 466.515C1626.74 482.054 1586.53 499.117 1540.91 514.087C1495.2 529.081 1452.63 539.17 1420.62 543.359C1388.08 547.66 1366.45 545.867 1363.54 536.978C1360.69 528.259 1376.51 514.303 1404.4 498.757C1403.7 494.517 1403.23 490.227 1403.01 485.959C1346.7 512.479 1311.26 538.835 1315.95 553.178C1320.74 567.783 1365.26 567.37 1428.18 554.685Z" fill="white"/>
</g>
<path d="M1435.3 563.329C1469.56 556.124 1507.56 546.007 1547.09 533.249L1547.12 533.258C1586.43 520.588 1622.97 506.657 1654.82 492.58C1733.45 457.834 1783.68 422.122 1777.11 401.729C1770.59 381.536 1710.14 381.761 1627.29 399.003C1628.52 400.527 1629.71 402.093 1630.87 403.68C1700.43 390.344 1750.29 391.053 1755.92 408.554C1761.62 426.224 1720.74 456.418 1655.34 486.561C1623.67 501.126 1586.31 515.698 1545.66 528.814C1504.79 542 1465.7 552.066 1431.37 558.748C1360.99 572.399 1310.43 571.737 1304.77 554.126C1299.16 536.716 1338.9 507.073 1402.82 477.332C1402.84 475.355 1402.9 473.386 1403.03 471.405C1326.03 505.744 1277.08 540.828 1283.58 560.982C1290.15 581.324 1351.51 580.962 1435.3 563.329Z" fill="#FFC727"/>
<g opacity="0.6">
<path d="M1435.3 563.329C1469.56 556.124 1507.56 546.007 1547.09 533.249L1547.12 533.258C1586.43 520.588 1622.97 506.657 1654.82 492.58C1733.45 457.834 1783.68 422.122 1777.11 401.729C1770.59 381.536 1710.14 381.761 1627.29 399.003C1628.52 400.527 1629.71 402.093 1630.87 403.68C1700.43 390.344 1750.29 391.053 1755.92 408.554C1761.62 426.224 1720.74 456.418 1655.34 486.561C1623.67 501.126 1586.31 515.698 1545.66 528.814C1504.79 542 1465.7 552.066 1431.37 558.748C1360.99 572.399 1310.43 571.737 1304.77 554.126C1299.16 536.716 1338.9 507.073 1402.82 477.332C1402.84 475.355 1402.9 473.386 1403.03 471.405C1326.03 505.744 1277.08 540.828 1283.58 560.982C1290.15 581.324 1351.51 580.962 1435.3 563.329Z" fill="white"/>
</g>
</svg>
