<svg width="200" height="200" viewBox="0 0 200 200" fill="none" xmlns="http://www.w3.org/2000/svg">
<path d="M30.8193 87.2833C25.1276 80.9529 20.3902 73.8257 16.7568 66.1271C10.8193 53.4708 10.7568 46.4396 12.0693 45.9396C13.3818 45.4396 32.4443 46.2833 41.1318 46.3458C49.8193 46.4083 53.6318 46.3458 53.6318 45.8458C53.6318 45.3458 52.3506 31.4708 51.2568 23.9708C50.1631 16.4708 49.1006 11.4708 49.7256 11.2833C58.8441 11.9509 67.7991 14.0604 76.2568 17.5333C91.8818 23.2521 95.0068 28.8146 95.0068 28.8146C103.821 22.0532 113.541 16.5622 123.882 12.5021C139.038 7.18957 145.007 7.93957 145.538 8.84582C146.069 9.75207 138.413 44.4396 139.726 44.8146C146.724 44.7339 153.668 43.5853 160.319 41.4083C168.851 38.6271 182.194 32.0333 183.601 32.0333C185.007 32.0333 186.163 43.0333 180.288 56.5646C174.413 70.0958 173.007 71.9396 173.538 72.1896C177.868 71.095 182.11 69.6743 186.226 67.9396C190.632 66.0958 192.944 65.8146 193.476 67.3771C194.867 78.9463 192.013 90.6274 185.444 100.252C175.413 113.565 171.007 114.252 170.632 114.783C170.257 115.315 170.632 118.127 180.288 120.127C189.944 122.127 194.819 121.971 194.694 124.065C193.631 128.827 191.616 133.325 188.769 137.288C185.923 141.251 182.305 144.598 178.132 147.127C165.351 154.752 164.569 154.752 164.851 155.783C165.132 156.815 165.288 177.658 164.851 179.252C164.413 180.846 160.069 183.596 153.194 182.377C146.961 181.213 140.916 179.205 135.226 176.408C133.864 175.495 132.598 174.448 131.444 173.283C131.444 173.283 119.944 179.346 117.226 180.408C115.605 181.045 113.917 181.496 112.194 181.752C112.194 181.752 112.194 190.565 111.851 191.127C111.491 191.459 111.052 191.693 110.576 191.808C110.101 191.923 109.603 191.914 109.132 191.783C107.507 191.518 105.85 191.518 104.226 191.783C103.199 192.036 102.127 192.036 101.101 191.783C99.4578 191.643 97.8059 191.643 96.1631 191.783C94.7256 191.783 91.2256 191.783 90.9756 190.908C90.7256 190.033 90.2568 182.471 90.2568 182.471C85.3332 182.107 80.5211 180.824 76.0693 178.69C73.3073 177.2 70.8314 175.232 68.7568 172.877C64.611 176.954 59.3461 179.706 53.6318 180.783C45.3506 181.752 40.9131 180.783 41.1318 180.096C41.3506 179.408 47.7256 158.783 46.1631 158.908C44.6006 159.033 17.5068 160.19 15.2881 160.19C13.0693 160.19 10.6006 157.658 11.5068 155.69C12.4131 153.721 24.0068 134.565 28.4131 130.127C32.8193 125.69 35.2568 122.94 35.2568 122.94C29.7148 120.61 23.8962 119.003 17.9443 118.158C9.38183 117.19 4.94433 114.346 5.44433 113.315C9.13126 107.096 13.7232 101.462 19.0693 96.5958C25.2568 91.5021 30.8193 87.2833 30.8193 87.2833Z" fill="#1D1D1B"/>
<path d="M18.3158 51.0642C19.2533 50.1267 60.5033 51.2517 60.6283 50.4705C60.7533 49.6892 54.7533 15.6267 55.9408 15.6267C65.6994 18.4856 75.1272 22.372 84.0658 27.2205C92.2845 32.4705 92.6908 34.408 94.9095 34.283C97.1283 34.158 107.41 24.3142 121.253 19.033C135.097 13.7517 139.753 13.408 139.753 13.9392C139.753 14.4705 135.253 36.783 134.378 40.9392C133.503 45.0955 133.003 49.5017 133.91 49.7517C142.621 50.0014 151.321 48.9481 159.722 46.6267C172.003 43.158 180.785 38.3142 180.941 39.2205C178.007 48.996 174.211 58.4916 169.597 67.5955C165.878 73.3142 164.378 78.2517 165.16 78.658C165.941 79.0642 170.347 77.6892 178.753 75.158C187.16 72.6267 188.128 72.2205 188.128 72.6267C188.287 81.095 185.891 89.4147 181.253 96.5017C176.231 103.283 170.396 109.423 163.878 114.783C164.318 116.489 165.099 118.088 166.173 119.484C167.247 120.88 168.592 122.045 170.128 122.908C173.785 124.564 187.941 126.658 187.816 127.439C184.474 135.329 178.647 141.913 171.222 146.189C160.253 151.845 158.941 152.439 158.722 153.439C158.503 154.439 159.285 176.127 158.378 176.252C153.088 175.83 147.853 174.877 142.753 173.408C138.347 171.877 136.503 170.47 136.503 170.095C140.027 165.785 142.998 161.05 145.347 156.002C146.594 153 147.444 149.848 147.878 146.627C147.878 146.627 162.16 147.314 163.503 137.252C164.847 127.189 157.597 125.345 155.535 125.002C154.17 124.692 152.777 124.525 151.378 124.502C151.378 124.502 155.003 92.3142 144.097 74.5017C133.191 56.6892 121.566 47.283 97.972 48.2517C74.3783 49.2205 61.7533 61.658 55.972 85.7517C50.1908 109.845 51.722 123.689 51.722 123.689C51.722 123.689 40.1908 124.158 40.5345 138.439C40.8783 152.72 55.9408 149.845 55.9408 149.845C55.8538 154.169 57.05 158.421 59.3783 162.064C63.1908 167.877 64.9095 170.064 64.9095 170.064C64.9095 170.064 49.6595 175.877 49.5345 175.002C49.4095 174.127 53.4408 160.814 52.9095 159.377C52.3783 157.939 49.7845 155.127 48.847 155.127C47.9095 155.127 18.5033 156.408 18.222 155.127C17.9408 153.845 24.7533 143.377 31.5658 134.783C38.3783 126.189 41.722 122.877 41.597 121.72C41.472 120.564 36.8783 115.127 26.847 113.658C16.8158 112.189 12.847 112.345 13.097 111.97C17.9864 105.67 23.5976 99.9643 29.8158 94.9705C32.9054 93.3 35.593 90.975 37.6908 88.158C32.3696 82.2092 27.7071 75.7027 23.7845 68.7517C18.2533 58.3455 17.9408 51.4705 18.3158 51.0642Z" fill="#85BFE9"/>
<path d="M64.1562 37.5C63.0393 32.8415 62.1735 28.1264 61.5625 23.375C65.5111 24.4531 69.3506 25.8968 73.0313 27.6875C73.0313 28.2187 73.0312 30.4375 72.6562 30.4375C70.4399 29.827 68.1848 29.3676 65.9062 29.0625C65.9062 29.4375 66.9687 35.3125 66.8437 35.5312C66.7187 35.75 64.4062 37.8437 64.1562 37.5Z" fill="#1D1D1B"/>
<path d="M112.5 29.6887C115.603 27.043 119.026 24.7964 122.687 23.0012C126.437 21.6575 125.812 21.0325 126.437 21.6575C127.062 22.2825 127.906 24.3762 127.5 24.7825C124.267 25.885 121.131 27.2543 118.125 28.8762C115.156 30.845 115 32.0012 114.281 31.7512C113.562 31.5012 112.875 30.22 112.5 29.6887Z" fill="#1D1D1B"/>
<path d="M51.5 129.438C52.6978 134.411 53.4302 139.485 53.6875 144.594C53.3125 144.594 46.3125 143.75 46.25 138.688C46.331 136.84 46.8492 135.039 47.7618 133.431C48.6745 131.823 49.9556 130.454 51.5 129.438Z" fill="#E6E4DA"/>
<path d="M151.531 129.562C151.938 129.124 158.938 129.562 157.781 135.593C156.625 141.624 149.063 143.749 148.906 142.937C149.461 140.477 150.139 138.047 150.937 135.655C151.812 131.999 150.75 130.343 151.531 129.562Z" fill="#E6E4DA"/>
<path d="M97.5012 53.8125C110.001 53.8125 125.126 54.5 136.97 75.1562C148.814 95.8125 147.501 112.188 144.282 130.656C141.064 149.125 135.939 160.156 132.751 163.688C131.528 165.146 130.191 166.504 128.751 167.75C126.352 165.845 123.778 164.171 121.064 162.75C120.407 163 119.501 163.938 119.782 164.438C120.064 164.938 126.032 169.188 125.782 169.594C125.532 170 122.157 172.344 121.782 171.938C119.325 169.822 116.748 167.85 114.064 166.031C113.564 166.031 112.001 167.219 112.282 167.75C112.564 168.281 119.689 172.875 118.939 173.406C118.189 173.938 114.032 175.781 113.501 175.375C112.97 174.969 107.47 169.344 106.97 169.344C106.47 169.344 105.032 170.125 105.407 170.781C105.782 171.438 109.876 176.312 109.876 176.312C101.42 177.331 92.867 177.226 84.4387 176C72.8762 173.875 64.7199 161.125 61.0012 147.531C57.2824 133.937 57.2824 105 61.3137 89C65.3449 73 72.4387 54 97.5012 53.8125Z" fill="#E6E4DA"/>
<path d="M94.4747 182.4C94.8497 182.025 98.3809 182.65 101.881 182.4C105.381 182.15 107.068 182.213 107.068 182.588C107.068 182.963 107.506 188.306 107.068 188.431C105.519 188.915 103.87 188.98 102.287 188.619C100.844 187.866 99.224 187.521 97.5997 187.619C96.3184 187.869 95.5372 188.806 95.1309 188.275C94.6224 186.36 94.4012 184.38 94.4747 182.4Z" fill="#E6E4DA"/>
<path d="M71.6929 72.845C72.7241 72.47 81.0679 67.4388 101.099 67.5325C121.13 67.6263 132.537 73.0013 132.818 74.5638C133.099 76.1263 132.818 82.22 131.724 82.22C130.63 82.22 124.412 77.8763 101.443 78.1263C78.4741 78.3763 71.8804 83.845 70.5991 82.97C69.3179 82.095 67.9429 74.1575 71.6929 72.845Z" fill="#1D1D1B"/>
<path d="M72.9995 75.0005C73.7807 73.3755 83.2182 69.7193 102.156 70.5943C121.093 71.4693 129.968 74.6568 129.968 75.7193C129.968 76.7818 130.624 78.438 129.968 78.438C120.654 75.7515 110.966 74.5907 101.281 75.0005C91.9289 75.3629 82.6397 76.6929 73.562 78.9693C72.4995 78.6568 72.7495 75.4068 72.9995 75.0005Z" fill="#85BFE9"/>
<path d="M109.817 87.502C118.536 83.9395 134.817 86.5333 134.224 104.315C133.63 122.096 111.942 124.596 104.599 114.658C97.2548 104.721 100.755 91.1583 109.817 87.502Z" fill="#1D1D1B"/>
<path d="M111.193 90.2792C118.318 87.3417 131.63 89.4667 131.224 104.06C130.818 118.654 112.911 120.717 106.88 112.498C100.849 104.279 103.755 93.3104 111.193 90.2792Z" fill="white"/>
<path d="M74.1888 87.0283C82.2201 83.747 97.1576 86.122 96.6888 102.497C96.2201 118.872 76.1576 121.247 69.3763 112.06C62.5951 102.872 65.8451 90.4345 74.1888 87.0283Z" fill="#1D1D1B"/>
<path d="M75.469 89.619C82.0315 86.9315 94.219 88.869 93.9065 102.338C93.594 115.807 77.0627 117.682 71.5002 110.182C65.9377 102.682 68.7502 92.4315 75.469 89.619Z" fill="white"/>
<path d="M79.7132 99.5343C80.2706 99.2696 80.8902 99.1643 81.5037 99.2299C82.1172 99.2956 82.7006 99.5298 83.1892 99.9065C83.6779 100.283 84.0528 100.788 84.2724 101.364C84.4921 101.941 84.5479 102.567 84.4338 103.173C84.3197 103.78 84.04 104.343 83.6257 104.8C83.2115 105.257 82.6788 105.591 82.0866 105.764C81.4945 105.937 80.8659 105.943 80.2705 105.781C79.6751 105.619 79.1362 105.296 78.7132 104.847C78.3817 104.45 78.1422 103.985 78.0117 103.485C77.8813 102.985 77.8632 102.462 77.9588 101.954C78.0544 101.447 78.2613 100.966 78.5647 100.548C78.868 100.129 79.2603 99.7831 79.7132 99.5343Z" fill="#1D1D1B"/>
<path d="M116.461 100.907C117.02 100.646 117.64 100.545 118.253 100.615C118.865 100.685 119.447 100.923 119.933 101.302C120.418 101.682 120.79 102.188 121.006 102.766C121.222 103.343 121.274 103.969 121.157 104.575C121.039 105.18 120.757 105.741 120.34 106.196C119.924 106.65 119.39 106.981 118.797 107.151C118.205 107.322 117.576 107.325 116.982 107.16C116.388 106.996 115.851 106.67 115.43 106.219C115.1 105.821 114.862 105.354 114.734 104.853C114.606 104.351 114.591 103.827 114.689 103.319C114.788 102.811 114.998 102.331 115.304 101.914C115.611 101.497 116.006 101.153 116.461 100.907Z" fill="#1D1D1B"/>
<path d="M68.4978 117.938C71.1286 120.222 74.4051 121.631 77.8728 121.969C81.1131 122.204 84.3695 121.876 87.4978 121C88.1228 121.156 88.1541 123.031 88.1228 123.531C84.4102 125.08 80.3243 125.504 76.3728 124.75C72.8326 124.34 69.5318 122.756 66.9979 120.25C66.7166 119.719 68.1228 117.938 68.4978 117.938Z" fill="#1D1D1B"/>
<path d="M114.75 123.688C118.075 124.744 121.645 124.744 124.969 123.688C128.025 122.675 130.873 121.119 133.375 119.094C134.031 119.094 134.781 120.719 134.938 121.187C132.116 124.065 128.506 126.044 124.563 126.875C121.173 127.806 117.572 127.597 114.313 126.281C113.782 126.031 114.375 123.813 114.75 123.688Z" fill="#1D1D1B"/>
<path d="M93.0611 124.341C93.0611 123.935 95.3424 123.404 95.4986 124.029C95.6549 124.654 95.0924 143.966 100.405 143.841C105.717 143.716 103.967 123.966 104.467 123.685C105.283 123.532 106.12 123.532 106.936 123.685C106.936 123.685 110.061 147.404 100.686 147.279C91.3111 147.154 93.0924 124.591 93.0611 124.341Z" fill="#1D1D1B"/>
<path d="M69.2204 154.068C69.1202 152.235 69.3207 150.399 69.8141 148.631C70.5954 146.912 72.9391 144.974 73.4391 145.099C73.9391 145.224 75.0017 146.506 74.5954 147.037C74.1892 147.568 71.9079 148.849 71.7829 150.412C71.6579 151.974 71.7829 154.693 71.4392 154.849C70.6341 154.838 69.8549 154.564 69.2204 154.068Z" fill="#1D1D1B"/>
<path d="M122.094 145.352C122.094 145.352 123.75 143.383 124.281 143.383C125.336 143.804 126.294 144.433 127.1 145.233C127.905 146.033 128.541 146.987 128.969 148.039C130.156 151.164 130.187 154.102 129.281 154.289C128.375 154.477 126.813 154.695 126.813 154.289C126.813 153.883 128.094 150.414 126.813 148.32C125.535 146.925 123.905 145.899 122.094 145.352Z" fill="#1D1D1B"/>
<path d="M76.192 151.813C76.8482 152 83.1295 156.281 97.7857 155.781C106.089 155.332 114.286 153.701 122.129 150.938C122.5 151.751 122.681 152.638 122.661 153.531C122.661 154.031 112.192 159.313 97.2857 159.031C82.3795 158.75 75.5982 155.188 75.4107 154.656C75.2232 154.125 75.817 151.688 76.192 151.813Z" fill="#1D1D1B"/>
</svg>
