<svg width="1632" height="517" viewBox="0 0 1632 517" fill="none" xmlns="http://www.w3.org/2000/svg">
<path d="M1098.48 74.5724L1099.09 69.523L1092.58 67.9117C1092.58 65.9429 1092.32 64.0233 1091.86 62.1774L1097.87 58.686L1095.87 54.0091L1089.26 55.9191C1088.29 54.3038 1087.14 52.8084 1085.82 51.4687L1089.41 45.2323L1085.34 42.1802L1080.36 47.3525C1078.8 46.5025 1077.13 45.8326 1075.36 45.3482L1075.35 37.813L1070.3 37.2031L1068.49 44.5174C1066.75 44.5651 1065.05 44.7998 1063.4 45.2159L1059.46 38.4188L1054.78 40.4148L1056.95 47.9268C1055.54 48.7877 1054.22 49.7796 1053.02 50.9147L1046.01 46.8858L1042.95 50.9529L1048.69 56.4785C1047.91 57.8729 1047.28 59.3627 1046.79 60.9263L1038.59 60.9454L1037.98 65.9948L1045.72 67.9103C1045.72 69.5625 1045.89 71.1806 1046.22 72.7496L1039.19 76.8304L1041.19 81.5073L1048.7 79.3394C1049.52 80.8033 1050.49 82.1718 1051.6 83.427L1047.66 90.2841L1051.73 93.3362L1056.94 87.9184C1058.42 88.8257 1060.01 89.5938 1061.7 90.1586L1061.72 97.7034L1066.77 98.3133L1068.49 91.3497C1070.37 91.4043 1072.2 91.2241 1073.98 90.8503L1077.6 97.099L1082.28 95.103L1080.37 88.4859C1082.05 87.5677 1083.61 86.4544 1085.01 85.1624L1091.06 88.6333L1094.11 84.5662L1089.28 79.9179C1090.26 78.2697 1091.04 76.4838 1091.6 74.5888L1098.48 74.5724ZM1067.53 81.2918C1060.15 80.4008 1054.89 73.6938 1055.78 66.3113C1056.67 58.9289 1063.38 53.668 1070.76 54.5589C1078.15 55.4498 1083.41 62.1569 1082.52 69.5393C1081.62 76.9218 1074.92 82.184 1067.53 81.2918Z" fill="#F96767"/>
<path d="M1139.53 96.146V92.54L1134.81 91.9588C1134.65 90.5726 1134.3 89.2424 1133.82 87.9818L1137.76 85.013L1135.95 81.89L1131.46 83.7973C1130.64 82.7427 1129.7 81.7863 1128.66 80.9554L1130.65 76.2593L1127.53 74.4557L1124.46 78.5201C1123.29 78.0535 1122.06 77.7247 1120.77 77.5336L1120.12 72.2305H1116.52L1115.86 77.5336C1114.64 77.7151 1113.47 78.0248 1112.34 78.4573L1108.99 74.0068L1105.87 75.8105L1108.03 80.9145C1107.11 81.6403 1106.27 82.4521 1105.52 83.3526L1100.24 81.1123L1098.43 84.2353L1102.95 87.6366C1102.51 88.6844 1102.19 89.7881 1101.98 90.9301L1096.21 91.6409V95.2469L1101.82 95.9372C1101.96 97.101 1102.22 98.2252 1102.59 99.3017L1097.99 102.773L1099.79 105.896L1104.89 103.73C1105.59 104.692 1106.39 105.572 1107.28 106.362L1105.09 111.525L1108.21 113.328L1111.42 109.07C1112.55 109.583 1113.73 109.989 1114.97 110.242L1115.62 115.554H1119.23L1119.85 110.504C1121.17 110.383 1122.45 110.1 1123.67 109.686L1126.75 113.777L1129.88 111.974L1127.97 107.477C1129.07 106.688 1130.08 105.771 1130.96 104.741L1135.5 106.67L1137.31 103.548L1133.51 100.686C1134.06 99.4436 1134.46 98.1188 1134.69 96.7367L1139.53 96.146ZM1118.32 103.508C1113.05 103.508 1108.77 99.2335 1108.77 93.9603C1108.77 88.6871 1113.05 84.4127 1118.32 84.4127C1123.59 84.4127 1127.87 88.6871 1127.87 93.9603C1127.87 99.2321 1123.59 103.508 1118.32 103.508Z" fill="#C9CCD6"/>
<path d="M1068.53 49.9336C1058.69 49.9336 1050.71 57.9136 1050.71 67.7573C1050.71 77.6011 1058.69 85.5811 1068.53 85.5811C1078.38 85.5811 1086.36 77.6011 1086.36 67.7573C1086.36 57.9136 1078.38 49.9336 1068.53 49.9336ZM1067.53 81.2902C1060.15 80.3993 1054.89 73.6922 1055.78 66.3098C1056.67 58.9273 1063.38 53.6664 1070.76 54.5574C1078.14 55.4483 1083.41 62.1554 1082.51 69.5378C1081.62 76.9202 1074.92 82.1825 1067.53 81.2902Z" fill="#B25E67"/>
<path d="M1080.29 55.6264C1077.12 52.5539 1072.94 50.8622 1068.53 50.8622C1064.91 50.8622 1061.46 51.9905 1058.55 54.1243L1058.18 53.6154C1061.2 51.4011 1064.78 50.2305 1068.53 50.2305C1073.11 50.2305 1077.44 51.9864 1080.73 55.1735L1080.29 55.6264Z" fill="#4F4955"/>
<path d="M1053.57 59.9159L1053.01 59.6225C1053.67 58.3605 1054.49 57.179 1055.44 56.1094L1055.91 56.5282C1055 57.561 1054.21 58.7003 1053.57 59.9159Z" fill="#4F4955"/>
<path d="M1068.53 85.2822C1058.87 85.2822 1051.01 77.4209 1051.01 67.76C1051.01 66.4775 1051.15 65.1937 1051.42 63.9453L1052.04 64.0804C1051.78 65.2851 1051.64 66.5239 1051.64 67.76C1051.64 77.073 1059.22 84.6505 1068.53 84.6505C1077.84 84.6505 1085.42 77.073 1085.42 67.76H1086.05C1086.05 77.4223 1078.19 85.2822 1068.53 85.2822Z" fill="#4F4955"/>
<path d="M1118.32 106.198C1111.57 106.198 1106.08 100.707 1106.08 93.9574C1106.08 90.7185 1107.33 87.6651 1109.61 85.3594L1110.06 85.8028C1107.9 87.9885 1106.71 90.8849 1106.71 93.9561C1106.71 100.358 1111.92 105.564 1118.32 105.564C1121.66 105.564 1124.85 104.122 1127.05 101.606L1127.52 102.022C1125.2 104.677 1121.84 106.198 1118.32 106.198Z" fill="#4F4955"/>
<path d="M1130.56 93.9622H1129.93C1129.93 87.562 1124.72 82.3544 1118.32 82.3544V81.7227C1125.07 81.7227 1130.56 87.2128 1130.56 93.9622Z" fill="#4F4955"/>
</svg>
