<svg width="1632" height="517" viewBox="0 0 1632 517" fill="none" xmlns="http://www.w3.org/2000/svg">
<path d="M1167.8 299.709H1132.26C1130 299.709 1127.84 300.589 1126.23 302.161L1122 306.283V273.698C1122 270.416 1124.66 267.754 1127.94 267.754H1167.8C1171.08 267.754 1173.75 270.416 1173.75 273.698V293.765C1173.75 297.049 1171.08 299.709 1167.8 299.709Z" fill="#9B9938"/>
<path d="M1145.53 319.28H1181.07C1183.32 319.28 1185.49 320.16 1187.1 321.731L1191.33 325.853V293.269C1191.33 289.986 1188.67 287.324 1185.38 287.324H1145.53C1142.24 287.324 1139.58 289.986 1139.58 293.269V313.335C1139.58 316.618 1142.24 319.28 1145.53 319.28Z" fill="#BFB738"/>
<path d="M1150.07 303.594C1150.07 304.966 1148.96 306.078 1147.59 306.078C1146.21 306.078 1145.1 304.966 1145.1 303.594C1145.1 302.221 1146.21 301.109 1147.59 301.109C1148.96 301.111 1150.07 302.223 1150.07 303.594Z" fill="white"/>
<path d="M1161.98 303.594C1161.98 304.966 1160.87 306.078 1159.5 306.078C1158.12 306.078 1157.01 304.966 1157.01 303.594C1157.01 302.221 1158.12 301.109 1159.5 301.109C1160.87 301.111 1161.98 302.223 1161.98 303.594Z" fill="white"/>
<path d="M1173.89 303.594C1173.89 304.966 1172.78 306.078 1171.41 306.078C1170.04 306.078 1168.92 304.966 1168.92 303.594C1168.92 302.221 1170.04 301.109 1171.41 301.109C1172.78 301.111 1173.89 302.223 1173.89 303.594Z" fill="white"/>
<path d="M1185.81 303.594C1185.81 304.966 1184.69 306.078 1183.32 306.078C1181.95 306.078 1180.84 304.966 1180.84 303.594C1180.84 302.221 1181.95 301.109 1183.32 301.109C1184.69 301.111 1185.81 302.223 1185.81 303.594Z" fill="white"/>
<path d="M1132.2 280.578C1132.2 281.951 1131.09 283.063 1129.72 283.063C1128.35 283.063 1127.23 281.951 1127.23 280.578C1127.23 279.206 1128.35 278.094 1129.72 278.094C1131.09 278.094 1132.2 279.207 1132.2 280.578Z" fill="white"/>
<path d="M1144.11 280.578C1144.11 281.951 1143 283.063 1141.63 283.063C1140.26 283.063 1139.15 281.951 1139.15 280.578C1139.15 279.206 1140.26 278.094 1141.63 278.094C1143 278.094 1144.11 279.207 1144.11 280.578Z" fill="white"/>
<path d="M1156.03 280.578C1156.03 281.951 1154.91 283.063 1153.54 283.063C1152.17 283.063 1151.06 281.951 1151.06 280.578C1151.06 279.206 1152.17 278.094 1153.54 278.094C1154.91 278.094 1156.03 279.207 1156.03 280.578Z" fill="white"/>
<path d="M1167.94 280.578C1167.94 281.951 1166.83 283.063 1165.45 283.063C1164.08 283.063 1162.97 281.951 1162.97 280.578C1162.97 279.206 1164.08 278.094 1165.45 278.094C1166.83 278.094 1167.94 279.207 1167.94 280.578Z" fill="white"/>
<path d="M1173.89 316.055H1136.29V316.449H1173.89V316.055Z" fill="#584F55"/>
<path d="M1132.2 316.055H1126.65V316.449H1132.2V316.055Z" fill="#584F55"/>
<path d="M1178.48 272.027H1153.54V272.422H1178.48V272.027Z" fill="#584F55"/>
<path d="M1186.46 272.027H1181.91V272.422H1186.46V272.027Z" fill="#584F55"/>
</svg>
